<?xml version="1.0" encoding="utf-8" standalone="no"?>
<!DOCTYPE svg PUBLIC "-//W3C//DTD SVG 1.1//EN"
  "http://www.w3.org/Graphics/SVG/1.1/DTD/svg11.dtd">
<!-- Created with matplotlib (https://matplotlib.org/) -->
<svg height="345.6pt" version="1.1" viewBox="0 0 460.8 345.6" width="460.8pt" xmlns="http://www.w3.org/2000/svg" xmlns:xlink="http://www.w3.org/1999/xlink">
 <defs>
  <style type="text/css">
*{stroke-linecap:butt;stroke-linejoin:round;}
  </style>
 </defs>
 <g id="figure_1">
  <g id="patch_1">
   <path d="M 0 345.6 
L 460.8 345.6 
L 460.8 0 
L 0 0 
z
" style="fill:#ffffff;"/>
  </g>
  <g id="axes_1">
   <g id="patch_2">
    <path d="M 57.6 307.584 
L 414.72 307.584 
L 414.72 41.472 
L 57.6 41.472 
z
" style="fill:#ffffff;"/>
   </g>
   <g id="matplotlib.axis_1">
    <g id="xtick_1">
     <g id="line2d_1">
      <defs>
       <path d="M 0 0 
L 0 3.5 
" id="m4d60f34d7d" style="stroke:#000000;stroke-width:0.8;"/>
      </defs>
      <g>
       <use style="stroke:#000000;stroke-width:0.8;" x="73.832727" xlink:href="#m4d60f34d7d" y="307.584"/>
      </g>
     </g>
     <g id="text_1">
      <!-- 0 -->
      <defs>
       <path d="M 31.78125 66.40625 
Q 24.171875 66.40625 20.328125 58.90625 
Q 16.5 51.421875 16.5 36.375 
Q 16.5 21.390625 20.328125 13.890625 
Q 24.171875 6.390625 31.78125 6.390625 
Q 39.453125 6.390625 43.28125 13.890625 
Q 47.125 21.390625 47.125 36.375 
Q 47.125 51.421875 43.28125 58.90625 
Q 39.453125 66.40625 31.78125 66.40625 
z
M 31.78125 74.21875 
Q 44.046875 74.21875 50.515625 64.515625 
Q 56.984375 54.828125 56.984375 36.375 
Q 56.984375 17.96875 50.515625 8.265625 
Q 44.046875 -1.421875 31.78125 -1.421875 
Q 19.53125 -1.421875 13.0625 8.265625 
Q 6.59375 17.96875 6.59375 36.375 
Q 6.59375 54.828125 13.0625 64.515625 
Q 19.53125 74.21875 31.78125 74.21875 
z
" id="DejaVuSans-48"/>
      </defs>
      <g transform="translate(70.651477 322.182437)scale(0.1 -0.1)">
       <use xlink:href="#DejaVuSans-48"/>
      </g>
     </g>
    </g>
    <g id="xtick_2">
     <g id="line2d_2">
      <g>
       <use style="stroke:#000000;stroke-width:0.8;" x="138.828632" xlink:href="#m4d60f34d7d" y="307.584"/>
      </g>
     </g>
     <g id="text_2">
      <!-- 200 -->
      <defs>
       <path d="M 19.1875 8.296875 
L 53.609375 8.296875 
L 53.609375 0 
L 7.328125 0 
L 7.328125 8.296875 
Q 12.9375 14.109375 22.625 23.890625 
Q 32.328125 33.6875 34.8125 36.53125 
Q 39.546875 41.84375 41.421875 45.53125 
Q 43.3125 49.21875 43.3125 52.78125 
Q 43.3125 58.59375 39.234375 62.25 
Q 35.15625 65.921875 28.609375 65.921875 
Q 23.96875 65.921875 18.8125 64.3125 
Q 13.671875 62.703125 7.8125 59.421875 
L 7.8125 69.390625 
Q 13.765625 71.78125 18.9375 73 
Q 24.125 74.21875 28.421875 74.21875 
Q 39.75 74.21875 46.484375 68.546875 
Q 53.21875 62.890625 53.21875 53.421875 
Q 53.21875 48.921875 51.53125 44.890625 
Q 49.859375 40.875 45.40625 35.40625 
Q 44.1875 33.984375 37.640625 27.21875 
Q 31.109375 20.453125 19.1875 8.296875 
z
" id="DejaVuSans-50"/>
      </defs>
      <g transform="translate(129.284882 322.182437)scale(0.1 -0.1)">
       <use xlink:href="#DejaVuSans-50"/>
       <use x="63.623047" xlink:href="#DejaVuSans-48"/>
       <use x="127.246094" xlink:href="#DejaVuSans-48"/>
      </g>
     </g>
    </g>
    <g id="xtick_3">
     <g id="line2d_3">
      <g>
       <use style="stroke:#000000;stroke-width:0.8;" x="203.824537" xlink:href="#m4d60f34d7d" y="307.584"/>
      </g>
     </g>
     <g id="text_3">
      <!-- 400 -->
      <defs>
       <path d="M 37.796875 64.3125 
L 12.890625 25.390625 
L 37.796875 25.390625 
z
M 35.203125 72.90625 
L 47.609375 72.90625 
L 47.609375 25.390625 
L 58.015625 25.390625 
L 58.015625 17.1875 
L 47.609375 17.1875 
L 47.609375 0 
L 37.796875 0 
L 37.796875 17.1875 
L 4.890625 17.1875 
L 4.890625 26.703125 
z
" id="DejaVuSans-52"/>
      </defs>
      <g transform="translate(194.280787 322.182437)scale(0.1 -0.1)">
       <use xlink:href="#DejaVuSans-52"/>
       <use x="63.623047" xlink:href="#DejaVuSans-48"/>
       <use x="127.246094" xlink:href="#DejaVuSans-48"/>
      </g>
     </g>
    </g>
    <g id="xtick_4">
     <g id="line2d_4">
      <g>
       <use style="stroke:#000000;stroke-width:0.8;" x="268.820442" xlink:href="#m4d60f34d7d" y="307.584"/>
      </g>
     </g>
     <g id="text_4">
      <!-- 600 -->
      <defs>
       <path d="M 33.015625 40.375 
Q 26.375 40.375 22.484375 35.828125 
Q 18.609375 31.296875 18.609375 23.390625 
Q 18.609375 15.53125 22.484375 10.953125 
Q 26.375 6.390625 33.015625 6.390625 
Q 39.65625 6.390625 43.53125 10.953125 
Q 47.40625 15.53125 47.40625 23.390625 
Q 47.40625 31.296875 43.53125 35.828125 
Q 39.65625 40.375 33.015625 40.375 
z
M 52.59375 71.296875 
L 52.59375 62.3125 
Q 48.875 64.0625 45.09375 64.984375 
Q 41.3125 65.921875 37.59375 65.921875 
Q 27.828125 65.921875 22.671875 59.328125 
Q 17.53125 52.734375 16.796875 39.40625 
Q 19.671875 43.65625 24.015625 45.921875 
Q 28.375 48.1875 33.59375 48.1875 
Q 44.578125 48.1875 50.953125 41.515625 
Q 57.328125 34.859375 57.328125 23.390625 
Q 57.328125 12.15625 50.6875 5.359375 
Q 44.046875 -1.421875 33.015625 -1.421875 
Q 20.359375 -1.421875 13.671875 8.265625 
Q 6.984375 17.96875 6.984375 36.375 
Q 6.984375 53.65625 15.1875 63.9375 
Q 23.390625 74.21875 37.203125 74.21875 
Q 40.921875 74.21875 44.703125 73.484375 
Q 48.484375 72.75 52.59375 71.296875 
z
" id="DejaVuSans-54"/>
      </defs>
      <g transform="translate(259.276692 322.182437)scale(0.1 -0.1)">
       <use xlink:href="#DejaVuSans-54"/>
       <use x="63.623047" xlink:href="#DejaVuSans-48"/>
       <use x="127.246094" xlink:href="#DejaVuSans-48"/>
      </g>
     </g>
    </g>
    <g id="xtick_5">
     <g id="line2d_5">
      <g>
       <use style="stroke:#000000;stroke-width:0.8;" x="333.816347" xlink:href="#m4d60f34d7d" y="307.584"/>
      </g>
     </g>
     <g id="text_5">
      <!-- 800 -->
      <defs>
       <path d="M 31.78125 34.625 
Q 24.75 34.625 20.71875 30.859375 
Q 16.703125 27.09375 16.703125 20.515625 
Q 16.703125 13.921875 20.71875 10.15625 
Q 24.75 6.390625 31.78125 6.390625 
Q 38.8125 6.390625 42.859375 10.171875 
Q 46.921875 13.96875 46.921875 20.515625 
Q 46.921875 27.09375 42.890625 30.859375 
Q 38.875 34.625 31.78125 34.625 
z
M 21.921875 38.8125 
Q 15.578125 40.375 12.03125 44.71875 
Q 8.5 49.078125 8.5 55.328125 
Q 8.5 64.0625 14.71875 69.140625 
Q 20.953125 74.21875 31.78125 74.21875 
Q 42.671875 74.21875 48.875 69.140625 
Q 55.078125 64.0625 55.078125 55.328125 
Q 55.078125 49.078125 51.53125 44.71875 
Q 48 40.375 41.703125 38.8125 
Q 48.828125 37.15625 52.796875 32.3125 
Q 56.78125 27.484375 56.78125 20.515625 
Q 56.78125 9.90625 50.3125 4.234375 
Q 43.84375 -1.421875 31.78125 -1.421875 
Q 19.734375 -1.421875 13.25 4.234375 
Q 6.78125 9.90625 6.78125 20.515625 
Q 6.78125 27.484375 10.78125 32.3125 
Q 14.796875 37.15625 21.921875 38.8125 
z
M 18.3125 54.390625 
Q 18.3125 48.734375 21.84375 45.5625 
Q 25.390625 42.390625 31.78125 42.390625 
Q 38.140625 42.390625 41.71875 45.5625 
Q 45.3125 48.734375 45.3125 54.390625 
Q 45.3125 60.0625 41.71875 63.234375 
Q 38.140625 66.40625 31.78125 66.40625 
Q 25.390625 66.40625 21.84375 63.234375 
Q 18.3125 60.0625 18.3125 54.390625 
z
" id="DejaVuSans-56"/>
      </defs>
      <g transform="translate(324.272597 322.182437)scale(0.1 -0.1)">
       <use xlink:href="#DejaVuSans-56"/>
       <use x="63.623047" xlink:href="#DejaVuSans-48"/>
       <use x="127.246094" xlink:href="#DejaVuSans-48"/>
      </g>
     </g>
    </g>
    <g id="xtick_6">
     <g id="line2d_6">
      <g>
       <use style="stroke:#000000;stroke-width:0.8;" x="398.812252" xlink:href="#m4d60f34d7d" y="307.584"/>
      </g>
     </g>
     <g id="text_6">
      <!-- 1000 -->
      <defs>
       <path d="M 12.40625 8.296875 
L 28.515625 8.296875 
L 28.515625 63.921875 
L 10.984375 60.40625 
L 10.984375 69.390625 
L 28.421875 72.90625 
L 38.28125 72.90625 
L 38.28125 8.296875 
L 54.390625 8.296875 
L 54.390625 0 
L 12.40625 0 
z
" id="DejaVuSans-49"/>
      </defs>
      <g transform="translate(386.087252 322.182437)scale(0.1 -0.1)">
       <use xlink:href="#DejaVuSans-49"/>
       <use x="63.623047" xlink:href="#DejaVuSans-48"/>
       <use x="127.246094" xlink:href="#DejaVuSans-48"/>
       <use x="190.869141" xlink:href="#DejaVuSans-48"/>
      </g>
     </g>
    </g>
    <g id="text_7">
     <!-- Frequency (Hz) -->
     <defs>
      <path d="M 9.8125 72.90625 
L 51.703125 72.90625 
L 51.703125 64.59375 
L 19.671875 64.59375 
L 19.671875 43.109375 
L 48.578125 43.109375 
L 48.578125 34.8125 
L 19.671875 34.8125 
L 19.671875 0 
L 9.8125 0 
z
" id="DejaVuSans-70"/>
      <path d="M 41.109375 46.296875 
Q 39.59375 47.171875 37.8125 47.578125 
Q 36.03125 48 33.890625 48 
Q 26.265625 48 22.1875 43.046875 
Q 18.109375 38.09375 18.109375 28.8125 
L 18.109375 0 
L 9.078125 0 
L 9.078125 54.6875 
L 18.109375 54.6875 
L 18.109375 46.1875 
Q 20.953125 51.171875 25.484375 53.578125 
Q 30.03125 56 36.53125 56 
Q 37.453125 56 38.578125 55.875 
Q 39.703125 55.765625 41.0625 55.515625 
z
" id="DejaVuSans-114"/>
      <path d="M 56.203125 29.59375 
L 56.203125 25.203125 
L 14.890625 25.203125 
Q 15.484375 15.921875 20.484375 11.0625 
Q 25.484375 6.203125 34.421875 6.203125 
Q 39.59375 6.203125 44.453125 7.46875 
Q 49.3125 8.734375 54.109375 11.28125 
L 54.109375 2.78125 
Q 49.265625 0.734375 44.1875 -0.34375 
Q 39.109375 -1.421875 33.890625 -1.421875 
Q 20.796875 -1.421875 13.15625 6.1875 
Q 5.515625 13.8125 5.515625 26.8125 
Q 5.515625 40.234375 12.765625 48.109375 
Q 20.015625 56 32.328125 56 
Q 43.359375 56 49.78125 48.890625 
Q 56.203125 41.796875 56.203125 29.59375 
z
M 47.21875 32.234375 
Q 47.125 39.59375 43.09375 43.984375 
Q 39.0625 48.390625 32.421875 48.390625 
Q 24.90625 48.390625 20.390625 44.140625 
Q 15.875 39.890625 15.1875 32.171875 
z
" id="DejaVuSans-101"/>
      <path d="M 14.796875 27.296875 
Q 14.796875 17.390625 18.875 11.75 
Q 22.953125 6.109375 30.078125 6.109375 
Q 37.203125 6.109375 41.296875 11.75 
Q 45.40625 17.390625 45.40625 27.296875 
Q 45.40625 37.203125 41.296875 42.84375 
Q 37.203125 48.484375 30.078125 48.484375 
Q 22.953125 48.484375 18.875 42.84375 
Q 14.796875 37.203125 14.796875 27.296875 
z
M 45.40625 8.203125 
Q 42.578125 3.328125 38.25 0.953125 
Q 33.9375 -1.421875 27.875 -1.421875 
Q 17.96875 -1.421875 11.734375 6.484375 
Q 5.515625 14.40625 5.515625 27.296875 
Q 5.515625 40.1875 11.734375 48.09375 
Q 17.96875 56 27.875 56 
Q 33.9375 56 38.25 53.625 
Q 42.578125 51.265625 45.40625 46.390625 
L 45.40625 54.6875 
L 54.390625 54.6875 
L 54.390625 -20.796875 
L 45.40625 -20.796875 
z
" id="DejaVuSans-113"/>
      <path d="M 8.5 21.578125 
L 8.5 54.6875 
L 17.484375 54.6875 
L 17.484375 21.921875 
Q 17.484375 14.15625 20.5 10.265625 
Q 23.53125 6.390625 29.59375 6.390625 
Q 36.859375 6.390625 41.078125 11.03125 
Q 45.3125 15.671875 45.3125 23.6875 
L 45.3125 54.6875 
L 54.296875 54.6875 
L 54.296875 0 
L 45.3125 0 
L 45.3125 8.40625 
Q 42.046875 3.421875 37.71875 1 
Q 33.40625 -1.421875 27.6875 -1.421875 
Q 18.265625 -1.421875 13.375 4.4375 
Q 8.5 10.296875 8.5 21.578125 
z
M 31.109375 56 
z
" id="DejaVuSans-117"/>
      <path d="M 54.890625 33.015625 
L 54.890625 0 
L 45.90625 0 
L 45.90625 32.71875 
Q 45.90625 40.484375 42.875 44.328125 
Q 39.84375 48.1875 33.796875 48.1875 
Q 26.515625 48.1875 22.3125 43.546875 
Q 18.109375 38.921875 18.109375 30.90625 
L 18.109375 0 
L 9.078125 0 
L 9.078125 54.6875 
L 18.109375 54.6875 
L 18.109375 46.1875 
Q 21.34375 51.125 25.703125 53.5625 
Q 30.078125 56 35.796875 56 
Q 45.21875 56 50.046875 50.171875 
Q 54.890625 44.34375 54.890625 33.015625 
z
" id="DejaVuSans-110"/>
      <path d="M 48.78125 52.59375 
L 48.78125 44.1875 
Q 44.96875 46.296875 41.140625 47.34375 
Q 37.3125 48.390625 33.40625 48.390625 
Q 24.65625 48.390625 19.8125 42.84375 
Q 14.984375 37.3125 14.984375 27.296875 
Q 14.984375 17.28125 19.8125 11.734375 
Q 24.65625 6.203125 33.40625 6.203125 
Q 37.3125 6.203125 41.140625 7.25 
Q 44.96875 8.296875 48.78125 10.40625 
L 48.78125 2.09375 
Q 45.015625 0.34375 40.984375 -0.53125 
Q 36.96875 -1.421875 32.421875 -1.421875 
Q 20.0625 -1.421875 12.78125 6.34375 
Q 5.515625 14.109375 5.515625 27.296875 
Q 5.515625 40.671875 12.859375 48.328125 
Q 20.21875 56 33.015625 56 
Q 37.15625 56 41.109375 55.140625 
Q 45.0625 54.296875 48.78125 52.59375 
z
" id="DejaVuSans-99"/>
      <path d="M 32.171875 -5.078125 
Q 28.375 -14.84375 24.75 -17.8125 
Q 21.140625 -20.796875 15.09375 -20.796875 
L 7.90625 -20.796875 
L 7.90625 -13.28125 
L 13.1875 -13.28125 
Q 16.890625 -13.28125 18.9375 -11.515625 
Q 21 -9.765625 23.484375 -3.21875 
L 25.09375 0.875 
L 2.984375 54.6875 
L 12.5 54.6875 
L 29.59375 11.921875 
L 46.6875 54.6875 
L 56.203125 54.6875 
z
" id="DejaVuSans-121"/>
      <path id="DejaVuSans-32"/>
      <path d="M 31 75.875 
Q 24.46875 64.65625 21.28125 53.65625 
Q 18.109375 42.671875 18.109375 31.390625 
Q 18.109375 20.125 21.3125 9.0625 
Q 24.515625 -2 31 -13.1875 
L 23.1875 -13.1875 
Q 15.875 -1.703125 12.234375 9.375 
Q 8.59375 20.453125 8.59375 31.390625 
Q 8.59375 42.28125 12.203125 53.3125 
Q 15.828125 64.359375 23.1875 75.875 
z
" id="DejaVuSans-40"/>
      <path d="M 9.8125 72.90625 
L 19.671875 72.90625 
L 19.671875 43.015625 
L 55.515625 43.015625 
L 55.515625 72.90625 
L 65.375 72.90625 
L 65.375 0 
L 55.515625 0 
L 55.515625 34.71875 
L 19.671875 34.71875 
L 19.671875 0 
L 9.8125 0 
z
" id="DejaVuSans-72"/>
      <path d="M 5.515625 54.6875 
L 48.1875 54.6875 
L 48.1875 46.484375 
L 14.40625 7.171875 
L 48.1875 7.171875 
L 48.1875 0 
L 4.296875 0 
L 4.296875 8.203125 
L 38.09375 47.515625 
L 5.515625 47.515625 
z
" id="DejaVuSans-122"/>
      <path d="M 8.015625 75.875 
L 15.828125 75.875 
Q 23.140625 64.359375 26.78125 53.3125 
Q 30.421875 42.28125 30.421875 31.390625 
Q 30.421875 20.453125 26.78125 9.375 
Q 23.140625 -1.703125 15.828125 -13.1875 
L 8.015625 -13.1875 
Q 14.5 -2 17.703125 9.0625 
Q 20.90625 20.125 20.90625 31.390625 
Q 20.90625 42.671875 17.703125 53.65625 
Q 14.5 64.65625 8.015625 75.875 
z
" id="DejaVuSans-41"/>
     </defs>
     <g transform="translate(198.455312 335.860562)scale(0.1 -0.1)">
      <use xlink:href="#DejaVuSans-70"/>
      <use x="50.269531" xlink:href="#DejaVuSans-114"/>
      <use x="89.132812" xlink:href="#DejaVuSans-101"/>
      <use x="150.65625" xlink:href="#DejaVuSans-113"/>
      <use x="214.132812" xlink:href="#DejaVuSans-117"/>
      <use x="277.511719" xlink:href="#DejaVuSans-101"/>
      <use x="339.035156" xlink:href="#DejaVuSans-110"/>
      <use x="402.414062" xlink:href="#DejaVuSans-99"/>
      <use x="457.394531" xlink:href="#DejaVuSans-121"/>
      <use x="516.574219" xlink:href="#DejaVuSans-32"/>
      <use x="548.361328" xlink:href="#DejaVuSans-40"/>
      <use x="587.375" xlink:href="#DejaVuSans-72"/>
      <use x="662.570312" xlink:href="#DejaVuSans-122"/>
      <use x="715.060547" xlink:href="#DejaVuSans-41"/>
     </g>
    </g>
   </g>
   <g id="matplotlib.axis_2">
    <g id="ytick_1">
     <g id="line2d_7">
      <defs>
       <path d="M 0 0 
L -3.5 0 
" id="mde35eba93f" style="stroke:#000000;stroke-width:0.8;"/>
      </defs>
      <g>
       <use style="stroke:#000000;stroke-width:0.8;" x="57.6" xlink:href="#mde35eba93f" y="295.994822"/>
      </g>
     </g>
     <g id="text_8">
      <!-- 0 -->
      <g transform="translate(44.2375 299.794041)scale(0.1 -0.1)">
       <use xlink:href="#DejaVuSans-48"/>
      </g>
     </g>
    </g>
    <g id="ytick_2">
     <g id="line2d_8">
      <g>
       <use style="stroke:#000000;stroke-width:0.8;" x="57.6" xlink:href="#mde35eba93f" y="247.773763"/>
      </g>
     </g>
     <g id="text_9">
      <!-- 20 -->
      <g transform="translate(37.875 251.572981)scale(0.1 -0.1)">
       <use xlink:href="#DejaVuSans-50"/>
       <use x="63.623047" xlink:href="#DejaVuSans-48"/>
      </g>
     </g>
    </g>
    <g id="ytick_3">
     <g id="line2d_9">
      <g>
       <use style="stroke:#000000;stroke-width:0.8;" x="57.6" xlink:href="#mde35eba93f" y="199.552703"/>
      </g>
     </g>
     <g id="text_10">
      <!-- 40 -->
      <g transform="translate(37.875 203.351922)scale(0.1 -0.1)">
       <use xlink:href="#DejaVuSans-52"/>
       <use x="63.623047" xlink:href="#DejaVuSans-48"/>
      </g>
     </g>
    </g>
    <g id="ytick_4">
     <g id="line2d_10">
      <g>
       <use style="stroke:#000000;stroke-width:0.8;" x="57.6" xlink:href="#mde35eba93f" y="151.331644"/>
      </g>
     </g>
     <g id="text_11">
      <!-- 60 -->
      <g transform="translate(37.875 155.130863)scale(0.1 -0.1)">
       <use xlink:href="#DejaVuSans-54"/>
       <use x="63.623047" xlink:href="#DejaVuSans-48"/>
      </g>
     </g>
    </g>
    <g id="ytick_5">
     <g id="line2d_11">
      <g>
       <use style="stroke:#000000;stroke-width:0.8;" x="57.6" xlink:href="#mde35eba93f" y="103.110585"/>
      </g>
     </g>
     <g id="text_12">
      <!-- 80 -->
      <g transform="translate(37.875 106.909804)scale(0.1 -0.1)">
       <use xlink:href="#DejaVuSans-56"/>
       <use x="63.623047" xlink:href="#DejaVuSans-48"/>
      </g>
     </g>
    </g>
    <g id="ytick_6">
     <g id="line2d_12">
      <g>
       <use style="stroke:#000000;stroke-width:0.8;" x="57.6" xlink:href="#mde35eba93f" y="54.889526"/>
      </g>
     </g>
     <g id="text_13">
      <!-- 100 -->
      <g transform="translate(31.5125 58.688745)scale(0.1 -0.1)">
       <use xlink:href="#DejaVuSans-49"/>
       <use x="63.623047" xlink:href="#DejaVuSans-48"/>
       <use x="127.246094" xlink:href="#DejaVuSans-48"/>
      </g>
     </g>
    </g>
    <g id="text_14">
     <!-- Amplitude -->
     <defs>
      <path d="M 34.1875 63.1875 
L 20.796875 26.90625 
L 47.609375 26.90625 
z
M 28.609375 72.90625 
L 39.796875 72.90625 
L 67.578125 0 
L 57.328125 0 
L 50.6875 18.703125 
L 17.828125 18.703125 
L 11.1875 0 
L 0.78125 0 
z
" id="DejaVuSans-65"/>
      <path d="M 52 44.1875 
Q 55.375 50.25 60.0625 53.125 
Q 64.75 56 71.09375 56 
Q 79.640625 56 84.28125 50.015625 
Q 88.921875 44.046875 88.921875 33.015625 
L 88.921875 0 
L 79.890625 0 
L 79.890625 32.71875 
Q 79.890625 40.578125 77.09375 44.375 
Q 74.3125 48.1875 68.609375 48.1875 
Q 61.625 48.1875 57.5625 43.546875 
Q 53.515625 38.921875 53.515625 30.90625 
L 53.515625 0 
L 44.484375 0 
L 44.484375 32.71875 
Q 44.484375 40.625 41.703125 44.40625 
Q 38.921875 48.1875 33.109375 48.1875 
Q 26.21875 48.1875 22.15625 43.53125 
Q 18.109375 38.875 18.109375 30.90625 
L 18.109375 0 
L 9.078125 0 
L 9.078125 54.6875 
L 18.109375 54.6875 
L 18.109375 46.1875 
Q 21.1875 51.21875 25.484375 53.609375 
Q 29.78125 56 35.6875 56 
Q 41.65625 56 45.828125 52.96875 
Q 50 49.953125 52 44.1875 
z
" id="DejaVuSans-109"/>
      <path d="M 18.109375 8.203125 
L 18.109375 -20.796875 
L 9.078125 -20.796875 
L 9.078125 54.6875 
L 18.109375 54.6875 
L 18.109375 46.390625 
Q 20.953125 51.265625 25.265625 53.625 
Q 29.59375 56 35.59375 56 
Q 45.5625 56 51.78125 48.09375 
Q 58.015625 40.1875 58.015625 27.296875 
Q 58.015625 14.40625 51.78125 6.484375 
Q 45.5625 -1.421875 35.59375 -1.421875 
Q 29.59375 -1.421875 25.265625 0.953125 
Q 20.953125 3.328125 18.109375 8.203125 
z
M 48.6875 27.296875 
Q 48.6875 37.203125 44.609375 42.84375 
Q 40.53125 48.484375 33.40625 48.484375 
Q 26.265625 48.484375 22.1875 42.84375 
Q 18.109375 37.203125 18.109375 27.296875 
Q 18.109375 17.390625 22.1875 11.75 
Q 26.265625 6.109375 33.40625 6.109375 
Q 40.53125 6.109375 44.609375 11.75 
Q 48.6875 17.390625 48.6875 27.296875 
z
" id="DejaVuSans-112"/>
      <path d="M 9.421875 75.984375 
L 18.40625 75.984375 
L 18.40625 0 
L 9.421875 0 
z
" id="DejaVuSans-108"/>
      <path d="M 9.421875 54.6875 
L 18.40625 54.6875 
L 18.40625 0 
L 9.421875 0 
z
M 9.421875 75.984375 
L 18.40625 75.984375 
L 18.40625 64.59375 
L 9.421875 64.59375 
z
" id="DejaVuSans-105"/>
      <path d="M 18.3125 70.21875 
L 18.3125 54.6875 
L 36.8125 54.6875 
L 36.8125 47.703125 
L 18.3125 47.703125 
L 18.3125 18.015625 
Q 18.3125 11.328125 20.140625 9.421875 
Q 21.96875 7.515625 27.59375 7.515625 
L 36.8125 7.515625 
L 36.8125 0 
L 27.59375 0 
Q 17.1875 0 13.234375 3.875 
Q 9.28125 7.765625 9.28125 18.015625 
L 9.28125 47.703125 
L 2.6875 47.703125 
L 2.6875 54.6875 
L 9.28125 54.6875 
L 9.28125 70.21875 
z
" id="DejaVuSans-116"/>
      <path d="M 45.40625 46.390625 
L 45.40625 75.984375 
L 54.390625 75.984375 
L 54.390625 0 
L 45.40625 0 
L 45.40625 8.203125 
Q 42.578125 3.328125 38.25 0.953125 
Q 33.9375 -1.421875 27.875 -1.421875 
Q 17.96875 -1.421875 11.734375 6.484375 
Q 5.515625 14.40625 5.515625 27.296875 
Q 5.515625 40.1875 11.734375 48.09375 
Q 17.96875 56 27.875 56 
Q 33.9375 56 38.25 53.625 
Q 42.578125 51.265625 45.40625 46.390625 
z
M 14.796875 27.296875 
Q 14.796875 17.390625 18.875 11.75 
Q 22.953125 6.109375 30.078125 6.109375 
Q 37.203125 6.109375 41.296875 11.75 
Q 45.40625 17.390625 45.40625 27.296875 
Q 45.40625 37.203125 41.296875 42.84375 
Q 37.203125 48.484375 30.078125 48.484375 
Q 22.953125 48.484375 18.875 42.84375 
Q 14.796875 37.203125 14.796875 27.296875 
z
" id="DejaVuSans-100"/>
     </defs>
     <g transform="translate(25.432812 200.150656)rotate(-90)scale(0.1 -0.1)">
      <use xlink:href="#DejaVuSans-65"/>
      <use x="68.408203" xlink:href="#DejaVuSans-109"/>
      <use x="165.820312" xlink:href="#DejaVuSans-112"/>
      <use x="229.296875" xlink:href="#DejaVuSans-108"/>
      <use x="257.080078" xlink:href="#DejaVuSans-105"/>
      <use x="284.863281" xlink:href="#DejaVuSans-116"/>
      <use x="324.072266" xlink:href="#DejaVuSans-117"/>
      <use x="387.451172" xlink:href="#DejaVuSans-100"/>
      <use x="450.927734" xlink:href="#DejaVuSans-101"/>
     </g>
    </g>
   </g>
   <g id="line2d_13">
    <path clip-path="url(#p9038b17222)" d="M 73.832727 241.603605 
L 74.157707 204.277763 
L 74.482686 132.315891 
L 74.807666 178.477651 
L 75.132645 133.28462 
L 75.457625 151.906994 
L 75.782604 239.591405 
L 76.107584 132.228293 
L 76.432563 199.65645 
L 76.757543 169.902147 
L 77.082523 231.736818 
L 77.407502 162.474175 
L 77.732482 236.121274 
L 78.057461 164.09257 
L 78.382441 163.940297 
L 78.70742 194.711231 
L 79.0324 201.975276 
L 79.357379 150.573223 
L 79.682359 258.77514 
L 80.007338 213.949087 
L 80.332318 243.039715 
L 80.657297 157.392371 
L 80.982277 146.308263 
L 81.307256 152.104043 
L 81.632236 248.692732 
L 81.957215 196.57343 
L 82.282195 175.42241 
L 82.607174 196.891537 
L 82.932154 159.119759 
L 83.257133 249.373555 
L 83.582113 182.836722 
L 83.907093 226.631914 
L 84.232072 187.532591 
L 84.557052 124.705816 
L 84.882031 230.216555 
L 85.207011 250.684637 
L 85.53199 243.881164 
L 85.85697 127.175705 
L 86.181949 181.965015 
L 86.506929 208.838468 
L 86.831908 93.892271 
L 87.156888 232.124874 
L 87.481867 242.334211 
L 87.806847 135.71791 
L 88.131826 219.484683 
L 88.456806 82.729382 
L 88.781785 53.568 
L 89.431744 250.601145 
L 89.756724 209.260076 
L 90.081704 247.637787 
L 90.406683 203.009423 
L 90.731663 250.448205 
L 91.056642 125.76928 
L 91.381622 271.583334 
L 91.706601 254.210842 
L 92.031581 221.117192 
L 92.35656 220.034472 
L 92.68154 177.289934 
L 93.006519 182.090327 
L 93.331499 242.436105 
L 93.656478 210.156971 
L 94.306437 239.319195 
L 94.631417 152.73411 
L 95.281376 257.54691 
L 95.606355 212.648454 
L 95.931335 245.482088 
L 96.256314 180.677583 
L 96.581294 169.456519 
L 96.906274 229.881758 
L 97.231253 261.380485 
L 97.556233 259.460981 
L 97.881212 128.189455 
L 98.206192 232.736956 
L 98.531171 168.661922 
L 98.856151 238.4446 
L 99.18113 193.412478 
L 99.50611 166.379725 
L 100.156069 261.260005 
L 100.481048 262.757976 
L 101.131007 219.666551 
L 101.455987 189.501487 
L 101.780966 271.520914 
L 102.105946 197.398417 
L 102.430925 210.34325 
L 102.755905 261.354701 
L 103.080885 247.169485 
L 103.405864 157.802929 
L 104.055823 254.658256 
L 104.380803 184.752146 
L 104.705782 180.087964 
L 105.030762 277.732525 
L 105.355741 233.39645 
L 105.680721 141.897984 
L 106.0057 251.67734 
L 106.33068 149.18268 
L 106.655659 216.930039 
L 106.980639 184.295628 
L 107.305618 191.267217 
L 107.630598 229.427771 
L 107.955577 181.670553 
L 108.605536 276.653015 
L 108.930516 236.235908 
L 109.255495 214.019333 
L 109.580475 202.932517 
L 109.905455 255.176795 
L 110.230434 175.052209 
L 110.555414 233.001596 
L 110.880393 195.322928 
L 111.205373 261.48676 
L 111.530352 183.194047 
L 111.855332 210.11657 
L 112.180311 259.703584 
L 112.505291 205.697807 
L 112.83027 235.504306 
L 113.15525 236.808469 
L 113.480229 242.572333 
L 113.805209 272.17939 
L 114.130188 190.531083 
L 114.455168 216.381003 
L 114.780147 265.476414 
L 115.105127 234.961653 
L 115.430106 226.09595 
L 115.755086 220.691785 
L 116.080066 252.829328 
L 116.405045 257.335852 
L 116.730025 273.482107 
L 117.055004 183.69761 
L 117.379984 209.876054 
L 117.704963 179.951344 
L 118.029943 275.499523 
L 118.354922 243.316305 
L 119.004881 210.017006 
L 119.329861 244.480466 
L 119.65484 247.303638 
L 119.97982 253.525501 
L 120.304799 191.818438 
L 120.629779 276.610323 
L 120.954758 198.985674 
L 121.279738 222.227929 
L 121.604717 210.76097 
L 121.929697 249.01601 
L 122.579656 210.532686 
L 122.904636 273.450786 
L 123.229615 226.609044 
L 123.554595 272.897454 
L 123.879574 207.627438 
L 124.204554 218.87392 
L 124.529533 274.53134 
L 124.854513 217.774796 
L 125.179492 220.51649 
L 125.504472 239.921578 
L 125.829451 250.429029 
L 126.154431 225.25284 
L 126.47941 280.3579 
L 126.80439 226.151673 
L 127.454349 284.387227 
L 127.779328 255.61472 
L 128.104308 262.987564 
L 128.754267 232.747255 
L 129.079247 160.478275 
L 129.404226 211.059945 
L 129.729206 195.276221 
L 130.054185 221.342623 
L 130.379165 203.936361 
L 130.704144 203.143273 
L 131.029124 249.560239 
L 131.354103 257.123692 
L 131.679083 248.893298 
L 132.004062 278.055176 
L 132.329042 262.203017 
L 132.654021 273.868295 
L 132.979001 199.121032 
L 133.30398 207.408746 
L 133.62896 184.048332 
L 133.953939 289.727493 
L 134.278919 240.344309 
L 134.603898 227.36427 
L 134.928878 269.099955 
L 135.253857 231.831091 
L 135.578837 269.086731 
L 135.903817 245.452268 
L 136.228796 236.768988 
L 136.553776 275.488248 
L 136.878755 256.353537 
L 137.203735 280.248194 
L 137.528714 219.328938 
L 137.853694 272.891271 
L 138.178673 183.009098 
L 138.503653 246.611742 
L 138.828632 233.827968 
L 139.153612 279.631754 
L 139.478591 224.738983 
L 139.803571 239.297198 
L 140.12855 241.149386 
L 140.45353 223.884464 
L 140.778509 260.714135 
L 141.103489 236.510169 
L 141.428468 192.264036 
L 142.078428 236.52229 
L 142.403407 240.406181 
L 142.728387 208.796118 
L 143.053366 248.787701 
L 143.378346 251.054248 
L 143.703325 241.38215 
L 144.028305 259.921589 
L 144.353284 240.850031 
L 144.678264 272.823535 
L 145.003243 225.743455 
L 145.653202 282.333105 
L 145.978182 241.716855 
L 146.303161 220.738164 
L 146.628141 276.891113 
L 146.95312 262.667567 
L 147.2781 206.45184 
L 147.603079 237.382275 
L 147.928059 280.776237 
L 148.253038 238.337715 
L 148.578018 235.772922 
L 148.902998 248.091263 
L 149.227977 191.582305 
L 149.552957 269.880394 
L 149.877936 205.096435 
L 150.202916 224.226919 
L 150.527895 258.771439 
L 150.852875 263.714071 
L 151.177854 254.145173 
L 151.502834 271.713994 
L 151.827813 215.436679 
L 152.152793 181.956816 
L 152.477772 274.757492 
L 152.802752 293.225937 
L 153.127731 257.263045 
L 153.452711 257.663792 
L 153.77769 262.688903 
L 154.10267 228.772451 
L 154.427649 231.400708 
L 154.752629 260.171629 
L 155.077609 258.208962 
L 155.402588 292.591772 
L 155.727568 262.629031 
L 156.052547 256.18231 
L 156.377527 267.124387 
L 156.702506 234.137372 
L 157.027486 275.196887 
L 157.352465 230.931214 
L 157.677445 266.185405 
L 158.002424 274.925416 
L 158.327404 217.858468 
L 158.652383 263.640222 
L 158.977363 233.322764 
L 159.627322 283.349808 
L 159.952301 243.197094 
L 160.60226 266.946692 
L 160.92724 250.99551 
L 161.252219 253.426977 
L 161.577199 274.676655 
L 162.227158 277.229152 
L 162.552138 229.897331 
L 162.877117 279.636518 
L 163.202097 239.606895 
L 163.527076 277.338282 
L 163.852056 252.498217 
L 164.177035 257.546229 
L 164.502015 270.901134 
L 164.826994 256.194668 
L 165.151974 262.827384 
L 165.476953 251.484491 
L 165.801933 285.801412 
L 166.451892 237.847025 
L 166.776871 218.973498 
L 167.101851 266.271205 
L 167.42683 237.310283 
L 167.75181 228.440364 
L 168.07679 214.367061 
L 168.726749 268.681925 
L 169.051728 249.629335 
L 169.376708 246.189043 
L 169.701687 282.283402 
L 170.026667 212.139306 
L 170.351646 255.60279 
L 170.676626 275.953127 
L 171.001605 243.902481 
L 171.326585 249.660462 
L 171.651564 267.411888 
L 172.301523 242.441067 
L 172.626503 253.191204 
L 172.951482 246.621549 
L 173.276462 266.049007 
L 173.601441 263.940567 
L 173.926421 259.688676 
L 174.2514 245.742712 
L 174.57638 278.691043 
L 174.90136 285.687397 
L 175.226339 227.359054 
L 175.551319 260.865862 
L 175.876298 223.055575 
L 176.201278 235.318233 
L 176.526257 264.050854 
L 177.176216 220.490911 
L 177.501196 265.641261 
L 177.826175 280.598398 
L 178.151155 289.793833 
L 178.476134 261.443088 
L 178.801114 260.056346 
L 179.126093 251.158576 
L 179.451073 248.120174 
L 179.776052 260.931203 
L 180.101032 225.166785 
L 180.426011 253.505368 
L 180.750991 242.459158 
L 181.075971 256.84014 
L 181.40095 285.478499 
L 181.72593 261.705154 
L 182.050909 261.739763 
L 182.375889 239.498282 
L 182.700868 290.455275 
L 183.025848 264.871575 
L 183.350827 253.935651 
L 183.675807 225.632715 
L 184.000786 275.237713 
L 184.325766 272.2351 
L 184.650745 243.752682 
L 184.975725 260.568194 
L 185.300704 251.473826 
L 185.625684 289.340407 
L 185.950663 257.150912 
L 186.275643 263.533771 
L 186.600622 234.128154 
L 186.925602 269.83705 
L 187.250581 245.101031 
L 187.575561 273.521212 
L 187.900541 243.878249 
L 188.22552 241.581105 
L 188.5505 273.987761 
L 188.875479 244.160621 
L 189.200459 294.200837 
L 189.525438 269.61326 
L 189.850418 273.79831 
L 190.175397 268.590317 
L 190.500377 230.244027 
L 190.825356 264.508431 
L 191.475315 293.332654 
L 191.800295 255.426286 
L 192.450254 275.264089 
L 192.775233 286.796149 
L 193.100213 271.229664 
L 193.425192 249.602214 
L 193.750172 282.38596 
L 194.075152 291.206998 
L 194.400131 260.179245 
L 194.725111 263.796592 
L 195.05009 259.290325 
L 195.37507 262.491467 
L 195.700049 284.217439 
L 196.025029 256.179611 
L 196.350008 262.101188 
L 196.674988 282.947394 
L 196.999967 252.927638 
L 197.324947 268.237714 
L 197.649926 295.488 
L 197.974906 282.445636 
L 198.299885 263.563912 
L 198.949844 281.789689 
L 199.274824 237.698412 
L 199.599803 283.377507 
L 199.924783 272.917245 
L 200.249762 276.179905 
L 200.574742 241.955445 
L 201.224701 285.454719 
L 201.549681 284.351523 
L 201.87466 277.606945 
L 202.19964 276.310664 
L 202.524619 280.347088 
L 202.849599 261.496973 
L 203.174578 277.853973 
L 203.499558 241.871821 
L 203.824537 271.318282 
L 204.474496 294.494132 
L 204.799476 280.704888 
L 205.124455 280.023449 
L 205.449435 273.646345 
L 205.774414 275.24448 
L 206.099394 270.215269 
L 206.424373 272.88611 
L 206.749353 263.337497 
L 207.074333 273.190489 
L 207.399312 271.205785 
L 207.724292 272.835598 
L 208.049271 276.119376 
L 208.374251 277.435276 
L 208.69923 276.161155 
L 209.02421 288.92876 
L 209.349189 285.153249 
L 209.674169 285.030939 
L 209.999148 282.201192 
L 210.324128 289.244101 
L 210.649107 269.9242 
L 210.974087 286.726384 
L 211.299066 264.541263 
L 211.624046 274.023966 
L 211.949025 269.337129 
L 212.598984 291.354138 
L 213.248943 283.735714 
L 213.573923 286.660354 
L 214.223882 269.08905 
L 214.548862 275.365824 
L 214.873841 289.454188 
L 215.198821 284.137343 
L 215.5238 275.15173 
L 215.84878 274.017118 
L 216.173759 274.989105 
L 216.498739 282.040077 
L 216.823718 283.601733 
L 217.148698 283.378528 
L 217.473677 280.215485 
L 217.798657 292.415228 
L 218.123636 270.034932 
L 218.448616 283.56276 
L 218.773595 279.063114 
L 219.098575 267.845656 
L 219.423554 272.672738 
L 219.748534 280.699635 
L 220.073514 280.33412 
L 220.398493 280.976155 
L 221.048452 273.817472 
L 221.373432 282.77207 
L 221.698411 274.592916 
L 222.023391 275.648156 
L 222.34837 289.05174 
L 222.67335 277.409138 
L 222.998329 290.256937 
L 223.323309 284.360467 
L 223.648288 282.919109 
L 223.973268 280.723781 
L 224.298247 279.766716 
L 224.623227 291.595527 
L 225.273186 281.656613 
L 225.598165 271.908559 
L 225.923145 281.322454 
L 226.573104 270.778164 
L 226.898084 281.289191 
L 227.548043 285.990013 
L 227.873022 278.245758 
L 228.198002 279.033035 
L 228.522981 286.926329 
L 228.847961 289.424819 
L 229.49792 277.341294 
L 229.822899 288.232626 
L 230.147879 280.13726 
L 230.472858 282.727399 
L 230.797838 282.625707 
L 231.122817 287.185838 
L 231.447797 283.190057 
L 231.772776 283.467049 
L 232.097756 281.081842 
L 232.422735 286.879661 
L 232.747715 282.079291 
L 233.072695 281.874482 
L 233.397674 283.790609 
L 233.722654 284.751819 
L 234.047633 282.749833 
L 234.372613 285.37503 
L 234.697592 284.110975 
L 235.022572 283.80558 
L 235.347551 283.684748 
L 235.672531 283.939592 
L 236.32249 284.216937 
L 237.297428 283.684748 
L 237.622408 283.80558 
L 237.947387 284.110975 
L 238.272367 285.37503 
L 238.597346 282.749833 
L 238.922326 284.751819 
L 239.247305 283.790609 
L 239.572285 281.874482 
L 239.897265 282.079291 
L 240.222244 286.879661 
L 240.547224 281.081842 
L 240.872203 283.467049 
L 241.197183 283.190057 
L 241.522162 287.185838 
L 241.847142 282.625707 
L 242.172121 282.727399 
L 242.497101 280.13726 
L 242.82208 288.232626 
L 243.14706 277.341294 
L 243.797019 289.424819 
L 244.121998 286.926329 
L 244.446978 279.033035 
L 244.771957 278.245758 
L 245.096937 285.990013 
L 245.746896 281.289191 
L 246.071876 270.778164 
L 246.721835 281.322454 
L 247.046814 271.908559 
L 247.371794 281.656613 
L 248.021753 291.595527 
L 248.346732 279.766716 
L 248.671712 280.723781 
L 249.321671 284.360467 
L 249.64665 290.256937 
L 249.97163 277.409138 
L 250.296609 289.05174 
L 250.621589 275.648156 
L 250.946568 274.592916 
L 251.271548 282.77207 
L 251.596527 273.817472 
L 252.246486 280.976155 
L 252.571466 280.33412 
L 252.896446 280.699635 
L 253.221425 272.672738 
L 253.546405 267.845656 
L 253.871384 279.063114 
L 254.196364 283.56276 
L 254.521343 270.034932 
L 254.846323 292.415228 
L 255.171302 280.215485 
L 255.496282 283.378528 
L 255.821261 283.601733 
L 256.146241 282.040077 
L 256.47122 274.989105 
L 256.7962 274.017118 
L 257.121179 275.15173 
L 257.446159 284.137343 
L 257.771138 289.454188 
L 258.096118 275.365824 
L 258.421097 269.08905 
L 258.746077 276.111983 
L 259.071057 286.660354 
L 259.396036 283.735714 
L 260.045995 291.354138 
L 260.695954 269.337129 
L 261.020934 274.023966 
L 261.345913 264.541263 
L 261.670893 286.726384 
L 261.995872 269.9242 
L 262.320852 289.244101 
L 262.645831 282.201192 
L 262.970811 285.030939 
L 263.29579 285.153249 
L 263.62077 288.92876 
L 263.945749 276.161155 
L 264.270729 277.435276 
L 264.595708 276.119376 
L 264.920688 272.835598 
L 265.245667 271.205785 
L 265.570647 273.190489 
L 265.895627 263.337497 
L 266.220606 272.88611 
L 266.545586 270.215269 
L 266.870565 275.24448 
L 267.195545 273.646345 
L 267.520524 280.023449 
L 267.845504 280.704888 
L 268.170483 294.494132 
L 268.495463 284.972557 
L 268.820442 271.318282 
L 269.145422 241.871821 
L 269.470401 277.853973 
L 269.795381 261.496973 
L 270.12036 280.347088 
L 270.44534 276.310664 
L 270.770319 277.606945 
L 271.095299 284.351523 
L 271.420278 285.454719 
L 271.745258 267.239043 
L 272.070238 241.955445 
L 272.395217 276.179905 
L 272.720197 272.917245 
L 273.045176 283.377507 
L 273.370156 237.698412 
L 273.695135 281.789689 
L 274.345094 263.563912 
L 274.995053 295.488 
L 275.320033 268.237714 
L 275.645012 252.927638 
L 275.969992 282.947394 
L 276.294971 262.101188 
L 276.619951 256.179611 
L 276.94493 284.217439 
L 277.26991 262.491467 
L 277.594889 259.290325 
L 277.919869 263.796592 
L 278.244848 260.179245 
L 278.569828 291.206998 
L 278.894808 282.38596 
L 279.219787 249.602214 
L 279.869746 286.796149 
L 280.844685 255.426286 
L 281.169664 293.332654 
L 281.494644 281.526964 
L 281.819623 264.508431 
L 282.144603 230.244027 
L 282.469582 268.590317 
L 282.794562 273.79831 
L 283.119541 269.61326 
L 283.444521 294.200837 
L 283.7695 244.160621 
L 284.09448 273.987761 
L 284.419459 241.581105 
L 284.744439 243.878249 
L 285.069419 273.521212 
L 285.394398 245.101031 
L 285.719378 269.83705 
L 286.044357 234.128154 
L 286.369337 263.533771 
L 286.694316 257.150912 
L 287.019296 289.340407 
L 287.344275 251.473826 
L 287.669255 260.568194 
L 287.994234 243.752682 
L 288.319214 272.2351 
L 288.644193 275.237713 
L 288.969173 225.632715 
L 289.294152 253.935651 
L 289.619132 264.871575 
L 289.944111 290.455275 
L 290.269091 239.498282 
L 290.59407 261.739763 
L 290.91905 261.705154 
L 291.244029 285.478499 
L 291.569009 256.84014 
L 291.893989 242.459158 
L 292.218968 253.505368 
L 292.543948 225.166785 
L 292.868927 260.931203 
L 293.193907 248.120174 
L 293.518886 251.158576 
L 293.843866 260.056346 
L 294.168845 261.443088 
L 294.493825 289.793833 
L 294.818804 280.598398 
L 295.143784 265.641261 
L 295.468763 220.490911 
L 295.793743 238.86343 
L 296.118722 264.050854 
L 296.443702 235.318233 
L 296.768681 223.055575 
L 297.093661 260.865862 
L 297.41864 227.359054 
L 297.74362 285.687397 
L 298.0686 278.691043 
L 298.393579 245.742712 
L 298.718559 259.688676 
L 299.043538 263.940567 
L 299.368518 266.049007 
L 299.693497 246.621549 
L 300.018477 253.191204 
L 300.343456 242.441067 
L 300.993415 267.411888 
L 301.318395 249.660462 
L 301.643374 243.902481 
L 301.968354 275.953127 
L 302.293333 255.60279 
L 302.618313 212.139306 
L 302.943292 282.283402 
L 303.268272 246.189043 
L 303.593251 249.629335 
L 303.918231 268.681925 
L 304.56819 214.367061 
L 304.89317 228.440364 
L 305.218149 237.310283 
L 305.543129 266.271205 
L 305.868108 218.973498 
L 306.518067 258.082486 
L 306.843047 285.801412 
L 307.168026 251.484491 
L 307.493006 262.827384 
L 307.817985 256.194668 
L 308.142965 270.901134 
L 308.467944 257.546229 
L 308.792924 252.498217 
L 309.117903 277.338282 
L 309.442883 239.606895 
L 309.767862 279.636518 
L 310.092842 229.897331 
L 310.417821 277.229152 
L 311.067781 274.676655 
L 311.39276 253.426977 
L 311.71774 250.99551 
L 312.042719 266.946692 
L 312.692678 243.197094 
L 313.017658 283.349808 
L 313.342637 262.69263 
L 313.667617 233.322764 
L 313.992596 263.640222 
L 314.317576 217.858468 
L 314.642555 274.925416 
L 314.967535 266.185405 
L 315.292514 230.931214 
L 315.617494 275.196887 
L 315.942473 234.137372 
L 316.267453 267.124387 
L 316.592432 256.18231 
L 316.917412 262.629031 
L 317.242391 292.591772 
L 317.567371 258.208962 
L 317.892351 260.171629 
L 318.21733 231.400708 
L 318.54231 228.772451 
L 318.867289 262.688903 
L 319.192269 257.663792 
L 319.517248 257.263045 
L 319.842228 293.225937 
L 320.167207 274.757492 
L 320.492187 181.956816 
L 320.817166 215.436679 
L 321.142146 271.713994 
L 321.467125 254.145173 
L 321.792105 263.714071 
L 322.117084 258.771439 
L 322.442064 224.226919 
L 322.767043 205.096435 
L 323.092023 269.880394 
L 323.417002 191.582305 
L 323.741982 248.091263 
L 324.066962 235.772922 
L 324.391941 238.337715 
L 324.716921 280.776237 
L 325.36688 206.45184 
L 325.691859 262.667567 
L 326.016839 276.891113 
L 326.341818 220.738164 
L 326.666798 241.716855 
L 326.991777 282.333105 
L 327.641736 225.743455 
L 327.966716 272.823535 
L 328.291695 240.850031 
L 328.616675 259.921589 
L 328.941654 241.38215 
L 329.266634 251.054248 
L 329.591613 248.787701 
L 329.916593 208.796118 
L 330.241572 240.406181 
L 330.566552 236.52229 
L 331.216511 192.264036 
L 331.541491 236.510169 
L 331.86647 260.714135 
L 332.19145 223.884464 
L 332.516429 241.149386 
L 332.841409 239.297198 
L 333.166388 224.738983 
L 333.491368 279.631754 
L 333.816347 233.827968 
L 334.141327 246.611742 
L 334.466306 183.009098 
L 334.791286 272.891271 
L 335.116265 219.328938 
L 335.441245 280.248194 
L 335.766224 256.353537 
L 336.091204 275.488248 
L 336.416183 236.768988 
L 336.741163 245.452268 
L 337.066143 269.086731 
L 337.391122 231.831091 
L 337.716102 269.099955 
L 338.041081 227.36427 
L 338.366061 240.344309 
L 338.69104 289.727493 
L 339.01602 184.048332 
L 339.340999 207.408746 
L 339.665979 199.121032 
L 339.990958 273.868295 
L 340.315938 262.203017 
L 340.640917 278.055176 
L 340.965897 248.893298 
L 341.290876 257.123692 
L 341.615856 249.560239 
L 341.940835 203.143273 
L 342.265815 203.936361 
L 342.590794 221.342623 
L 342.915774 195.276221 
L 343.240753 211.059945 
L 343.565733 160.478275 
L 343.890713 232.747255 
L 344.540672 262.987564 
L 344.865651 255.61472 
L 345.190631 284.387227 
L 345.84059 226.151673 
L 346.165569 280.3579 
L 346.490549 225.25284 
L 346.815528 250.429029 
L 347.140508 239.921578 
L 347.465487 220.51649 
L 347.790467 217.774796 
L 348.115446 274.53134 
L 348.440426 218.87392 
L 348.765405 207.627438 
L 349.090385 272.897454 
L 349.415364 226.609044 
L 349.740344 273.450786 
L 350.065324 210.532686 
L 350.715283 249.01601 
L 351.040262 210.76097 
L 351.365242 222.227929 
L 351.690221 198.985674 
L 352.015201 276.610323 
L 352.34018 191.818438 
L 352.66516 253.525501 
L 352.990139 247.303638 
L 353.315119 244.480466 
L 353.640098 210.017006 
L 354.290057 243.316305 
L 354.615037 275.499523 
L 354.940016 179.951344 
L 355.264996 209.876054 
L 355.589975 183.69761 
L 355.914955 273.482107 
L 356.239934 257.335852 
L 356.564914 252.829328 
L 356.889894 220.691785 
L 357.214873 226.09595 
L 357.539853 234.961653 
L 357.864832 265.476414 
L 358.189812 216.381003 
L 358.514791 190.531083 
L 358.839771 272.17939 
L 359.16475 242.572333 
L 359.48973 236.808469 
L 359.814709 235.504306 
L 360.139689 205.697807 
L 360.464668 259.703584 
L 360.789648 210.11657 
L 361.114627 183.194047 
L 361.439607 261.48676 
L 361.764586 195.322928 
L 362.089566 233.001596 
L 362.414545 175.052209 
L 362.739525 255.176795 
L 363.064505 202.932517 
L 363.389484 214.019333 
L 363.714464 236.235908 
L 364.039443 276.653015 
L 364.364423 238.583118 
L 364.689402 181.670553 
L 365.014382 229.427771 
L 365.339361 191.267217 
L 365.664341 184.295628 
L 365.98932 216.930039 
L 366.3143 149.18268 
L 366.639279 251.67734 
L 366.964259 141.897984 
L 367.289238 233.39645 
L 367.614218 277.732525 
L 367.939197 180.087964 
L 368.264177 184.752146 
L 368.589156 254.658256 
L 369.239115 157.802929 
L 369.564095 247.169485 
L 369.889075 261.354701 
L 370.214054 210.34325 
L 370.539034 197.398417 
L 370.864013 271.520914 
L 371.188993 189.501487 
L 371.838952 241.577892 
L 372.163931 262.757976 
L 372.488911 261.260005 
L 372.81389 221.149695 
L 373.13887 166.379725 
L 373.463849 193.412478 
L 373.788829 238.4446 
L 374.113808 168.661922 
L 374.438788 232.736956 
L 374.763767 128.189455 
L 375.088747 259.460981 
L 375.413726 261.380485 
L 375.738706 229.881758 
L 376.063686 169.456519 
L 376.388665 180.677583 
L 376.713645 245.482088 
L 377.038624 212.648454 
L 377.363604 257.54691 
L 378.013563 152.73411 
L 378.338542 239.319195 
L 378.988501 210.156971 
L 379.313481 242.436105 
L 379.63846 182.090327 
L 379.96344 177.289934 
L 380.288419 220.034472 
L 380.613399 221.117192 
L 380.938378 254.210842 
L 381.263358 271.583334 
L 381.588337 125.76928 
L 381.913317 250.448205 
L 382.238296 203.009423 
L 382.563276 247.637787 
L 382.888256 209.260076 
L 383.213235 250.601145 
L 383.538215 168.487728 
L 383.863194 53.568 
L 384.188174 82.729382 
L 384.513153 219.484683 
L 384.838133 135.71791 
L 385.163112 242.334211 
L 385.488092 232.124874 
L 385.813071 93.892271 
L 386.138051 208.838468 
L 386.46303 181.965015 
L 386.78801 127.175705 
L 387.112989 243.881164 
L 387.437969 250.684637 
L 387.762948 230.216555 
L 388.087928 124.705816 
L 388.412907 187.532591 
L 388.737887 226.631914 
L 389.062867 182.836722 
L 389.387846 249.373555 
L 389.712826 159.119759 
L 390.037805 196.891537 
L 390.362785 175.42241 
L 390.687764 196.57343 
L 391.012744 248.692732 
L 391.337723 152.104043 
L 391.662703 146.308263 
L 391.987682 157.392371 
L 392.312662 243.039715 
L 392.637641 213.949087 
L 392.962621 258.77514 
L 393.2876 150.573223 
L 393.61258 201.975276 
L 393.937559 194.711231 
L 394.262539 163.940297 
L 394.587518 164.09257 
L 394.912498 236.121274 
L 395.237477 162.474175 
L 395.562457 231.736818 
L 395.887437 169.902147 
L 396.212416 199.65645 
L 396.537396 132.228293 
L 396.862375 239.591405 
L 397.187355 151.906994 
L 397.512334 133.28462 
L 397.837314 178.477651 
L 398.162293 132.315891 
L 398.487273 204.277763 
L 398.487273 204.277763 
" style="fill:none;stroke:#1f77b4;stroke-linecap:square;stroke-width:1.5;"/>
   </g>
   <g id="patch_3">
    <path d="M 57.6 307.584 
L 57.6 41.472 
" style="fill:none;stroke:#000000;stroke-linecap:square;stroke-linejoin:miter;stroke-width:0.8;"/>
   </g>
   <g id="patch_4">
    <path d="M 414.72 307.584 
L 414.72 41.472 
" style="fill:none;stroke:#000000;stroke-linecap:square;stroke-linejoin:miter;stroke-width:0.8;"/>
   </g>
   <g id="patch_5">
    <path d="M 57.6 307.584 
L 414.72 307.584 
" style="fill:none;stroke:#000000;stroke-linecap:square;stroke-linejoin:miter;stroke-width:0.8;"/>
   </g>
   <g id="patch_6">
    <path d="M 57.6 41.472 
L 414.72 41.472 
" style="fill:none;stroke:#000000;stroke-linecap:square;stroke-linejoin:miter;stroke-width:0.8;"/>
   </g>
   <g id="text_15">
    <!-- Frequency domain - averaging filter 1/2 (Array1) -->
    <defs>
     <path d="M 30.609375 48.390625 
Q 23.390625 48.390625 19.1875 42.75 
Q 14.984375 37.109375 14.984375 27.296875 
Q 14.984375 17.484375 19.15625 11.84375 
Q 23.34375 6.203125 30.609375 6.203125 
Q 37.796875 6.203125 41.984375 11.859375 
Q 46.1875 17.53125 46.1875 27.296875 
Q 46.1875 37.015625 41.984375 42.703125 
Q 37.796875 48.390625 30.609375 48.390625 
z
M 30.609375 56 
Q 42.328125 56 49.015625 48.375 
Q 55.71875 40.765625 55.71875 27.296875 
Q 55.71875 13.875 49.015625 6.21875 
Q 42.328125 -1.421875 30.609375 -1.421875 
Q 18.84375 -1.421875 12.171875 6.21875 
Q 5.515625 13.875 5.515625 27.296875 
Q 5.515625 40.765625 12.171875 48.375 
Q 18.84375 56 30.609375 56 
z
" id="DejaVuSans-111"/>
     <path d="M 34.28125 27.484375 
Q 23.390625 27.484375 19.1875 25 
Q 14.984375 22.515625 14.984375 16.5 
Q 14.984375 11.71875 18.140625 8.90625 
Q 21.296875 6.109375 26.703125 6.109375 
Q 34.1875 6.109375 38.703125 11.40625 
Q 43.21875 16.703125 43.21875 25.484375 
L 43.21875 27.484375 
z
M 52.203125 31.203125 
L 52.203125 0 
L 43.21875 0 
L 43.21875 8.296875 
Q 40.140625 3.328125 35.546875 0.953125 
Q 30.953125 -1.421875 24.3125 -1.421875 
Q 15.921875 -1.421875 10.953125 3.296875 
Q 6 8.015625 6 15.921875 
Q 6 25.140625 12.171875 29.828125 
Q 18.359375 34.515625 30.609375 34.515625 
L 43.21875 34.515625 
L 43.21875 35.40625 
Q 43.21875 41.609375 39.140625 45 
Q 35.0625 48.390625 27.6875 48.390625 
Q 23 48.390625 18.546875 47.265625 
Q 14.109375 46.140625 10.015625 43.890625 
L 10.015625 52.203125 
Q 14.9375 54.109375 19.578125 55.046875 
Q 24.21875 56 28.609375 56 
Q 40.484375 56 46.34375 49.84375 
Q 52.203125 43.703125 52.203125 31.203125 
z
" id="DejaVuSans-97"/>
     <path d="M 4.890625 31.390625 
L 31.203125 31.390625 
L 31.203125 23.390625 
L 4.890625 23.390625 
z
" id="DejaVuSans-45"/>
     <path d="M 2.984375 54.6875 
L 12.5 54.6875 
L 29.59375 8.796875 
L 46.6875 54.6875 
L 56.203125 54.6875 
L 35.6875 0 
L 23.484375 0 
z
" id="DejaVuSans-118"/>
     <path d="M 45.40625 27.984375 
Q 45.40625 37.75 41.375 43.109375 
Q 37.359375 48.484375 30.078125 48.484375 
Q 22.859375 48.484375 18.828125 43.109375 
Q 14.796875 37.75 14.796875 27.984375 
Q 14.796875 18.265625 18.828125 12.890625 
Q 22.859375 7.515625 30.078125 7.515625 
Q 37.359375 7.515625 41.375 12.890625 
Q 45.40625 18.265625 45.40625 27.984375 
z
M 54.390625 6.78125 
Q 54.390625 -7.171875 48.1875 -13.984375 
Q 42 -20.796875 29.203125 -20.796875 
Q 24.46875 -20.796875 20.265625 -20.09375 
Q 16.0625 -19.390625 12.109375 -17.921875 
L 12.109375 -9.1875 
Q 16.0625 -11.328125 19.921875 -12.34375 
Q 23.78125 -13.375 27.78125 -13.375 
Q 36.625 -13.375 41.015625 -8.765625 
Q 45.40625 -4.15625 45.40625 5.171875 
L 45.40625 9.625 
Q 42.625 4.78125 38.28125 2.390625 
Q 33.9375 0 27.875 0 
Q 17.828125 0 11.671875 7.65625 
Q 5.515625 15.328125 5.515625 27.984375 
Q 5.515625 40.671875 11.671875 48.328125 
Q 17.828125 56 27.875 56 
Q 33.9375 56 38.28125 53.609375 
Q 42.625 51.21875 45.40625 46.390625 
L 45.40625 54.6875 
L 54.390625 54.6875 
z
" id="DejaVuSans-103"/>
     <path d="M 37.109375 75.984375 
L 37.109375 68.5 
L 28.515625 68.5 
Q 23.6875 68.5 21.796875 66.546875 
Q 19.921875 64.59375 19.921875 59.515625 
L 19.921875 54.6875 
L 34.71875 54.6875 
L 34.71875 47.703125 
L 19.921875 47.703125 
L 19.921875 0 
L 10.890625 0 
L 10.890625 47.703125 
L 2.296875 47.703125 
L 2.296875 54.6875 
L 10.890625 54.6875 
L 10.890625 58.5 
Q 10.890625 67.625 15.140625 71.796875 
Q 19.390625 75.984375 28.609375 75.984375 
z
" id="DejaVuSans-102"/>
     <path d="M 25.390625 72.90625 
L 33.6875 72.90625 
L 8.296875 -9.28125 
L 0 -9.28125 
z
" id="DejaVuSans-47"/>
    </defs>
    <g transform="translate(90.66375 35.472)scale(0.12 -0.12)">
     <use xlink:href="#DejaVuSans-70"/>
     <use x="50.269531" xlink:href="#DejaVuSans-114"/>
     <use x="89.132812" xlink:href="#DejaVuSans-101"/>
     <use x="150.65625" xlink:href="#DejaVuSans-113"/>
     <use x="214.132812" xlink:href="#DejaVuSans-117"/>
     <use x="277.511719" xlink:href="#DejaVuSans-101"/>
     <use x="339.035156" xlink:href="#DejaVuSans-110"/>
     <use x="402.414062" xlink:href="#DejaVuSans-99"/>
     <use x="457.394531" xlink:href="#DejaVuSans-121"/>
     <use x="516.574219" xlink:href="#DejaVuSans-32"/>
     <use x="548.361328" xlink:href="#DejaVuSans-100"/>
     <use x="611.837891" xlink:href="#DejaVuSans-111"/>
     <use x="673.019531" xlink:href="#DejaVuSans-109"/>
     <use x="770.431641" xlink:href="#DejaVuSans-97"/>
     <use x="831.710938" xlink:href="#DejaVuSans-105"/>
     <use x="859.494141" xlink:href="#DejaVuSans-110"/>
     <use x="922.873047" xlink:href="#DejaVuSans-32"/>
     <use x="954.660156" xlink:href="#DejaVuSans-45"/>
     <use x="990.744141" xlink:href="#DejaVuSans-32"/>
     <use x="1022.53125" xlink:href="#DejaVuSans-97"/>
     <use x="1083.810547" xlink:href="#DejaVuSans-118"/>
     <use x="1142.990234" xlink:href="#DejaVuSans-101"/>
     <use x="1204.513672" xlink:href="#DejaVuSans-114"/>
     <use x="1245.626953" xlink:href="#DejaVuSans-97"/>
     <use x="1306.90625" xlink:href="#DejaVuSans-103"/>
     <use x="1370.382812" xlink:href="#DejaVuSans-105"/>
     <use x="1398.166016" xlink:href="#DejaVuSans-110"/>
     <use x="1461.544922" xlink:href="#DejaVuSans-103"/>
     <use x="1525.021484" xlink:href="#DejaVuSans-32"/>
     <use x="1556.808594" xlink:href="#DejaVuSans-102"/>
     <use x="1592.013672" xlink:href="#DejaVuSans-105"/>
     <use x="1619.796875" xlink:href="#DejaVuSans-108"/>
     <use x="1647.580078" xlink:href="#DejaVuSans-116"/>
     <use x="1686.789062" xlink:href="#DejaVuSans-101"/>
     <use x="1748.3125" xlink:href="#DejaVuSans-114"/>
     <use x="1789.425781" xlink:href="#DejaVuSans-32"/>
     <use x="1821.212891" xlink:href="#DejaVuSans-49"/>
     <use x="1884.835938" xlink:href="#DejaVuSans-47"/>
     <use x="1918.527344" xlink:href="#DejaVuSans-50"/>
     <use x="1982.150391" xlink:href="#DejaVuSans-32"/>
     <use x="2013.9375" xlink:href="#DejaVuSans-40"/>
     <use x="2052.951172" xlink:href="#DejaVuSans-65"/>
     <use x="2121.359375" xlink:href="#DejaVuSans-114"/>
     <use x="2160.722656" xlink:href="#DejaVuSans-114"/>
     <use x="2201.835938" xlink:href="#DejaVuSans-97"/>
     <use x="2263.115234" xlink:href="#DejaVuSans-121"/>
     <use x="2322.294922" xlink:href="#DejaVuSans-49"/>
     <use x="2385.917969" xlink:href="#DejaVuSans-41"/>
    </g>
   </g>
  </g>
 </g>
 <defs>
  <clipPath id="p9038b17222">
   <rect height="266.112" width="357.12" x="57.6" y="41.472"/>
  </clipPath>
 </defs>
</svg>
