<?xml version="1.0" encoding="utf-8" standalone="no"?>
<!DOCTYPE svg PUBLIC "-//W3C//DTD SVG 1.1//EN"
  "http://www.w3.org/Graphics/SVG/1.1/DTD/svg11.dtd">
<!-- Created with matplotlib (https://matplotlib.org/) -->
<svg height="345.6pt" version="1.1" viewBox="0 0 460.8 345.6" width="460.8pt" xmlns="http://www.w3.org/2000/svg" xmlns:xlink="http://www.w3.org/1999/xlink">
 <defs>
  <style type="text/css">
*{stroke-linecap:butt;stroke-linejoin:round;}
  </style>
 </defs>
 <g id="figure_1">
  <g id="patch_1">
   <path d="M 0 345.6 
L 460.8 345.6 
L 460.8 0 
L 0 0 
z
" style="fill:#ffffff;"/>
  </g>
  <g id="axes_1">
   <g id="patch_2">
    <path d="M 57.6 307.584 
L 414.72 307.584 
L 414.72 41.472 
L 57.6 41.472 
z
" style="fill:#ffffff;"/>
   </g>
   <g id="matplotlib.axis_1">
    <g id="xtick_1">
     <g id="line2d_1">
      <defs>
       <path d="M 0 0 
L 0 3.5 
" id="m8807828c6e" style="stroke:#000000;stroke-width:0.8;"/>
      </defs>
      <g>
       <use style="stroke:#000000;stroke-width:0.8;" x="73.832727" xlink:href="#m8807828c6e" y="307.584"/>
      </g>
     </g>
     <g id="text_1">
      <!-- 0 -->
      <defs>
       <path d="M 31.78125 66.40625 
Q 24.171875 66.40625 20.328125 58.90625 
Q 16.5 51.421875 16.5 36.375 
Q 16.5 21.390625 20.328125 13.890625 
Q 24.171875 6.390625 31.78125 6.390625 
Q 39.453125 6.390625 43.28125 13.890625 
Q 47.125 21.390625 47.125 36.375 
Q 47.125 51.421875 43.28125 58.90625 
Q 39.453125 66.40625 31.78125 66.40625 
z
M 31.78125 74.21875 
Q 44.046875 74.21875 50.515625 64.515625 
Q 56.984375 54.828125 56.984375 36.375 
Q 56.984375 17.96875 50.515625 8.265625 
Q 44.046875 -1.421875 31.78125 -1.421875 
Q 19.53125 -1.421875 13.0625 8.265625 
Q 6.59375 17.96875 6.59375 36.375 
Q 6.59375 54.828125 13.0625 64.515625 
Q 19.53125 74.21875 31.78125 74.21875 
z
" id="DejaVuSans-48"/>
      </defs>
      <g transform="translate(70.651477 322.182437)scale(0.1 -0.1)">
       <use xlink:href="#DejaVuSans-48"/>
      </g>
     </g>
    </g>
    <g id="xtick_2">
     <g id="line2d_2">
      <g>
       <use style="stroke:#000000;stroke-width:0.8;" x="138.828632" xlink:href="#m8807828c6e" y="307.584"/>
      </g>
     </g>
     <g id="text_2">
      <!-- 200 -->
      <defs>
       <path d="M 19.1875 8.296875 
L 53.609375 8.296875 
L 53.609375 0 
L 7.328125 0 
L 7.328125 8.296875 
Q 12.9375 14.109375 22.625 23.890625 
Q 32.328125 33.6875 34.8125 36.53125 
Q 39.546875 41.84375 41.421875 45.53125 
Q 43.3125 49.21875 43.3125 52.78125 
Q 43.3125 58.59375 39.234375 62.25 
Q 35.15625 65.921875 28.609375 65.921875 
Q 23.96875 65.921875 18.8125 64.3125 
Q 13.671875 62.703125 7.8125 59.421875 
L 7.8125 69.390625 
Q 13.765625 71.78125 18.9375 73 
Q 24.125 74.21875 28.421875 74.21875 
Q 39.75 74.21875 46.484375 68.546875 
Q 53.21875 62.890625 53.21875 53.421875 
Q 53.21875 48.921875 51.53125 44.890625 
Q 49.859375 40.875 45.40625 35.40625 
Q 44.1875 33.984375 37.640625 27.21875 
Q 31.109375 20.453125 19.1875 8.296875 
z
" id="DejaVuSans-50"/>
      </defs>
      <g transform="translate(129.284882 322.182437)scale(0.1 -0.1)">
       <use xlink:href="#DejaVuSans-50"/>
       <use x="63.623047" xlink:href="#DejaVuSans-48"/>
       <use x="127.246094" xlink:href="#DejaVuSans-48"/>
      </g>
     </g>
    </g>
    <g id="xtick_3">
     <g id="line2d_3">
      <g>
       <use style="stroke:#000000;stroke-width:0.8;" x="203.824537" xlink:href="#m8807828c6e" y="307.584"/>
      </g>
     </g>
     <g id="text_3">
      <!-- 400 -->
      <defs>
       <path d="M 37.796875 64.3125 
L 12.890625 25.390625 
L 37.796875 25.390625 
z
M 35.203125 72.90625 
L 47.609375 72.90625 
L 47.609375 25.390625 
L 58.015625 25.390625 
L 58.015625 17.1875 
L 47.609375 17.1875 
L 47.609375 0 
L 37.796875 0 
L 37.796875 17.1875 
L 4.890625 17.1875 
L 4.890625 26.703125 
z
" id="DejaVuSans-52"/>
      </defs>
      <g transform="translate(194.280787 322.182437)scale(0.1 -0.1)">
       <use xlink:href="#DejaVuSans-52"/>
       <use x="63.623047" xlink:href="#DejaVuSans-48"/>
       <use x="127.246094" xlink:href="#DejaVuSans-48"/>
      </g>
     </g>
    </g>
    <g id="xtick_4">
     <g id="line2d_4">
      <g>
       <use style="stroke:#000000;stroke-width:0.8;" x="268.820442" xlink:href="#m8807828c6e" y="307.584"/>
      </g>
     </g>
     <g id="text_4">
      <!-- 600 -->
      <defs>
       <path d="M 33.015625 40.375 
Q 26.375 40.375 22.484375 35.828125 
Q 18.609375 31.296875 18.609375 23.390625 
Q 18.609375 15.53125 22.484375 10.953125 
Q 26.375 6.390625 33.015625 6.390625 
Q 39.65625 6.390625 43.53125 10.953125 
Q 47.40625 15.53125 47.40625 23.390625 
Q 47.40625 31.296875 43.53125 35.828125 
Q 39.65625 40.375 33.015625 40.375 
z
M 52.59375 71.296875 
L 52.59375 62.3125 
Q 48.875 64.0625 45.09375 64.984375 
Q 41.3125 65.921875 37.59375 65.921875 
Q 27.828125 65.921875 22.671875 59.328125 
Q 17.53125 52.734375 16.796875 39.40625 
Q 19.671875 43.65625 24.015625 45.921875 
Q 28.375 48.1875 33.59375 48.1875 
Q 44.578125 48.1875 50.953125 41.515625 
Q 57.328125 34.859375 57.328125 23.390625 
Q 57.328125 12.15625 50.6875 5.359375 
Q 44.046875 -1.421875 33.015625 -1.421875 
Q 20.359375 -1.421875 13.671875 8.265625 
Q 6.984375 17.96875 6.984375 36.375 
Q 6.984375 53.65625 15.1875 63.9375 
Q 23.390625 74.21875 37.203125 74.21875 
Q 40.921875 74.21875 44.703125 73.484375 
Q 48.484375 72.75 52.59375 71.296875 
z
" id="DejaVuSans-54"/>
      </defs>
      <g transform="translate(259.276692 322.182437)scale(0.1 -0.1)">
       <use xlink:href="#DejaVuSans-54"/>
       <use x="63.623047" xlink:href="#DejaVuSans-48"/>
       <use x="127.246094" xlink:href="#DejaVuSans-48"/>
      </g>
     </g>
    </g>
    <g id="xtick_5">
     <g id="line2d_5">
      <g>
       <use style="stroke:#000000;stroke-width:0.8;" x="333.816347" xlink:href="#m8807828c6e" y="307.584"/>
      </g>
     </g>
     <g id="text_5">
      <!-- 800 -->
      <defs>
       <path d="M 31.78125 34.625 
Q 24.75 34.625 20.71875 30.859375 
Q 16.703125 27.09375 16.703125 20.515625 
Q 16.703125 13.921875 20.71875 10.15625 
Q 24.75 6.390625 31.78125 6.390625 
Q 38.8125 6.390625 42.859375 10.171875 
Q 46.921875 13.96875 46.921875 20.515625 
Q 46.921875 27.09375 42.890625 30.859375 
Q 38.875 34.625 31.78125 34.625 
z
M 21.921875 38.8125 
Q 15.578125 40.375 12.03125 44.71875 
Q 8.5 49.078125 8.5 55.328125 
Q 8.5 64.0625 14.71875 69.140625 
Q 20.953125 74.21875 31.78125 74.21875 
Q 42.671875 74.21875 48.875 69.140625 
Q 55.078125 64.0625 55.078125 55.328125 
Q 55.078125 49.078125 51.53125 44.71875 
Q 48 40.375 41.703125 38.8125 
Q 48.828125 37.15625 52.796875 32.3125 
Q 56.78125 27.484375 56.78125 20.515625 
Q 56.78125 9.90625 50.3125 4.234375 
Q 43.84375 -1.421875 31.78125 -1.421875 
Q 19.734375 -1.421875 13.25 4.234375 
Q 6.78125 9.90625 6.78125 20.515625 
Q 6.78125 27.484375 10.78125 32.3125 
Q 14.796875 37.15625 21.921875 38.8125 
z
M 18.3125 54.390625 
Q 18.3125 48.734375 21.84375 45.5625 
Q 25.390625 42.390625 31.78125 42.390625 
Q 38.140625 42.390625 41.71875 45.5625 
Q 45.3125 48.734375 45.3125 54.390625 
Q 45.3125 60.0625 41.71875 63.234375 
Q 38.140625 66.40625 31.78125 66.40625 
Q 25.390625 66.40625 21.84375 63.234375 
Q 18.3125 60.0625 18.3125 54.390625 
z
" id="DejaVuSans-56"/>
      </defs>
      <g transform="translate(324.272597 322.182437)scale(0.1 -0.1)">
       <use xlink:href="#DejaVuSans-56"/>
       <use x="63.623047" xlink:href="#DejaVuSans-48"/>
       <use x="127.246094" xlink:href="#DejaVuSans-48"/>
      </g>
     </g>
    </g>
    <g id="xtick_6">
     <g id="line2d_6">
      <g>
       <use style="stroke:#000000;stroke-width:0.8;" x="398.812252" xlink:href="#m8807828c6e" y="307.584"/>
      </g>
     </g>
     <g id="text_6">
      <!-- 1000 -->
      <defs>
       <path d="M 12.40625 8.296875 
L 28.515625 8.296875 
L 28.515625 63.921875 
L 10.984375 60.40625 
L 10.984375 69.390625 
L 28.421875 72.90625 
L 38.28125 72.90625 
L 38.28125 8.296875 
L 54.390625 8.296875 
L 54.390625 0 
L 12.40625 0 
z
" id="DejaVuSans-49"/>
      </defs>
      <g transform="translate(386.087252 322.182437)scale(0.1 -0.1)">
       <use xlink:href="#DejaVuSans-49"/>
       <use x="63.623047" xlink:href="#DejaVuSans-48"/>
       <use x="127.246094" xlink:href="#DejaVuSans-48"/>
       <use x="190.869141" xlink:href="#DejaVuSans-48"/>
      </g>
     </g>
    </g>
    <g id="text_7">
     <!-- Frequency (Hz) -->
     <defs>
      <path d="M 9.8125 72.90625 
L 51.703125 72.90625 
L 51.703125 64.59375 
L 19.671875 64.59375 
L 19.671875 43.109375 
L 48.578125 43.109375 
L 48.578125 34.8125 
L 19.671875 34.8125 
L 19.671875 0 
L 9.8125 0 
z
" id="DejaVuSans-70"/>
      <path d="M 41.109375 46.296875 
Q 39.59375 47.171875 37.8125 47.578125 
Q 36.03125 48 33.890625 48 
Q 26.265625 48 22.1875 43.046875 
Q 18.109375 38.09375 18.109375 28.8125 
L 18.109375 0 
L 9.078125 0 
L 9.078125 54.6875 
L 18.109375 54.6875 
L 18.109375 46.1875 
Q 20.953125 51.171875 25.484375 53.578125 
Q 30.03125 56 36.53125 56 
Q 37.453125 56 38.578125 55.875 
Q 39.703125 55.765625 41.0625 55.515625 
z
" id="DejaVuSans-114"/>
      <path d="M 56.203125 29.59375 
L 56.203125 25.203125 
L 14.890625 25.203125 
Q 15.484375 15.921875 20.484375 11.0625 
Q 25.484375 6.203125 34.421875 6.203125 
Q 39.59375 6.203125 44.453125 7.46875 
Q 49.3125 8.734375 54.109375 11.28125 
L 54.109375 2.78125 
Q 49.265625 0.734375 44.1875 -0.34375 
Q 39.109375 -1.421875 33.890625 -1.421875 
Q 20.796875 -1.421875 13.15625 6.1875 
Q 5.515625 13.8125 5.515625 26.8125 
Q 5.515625 40.234375 12.765625 48.109375 
Q 20.015625 56 32.328125 56 
Q 43.359375 56 49.78125 48.890625 
Q 56.203125 41.796875 56.203125 29.59375 
z
M 47.21875 32.234375 
Q 47.125 39.59375 43.09375 43.984375 
Q 39.0625 48.390625 32.421875 48.390625 
Q 24.90625 48.390625 20.390625 44.140625 
Q 15.875 39.890625 15.1875 32.171875 
z
" id="DejaVuSans-101"/>
      <path d="M 14.796875 27.296875 
Q 14.796875 17.390625 18.875 11.75 
Q 22.953125 6.109375 30.078125 6.109375 
Q 37.203125 6.109375 41.296875 11.75 
Q 45.40625 17.390625 45.40625 27.296875 
Q 45.40625 37.203125 41.296875 42.84375 
Q 37.203125 48.484375 30.078125 48.484375 
Q 22.953125 48.484375 18.875 42.84375 
Q 14.796875 37.203125 14.796875 27.296875 
z
M 45.40625 8.203125 
Q 42.578125 3.328125 38.25 0.953125 
Q 33.9375 -1.421875 27.875 -1.421875 
Q 17.96875 -1.421875 11.734375 6.484375 
Q 5.515625 14.40625 5.515625 27.296875 
Q 5.515625 40.1875 11.734375 48.09375 
Q 17.96875 56 27.875 56 
Q 33.9375 56 38.25 53.625 
Q 42.578125 51.265625 45.40625 46.390625 
L 45.40625 54.6875 
L 54.390625 54.6875 
L 54.390625 -20.796875 
L 45.40625 -20.796875 
z
" id="DejaVuSans-113"/>
      <path d="M 8.5 21.578125 
L 8.5 54.6875 
L 17.484375 54.6875 
L 17.484375 21.921875 
Q 17.484375 14.15625 20.5 10.265625 
Q 23.53125 6.390625 29.59375 6.390625 
Q 36.859375 6.390625 41.078125 11.03125 
Q 45.3125 15.671875 45.3125 23.6875 
L 45.3125 54.6875 
L 54.296875 54.6875 
L 54.296875 0 
L 45.3125 0 
L 45.3125 8.40625 
Q 42.046875 3.421875 37.71875 1 
Q 33.40625 -1.421875 27.6875 -1.421875 
Q 18.265625 -1.421875 13.375 4.4375 
Q 8.5 10.296875 8.5 21.578125 
z
M 31.109375 56 
z
" id="DejaVuSans-117"/>
      <path d="M 54.890625 33.015625 
L 54.890625 0 
L 45.90625 0 
L 45.90625 32.71875 
Q 45.90625 40.484375 42.875 44.328125 
Q 39.84375 48.1875 33.796875 48.1875 
Q 26.515625 48.1875 22.3125 43.546875 
Q 18.109375 38.921875 18.109375 30.90625 
L 18.109375 0 
L 9.078125 0 
L 9.078125 54.6875 
L 18.109375 54.6875 
L 18.109375 46.1875 
Q 21.34375 51.125 25.703125 53.5625 
Q 30.078125 56 35.796875 56 
Q 45.21875 56 50.046875 50.171875 
Q 54.890625 44.34375 54.890625 33.015625 
z
" id="DejaVuSans-110"/>
      <path d="M 48.78125 52.59375 
L 48.78125 44.1875 
Q 44.96875 46.296875 41.140625 47.34375 
Q 37.3125 48.390625 33.40625 48.390625 
Q 24.65625 48.390625 19.8125 42.84375 
Q 14.984375 37.3125 14.984375 27.296875 
Q 14.984375 17.28125 19.8125 11.734375 
Q 24.65625 6.203125 33.40625 6.203125 
Q 37.3125 6.203125 41.140625 7.25 
Q 44.96875 8.296875 48.78125 10.40625 
L 48.78125 2.09375 
Q 45.015625 0.34375 40.984375 -0.53125 
Q 36.96875 -1.421875 32.421875 -1.421875 
Q 20.0625 -1.421875 12.78125 6.34375 
Q 5.515625 14.109375 5.515625 27.296875 
Q 5.515625 40.671875 12.859375 48.328125 
Q 20.21875 56 33.015625 56 
Q 37.15625 56 41.109375 55.140625 
Q 45.0625 54.296875 48.78125 52.59375 
z
" id="DejaVuSans-99"/>
      <path d="M 32.171875 -5.078125 
Q 28.375 -14.84375 24.75 -17.8125 
Q 21.140625 -20.796875 15.09375 -20.796875 
L 7.90625 -20.796875 
L 7.90625 -13.28125 
L 13.1875 -13.28125 
Q 16.890625 -13.28125 18.9375 -11.515625 
Q 21 -9.765625 23.484375 -3.21875 
L 25.09375 0.875 
L 2.984375 54.6875 
L 12.5 54.6875 
L 29.59375 11.921875 
L 46.6875 54.6875 
L 56.203125 54.6875 
z
" id="DejaVuSans-121"/>
      <path id="DejaVuSans-32"/>
      <path d="M 31 75.875 
Q 24.46875 64.65625 21.28125 53.65625 
Q 18.109375 42.671875 18.109375 31.390625 
Q 18.109375 20.125 21.3125 9.0625 
Q 24.515625 -2 31 -13.1875 
L 23.1875 -13.1875 
Q 15.875 -1.703125 12.234375 9.375 
Q 8.59375 20.453125 8.59375 31.390625 
Q 8.59375 42.28125 12.203125 53.3125 
Q 15.828125 64.359375 23.1875 75.875 
z
" id="DejaVuSans-40"/>
      <path d="M 9.8125 72.90625 
L 19.671875 72.90625 
L 19.671875 43.015625 
L 55.515625 43.015625 
L 55.515625 72.90625 
L 65.375 72.90625 
L 65.375 0 
L 55.515625 0 
L 55.515625 34.71875 
L 19.671875 34.71875 
L 19.671875 0 
L 9.8125 0 
z
" id="DejaVuSans-72"/>
      <path d="M 5.515625 54.6875 
L 48.1875 54.6875 
L 48.1875 46.484375 
L 14.40625 7.171875 
L 48.1875 7.171875 
L 48.1875 0 
L 4.296875 0 
L 4.296875 8.203125 
L 38.09375 47.515625 
L 5.515625 47.515625 
z
" id="DejaVuSans-122"/>
      <path d="M 8.015625 75.875 
L 15.828125 75.875 
Q 23.140625 64.359375 26.78125 53.3125 
Q 30.421875 42.28125 30.421875 31.390625 
Q 30.421875 20.453125 26.78125 9.375 
Q 23.140625 -1.703125 15.828125 -13.1875 
L 8.015625 -13.1875 
Q 14.5 -2 17.703125 9.0625 
Q 20.90625 20.125 20.90625 31.390625 
Q 20.90625 42.671875 17.703125 53.65625 
Q 14.5 64.65625 8.015625 75.875 
z
" id="DejaVuSans-41"/>
     </defs>
     <g transform="translate(198.455312 335.860562)scale(0.1 -0.1)">
      <use xlink:href="#DejaVuSans-70"/>
      <use x="50.269531" xlink:href="#DejaVuSans-114"/>
      <use x="89.132812" xlink:href="#DejaVuSans-101"/>
      <use x="150.65625" xlink:href="#DejaVuSans-113"/>
      <use x="214.132812" xlink:href="#DejaVuSans-117"/>
      <use x="277.511719" xlink:href="#DejaVuSans-101"/>
      <use x="339.035156" xlink:href="#DejaVuSans-110"/>
      <use x="402.414062" xlink:href="#DejaVuSans-99"/>
      <use x="457.394531" xlink:href="#DejaVuSans-121"/>
      <use x="516.574219" xlink:href="#DejaVuSans-32"/>
      <use x="548.361328" xlink:href="#DejaVuSans-40"/>
      <use x="587.375" xlink:href="#DejaVuSans-72"/>
      <use x="662.570312" xlink:href="#DejaVuSans-122"/>
      <use x="715.060547" xlink:href="#DejaVuSans-41"/>
     </g>
    </g>
   </g>
   <g id="matplotlib.axis_2">
    <g id="ytick_1">
     <g id="line2d_7">
      <defs>
       <path d="M 0 0 
L -3.5 0 
" id="m2296b663ec" style="stroke:#000000;stroke-width:0.8;"/>
      </defs>
      <g>
       <use style="stroke:#000000;stroke-width:0.8;" x="57.6" xlink:href="#m2296b663ec" y="296.105231"/>
      </g>
     </g>
     <g id="text_8">
      <!-- 0 -->
      <g transform="translate(44.2375 299.90445)scale(0.1 -0.1)">
       <use xlink:href="#DejaVuSans-48"/>
      </g>
     </g>
    </g>
    <g id="ytick_2">
     <g id="line2d_8">
      <g>
       <use style="stroke:#000000;stroke-width:0.8;" x="57.6" xlink:href="#m2296b663ec" y="247.443156"/>
      </g>
     </g>
     <g id="text_9">
      <!-- 20 -->
      <g transform="translate(37.875 251.242375)scale(0.1 -0.1)">
       <use xlink:href="#DejaVuSans-50"/>
       <use x="63.623047" xlink:href="#DejaVuSans-48"/>
      </g>
     </g>
    </g>
    <g id="ytick_3">
     <g id="line2d_9">
      <g>
       <use style="stroke:#000000;stroke-width:0.8;" x="57.6" xlink:href="#m2296b663ec" y="198.781082"/>
      </g>
     </g>
     <g id="text_10">
      <!-- 40 -->
      <g transform="translate(37.875 202.5803)scale(0.1 -0.1)">
       <use xlink:href="#DejaVuSans-52"/>
       <use x="63.623047" xlink:href="#DejaVuSans-48"/>
      </g>
     </g>
    </g>
    <g id="ytick_4">
     <g id="line2d_10">
      <g>
       <use style="stroke:#000000;stroke-width:0.8;" x="57.6" xlink:href="#m2296b663ec" y="150.119007"/>
      </g>
     </g>
     <g id="text_11">
      <!-- 60 -->
      <g transform="translate(37.875 153.918225)scale(0.1 -0.1)">
       <use xlink:href="#DejaVuSans-54"/>
       <use x="63.623047" xlink:href="#DejaVuSans-48"/>
      </g>
     </g>
    </g>
    <g id="ytick_5">
     <g id="line2d_11">
      <g>
       <use style="stroke:#000000;stroke-width:0.8;" x="57.6" xlink:href="#m2296b663ec" y="101.456932"/>
      </g>
     </g>
     <g id="text_12">
      <!-- 80 -->
      <g transform="translate(37.875 105.256151)scale(0.1 -0.1)">
       <use xlink:href="#DejaVuSans-56"/>
       <use x="63.623047" xlink:href="#DejaVuSans-48"/>
      </g>
     </g>
    </g>
    <g id="ytick_6">
     <g id="line2d_12">
      <g>
       <use style="stroke:#000000;stroke-width:0.8;" x="57.6" xlink:href="#m2296b663ec" y="52.794857"/>
      </g>
     </g>
     <g id="text_13">
      <!-- 100 -->
      <g transform="translate(31.5125 56.594076)scale(0.1 -0.1)">
       <use xlink:href="#DejaVuSans-49"/>
       <use x="63.623047" xlink:href="#DejaVuSans-48"/>
       <use x="127.246094" xlink:href="#DejaVuSans-48"/>
      </g>
     </g>
    </g>
    <g id="text_14">
     <!-- Amplitude -->
     <defs>
      <path d="M 34.1875 63.1875 
L 20.796875 26.90625 
L 47.609375 26.90625 
z
M 28.609375 72.90625 
L 39.796875 72.90625 
L 67.578125 0 
L 57.328125 0 
L 50.6875 18.703125 
L 17.828125 18.703125 
L 11.1875 0 
L 0.78125 0 
z
" id="DejaVuSans-65"/>
      <path d="M 52 44.1875 
Q 55.375 50.25 60.0625 53.125 
Q 64.75 56 71.09375 56 
Q 79.640625 56 84.28125 50.015625 
Q 88.921875 44.046875 88.921875 33.015625 
L 88.921875 0 
L 79.890625 0 
L 79.890625 32.71875 
Q 79.890625 40.578125 77.09375 44.375 
Q 74.3125 48.1875 68.609375 48.1875 
Q 61.625 48.1875 57.5625 43.546875 
Q 53.515625 38.921875 53.515625 30.90625 
L 53.515625 0 
L 44.484375 0 
L 44.484375 32.71875 
Q 44.484375 40.625 41.703125 44.40625 
Q 38.921875 48.1875 33.109375 48.1875 
Q 26.21875 48.1875 22.15625 43.53125 
Q 18.109375 38.875 18.109375 30.90625 
L 18.109375 0 
L 9.078125 0 
L 9.078125 54.6875 
L 18.109375 54.6875 
L 18.109375 46.1875 
Q 21.1875 51.21875 25.484375 53.609375 
Q 29.78125 56 35.6875 56 
Q 41.65625 56 45.828125 52.96875 
Q 50 49.953125 52 44.1875 
z
" id="DejaVuSans-109"/>
      <path d="M 18.109375 8.203125 
L 18.109375 -20.796875 
L 9.078125 -20.796875 
L 9.078125 54.6875 
L 18.109375 54.6875 
L 18.109375 46.390625 
Q 20.953125 51.265625 25.265625 53.625 
Q 29.59375 56 35.59375 56 
Q 45.5625 56 51.78125 48.09375 
Q 58.015625 40.1875 58.015625 27.296875 
Q 58.015625 14.40625 51.78125 6.484375 
Q 45.5625 -1.421875 35.59375 -1.421875 
Q 29.59375 -1.421875 25.265625 0.953125 
Q 20.953125 3.328125 18.109375 8.203125 
z
M 48.6875 27.296875 
Q 48.6875 37.203125 44.609375 42.84375 
Q 40.53125 48.484375 33.40625 48.484375 
Q 26.265625 48.484375 22.1875 42.84375 
Q 18.109375 37.203125 18.109375 27.296875 
Q 18.109375 17.390625 22.1875 11.75 
Q 26.265625 6.109375 33.40625 6.109375 
Q 40.53125 6.109375 44.609375 11.75 
Q 48.6875 17.390625 48.6875 27.296875 
z
" id="DejaVuSans-112"/>
      <path d="M 9.421875 75.984375 
L 18.40625 75.984375 
L 18.40625 0 
L 9.421875 0 
z
" id="DejaVuSans-108"/>
      <path d="M 9.421875 54.6875 
L 18.40625 54.6875 
L 18.40625 0 
L 9.421875 0 
z
M 9.421875 75.984375 
L 18.40625 75.984375 
L 18.40625 64.59375 
L 9.421875 64.59375 
z
" id="DejaVuSans-105"/>
      <path d="M 18.3125 70.21875 
L 18.3125 54.6875 
L 36.8125 54.6875 
L 36.8125 47.703125 
L 18.3125 47.703125 
L 18.3125 18.015625 
Q 18.3125 11.328125 20.140625 9.421875 
Q 21.96875 7.515625 27.59375 7.515625 
L 36.8125 7.515625 
L 36.8125 0 
L 27.59375 0 
Q 17.1875 0 13.234375 3.875 
Q 9.28125 7.765625 9.28125 18.015625 
L 9.28125 47.703125 
L 2.6875 47.703125 
L 2.6875 54.6875 
L 9.28125 54.6875 
L 9.28125 70.21875 
z
" id="DejaVuSans-116"/>
      <path d="M 45.40625 46.390625 
L 45.40625 75.984375 
L 54.390625 75.984375 
L 54.390625 0 
L 45.40625 0 
L 45.40625 8.203125 
Q 42.578125 3.328125 38.25 0.953125 
Q 33.9375 -1.421875 27.875 -1.421875 
Q 17.96875 -1.421875 11.734375 6.484375 
Q 5.515625 14.40625 5.515625 27.296875 
Q 5.515625 40.1875 11.734375 48.09375 
Q 17.96875 56 27.875 56 
Q 33.9375 56 38.25 53.625 
Q 42.578125 51.265625 45.40625 46.390625 
z
M 14.796875 27.296875 
Q 14.796875 17.390625 18.875 11.75 
Q 22.953125 6.109375 30.078125 6.109375 
Q 37.203125 6.109375 41.296875 11.75 
Q 45.40625 17.390625 45.40625 27.296875 
Q 45.40625 37.203125 41.296875 42.84375 
Q 37.203125 48.484375 30.078125 48.484375 
Q 22.953125 48.484375 18.875 42.84375 
Q 14.796875 37.203125 14.796875 27.296875 
z
" id="DejaVuSans-100"/>
     </defs>
     <g transform="translate(25.432812 200.150656)rotate(-90)scale(0.1 -0.1)">
      <use xlink:href="#DejaVuSans-65"/>
      <use x="68.408203" xlink:href="#DejaVuSans-109"/>
      <use x="165.820312" xlink:href="#DejaVuSans-112"/>
      <use x="229.296875" xlink:href="#DejaVuSans-108"/>
      <use x="257.080078" xlink:href="#DejaVuSans-105"/>
      <use x="284.863281" xlink:href="#DejaVuSans-116"/>
      <use x="324.072266" xlink:href="#DejaVuSans-117"/>
      <use x="387.451172" xlink:href="#DejaVuSans-100"/>
      <use x="450.927734" xlink:href="#DejaVuSans-101"/>
     </g>
    </g>
   </g>
   <g id="line2d_13">
    <path clip-path="url(#padab5623d4)" d="M 73.832727 265.07908 
L 74.157707 222.975619 
L 74.482686 153.461524 
L 74.807666 200.199019 
L 75.132645 153.480388 
L 75.457625 174.269284 
L 75.782604 260.568779 
L 76.107584 154.512827 
L 76.432563 220.847109 
L 76.757543 192.480268 
L 77.082523 254.007998 
L 77.407502 179.896807 
L 77.732482 252.4071 
L 78.057461 182.723967 
L 78.382441 186.115509 
L 78.70742 217.1394 
L 79.0324 224.391872 
L 79.357379 166.81874 
L 79.682359 279.134142 
L 80.007338 236.333298 
L 80.332318 250.428287 
L 80.657297 175.053672 
L 80.982277 168.411187 
L 81.307256 172.245085 
L 81.632236 253.528494 
L 81.957215 210.108751 
L 82.282195 197.411085 
L 82.607174 216.936194 
L 82.932154 181.11904 
L 83.257133 267.5089 
L 83.582113 204.6292 
L 83.907093 241.633662 
L 84.232072 203.75109 
L 84.557052 135.133208 
L 84.882031 229.098144 
L 85.207011 271.426373 
L 85.53199 260.205897 
L 85.85697 146.328577 
L 86.506929 226.586182 
L 86.831908 117.768175 
L 87.156888 252.497823 
L 87.481867 237.81778 
L 87.806847 150.51322 
L 88.131826 221.888253 
L 88.456806 99.146686 
L 88.781785 53.568 
L 89.431744 270.718244 
L 89.756724 210.280207 
L 90.081704 265.79955 
L 90.406683 212.713152 
L 90.731663 269.152831 
L 91.056642 126.593609 
L 91.381622 266.839663 
L 91.706601 271.393544 
L 92.031581 233.679996 
L 92.35656 238.362825 
L 92.68154 182.282874 
L 93.006519 179.128873 
L 93.331499 257.402965 
L 93.656478 207.147591 
L 93.981458 231.8684 
L 94.306437 230.102938 
L 94.631417 168.691187 
L 94.956396 190.001355 
L 95.281376 265.229057 
L 95.606355 208.431216 
L 95.931335 252.981032 
L 96.256314 196.405534 
L 96.581294 198.871004 
L 96.906274 253.961798 
L 97.231253 253.508711 
L 97.556233 246.223954 
L 97.881212 153.359241 
L 98.206192 230.485337 
L 98.531171 198.391375 
L 98.856151 245.359757 
L 99.18113 186.556922 
L 99.50611 178.480063 
L 99.831089 232.613664 
L 100.481048 260.938198 
L 100.806028 246.653241 
L 101.131007 243.977656 
L 101.455987 224.010807 
L 101.780966 289.162006 
L 102.105946 191.338436 
L 102.430925 215.847448 
L 102.755905 277.481312 
L 103.080885 270.866329 
L 103.405864 176.023243 
L 103.730844 225.946007 
L 104.055823 250.208019 
L 104.705782 177.883573 
L 105.030762 266.835257 
L 105.355741 258.873487 
L 105.680721 146.988682 
L 106.0057 240.807504 
L 106.33068 165.580921 
L 106.655659 234.535252 
L 106.980639 193.49076 
L 107.305618 193.073911 
L 107.630598 258.704372 
L 107.955577 213.585237 
L 108.280557 265.440402 
L 108.605536 259.465754 
L 109.255495 236.830838 
L 109.580475 213.991827 
L 109.905455 259.267938 
L 110.230434 187.787616 
L 110.555414 248.561337 
L 110.880393 218.236552 
L 111.205373 266.020292 
L 111.530352 206.49255 
L 112.180311 259.304601 
L 112.505291 219.485927 
L 112.83027 271.134198 
L 113.15525 231.808619 
L 113.480229 236.449858 
L 113.805209 258.219281 
L 114.130188 229.362847 
L 114.780147 267.011955 
L 115.105127 233.249747 
L 115.430106 227.334611 
L 116.405045 251.551366 
L 116.730025 282.772102 
L 117.055004 212.303729 
L 117.379984 257.582483 
L 117.704963 202.832461 
L 118.029943 266.623255 
L 118.354922 244.102719 
L 118.679902 243.57471 
L 119.004881 221.519252 
L 119.329861 281.294222 
L 119.97982 267.377195 
L 120.304799 248.726176 
L 120.629779 272.084525 
L 120.954758 247.128481 
L 121.279738 233.186522 
L 121.604717 242.412863 
L 121.929697 260.900024 
L 122.254676 246.06556 
L 122.904636 270.764579 
L 123.229615 269.046777 
L 123.554595 279.91349 
L 123.879574 261.522529 
L 124.204554 258.260289 
L 124.529533 285.87892 
L 124.854513 262.882696 
L 125.179492 267.684061 
L 125.504472 256.079375 
L 125.829451 257.22286 
L 126.154431 244.303449 
L 126.47941 273.828133 
L 126.80439 243.457156 
L 127.129369 282.230642 
L 127.454349 284.804457 
L 127.779328 266.675952 
L 128.104308 263.944961 
L 128.754267 255.017114 
L 129.079247 243.846587 
L 129.404226 270.572804 
L 129.729206 239.784953 
L 130.054185 260.904903 
L 130.379165 257.837955 
L 130.704144 239.519699 
L 131.354103 282.941679 
L 131.679083 271.865604 
L 132.004062 272.43058 
L 132.329042 271.200438 
L 132.654021 276.435374 
L 132.979001 271.327627 
L 133.30398 248.424147 
L 133.62896 234.536053 
L 133.953939 280.697928 
L 134.278919 260.515388 
L 134.928878 288.886157 
L 135.253857 264.024735 
L 135.578837 279.692104 
L 136.228796 289.521149 
L 136.553776 284.489002 
L 136.878755 268.543301 
L 137.203735 283.319653 
L 137.528714 252.532484 
L 137.853694 285.272508 
L 138.178673 264.683341 
L 138.503653 266.459291 
L 138.828632 285.891408 
L 139.153612 274.660094 
L 139.478591 281.858043 
L 139.803571 261.51965 
L 140.12855 266.178247 
L 140.45353 259.952108 
L 140.778509 267.969496 
L 141.103489 293.33087 
L 141.428468 251.186188 
L 141.753448 292.774066 
L 142.078428 263.985322 
L 142.403407 280.993505 
L 142.728387 281.166944 
L 143.378346 272.688309 
L 143.703325 288.459697 
L 144.028305 269.889317 
L 144.353284 288.603209 
L 144.678264 272.834514 
L 145.003243 264.257238 
L 145.328223 272.209195 
L 145.978182 279.152053 
L 146.303161 265.032465 
L 146.628141 274.841453 
L 146.95312 275.162953 
L 147.2781 266.671891 
L 147.603079 271.418147 
L 147.928059 280.297248 
L 148.253038 273.018295 
L 148.578018 285.022961 
L 149.227977 280.452801 
L 149.877936 270.538756 
L 150.202916 272.799384 
L 150.527895 276.852107 
L 150.852875 278.587902 
L 151.177854 276.55475 
L 151.502834 279.716302 
L 151.827813 280.488015 
L 152.152793 278.84786 
L 152.477772 280.55373 
L 152.802752 280.632805 
L 153.127731 279.293999 
L 153.452711 279.67982 
L 153.77769 281.850228 
L 154.10267 280.349366 
L 154.427649 282.120234 
L 154.752629 281.560171 
L 155.402588 281.818433 
L 155.727568 282.144591 
L 156.052547 282.875903 
L 156.377527 281.590694 
L 156.702506 281.491715 
L 157.027486 283.272275 
L 157.352465 284.200026 
L 157.677445 281.653498 
L 158.002424 284.039097 
L 158.327404 283.075734 
L 158.652383 280.923247 
L 158.977363 284.706861 
L 159.302342 282.781337 
L 159.627322 284.147638 
L 159.952301 286.341459 
L 160.277281 279.694934 
L 160.60226 284.056401 
L 160.92724 283.640785 
L 161.252219 288.251631 
L 161.577199 281.895127 
L 161.902179 283.300785 
L 162.227158 285.81238 
L 162.552138 291.01582 
L 163.202097 276.359199 
L 163.527076 286.287852 
L 163.852056 278.367643 
L 164.177035 285.234275 
L 164.502015 282.96778 
L 164.826994 278.63216 
L 165.151974 290.437076 
L 165.476953 280.277202 
L 165.801933 283.110551 
L 166.126912 288.990351 
L 166.451892 272.738771 
L 166.776871 275.774422 
L 167.101851 285.184182 
L 167.42683 282.831025 
L 167.75181 286.782246 
L 168.401769 278.108564 
L 168.726749 288.230905 
L 169.051728 291.248006 
L 169.376708 271.351831 
L 169.701687 284.903731 
L 170.026667 268.745258 
L 170.676626 277.173111 
L 171.001605 272.907812 
L 171.326585 279.897682 
L 171.651564 282.640731 
L 171.976544 269.463875 
L 172.301523 266.740473 
L 172.626503 277.182413 
L 172.951482 277.164135 
L 173.276462 273.929081 
L 173.601441 272.33209 
L 173.926421 287.994777 
L 174.2514 283.703519 
L 174.57638 284.475453 
L 174.90136 285.899709 
L 175.226339 270.472603 
L 175.551319 290.772193 
L 176.201278 270.45842 
L 176.526257 269.961254 
L 176.851237 272.199082 
L 177.176216 271.211522 
L 177.501196 287.229755 
L 177.826175 285.610966 
L 178.151155 280.374973 
L 178.476134 280.30552 
L 178.801114 286.555113 
L 179.126093 263.485326 
L 179.451073 272.72801 
L 179.776052 286.141905 
L 180.101032 265.669367 
L 180.426011 275.836237 
L 180.750991 263.237107 
L 181.075971 265.909024 
L 181.40095 282.493564 
L 181.72593 276.488829 
L 182.050909 276.634552 
L 182.375889 273.442989 
L 182.700868 281.384936 
L 183.025848 274.930277 
L 183.350827 275.216139 
L 183.675807 264.677031 
L 184.000786 273.654302 
L 184.325766 276.714332 
L 184.650745 267.405916 
L 184.975725 285.799344 
L 185.300704 264.731661 
L 185.625684 286.032049 
L 185.950663 274.345816 
L 186.275643 268.833744 
L 186.925602 272.454263 
L 187.250581 275.835374 
L 187.575561 273.382156 
L 187.900541 255.711118 
L 188.22552 261.253891 
L 188.5505 286.423239 
L 188.875479 255.027733 
L 189.200459 286.349008 
L 189.525438 270.626444 
L 189.850418 282.409009 
L 190.175397 286.936168 
L 190.500377 256.014201 
L 191.150336 286.079462 
L 191.475315 288.92323 
L 191.800295 265.727456 
L 192.125274 270.192012 
L 192.450254 279.096718 
L 192.775233 282.461317 
L 193.100213 282.644377 
L 193.425192 263.200576 
L 193.750172 280.966043 
L 194.075152 291.019676 
L 194.400131 269.571832 
L 194.725111 279.289167 
L 195.05009 264.209535 
L 195.37507 269.954142 
L 195.700049 281.448678 
L 196.025029 263.040689 
L 196.674988 279.725801 
L 196.999967 262.651427 
L 197.324947 278.978459 
L 197.649926 289.433167 
L 197.974906 290.97239 
L 198.299885 276.299265 
L 198.624865 275.795898 
L 198.949844 280.373853 
L 199.274824 249.235092 
L 199.599803 285.417842 
L 199.924783 276.040038 
L 200.249762 287.758107 
L 200.574742 258.054854 
L 200.899722 280.122179 
L 201.224701 283.974145 
L 201.549681 285.616819 
L 201.87466 285.00924 
L 202.19964 273.996546 
L 202.524619 287.063077 
L 202.849599 261.511013 
L 203.174578 278.270436 
L 203.499558 257.279708 
L 203.824537 278.844597 
L 204.149517 282.771946 
L 204.474496 288.341231 
L 204.799476 290.449554 
L 205.124455 279.207744 
L 205.449435 284.169544 
L 205.774414 280.033791 
L 206.099394 279.785847 
L 206.424373 272.943439 
L 206.749353 273.550046 
L 207.074333 272.906102 
L 207.399312 276.979294 
L 207.724292 269.117327 
L 208.049271 281.484871 
L 208.374251 278.447882 
L 208.69923 284.90424 
L 209.02421 286.119025 
L 209.349189 287.829842 
L 209.674169 293.351055 
L 209.999148 287.521855 
L 210.324128 289.137735 
L 210.649107 274.662388 
L 210.974087 283.129513 
L 211.299066 269.422546 
L 211.624046 280.263947 
L 211.949025 277.617207 
L 212.274005 277.964383 
L 212.598984 290.452732 
L 212.923964 292.648161 
L 213.248943 282.9228 
L 213.573923 281.617838 
L 213.898903 273.37199 
L 214.223882 273.297143 
L 214.548862 273.343195 
L 214.873841 295.488 
L 215.198821 282.656629 
L 215.5238 275.516907 
L 215.84878 278.900195 
L 216.173759 276.378687 
L 216.498739 281.212631 
L 216.823718 281.676027 
L 217.473677 286.08746 
L 217.798657 294.242653 
L 218.123636 276.099702 
L 218.448616 288.787379 
L 219.098575 271.664107 
L 219.423554 273.168271 
L 219.748534 283.372725 
L 220.073514 280.847104 
L 220.398493 284.837277 
L 220.723473 280.094163 
L 221.048452 277.359093 
L 221.373432 284.927295 
L 221.698411 276.681273 
L 222.023391 277.474013 
L 222.34837 290.269861 
L 222.67335 280.837882 
L 222.998329 293.505332 
L 223.323309 285.488717 
L 223.648288 285.492393 
L 223.973268 283.624208 
L 224.298247 283.05603 
L 224.623227 293.231042 
L 224.948206 289.859357 
L 225.273186 284.40323 
L 225.598165 274.237807 
L 225.923145 284.16005 
L 226.573104 273.615475 
L 226.898084 283.450781 
L 227.223063 285.21072 
L 227.548043 288.73735 
L 227.873022 281.062146 
L 228.198002 281.422832 
L 228.522981 289.7492 
L 228.847961 292.339101 
L 229.49792 280.140377 
L 229.822899 290.934222 
L 230.147879 282.743588 
L 230.472858 285.678762 
L 230.797838 285.684875 
L 231.122817 290.191207 
L 231.447797 286.291526 
L 231.772776 286.586173 
L 232.097756 284.240873 
L 232.422735 289.909229 
L 232.747715 285.260539 
L 233.072695 285.101389 
L 233.397674 287.05995 
L 233.722654 288.046762 
L 234.047633 285.999128 
L 234.372613 288.659244 
L 234.697592 287.396003 
L 235.022572 287.143253 
L 235.347551 287.039172 
L 235.672531 287.300642 
L 236.32249 287.588663 
L 237.297428 287.039172 
L 237.622408 287.143253 
L 237.947387 287.396003 
L 238.272367 288.659244 
L 238.597346 285.999128 
L 238.922326 288.046762 
L 239.247305 287.05995 
L 239.572285 285.101389 
L 239.897265 285.260539 
L 240.222244 289.909229 
L 240.547224 284.240873 
L 240.872203 286.586173 
L 241.197183 286.291526 
L 241.522162 290.191207 
L 241.847142 285.684875 
L 242.172121 285.678762 
L 242.497101 282.743588 
L 242.82208 290.934222 
L 243.14706 280.140377 
L 243.797019 292.339101 
L 244.121998 289.7492 
L 244.446978 281.422832 
L 244.771957 281.062146 
L 245.096937 288.73735 
L 245.421916 285.21072 
L 245.746896 283.450781 
L 246.071876 273.615475 
L 246.721835 284.16005 
L 247.046814 274.237807 
L 247.371794 284.40323 
L 247.696773 289.859357 
L 248.021753 293.231042 
L 248.346732 283.05603 
L 248.671712 283.624208 
L 248.996691 285.492393 
L 249.321671 285.488717 
L 249.64665 293.505332 
L 249.97163 280.837882 
L 250.296609 290.269861 
L 250.621589 277.474013 
L 250.946568 276.681273 
L 251.271548 284.927295 
L 251.596527 277.359093 
L 251.921507 280.094163 
L 252.246486 284.837277 
L 252.571466 280.847104 
L 252.896446 283.372725 
L 253.221425 273.168271 
L 253.546405 271.664107 
L 254.196364 288.787379 
L 254.521343 276.099702 
L 254.846323 294.242653 
L 255.171302 286.08746 
L 255.821261 281.676027 
L 256.146241 281.212631 
L 256.47122 276.378687 
L 256.7962 278.900195 
L 257.121179 275.516907 
L 257.446159 282.656629 
L 257.771138 295.488 
L 258.096118 273.343195 
L 258.421097 273.297143 
L 258.746077 273.37199 
L 259.071057 281.617838 
L 259.396036 282.9228 
L 259.721016 292.648161 
L 260.045995 290.452732 
L 260.370975 277.964383 
L 260.695954 277.617207 
L 261.020934 280.263947 
L 261.345913 269.422546 
L 261.670893 283.129513 
L 261.995872 274.662388 
L 262.320852 289.137735 
L 262.645831 287.521855 
L 262.970811 293.351055 
L 263.29579 287.829842 
L 263.945749 284.90424 
L 264.270729 278.447882 
L 264.595708 281.484871 
L 264.920688 269.117327 
L 265.245667 276.979294 
L 265.570647 272.906102 
L 265.895627 273.550046 
L 266.220606 272.943439 
L 266.545586 279.785847 
L 266.870565 280.033791 
L 267.195545 284.169544 
L 267.520524 279.207744 
L 267.845504 290.449554 
L 268.170483 288.341231 
L 268.820442 278.844597 
L 269.145422 257.279708 
L 269.470401 278.270436 
L 269.795381 261.511013 
L 270.12036 287.063077 
L 270.44534 273.996546 
L 270.770319 285.00924 
L 271.095299 285.616819 
L 271.420278 283.974145 
L 271.745258 280.122179 
L 272.070238 258.054854 
L 272.395217 287.758107 
L 272.720197 276.040038 
L 273.045176 285.417842 
L 273.370156 249.235092 
L 273.695135 280.373853 
L 274.020115 275.795898 
L 274.345094 276.299265 
L 274.670074 290.97239 
L 274.995053 289.433167 
L 275.320033 278.978459 
L 275.645012 262.651427 
L 275.969992 279.725801 
L 276.294971 273.00738 
L 276.619951 263.040689 
L 276.94493 281.448678 
L 277.26991 269.954142 
L 277.594889 264.209535 
L 277.919869 279.289167 
L 278.244848 269.571832 
L 278.569828 291.019676 
L 278.894808 280.966043 
L 279.219787 263.200576 
L 279.544767 282.644377 
L 279.869746 282.461317 
L 280.194726 279.096718 
L 280.519705 270.192012 
L 280.844685 265.727456 
L 281.169664 288.92323 
L 281.494644 286.079462 
L 282.144603 256.014201 
L 282.469582 286.936168 
L 282.794562 282.409009 
L 283.119541 270.626444 
L 283.444521 286.349008 
L 283.7695 255.027733 
L 284.09448 286.423239 
L 284.419459 261.253891 
L 284.744439 255.711118 
L 285.069419 273.382156 
L 285.394398 275.835374 
L 285.719378 272.454263 
L 286.369337 268.833744 
L 286.694316 274.345816 
L 287.019296 286.032049 
L 287.344275 264.731661 
L 287.669255 285.799344 
L 287.994234 267.405916 
L 288.319214 276.714332 
L 288.644193 273.654302 
L 288.969173 264.677031 
L 289.294152 275.216139 
L 289.619132 274.930277 
L 289.944111 281.384936 
L 290.269091 273.442989 
L 290.59407 276.634552 
L 290.91905 276.488829 
L 291.244029 282.493564 
L 291.569009 265.909024 
L 291.893989 263.237107 
L 292.218968 275.836237 
L 292.543948 265.669367 
L 292.868927 286.141905 
L 293.518886 263.485326 
L 293.843866 286.555113 
L 294.168845 280.30552 
L 294.493825 280.374973 
L 294.818804 285.610966 
L 295.143784 287.229755 
L 295.468763 271.211522 
L 295.793743 272.199082 
L 296.118722 269.961254 
L 296.443702 270.45842 
L 297.093661 290.772193 
L 297.41864 270.472603 
L 297.74362 285.899709 
L 298.0686 284.475453 
L 298.393579 283.703519 
L 298.718559 287.994777 
L 299.043538 272.33209 
L 299.368518 273.929081 
L 299.693497 277.164135 
L 300.018477 277.182413 
L 300.343456 266.740473 
L 300.668436 269.463875 
L 300.993415 282.640731 
L 301.318395 279.897682 
L 301.643374 272.907812 
L 301.968354 277.173111 
L 302.618313 268.745258 
L 302.943292 284.903731 
L 303.268272 271.351831 
L 303.593251 291.248006 
L 303.918231 288.230905 
L 304.24321 278.108564 
L 304.89317 286.782246 
L 305.218149 282.831025 
L 305.543129 285.184182 
L 305.868108 275.774422 
L 306.193088 272.738771 
L 306.518067 288.990351 
L 306.843047 283.110551 
L 307.168026 280.277202 
L 307.493006 290.437076 
L 307.817985 278.63216 
L 308.142965 282.96778 
L 308.467944 285.234275 
L 308.792924 278.367643 
L 309.117903 286.287852 
L 309.442883 276.359199 
L 310.092842 291.01582 
L 310.417821 285.81238 
L 310.742801 283.300785 
L 311.067781 281.895127 
L 311.39276 288.251631 
L 311.71774 283.640785 
L 312.042719 284.056401 
L 312.367699 279.694934 
L 312.692678 286.341459 
L 313.017658 284.147638 
L 313.342637 282.781337 
L 313.667617 284.706861 
L 313.992596 280.923247 
L 314.317576 283.075734 
L 314.642555 284.039097 
L 314.967535 281.653498 
L 315.292514 284.200026 
L 315.617494 283.272275 
L 315.942473 281.491715 
L 316.267453 281.590694 
L 316.592432 282.875903 
L 316.917412 282.144591 
L 317.242391 281.818433 
L 317.892351 281.560171 
L 318.21733 282.120234 
L 318.54231 280.349366 
L 318.867289 281.850228 
L 319.192269 279.67982 
L 319.517248 279.293999 
L 319.842228 280.632805 
L 320.167207 280.55373 
L 320.492187 278.84786 
L 320.817166 280.488015 
L 321.142146 279.716302 
L 321.467125 276.55475 
L 321.792105 278.587902 
L 322.117084 276.852107 
L 322.442064 272.799384 
L 322.767043 270.538756 
L 323.417002 280.452801 
L 324.066962 285.022961 
L 324.391941 273.018295 
L 324.716921 280.297248 
L 325.0419 271.418147 
L 325.36688 266.671891 
L 325.691859 275.162953 
L 326.016839 274.841453 
L 326.341818 265.032465 
L 326.666798 279.152053 
L 327.316757 272.209195 
L 327.641736 264.257238 
L 327.966716 272.834514 
L 328.291695 288.603209 
L 328.616675 269.889317 
L 328.941654 288.459697 
L 329.266634 272.688309 
L 329.916593 281.166944 
L 330.241572 280.993505 
L 330.566552 263.985322 
L 330.891532 292.774066 
L 331.216511 251.186188 
L 331.541491 293.33087 
L 331.86647 267.969496 
L 332.19145 259.952108 
L 332.516429 266.178247 
L 332.841409 261.51965 
L 333.166388 281.858043 
L 333.491368 274.660094 
L 333.816347 285.891408 
L 334.141327 266.459291 
L 334.466306 264.683341 
L 334.791286 285.272508 
L 335.116265 252.532484 
L 335.441245 283.319653 
L 335.766224 268.543301 
L 336.091204 284.489002 
L 336.416183 289.521149 
L 337.066143 279.692104 
L 337.391122 264.024735 
L 337.716102 288.886157 
L 338.366061 260.515388 
L 338.69104 280.697928 
L 339.01602 234.536053 
L 339.340999 248.424147 
L 339.665979 271.327627 
L 339.990958 276.435374 
L 340.315938 271.200438 
L 340.640917 272.43058 
L 340.965897 271.865604 
L 341.290876 282.941679 
L 341.940835 239.519699 
L 342.265815 257.837955 
L 342.590794 260.904903 
L 342.915774 239.784953 
L 343.240753 270.572804 
L 343.565733 243.846587 
L 343.890713 255.017114 
L 344.540672 263.944961 
L 344.865651 266.675952 
L 345.190631 284.804457 
L 345.51561 282.230642 
L 345.84059 243.457156 
L 346.165569 273.828133 
L 346.490549 244.303449 
L 346.815528 257.22286 
L 347.140508 256.079375 
L 347.465487 267.684061 
L 347.790467 262.882696 
L 348.115446 285.87892 
L 348.440426 258.260289 
L 348.765405 261.522529 
L 349.090385 279.91349 
L 349.415364 269.046777 
L 349.740344 270.764579 
L 350.065324 260.284171 
L 350.390303 246.06556 
L 350.715283 260.900024 
L 351.040262 242.412863 
L 351.365242 233.186522 
L 351.690221 247.128481 
L 352.015201 272.084525 
L 352.34018 248.726176 
L 352.66516 267.377195 
L 352.990139 272.919023 
L 353.315119 281.294222 
L 353.640098 221.519252 
L 353.965078 243.57471 
L 354.290057 244.102719 
L 354.615037 266.623255 
L 354.940016 202.832461 
L 355.264996 257.582483 
L 355.589975 212.303729 
L 355.914955 282.772102 
L 356.239934 251.551366 
L 356.564914 246.674679 
L 357.214873 227.334611 
L 357.539853 233.249747 
L 357.864832 267.011955 
L 358.514791 229.362847 
L 358.839771 258.219281 
L 359.16475 236.449858 
L 359.48973 231.808619 
L 359.814709 271.134198 
L 360.139689 219.485927 
L 360.464668 259.304601 
L 361.114627 206.49255 
L 361.439607 266.020292 
L 361.764586 218.236552 
L 362.089566 248.561337 
L 362.414545 187.787616 
L 362.739525 259.267938 
L 363.064505 213.991827 
L 363.389484 236.830838 
L 364.039443 259.465754 
L 364.364423 265.440402 
L 364.689402 213.585237 
L 365.014382 258.704372 
L 365.339361 193.073911 
L 365.664341 193.49076 
L 365.98932 234.535252 
L 366.3143 165.580921 
L 366.639279 240.807504 
L 366.964259 146.988682 
L 367.289238 258.873487 
L 367.614218 266.835257 
L 367.939197 177.883573 
L 368.589156 250.208019 
L 368.914136 225.946007 
L 369.239115 176.023243 
L 369.564095 270.866329 
L 369.889075 277.481312 
L 370.214054 215.847448 
L 370.539034 191.338436 
L 370.864013 289.162006 
L 371.188993 224.010807 
L 371.513972 243.977656 
L 371.838952 246.653241 
L 372.163931 260.938198 
L 372.488911 249.650254 
L 372.81389 232.613664 
L 373.13887 178.480063 
L 373.463849 186.556922 
L 373.788829 245.359757 
L 374.113808 198.391375 
L 374.438788 230.485337 
L 374.763767 153.359241 
L 375.088747 246.223954 
L 375.413726 253.508711 
L 375.738706 253.961798 
L 376.063686 198.871004 
L 376.388665 196.405534 
L 376.713645 252.981032 
L 377.038624 208.431216 
L 377.363604 265.229057 
L 377.688583 190.001355 
L 378.013563 168.691187 
L 378.338542 230.102938 
L 378.663522 231.8684 
L 378.988501 207.147591 
L 379.313481 257.402965 
L 379.63846 179.128873 
L 379.96344 182.282874 
L 380.288419 238.362825 
L 380.613399 233.679996 
L 380.938378 271.393544 
L 381.263358 266.839663 
L 381.588337 126.593609 
L 381.913317 269.152831 
L 382.238296 212.713152 
L 382.563276 265.79955 
L 382.888256 210.280207 
L 383.213235 270.718244 
L 383.538215 182.722618 
L 383.863194 53.568 
L 384.188174 99.146686 
L 384.513153 221.888253 
L 384.838133 150.51322 
L 385.163112 237.81778 
L 385.488092 252.497823 
L 385.813071 117.768175 
L 386.138051 226.586182 
L 386.46303 192.680169 
L 386.78801 146.328577 
L 387.112989 260.205897 
L 387.437969 271.426373 
L 387.762948 229.098144 
L 388.087928 135.133208 
L 388.412907 203.75109 
L 388.737887 241.633662 
L 389.062867 204.6292 
L 389.387846 267.5089 
L 389.712826 181.11904 
L 390.037805 216.936194 
L 390.362785 197.411085 
L 390.687764 210.108751 
L 391.012744 253.528494 
L 391.337723 172.245085 
L 391.662703 168.411187 
L 391.987682 175.053672 
L 392.312662 250.428287 
L 392.637641 236.333298 
L 392.962621 279.134142 
L 393.2876 166.81874 
L 393.61258 224.391872 
L 393.937559 217.1394 
L 394.262539 186.115509 
L 394.587518 182.723967 
L 394.912498 252.4071 
L 395.237477 179.896807 
L 395.562457 254.007998 
L 395.887437 192.480268 
L 396.212416 220.847109 
L 396.537396 154.512827 
L 396.862375 260.568779 
L 397.187355 174.269284 
L 397.512334 153.480388 
L 397.837314 200.199019 
L 398.162293 153.461524 
L 398.487273 222.975619 
L 398.487273 222.975619 
" style="fill:none;stroke:#1f77b4;stroke-linecap:square;stroke-width:1.5;"/>
   </g>
   <g id="patch_3">
    <path d="M 57.6 307.584 
L 57.6 41.472 
" style="fill:none;stroke:#000000;stroke-linecap:square;stroke-linejoin:miter;stroke-width:0.8;"/>
   </g>
   <g id="patch_4">
    <path d="M 414.72 307.584 
L 414.72 41.472 
" style="fill:none;stroke:#000000;stroke-linecap:square;stroke-linejoin:miter;stroke-width:0.8;"/>
   </g>
   <g id="patch_5">
    <path d="M 57.6 307.584 
L 414.72 307.584 
" style="fill:none;stroke:#000000;stroke-linecap:square;stroke-linejoin:miter;stroke-width:0.8;"/>
   </g>
   <g id="patch_6">
    <path d="M 57.6 41.472 
L 414.72 41.472 
" style="fill:none;stroke:#000000;stroke-linecap:square;stroke-linejoin:miter;stroke-width:0.8;"/>
   </g>
   <g id="text_15">
    <!-- Frequency domain - averaging filter 1/4 (Array1) -->
    <defs>
     <path d="M 30.609375 48.390625 
Q 23.390625 48.390625 19.1875 42.75 
Q 14.984375 37.109375 14.984375 27.296875 
Q 14.984375 17.484375 19.15625 11.84375 
Q 23.34375 6.203125 30.609375 6.203125 
Q 37.796875 6.203125 41.984375 11.859375 
Q 46.1875 17.53125 46.1875 27.296875 
Q 46.1875 37.015625 41.984375 42.703125 
Q 37.796875 48.390625 30.609375 48.390625 
z
M 30.609375 56 
Q 42.328125 56 49.015625 48.375 
Q 55.71875 40.765625 55.71875 27.296875 
Q 55.71875 13.875 49.015625 6.21875 
Q 42.328125 -1.421875 30.609375 -1.421875 
Q 18.84375 -1.421875 12.171875 6.21875 
Q 5.515625 13.875 5.515625 27.296875 
Q 5.515625 40.765625 12.171875 48.375 
Q 18.84375 56 30.609375 56 
z
" id="DejaVuSans-111"/>
     <path d="M 34.28125 27.484375 
Q 23.390625 27.484375 19.1875 25 
Q 14.984375 22.515625 14.984375 16.5 
Q 14.984375 11.71875 18.140625 8.90625 
Q 21.296875 6.109375 26.703125 6.109375 
Q 34.1875 6.109375 38.703125 11.40625 
Q 43.21875 16.703125 43.21875 25.484375 
L 43.21875 27.484375 
z
M 52.203125 31.203125 
L 52.203125 0 
L 43.21875 0 
L 43.21875 8.296875 
Q 40.140625 3.328125 35.546875 0.953125 
Q 30.953125 -1.421875 24.3125 -1.421875 
Q 15.921875 -1.421875 10.953125 3.296875 
Q 6 8.015625 6 15.921875 
Q 6 25.140625 12.171875 29.828125 
Q 18.359375 34.515625 30.609375 34.515625 
L 43.21875 34.515625 
L 43.21875 35.40625 
Q 43.21875 41.609375 39.140625 45 
Q 35.0625 48.390625 27.6875 48.390625 
Q 23 48.390625 18.546875 47.265625 
Q 14.109375 46.140625 10.015625 43.890625 
L 10.015625 52.203125 
Q 14.9375 54.109375 19.578125 55.046875 
Q 24.21875 56 28.609375 56 
Q 40.484375 56 46.34375 49.84375 
Q 52.203125 43.703125 52.203125 31.203125 
z
" id="DejaVuSans-97"/>
     <path d="M 4.890625 31.390625 
L 31.203125 31.390625 
L 31.203125 23.390625 
L 4.890625 23.390625 
z
" id="DejaVuSans-45"/>
     <path d="M 2.984375 54.6875 
L 12.5 54.6875 
L 29.59375 8.796875 
L 46.6875 54.6875 
L 56.203125 54.6875 
L 35.6875 0 
L 23.484375 0 
z
" id="DejaVuSans-118"/>
     <path d="M 45.40625 27.984375 
Q 45.40625 37.75 41.375 43.109375 
Q 37.359375 48.484375 30.078125 48.484375 
Q 22.859375 48.484375 18.828125 43.109375 
Q 14.796875 37.75 14.796875 27.984375 
Q 14.796875 18.265625 18.828125 12.890625 
Q 22.859375 7.515625 30.078125 7.515625 
Q 37.359375 7.515625 41.375 12.890625 
Q 45.40625 18.265625 45.40625 27.984375 
z
M 54.390625 6.78125 
Q 54.390625 -7.171875 48.1875 -13.984375 
Q 42 -20.796875 29.203125 -20.796875 
Q 24.46875 -20.796875 20.265625 -20.09375 
Q 16.0625 -19.390625 12.109375 -17.921875 
L 12.109375 -9.1875 
Q 16.0625 -11.328125 19.921875 -12.34375 
Q 23.78125 -13.375 27.78125 -13.375 
Q 36.625 -13.375 41.015625 -8.765625 
Q 45.40625 -4.15625 45.40625 5.171875 
L 45.40625 9.625 
Q 42.625 4.78125 38.28125 2.390625 
Q 33.9375 0 27.875 0 
Q 17.828125 0 11.671875 7.65625 
Q 5.515625 15.328125 5.515625 27.984375 
Q 5.515625 40.671875 11.671875 48.328125 
Q 17.828125 56 27.875 56 
Q 33.9375 56 38.28125 53.609375 
Q 42.625 51.21875 45.40625 46.390625 
L 45.40625 54.6875 
L 54.390625 54.6875 
z
" id="DejaVuSans-103"/>
     <path d="M 37.109375 75.984375 
L 37.109375 68.5 
L 28.515625 68.5 
Q 23.6875 68.5 21.796875 66.546875 
Q 19.921875 64.59375 19.921875 59.515625 
L 19.921875 54.6875 
L 34.71875 54.6875 
L 34.71875 47.703125 
L 19.921875 47.703125 
L 19.921875 0 
L 10.890625 0 
L 10.890625 47.703125 
L 2.296875 47.703125 
L 2.296875 54.6875 
L 10.890625 54.6875 
L 10.890625 58.5 
Q 10.890625 67.625 15.140625 71.796875 
Q 19.390625 75.984375 28.609375 75.984375 
z
" id="DejaVuSans-102"/>
     <path d="M 25.390625 72.90625 
L 33.6875 72.90625 
L 8.296875 -9.28125 
L 0 -9.28125 
z
" id="DejaVuSans-47"/>
    </defs>
    <g transform="translate(90.66375 35.472)scale(0.12 -0.12)">
     <use xlink:href="#DejaVuSans-70"/>
     <use x="50.269531" xlink:href="#DejaVuSans-114"/>
     <use x="89.132812" xlink:href="#DejaVuSans-101"/>
     <use x="150.65625" xlink:href="#DejaVuSans-113"/>
     <use x="214.132812" xlink:href="#DejaVuSans-117"/>
     <use x="277.511719" xlink:href="#DejaVuSans-101"/>
     <use x="339.035156" xlink:href="#DejaVuSans-110"/>
     <use x="402.414062" xlink:href="#DejaVuSans-99"/>
     <use x="457.394531" xlink:href="#DejaVuSans-121"/>
     <use x="516.574219" xlink:href="#DejaVuSans-32"/>
     <use x="548.361328" xlink:href="#DejaVuSans-100"/>
     <use x="611.837891" xlink:href="#DejaVuSans-111"/>
     <use x="673.019531" xlink:href="#DejaVuSans-109"/>
     <use x="770.431641" xlink:href="#DejaVuSans-97"/>
     <use x="831.710938" xlink:href="#DejaVuSans-105"/>
     <use x="859.494141" xlink:href="#DejaVuSans-110"/>
     <use x="922.873047" xlink:href="#DejaVuSans-32"/>
     <use x="954.660156" xlink:href="#DejaVuSans-45"/>
     <use x="990.744141" xlink:href="#DejaVuSans-32"/>
     <use x="1022.53125" xlink:href="#DejaVuSans-97"/>
     <use x="1083.810547" xlink:href="#DejaVuSans-118"/>
     <use x="1142.990234" xlink:href="#DejaVuSans-101"/>
     <use x="1204.513672" xlink:href="#DejaVuSans-114"/>
     <use x="1245.626953" xlink:href="#DejaVuSans-97"/>
     <use x="1306.90625" xlink:href="#DejaVuSans-103"/>
     <use x="1370.382812" xlink:href="#DejaVuSans-105"/>
     <use x="1398.166016" xlink:href="#DejaVuSans-110"/>
     <use x="1461.544922" xlink:href="#DejaVuSans-103"/>
     <use x="1525.021484" xlink:href="#DejaVuSans-32"/>
     <use x="1556.808594" xlink:href="#DejaVuSans-102"/>
     <use x="1592.013672" xlink:href="#DejaVuSans-105"/>
     <use x="1619.796875" xlink:href="#DejaVuSans-108"/>
     <use x="1647.580078" xlink:href="#DejaVuSans-116"/>
     <use x="1686.789062" xlink:href="#DejaVuSans-101"/>
     <use x="1748.3125" xlink:href="#DejaVuSans-114"/>
     <use x="1789.425781" xlink:href="#DejaVuSans-32"/>
     <use x="1821.212891" xlink:href="#DejaVuSans-49"/>
     <use x="1884.835938" xlink:href="#DejaVuSans-47"/>
     <use x="1918.527344" xlink:href="#DejaVuSans-52"/>
     <use x="1982.150391" xlink:href="#DejaVuSans-32"/>
     <use x="2013.9375" xlink:href="#DejaVuSans-40"/>
     <use x="2052.951172" xlink:href="#DejaVuSans-65"/>
     <use x="2121.359375" xlink:href="#DejaVuSans-114"/>
     <use x="2160.722656" xlink:href="#DejaVuSans-114"/>
     <use x="2201.835938" xlink:href="#DejaVuSans-97"/>
     <use x="2263.115234" xlink:href="#DejaVuSans-121"/>
     <use x="2322.294922" xlink:href="#DejaVuSans-49"/>
     <use x="2385.917969" xlink:href="#DejaVuSans-41"/>
    </g>
   </g>
  </g>
 </g>
 <defs>
  <clipPath id="padab5623d4">
   <rect height="266.112" width="357.12" x="57.6" y="41.472"/>
  </clipPath>
 </defs>
</svg>
