<?xml version="1.0" encoding="utf-8" standalone="no"?>
<!DOCTYPE svg PUBLIC "-//W3C//DTD SVG 1.1//EN"
  "http://www.w3.org/Graphics/SVG/1.1/DTD/svg11.dtd">
<!-- Created with matplotlib (https://matplotlib.org/) -->
<svg height="345.6pt" version="1.1" viewBox="0 0 460.8 345.6" width="460.8pt" xmlns="http://www.w3.org/2000/svg" xmlns:xlink="http://www.w3.org/1999/xlink">
 <defs>
  <style type="text/css">
*{stroke-linecap:butt;stroke-linejoin:round;}
  </style>
 </defs>
 <g id="figure_1">
  <g id="patch_1">
   <path d="M 0 345.6 
L 460.8 345.6 
L 460.8 0 
L 0 0 
z
" style="fill:#ffffff;"/>
  </g>
  <g id="axes_1">
   <g id="patch_2">
    <path d="M 57.6 307.584 
L 414.72 307.584 
L 414.72 41.472 
L 57.6 41.472 
z
" style="fill:#ffffff;"/>
   </g>
   <g id="matplotlib.axis_1">
    <g id="xtick_1">
     <g id="line2d_1">
      <defs>
       <path d="M 0 0 
L 0 3.5 
" id="mb4d4d3ea05" style="stroke:#000000;stroke-width:0.8;"/>
      </defs>
      <g>
       <use style="stroke:#000000;stroke-width:0.8;" x="73.832727" xlink:href="#mb4d4d3ea05" y="307.584"/>
      </g>
     </g>
     <g id="text_1">
      <!-- 0 -->
      <defs>
       <path d="M 31.78125 66.40625 
Q 24.171875 66.40625 20.328125 58.90625 
Q 16.5 51.421875 16.5 36.375 
Q 16.5 21.390625 20.328125 13.890625 
Q 24.171875 6.390625 31.78125 6.390625 
Q 39.453125 6.390625 43.28125 13.890625 
Q 47.125 21.390625 47.125 36.375 
Q 47.125 51.421875 43.28125 58.90625 
Q 39.453125 66.40625 31.78125 66.40625 
z
M 31.78125 74.21875 
Q 44.046875 74.21875 50.515625 64.515625 
Q 56.984375 54.828125 56.984375 36.375 
Q 56.984375 17.96875 50.515625 8.265625 
Q 44.046875 -1.421875 31.78125 -1.421875 
Q 19.53125 -1.421875 13.0625 8.265625 
Q 6.59375 17.96875 6.59375 36.375 
Q 6.59375 54.828125 13.0625 64.515625 
Q 19.53125 74.21875 31.78125 74.21875 
z
" id="DejaVuSans-48"/>
      </defs>
      <g transform="translate(70.651477 322.182437)scale(0.1 -0.1)">
       <use xlink:href="#DejaVuSans-48"/>
      </g>
     </g>
    </g>
    <g id="xtick_2">
     <g id="line2d_2">
      <g>
       <use style="stroke:#000000;stroke-width:0.8;" x="125.798241" xlink:href="#mb4d4d3ea05" y="307.584"/>
      </g>
     </g>
     <g id="text_2">
      <!-- 20 -->
      <defs>
       <path d="M 19.1875 8.296875 
L 53.609375 8.296875 
L 53.609375 0 
L 7.328125 0 
L 7.328125 8.296875 
Q 12.9375 14.109375 22.625 23.890625 
Q 32.328125 33.6875 34.8125 36.53125 
Q 39.546875 41.84375 41.421875 45.53125 
Q 43.3125 49.21875 43.3125 52.78125 
Q 43.3125 58.59375 39.234375 62.25 
Q 35.15625 65.921875 28.609375 65.921875 
Q 23.96875 65.921875 18.8125 64.3125 
Q 13.671875 62.703125 7.8125 59.421875 
L 7.8125 69.390625 
Q 13.765625 71.78125 18.9375 73 
Q 24.125 74.21875 28.421875 74.21875 
Q 39.75 74.21875 46.484375 68.546875 
Q 53.21875 62.890625 53.21875 53.421875 
Q 53.21875 48.921875 51.53125 44.890625 
Q 49.859375 40.875 45.40625 35.40625 
Q 44.1875 33.984375 37.640625 27.21875 
Q 31.109375 20.453125 19.1875 8.296875 
z
" id="DejaVuSans-50"/>
      </defs>
      <g transform="translate(119.435741 322.182437)scale(0.1 -0.1)">
       <use xlink:href="#DejaVuSans-50"/>
       <use x="63.623047" xlink:href="#DejaVuSans-48"/>
      </g>
     </g>
    </g>
    <g id="xtick_3">
     <g id="line2d_3">
      <g>
       <use style="stroke:#000000;stroke-width:0.8;" x="177.763754" xlink:href="#mb4d4d3ea05" y="307.584"/>
      </g>
     </g>
     <g id="text_3">
      <!-- 40 -->
      <defs>
       <path d="M 37.796875 64.3125 
L 12.890625 25.390625 
L 37.796875 25.390625 
z
M 35.203125 72.90625 
L 47.609375 72.90625 
L 47.609375 25.390625 
L 58.015625 25.390625 
L 58.015625 17.1875 
L 47.609375 17.1875 
L 47.609375 0 
L 37.796875 0 
L 37.796875 17.1875 
L 4.890625 17.1875 
L 4.890625 26.703125 
z
" id="DejaVuSans-52"/>
      </defs>
      <g transform="translate(171.401254 322.182437)scale(0.1 -0.1)">
       <use xlink:href="#DejaVuSans-52"/>
       <use x="63.623047" xlink:href="#DejaVuSans-48"/>
      </g>
     </g>
    </g>
    <g id="xtick_4">
     <g id="line2d_4">
      <g>
       <use style="stroke:#000000;stroke-width:0.8;" x="229.729268" xlink:href="#mb4d4d3ea05" y="307.584"/>
      </g>
     </g>
     <g id="text_4">
      <!-- 60 -->
      <defs>
       <path d="M 33.015625 40.375 
Q 26.375 40.375 22.484375 35.828125 
Q 18.609375 31.296875 18.609375 23.390625 
Q 18.609375 15.53125 22.484375 10.953125 
Q 26.375 6.390625 33.015625 6.390625 
Q 39.65625 6.390625 43.53125 10.953125 
Q 47.40625 15.53125 47.40625 23.390625 
Q 47.40625 31.296875 43.53125 35.828125 
Q 39.65625 40.375 33.015625 40.375 
z
M 52.59375 71.296875 
L 52.59375 62.3125 
Q 48.875 64.0625 45.09375 64.984375 
Q 41.3125 65.921875 37.59375 65.921875 
Q 27.828125 65.921875 22.671875 59.328125 
Q 17.53125 52.734375 16.796875 39.40625 
Q 19.671875 43.65625 24.015625 45.921875 
Q 28.375 48.1875 33.59375 48.1875 
Q 44.578125 48.1875 50.953125 41.515625 
Q 57.328125 34.859375 57.328125 23.390625 
Q 57.328125 12.15625 50.6875 5.359375 
Q 44.046875 -1.421875 33.015625 -1.421875 
Q 20.359375 -1.421875 13.671875 8.265625 
Q 6.984375 17.96875 6.984375 36.375 
Q 6.984375 53.65625 15.1875 63.9375 
Q 23.390625 74.21875 37.203125 74.21875 
Q 40.921875 74.21875 44.703125 73.484375 
Q 48.484375 72.75 52.59375 71.296875 
z
" id="DejaVuSans-54"/>
      </defs>
      <g transform="translate(223.366768 322.182437)scale(0.1 -0.1)">
       <use xlink:href="#DejaVuSans-54"/>
       <use x="63.623047" xlink:href="#DejaVuSans-48"/>
      </g>
     </g>
    </g>
    <g id="xtick_5">
     <g id="line2d_5">
      <g>
       <use style="stroke:#000000;stroke-width:0.8;" x="281.694781" xlink:href="#mb4d4d3ea05" y="307.584"/>
      </g>
     </g>
     <g id="text_5">
      <!-- 80 -->
      <defs>
       <path d="M 31.78125 34.625 
Q 24.75 34.625 20.71875 30.859375 
Q 16.703125 27.09375 16.703125 20.515625 
Q 16.703125 13.921875 20.71875 10.15625 
Q 24.75 6.390625 31.78125 6.390625 
Q 38.8125 6.390625 42.859375 10.171875 
Q 46.921875 13.96875 46.921875 20.515625 
Q 46.921875 27.09375 42.890625 30.859375 
Q 38.875 34.625 31.78125 34.625 
z
M 21.921875 38.8125 
Q 15.578125 40.375 12.03125 44.71875 
Q 8.5 49.078125 8.5 55.328125 
Q 8.5 64.0625 14.71875 69.140625 
Q 20.953125 74.21875 31.78125 74.21875 
Q 42.671875 74.21875 48.875 69.140625 
Q 55.078125 64.0625 55.078125 55.328125 
Q 55.078125 49.078125 51.53125 44.71875 
Q 48 40.375 41.703125 38.8125 
Q 48.828125 37.15625 52.796875 32.3125 
Q 56.78125 27.484375 56.78125 20.515625 
Q 56.78125 9.90625 50.3125 4.234375 
Q 43.84375 -1.421875 31.78125 -1.421875 
Q 19.734375 -1.421875 13.25 4.234375 
Q 6.78125 9.90625 6.78125 20.515625 
Q 6.78125 27.484375 10.78125 32.3125 
Q 14.796875 37.15625 21.921875 38.8125 
z
M 18.3125 54.390625 
Q 18.3125 48.734375 21.84375 45.5625 
Q 25.390625 42.390625 31.78125 42.390625 
Q 38.140625 42.390625 41.71875 45.5625 
Q 45.3125 48.734375 45.3125 54.390625 
Q 45.3125 60.0625 41.71875 63.234375 
Q 38.140625 66.40625 31.78125 66.40625 
Q 25.390625 66.40625 21.84375 63.234375 
Q 18.3125 60.0625 18.3125 54.390625 
z
" id="DejaVuSans-56"/>
      </defs>
      <g transform="translate(275.332281 322.182437)scale(0.1 -0.1)">
       <use xlink:href="#DejaVuSans-56"/>
       <use x="63.623047" xlink:href="#DejaVuSans-48"/>
      </g>
     </g>
    </g>
    <g id="xtick_6">
     <g id="line2d_6">
      <g>
       <use style="stroke:#000000;stroke-width:0.8;" x="333.660295" xlink:href="#mb4d4d3ea05" y="307.584"/>
      </g>
     </g>
     <g id="text_6">
      <!-- 100 -->
      <defs>
       <path d="M 12.40625 8.296875 
L 28.515625 8.296875 
L 28.515625 63.921875 
L 10.984375 60.40625 
L 10.984375 69.390625 
L 28.421875 72.90625 
L 38.28125 72.90625 
L 38.28125 8.296875 
L 54.390625 8.296875 
L 54.390625 0 
L 12.40625 0 
z
" id="DejaVuSans-49"/>
      </defs>
      <g transform="translate(324.116545 322.182437)scale(0.1 -0.1)">
       <use xlink:href="#DejaVuSans-49"/>
       <use x="63.623047" xlink:href="#DejaVuSans-48"/>
       <use x="127.246094" xlink:href="#DejaVuSans-48"/>
      </g>
     </g>
    </g>
    <g id="xtick_7">
     <g id="line2d_7">
      <g>
       <use style="stroke:#000000;stroke-width:0.8;" x="385.625808" xlink:href="#mb4d4d3ea05" y="307.584"/>
      </g>
     </g>
     <g id="text_7">
      <!-- 120 -->
      <g transform="translate(376.082058 322.182437)scale(0.1 -0.1)">
       <use xlink:href="#DejaVuSans-49"/>
       <use x="63.623047" xlink:href="#DejaVuSans-50"/>
       <use x="127.246094" xlink:href="#DejaVuSans-48"/>
      </g>
     </g>
    </g>
    <g id="text_8">
     <!-- Frequency (Hz) -->
     <defs>
      <path d="M 9.8125 72.90625 
L 51.703125 72.90625 
L 51.703125 64.59375 
L 19.671875 64.59375 
L 19.671875 43.109375 
L 48.578125 43.109375 
L 48.578125 34.8125 
L 19.671875 34.8125 
L 19.671875 0 
L 9.8125 0 
z
" id="DejaVuSans-70"/>
      <path d="M 41.109375 46.296875 
Q 39.59375 47.171875 37.8125 47.578125 
Q 36.03125 48 33.890625 48 
Q 26.265625 48 22.1875 43.046875 
Q 18.109375 38.09375 18.109375 28.8125 
L 18.109375 0 
L 9.078125 0 
L 9.078125 54.6875 
L 18.109375 54.6875 
L 18.109375 46.1875 
Q 20.953125 51.171875 25.484375 53.578125 
Q 30.03125 56 36.53125 56 
Q 37.453125 56 38.578125 55.875 
Q 39.703125 55.765625 41.0625 55.515625 
z
" id="DejaVuSans-114"/>
      <path d="M 56.203125 29.59375 
L 56.203125 25.203125 
L 14.890625 25.203125 
Q 15.484375 15.921875 20.484375 11.0625 
Q 25.484375 6.203125 34.421875 6.203125 
Q 39.59375 6.203125 44.453125 7.46875 
Q 49.3125 8.734375 54.109375 11.28125 
L 54.109375 2.78125 
Q 49.265625 0.734375 44.1875 -0.34375 
Q 39.109375 -1.421875 33.890625 -1.421875 
Q 20.796875 -1.421875 13.15625 6.1875 
Q 5.515625 13.8125 5.515625 26.8125 
Q 5.515625 40.234375 12.765625 48.109375 
Q 20.015625 56 32.328125 56 
Q 43.359375 56 49.78125 48.890625 
Q 56.203125 41.796875 56.203125 29.59375 
z
M 47.21875 32.234375 
Q 47.125 39.59375 43.09375 43.984375 
Q 39.0625 48.390625 32.421875 48.390625 
Q 24.90625 48.390625 20.390625 44.140625 
Q 15.875 39.890625 15.1875 32.171875 
z
" id="DejaVuSans-101"/>
      <path d="M 14.796875 27.296875 
Q 14.796875 17.390625 18.875 11.75 
Q 22.953125 6.109375 30.078125 6.109375 
Q 37.203125 6.109375 41.296875 11.75 
Q 45.40625 17.390625 45.40625 27.296875 
Q 45.40625 37.203125 41.296875 42.84375 
Q 37.203125 48.484375 30.078125 48.484375 
Q 22.953125 48.484375 18.875 42.84375 
Q 14.796875 37.203125 14.796875 27.296875 
z
M 45.40625 8.203125 
Q 42.578125 3.328125 38.25 0.953125 
Q 33.9375 -1.421875 27.875 -1.421875 
Q 17.96875 -1.421875 11.734375 6.484375 
Q 5.515625 14.40625 5.515625 27.296875 
Q 5.515625 40.1875 11.734375 48.09375 
Q 17.96875 56 27.875 56 
Q 33.9375 56 38.25 53.625 
Q 42.578125 51.265625 45.40625 46.390625 
L 45.40625 54.6875 
L 54.390625 54.6875 
L 54.390625 -20.796875 
L 45.40625 -20.796875 
z
" id="DejaVuSans-113"/>
      <path d="M 8.5 21.578125 
L 8.5 54.6875 
L 17.484375 54.6875 
L 17.484375 21.921875 
Q 17.484375 14.15625 20.5 10.265625 
Q 23.53125 6.390625 29.59375 6.390625 
Q 36.859375 6.390625 41.078125 11.03125 
Q 45.3125 15.671875 45.3125 23.6875 
L 45.3125 54.6875 
L 54.296875 54.6875 
L 54.296875 0 
L 45.3125 0 
L 45.3125 8.40625 
Q 42.046875 3.421875 37.71875 1 
Q 33.40625 -1.421875 27.6875 -1.421875 
Q 18.265625 -1.421875 13.375 4.4375 
Q 8.5 10.296875 8.5 21.578125 
z
M 31.109375 56 
z
" id="DejaVuSans-117"/>
      <path d="M 54.890625 33.015625 
L 54.890625 0 
L 45.90625 0 
L 45.90625 32.71875 
Q 45.90625 40.484375 42.875 44.328125 
Q 39.84375 48.1875 33.796875 48.1875 
Q 26.515625 48.1875 22.3125 43.546875 
Q 18.109375 38.921875 18.109375 30.90625 
L 18.109375 0 
L 9.078125 0 
L 9.078125 54.6875 
L 18.109375 54.6875 
L 18.109375 46.1875 
Q 21.34375 51.125 25.703125 53.5625 
Q 30.078125 56 35.796875 56 
Q 45.21875 56 50.046875 50.171875 
Q 54.890625 44.34375 54.890625 33.015625 
z
" id="DejaVuSans-110"/>
      <path d="M 48.78125 52.59375 
L 48.78125 44.1875 
Q 44.96875 46.296875 41.140625 47.34375 
Q 37.3125 48.390625 33.40625 48.390625 
Q 24.65625 48.390625 19.8125 42.84375 
Q 14.984375 37.3125 14.984375 27.296875 
Q 14.984375 17.28125 19.8125 11.734375 
Q 24.65625 6.203125 33.40625 6.203125 
Q 37.3125 6.203125 41.140625 7.25 
Q 44.96875 8.296875 48.78125 10.40625 
L 48.78125 2.09375 
Q 45.015625 0.34375 40.984375 -0.53125 
Q 36.96875 -1.421875 32.421875 -1.421875 
Q 20.0625 -1.421875 12.78125 6.34375 
Q 5.515625 14.109375 5.515625 27.296875 
Q 5.515625 40.671875 12.859375 48.328125 
Q 20.21875 56 33.015625 56 
Q 37.15625 56 41.109375 55.140625 
Q 45.0625 54.296875 48.78125 52.59375 
z
" id="DejaVuSans-99"/>
      <path d="M 32.171875 -5.078125 
Q 28.375 -14.84375 24.75 -17.8125 
Q 21.140625 -20.796875 15.09375 -20.796875 
L 7.90625 -20.796875 
L 7.90625 -13.28125 
L 13.1875 -13.28125 
Q 16.890625 -13.28125 18.9375 -11.515625 
Q 21 -9.765625 23.484375 -3.21875 
L 25.09375 0.875 
L 2.984375 54.6875 
L 12.5 54.6875 
L 29.59375 11.921875 
L 46.6875 54.6875 
L 56.203125 54.6875 
z
" id="DejaVuSans-121"/>
      <path id="DejaVuSans-32"/>
      <path d="M 31 75.875 
Q 24.46875 64.65625 21.28125 53.65625 
Q 18.109375 42.671875 18.109375 31.390625 
Q 18.109375 20.125 21.3125 9.0625 
Q 24.515625 -2 31 -13.1875 
L 23.1875 -13.1875 
Q 15.875 -1.703125 12.234375 9.375 
Q 8.59375 20.453125 8.59375 31.390625 
Q 8.59375 42.28125 12.203125 53.3125 
Q 15.828125 64.359375 23.1875 75.875 
z
" id="DejaVuSans-40"/>
      <path d="M 9.8125 72.90625 
L 19.671875 72.90625 
L 19.671875 43.015625 
L 55.515625 43.015625 
L 55.515625 72.90625 
L 65.375 72.90625 
L 65.375 0 
L 55.515625 0 
L 55.515625 34.71875 
L 19.671875 34.71875 
L 19.671875 0 
L 9.8125 0 
z
" id="DejaVuSans-72"/>
      <path d="M 5.515625 54.6875 
L 48.1875 54.6875 
L 48.1875 46.484375 
L 14.40625 7.171875 
L 48.1875 7.171875 
L 48.1875 0 
L 4.296875 0 
L 4.296875 8.203125 
L 38.09375 47.515625 
L 5.515625 47.515625 
z
" id="DejaVuSans-122"/>
      <path d="M 8.015625 75.875 
L 15.828125 75.875 
Q 23.140625 64.359375 26.78125 53.3125 
Q 30.421875 42.28125 30.421875 31.390625 
Q 30.421875 20.453125 26.78125 9.375 
Q 23.140625 -1.703125 15.828125 -13.1875 
L 8.015625 -13.1875 
Q 14.5 -2 17.703125 9.0625 
Q 20.90625 20.125 20.90625 31.390625 
Q 20.90625 42.671875 17.703125 53.65625 
Q 14.5 64.65625 8.015625 75.875 
z
" id="DejaVuSans-41"/>
     </defs>
     <g transform="translate(198.455312 335.860562)scale(0.1 -0.1)">
      <use xlink:href="#DejaVuSans-70"/>
      <use x="50.269531" xlink:href="#DejaVuSans-114"/>
      <use x="89.132812" xlink:href="#DejaVuSans-101"/>
      <use x="150.65625" xlink:href="#DejaVuSans-113"/>
      <use x="214.132812" xlink:href="#DejaVuSans-117"/>
      <use x="277.511719" xlink:href="#DejaVuSans-101"/>
      <use x="339.035156" xlink:href="#DejaVuSans-110"/>
      <use x="402.414062" xlink:href="#DejaVuSans-99"/>
      <use x="457.394531" xlink:href="#DejaVuSans-121"/>
      <use x="516.574219" xlink:href="#DejaVuSans-32"/>
      <use x="548.361328" xlink:href="#DejaVuSans-40"/>
      <use x="587.375" xlink:href="#DejaVuSans-72"/>
      <use x="662.570312" xlink:href="#DejaVuSans-122"/>
      <use x="715.060547" xlink:href="#DejaVuSans-41"/>
     </g>
    </g>
   </g>
   <g id="matplotlib.axis_2">
    <g id="ytick_1">
     <g id="line2d_8">
      <defs>
       <path d="M 0 0 
L -3.5 0 
" id="mce458db3c3" style="stroke:#000000;stroke-width:0.8;"/>
      </defs>
      <g>
       <use style="stroke:#000000;stroke-width:0.8;" x="57.6" xlink:href="#mce458db3c3" y="307.584"/>
      </g>
     </g>
     <g id="text_9">
      <!-- 0.0 -->
      <defs>
       <path d="M 10.6875 12.40625 
L 21 12.40625 
L 21 0 
L 10.6875 0 
z
" id="DejaVuSans-46"/>
      </defs>
      <g transform="translate(34.696875 311.383219)scale(0.1 -0.1)">
       <use xlink:href="#DejaVuSans-48"/>
       <use x="63.623047" xlink:href="#DejaVuSans-46"/>
       <use x="95.410156" xlink:href="#DejaVuSans-48"/>
      </g>
     </g>
    </g>
    <g id="ytick_2">
     <g id="line2d_9">
      <g>
       <use style="stroke:#000000;stroke-width:0.8;" x="57.6" xlink:href="#mce458db3c3" y="274.32"/>
      </g>
     </g>
     <g id="text_10">
      <!-- 0.5 -->
      <defs>
       <path d="M 10.796875 72.90625 
L 49.515625 72.90625 
L 49.515625 64.59375 
L 19.828125 64.59375 
L 19.828125 46.734375 
Q 21.96875 47.46875 24.109375 47.828125 
Q 26.265625 48.1875 28.421875 48.1875 
Q 40.625 48.1875 47.75 41.5 
Q 54.890625 34.8125 54.890625 23.390625 
Q 54.890625 11.625 47.5625 5.09375 
Q 40.234375 -1.421875 26.90625 -1.421875 
Q 22.3125 -1.421875 17.546875 -0.640625 
Q 12.796875 0.140625 7.71875 1.703125 
L 7.71875 11.625 
Q 12.109375 9.234375 16.796875 8.0625 
Q 21.484375 6.890625 26.703125 6.890625 
Q 35.15625 6.890625 40.078125 11.328125 
Q 45.015625 15.765625 45.015625 23.390625 
Q 45.015625 31 40.078125 35.4375 
Q 35.15625 39.890625 26.703125 39.890625 
Q 22.75 39.890625 18.8125 39.015625 
Q 14.890625 38.140625 10.796875 36.28125 
z
" id="DejaVuSans-53"/>
      </defs>
      <g transform="translate(34.696875 278.119219)scale(0.1 -0.1)">
       <use xlink:href="#DejaVuSans-48"/>
       <use x="63.623047" xlink:href="#DejaVuSans-46"/>
       <use x="95.410156" xlink:href="#DejaVuSans-53"/>
      </g>
     </g>
    </g>
    <g id="ytick_3">
     <g id="line2d_10">
      <g>
       <use style="stroke:#000000;stroke-width:0.8;" x="57.6" xlink:href="#mce458db3c3" y="241.056"/>
      </g>
     </g>
     <g id="text_11">
      <!-- 1.0 -->
      <g transform="translate(34.696875 244.855219)scale(0.1 -0.1)">
       <use xlink:href="#DejaVuSans-49"/>
       <use x="63.623047" xlink:href="#DejaVuSans-46"/>
       <use x="95.410156" xlink:href="#DejaVuSans-48"/>
      </g>
     </g>
    </g>
    <g id="ytick_4">
     <g id="line2d_11">
      <g>
       <use style="stroke:#000000;stroke-width:0.8;" x="57.6" xlink:href="#mce458db3c3" y="207.792"/>
      </g>
     </g>
     <g id="text_12">
      <!-- 1.5 -->
      <g transform="translate(34.696875 211.591219)scale(0.1 -0.1)">
       <use xlink:href="#DejaVuSans-49"/>
       <use x="63.623047" xlink:href="#DejaVuSans-46"/>
       <use x="95.410156" xlink:href="#DejaVuSans-53"/>
      </g>
     </g>
    </g>
    <g id="ytick_5">
     <g id="line2d_12">
      <g>
       <use style="stroke:#000000;stroke-width:0.8;" x="57.6" xlink:href="#mce458db3c3" y="174.528"/>
      </g>
     </g>
     <g id="text_13">
      <!-- 2.0 -->
      <g transform="translate(34.696875 178.327219)scale(0.1 -0.1)">
       <use xlink:href="#DejaVuSans-50"/>
       <use x="63.623047" xlink:href="#DejaVuSans-46"/>
       <use x="95.410156" xlink:href="#DejaVuSans-48"/>
      </g>
     </g>
    </g>
    <g id="ytick_6">
     <g id="line2d_13">
      <g>
       <use style="stroke:#000000;stroke-width:0.8;" x="57.6" xlink:href="#mce458db3c3" y="141.264"/>
      </g>
     </g>
     <g id="text_14">
      <!-- 2.5 -->
      <g transform="translate(34.696875 145.063219)scale(0.1 -0.1)">
       <use xlink:href="#DejaVuSans-50"/>
       <use x="63.623047" xlink:href="#DejaVuSans-46"/>
       <use x="95.410156" xlink:href="#DejaVuSans-53"/>
      </g>
     </g>
    </g>
    <g id="ytick_7">
     <g id="line2d_14">
      <g>
       <use style="stroke:#000000;stroke-width:0.8;" x="57.6" xlink:href="#mce458db3c3" y="108"/>
      </g>
     </g>
     <g id="text_15">
      <!-- 3.0 -->
      <defs>
       <path d="M 40.578125 39.3125 
Q 47.65625 37.796875 51.625 33 
Q 55.609375 28.21875 55.609375 21.1875 
Q 55.609375 10.40625 48.1875 4.484375 
Q 40.765625 -1.421875 27.09375 -1.421875 
Q 22.515625 -1.421875 17.65625 -0.515625 
Q 12.796875 0.390625 7.625 2.203125 
L 7.625 11.71875 
Q 11.71875 9.328125 16.59375 8.109375 
Q 21.484375 6.890625 26.8125 6.890625 
Q 36.078125 6.890625 40.9375 10.546875 
Q 45.796875 14.203125 45.796875 21.1875 
Q 45.796875 27.640625 41.28125 31.265625 
Q 36.765625 34.90625 28.71875 34.90625 
L 20.21875 34.90625 
L 20.21875 43.015625 
L 29.109375 43.015625 
Q 36.375 43.015625 40.234375 45.921875 
Q 44.09375 48.828125 44.09375 54.296875 
Q 44.09375 59.90625 40.109375 62.90625 
Q 36.140625 65.921875 28.71875 65.921875 
Q 24.65625 65.921875 20.015625 65.03125 
Q 15.375 64.15625 9.8125 62.3125 
L 9.8125 71.09375 
Q 15.4375 72.65625 20.34375 73.4375 
Q 25.25 74.21875 29.59375 74.21875 
Q 40.828125 74.21875 47.359375 69.109375 
Q 53.90625 64.015625 53.90625 55.328125 
Q 53.90625 49.265625 50.4375 45.09375 
Q 46.96875 40.921875 40.578125 39.3125 
z
" id="DejaVuSans-51"/>
      </defs>
      <g transform="translate(34.696875 111.799219)scale(0.1 -0.1)">
       <use xlink:href="#DejaVuSans-51"/>
       <use x="63.623047" xlink:href="#DejaVuSans-46"/>
       <use x="95.410156" xlink:href="#DejaVuSans-48"/>
      </g>
     </g>
    </g>
    <g id="ytick_8">
     <g id="line2d_15">
      <g>
       <use style="stroke:#000000;stroke-width:0.8;" x="57.6" xlink:href="#mce458db3c3" y="74.736"/>
      </g>
     </g>
     <g id="text_16">
      <!-- 3.5 -->
      <g transform="translate(34.696875 78.535219)scale(0.1 -0.1)">
       <use xlink:href="#DejaVuSans-51"/>
       <use x="63.623047" xlink:href="#DejaVuSans-46"/>
       <use x="95.410156" xlink:href="#DejaVuSans-53"/>
      </g>
     </g>
    </g>
    <g id="ytick_9">
     <g id="line2d_16">
      <g>
       <use style="stroke:#000000;stroke-width:0.8;" x="57.6" xlink:href="#mce458db3c3" y="41.472"/>
      </g>
     </g>
     <g id="text_17">
      <!-- 4.0 -->
      <g transform="translate(34.696875 45.271219)scale(0.1 -0.1)">
       <use xlink:href="#DejaVuSans-52"/>
       <use x="63.623047" xlink:href="#DejaVuSans-46"/>
       <use x="95.410156" xlink:href="#DejaVuSans-48"/>
      </g>
     </g>
    </g>
    <g id="text_18">
     <!-- Amplitude -->
     <defs>
      <path d="M 34.1875 63.1875 
L 20.796875 26.90625 
L 47.609375 26.90625 
z
M 28.609375 72.90625 
L 39.796875 72.90625 
L 67.578125 0 
L 57.328125 0 
L 50.6875 18.703125 
L 17.828125 18.703125 
L 11.1875 0 
L 0.78125 0 
z
" id="DejaVuSans-65"/>
      <path d="M 52 44.1875 
Q 55.375 50.25 60.0625 53.125 
Q 64.75 56 71.09375 56 
Q 79.640625 56 84.28125 50.015625 
Q 88.921875 44.046875 88.921875 33.015625 
L 88.921875 0 
L 79.890625 0 
L 79.890625 32.71875 
Q 79.890625 40.578125 77.09375 44.375 
Q 74.3125 48.1875 68.609375 48.1875 
Q 61.625 48.1875 57.5625 43.546875 
Q 53.515625 38.921875 53.515625 30.90625 
L 53.515625 0 
L 44.484375 0 
L 44.484375 32.71875 
Q 44.484375 40.625 41.703125 44.40625 
Q 38.921875 48.1875 33.109375 48.1875 
Q 26.21875 48.1875 22.15625 43.53125 
Q 18.109375 38.875 18.109375 30.90625 
L 18.109375 0 
L 9.078125 0 
L 9.078125 54.6875 
L 18.109375 54.6875 
L 18.109375 46.1875 
Q 21.1875 51.21875 25.484375 53.609375 
Q 29.78125 56 35.6875 56 
Q 41.65625 56 45.828125 52.96875 
Q 50 49.953125 52 44.1875 
z
" id="DejaVuSans-109"/>
      <path d="M 18.109375 8.203125 
L 18.109375 -20.796875 
L 9.078125 -20.796875 
L 9.078125 54.6875 
L 18.109375 54.6875 
L 18.109375 46.390625 
Q 20.953125 51.265625 25.265625 53.625 
Q 29.59375 56 35.59375 56 
Q 45.5625 56 51.78125 48.09375 
Q 58.015625 40.1875 58.015625 27.296875 
Q 58.015625 14.40625 51.78125 6.484375 
Q 45.5625 -1.421875 35.59375 -1.421875 
Q 29.59375 -1.421875 25.265625 0.953125 
Q 20.953125 3.328125 18.109375 8.203125 
z
M 48.6875 27.296875 
Q 48.6875 37.203125 44.609375 42.84375 
Q 40.53125 48.484375 33.40625 48.484375 
Q 26.265625 48.484375 22.1875 42.84375 
Q 18.109375 37.203125 18.109375 27.296875 
Q 18.109375 17.390625 22.1875 11.75 
Q 26.265625 6.109375 33.40625 6.109375 
Q 40.53125 6.109375 44.609375 11.75 
Q 48.6875 17.390625 48.6875 27.296875 
z
" id="DejaVuSans-112"/>
      <path d="M 9.421875 75.984375 
L 18.40625 75.984375 
L 18.40625 0 
L 9.421875 0 
z
" id="DejaVuSans-108"/>
      <path d="M 9.421875 54.6875 
L 18.40625 54.6875 
L 18.40625 0 
L 9.421875 0 
z
M 9.421875 75.984375 
L 18.40625 75.984375 
L 18.40625 64.59375 
L 9.421875 64.59375 
z
" id="DejaVuSans-105"/>
      <path d="M 18.3125 70.21875 
L 18.3125 54.6875 
L 36.8125 54.6875 
L 36.8125 47.703125 
L 18.3125 47.703125 
L 18.3125 18.015625 
Q 18.3125 11.328125 20.140625 9.421875 
Q 21.96875 7.515625 27.59375 7.515625 
L 36.8125 7.515625 
L 36.8125 0 
L 27.59375 0 
Q 17.1875 0 13.234375 3.875 
Q 9.28125 7.765625 9.28125 18.015625 
L 9.28125 47.703125 
L 2.6875 47.703125 
L 2.6875 54.6875 
L 9.28125 54.6875 
L 9.28125 70.21875 
z
" id="DejaVuSans-116"/>
      <path d="M 45.40625 46.390625 
L 45.40625 75.984375 
L 54.390625 75.984375 
L 54.390625 0 
L 45.40625 0 
L 45.40625 8.203125 
Q 42.578125 3.328125 38.25 0.953125 
Q 33.9375 -1.421875 27.875 -1.421875 
Q 17.96875 -1.421875 11.734375 6.484375 
Q 5.515625 14.40625 5.515625 27.296875 
Q 5.515625 40.1875 11.734375 48.09375 
Q 17.96875 56 27.875 56 
Q 33.9375 56 38.25 53.625 
Q 42.578125 51.265625 45.40625 46.390625 
z
M 14.796875 27.296875 
Q 14.796875 17.390625 18.875 11.75 
Q 22.953125 6.109375 30.078125 6.109375 
Q 37.203125 6.109375 41.296875 11.75 
Q 45.40625 17.390625 45.40625 27.296875 
Q 45.40625 37.203125 41.296875 42.84375 
Q 37.203125 48.484375 30.078125 48.484375 
Q 22.953125 48.484375 18.875 42.84375 
Q 14.796875 37.203125 14.796875 27.296875 
z
" id="DejaVuSans-100"/>
     </defs>
     <g transform="translate(28.617187 200.150656)rotate(-90)scale(0.1 -0.1)">
      <use xlink:href="#DejaVuSans-65"/>
      <use x="68.408203" xlink:href="#DejaVuSans-109"/>
      <use x="165.820312" xlink:href="#DejaVuSans-112"/>
      <use x="229.296875" xlink:href="#DejaVuSans-108"/>
      <use x="257.080078" xlink:href="#DejaVuSans-105"/>
      <use x="284.863281" xlink:href="#DejaVuSans-116"/>
      <use x="324.072266" xlink:href="#DejaVuSans-117"/>
      <use x="387.451172" xlink:href="#DejaVuSans-100"/>
      <use x="450.927734" xlink:href="#DejaVuSans-101"/>
     </g>
    </g>
    <g id="text_19">
     <!-- 1e−5 -->
     <defs>
      <path d="M 10.59375 35.5 
L 73.1875 35.5 
L 73.1875 27.203125 
L 10.59375 27.203125 
z
" id="DejaVuSans-8722"/>
     </defs>
     <g transform="translate(57.6 38.472)scale(0.1 -0.1)">
      <use xlink:href="#DejaVuSans-49"/>
      <use x="63.623047" xlink:href="#DejaVuSans-101"/>
      <use x="125.146484" xlink:href="#DejaVuSans-8722"/>
      <use x="208.935547" xlink:href="#DejaVuSans-53"/>
     </g>
    </g>
   </g>
   <g id="line2d_17">
    <path clip-path="url(#p37e5792805)" d="M 73.962604 -1 
L 73.962641 7.207914 
L 74.092555 218.48935 
L 74.345949 -1 
M 74.355543 -1 
L 74.482296 194.899927 
L 74.61221 197.008529 
L 74.742124 246.105131 
L 74.872038 162.416198 
L 75.001951 264.478578 
L 75.131865 278.243218 
L 75.261779 252.335662 
L 75.521606 280.237806 
L 75.65152 277.123013 
L 75.781434 271.284957 
L 75.911348 294.392391 
L 76.041262 291.768509 
L 76.171175 221.740332 
L 76.301089 239.070697 
L 76.431003 93.009736 
L 76.560917 292.222954 
L 76.690831 247.54209 
L 76.820744 292.415865 
L 76.950658 288.331639 
L 77.080572 294.083894 
L 77.210486 305.517293 
L 77.470313 295.312228 
L 77.600227 301.521277 
L 77.730141 296.989519 
L 77.860055 298.136655 
L 77.989968 301.739616 
L 78.119882 299.685541 
L 78.249796 304.648341 
L 78.37971 305.294128 
L 78.509623 302.411866 
L 78.639537 304.760734 
L 78.899365 283.349413 
L 79.029279 287.385333 
L 79.159192 299.809907 
L 79.289106 277.144854 
L 79.41902 289.594862 
L 79.548934 286.467995 
L 79.678848 295.780738 
L 79.808761 279.647923 
L 80.068589 302.211958 
L 80.198503 294.763558 
L 80.328416 302.266543 
L 80.718158 291.236994 
L 80.977985 257.270304 
L 81.107899 258.431101 
L 81.237813 261.289294 
L 81.367727 254.196858 
L 81.497641 223.254612 
L 81.627554 265.97295 
L 81.757468 257.728942 
L 81.887382 211.584805 
L 82.147209 288.955862 
L 82.277123 244.349961 
L 82.666865 303.287695 
L 82.796778 278.932652 
L 82.926692 287.995154 
L 83.056606 277.152629 
L 83.18652 285.924301 
L 83.576261 225.118008 
L 83.706175 261.940764 
L 83.836089 224.467201 
L 83.966002 275.817142 
L 84.095916 224.754033 
L 84.22583 284.463382 
L 84.355744 209.9267 
L 84.615571 270.175218 
L 84.745485 297.167971 
L 84.875399 240.740646 
L 85.135226 274.357445 
L 85.26514 294.459139 
L 85.395054 262.505048 
L 85.524968 293.814646 
L 85.654882 283.96053 
L 85.784795 285.105444 
L 85.914709 255.641642 
L 86.044623 291.646519 
L 86.174537 269.706932 
L 86.304451 284.588086 
L 86.434364 253.094679 
L 86.564278 290.759432 
L 86.694192 255.276153 
L 86.824106 300.864095 
L 86.954019 248.40863 
L 87.083933 288.412081 
L 87.213847 293.61483 
L 87.343761 288.856441 
L 87.473675 247.186298 
L 87.603588 298.13338 
L 87.733502 260.971458 
L 87.863416 301.905099 
L 87.99333 258.072216 
L 88.123243 287.227063 
L 88.253157 281.648024 
L 88.383071 293.616749 
L 88.512985 256.246938 
L 88.642899 295.036826 
L 88.772812 284.202202 
L 88.902726 284.449381 
L 89.03264 271.567663 
L 89.162554 286.337134 
L 89.292468 221.698835 
L 89.422381 292.480487 
L 89.552295 241.556365 
L 89.682209 305.738525 
L 89.812123 283.784067 
L 89.942036 284.33715 
L 90.07195 239.531834 
L 90.201864 276.038861 
L 90.331778 204.775074 
L 90.461692 281.024863 
L 90.591605 238.762148 
L 90.721519 274.655802 
L 90.851433 271.479955 
L 90.981347 280.563728 
L 91.111261 250.352508 
L 91.241174 282.638956 
L 91.371088 284.385001 
L 91.501002 255.104683 
L 91.630916 283.615774 
L 91.760829 266.664343 
L 91.890743 227.063404 
L 92.020657 283.777162 
L 92.150571 254.60278 
L 92.280485 295.471003 
L 92.410398 273.801321 
L 92.540312 304.848448 
L 92.80014 270.075127 
L 92.930053 203.34106 
L 93.059967 267.587197 
L 93.189881 264.444211 
L 93.319795 273.163847 
L 93.449709 269.466215 
L 93.579622 271.856972 
L 93.709536 291.792457 
L 93.83945 291.418642 
L 93.969364 286.151154 
L 94.099278 272.205346 
L 94.229191 273.514722 
L 94.359105 256.097284 
L 94.618933 298.752307 
L 94.748846 260.535997 
L 95.138588 303.822524 
L 95.268502 294.013815 
L 95.528329 233.702275 
L 95.788157 287.151239 
L 95.918071 270.645366 
L 96.047984 272.025724 
L 96.177898 268.545224 
L 96.307812 301.383111 
L 96.437726 279.064485 
L 96.567639 287.823398 
L 96.697553 287.62515 
L 96.827467 276.484886 
L 96.957381 242.560039 
L 97.087295 299.754451 
L 97.347122 266.036519 
L 97.477036 258.426138 
L 97.60695 303.122085 
L 97.996691 249.451124 
L 98.126605 256.926039 
L 98.386432 290.775006 
L 98.516346 263.794077 
L 98.64626 260.397125 
L 98.906088 285.116539 
L 99.036001 262.756805 
L 99.295829 297.122629 
L 99.425743 285.920346 
L 99.555656 258.08389 
L 99.68557 286.948915 
L 99.815484 251.989737 
L 99.945398 285.335375 
L 100.075312 249.385387 
L 100.205225 289.754293 
L 100.335139 260.920796 
L 100.465053 271.530906 
L 100.594967 258.016596 
L 100.854794 300.691599 
L 101.114622 261.02985 
L 101.244536 263.852304 
L 101.374449 286.007357 
L 101.504363 286.323407 
L 101.634277 263.322075 
L 101.764191 295.156339 
L 102.024018 285.565948 
L 102.153932 277.562579 
L 102.283846 287.229562 
L 102.41376 243.27562 
L 102.543673 295.539266 
L 102.673587 255.315618 
L 102.803501 292.876804 
L 102.933415 249.046438 
L 103.063329 280.346027 
L 103.193242 274.55652 
L 103.323156 306.014799 
L 103.712898 263.743466 
L 103.842811 255.384454 
L 103.972725 293.005954 
L 104.232553 266.796227 
L 104.362466 296.193769 
L 104.622294 281.142121 
L 104.752208 279.540485 
L 104.882122 281.871932 
L 105.012035 241.511735 
L 105.141949 283.099567 
L 105.271863 256.280766 
L 105.401777 302.580581 
L 105.53169 246.588396 
L 105.661604 282.121856 
L 105.791518 267.118298 
L 105.921432 294.262964 
L 106.441087 248.935173 
L 106.571001 273.128857 
L 106.700915 271.072132 
L 106.830828 277.099539 
L 106.960742 296.018503 
L 107.090656 286.015774 
L 107.22057 285.055973 
L 107.480397 264.980587 
L 107.610311 258.420037 
L 107.740225 289.107021 
L 107.870139 254.423635 
L 108.129966 279.428686 
L 108.25988 285.414328 
L 108.389794 255.186935 
L 108.519708 282.977543 
L 108.649621 284.844219 
L 109.039363 259.767622 
L 109.169276 260.891559 
L 109.29919 258.681107 
L 109.429104 288.577465 
L 109.559018 289.531193 
L 109.818845 275.59445 
L 109.948759 286.111091 
L 110.078673 269.962092 
L 110.208587 276.181129 
L 110.3385 301.681176 
L 110.598328 256.64771 
L 110.728242 290.208863 
L 110.988069 269.475301 
L 111.247897 294.726027 
L 111.507725 254.43451 
L 111.637638 281.845583 
L 111.897466 260.078907 
L 112.02738 284.92416 
L 112.157293 281.512413 
L 112.287207 286.698942 
L 112.417121 276.020237 
L 112.547035 291.604753 
L 112.676949 281.239323 
L 112.806862 293.56043 
L 112.936776 276.401939 
L 113.06669 284.35562 
L 113.196604 264.078381 
L 113.326518 270.795936 
L 113.456431 260.485441 
L 113.586345 295.871981 
L 113.716259 289.235967 
L 113.846173 289.833513 
L 114.106 255.012225 
L 114.235914 286.345574 
L 114.495742 266.423337 
L 114.625655 282.056212 
L 114.755569 277.408644 
L 114.885483 289.338604 
L 115.015397 282.754108 
L 115.275224 302.562176 
L 115.405138 300.402343 
L 115.535052 260.735778 
L 115.664966 301.33378 
L 115.924793 273.501728 
L 116.054707 256.399786 
L 116.184621 288.018036 
L 116.314535 286.287474 
L 116.444448 287.549141 
L 116.574362 245.535271 
L 116.704276 259.760164 
L 116.83419 289.815052 
L 116.964103 278.113562 
L 117.094017 279.144968 
L 117.223931 284.668554 
L 117.353845 277.533514 
L 117.483759 294.111938 
L 117.743586 298.66878 
L 117.8735 291.52428 
L 118.003414 295.301288 
L 118.133328 262.341234 
L 118.263241 300.815646 
L 118.652983 277.62251 
L 118.782896 279.571164 
L 118.91281 274.591254 
L 119.042724 287.256682 
L 119.172638 232.125862 
L 119.432465 287.708168 
L 119.562379 275.468603 
L 119.692293 286.695445 
L 119.822207 286.461677 
L 119.95212 288.076805 
L 120.082034 293.396628 
L 120.211948 290.946397 
L 120.341862 305.09364 
L 120.471776 274.558935 
L 120.601689 285.248083 
L 120.731603 277.078223 
L 120.861517 297.99233 
L 121.121345 281.308149 
L 121.251258 302.529709 
L 121.511086 262.917019 
L 121.641 280.008036 
L 121.770913 237.633771 
L 122.030741 271.929054 
L 122.160655 269.464046 
L 122.420482 296.932318 
L 122.550396 301.877033 
L 122.68031 283.891909 
L 122.810224 281.827821 
L 122.940138 303.947625 
L 123.070051 272.102961 
L 123.329879 293.993362 
L 123.589706 285.052537 
L 123.71962 289.274768 
L 123.849534 282.283692 
L 123.979448 281.790921 
L 124.109362 261.208621 
L 124.239275 270.308299 
L 124.369189 268.266244 
L 124.499103 270.03318 
L 124.629017 259.000699 
L 124.75893 267.038116 
L 125.018758 297.563953 
L 125.148672 298.21835 
L 125.278586 275.983209 
L 125.408499 277.065192 
L 125.538413 295.785775 
L 125.668327 281.24092 
L 125.928155 293.311383 
L 126.187982 280.703268 
L 126.317896 292.132711 
L 126.44781 285.811548 
L 126.577723 268.106074 
L 126.707637 268.334593 
L 126.837551 275.747255 
L 126.967465 301.664379 
L 127.227292 266.891918 
L 127.357206 265.727828 
L 127.617034 303.280943 
L 127.876861 274.566455 
L 128.136689 291.109724 
L 128.266603 288.819897 
L 128.396516 288.736546 
L 128.52643 296.435868 
L 128.656344 292.620825 
L 128.786258 274.883778 
L 128.916172 272.446615 
L 129.046085 294.180687 
L 129.175999 270.034965 
L 129.435827 289.589015 
L 129.56574 288.661938 
L 129.695654 268.984369 
L 129.825568 283.572903 
L 129.955482 271.197068 
L 130.215309 302.194308 
L 130.475137 277.321991 
L 130.864878 298.159823 
L 130.994792 285.825448 
L 131.124706 303.653031 
L 131.514447 269.287818 
L 131.644361 288.226602 
L 131.774275 282.638907 
L 132.034102 293.449008 
L 132.164016 289.484929 
L 132.29393 261.978125 
L 132.423844 294.218685 
L 132.553758 282.305982 
L 132.683671 300.721417 
L 132.813585 298.13009 
L 133.073413 275.409229 
L 133.33324 294.08429 
L 133.463154 300.837372 
L 133.593068 288.083644 
L 133.722982 304.670121 
L 133.852895 270.091811 
L 133.982809 300.107636 
L 134.112723 281.519054 
L 134.242637 283.024017 
L 134.37255 298.356226 
L 134.632378 274.688791 
L 134.762292 298.870443 
L 134.892206 265.985344 
L 135.022119 297.119029 
L 135.152033 291.042904 
L 135.281947 302.166257 
L 135.671688 277.218512 
L 135.801602 278.839023 
L 136.06143 300.641432 
L 136.191343 299.69512 
L 136.321257 295.491871 
L 136.451171 262.042304 
L 136.581085 299.384866 
L 136.710999 299.198827 
L 136.840912 295.100727 
L 136.970826 297.201688 
L 137.230654 267.674418 
L 137.360567 304.821075 
L 137.490481 281.798077 
L 137.620395 299.892237 
L 137.750309 294.055509 
L 137.880223 303.170164 
L 138.269964 274.01763 
L 138.399878 278.247615 
L 138.529792 298.664925 
L 138.659705 293.786589 
L 138.789619 296.803286 
L 139.049447 271.493024 
L 139.17936 301.796372 
L 139.309274 284.065083 
L 139.439188 297.572806 
L 139.699016 274.023166 
L 139.828929 277.591517 
L 139.958843 303.179174 
L 140.088757 290.362895 
L 140.218671 299.558258 
L 140.348585 296.757062 
L 140.478498 299.478522 
L 140.608412 287.134158 
L 140.738326 295.112229 
L 140.998153 277.81605 
L 141.128067 302.24066 
L 141.257981 290.670571 
L 141.387895 289.163173 
L 141.517809 280.496934 
L 141.777636 297.116397 
L 141.90755 279.641111 
L 142.037464 286.729288 
L 142.167377 286.137288 
L 142.297291 276.239941 
L 142.427205 291.615945 
L 142.557119 290.146864 
L 142.816946 299.681757 
L 142.94686 300.163034 
L 143.076774 300.151102 
L 143.206688 282.804152 
L 143.336602 292.143625 
L 143.466515 292.327156 
L 143.596429 287.935903 
L 143.726343 299.347848 
L 144.116084 284.115379 
L 144.245998 297.733246 
L 144.375912 279.267349 
L 144.505826 287.678586 
L 144.635739 280.294116 
L 144.765653 292.897891 
L 144.895567 288.469334 
L 145.025481 296.896749 
L 145.155395 280.376754 
L 145.285308 299.017363 
L 145.415222 300.129272 
L 145.545136 298.697488 
L 145.67505 295.422333 
L 145.804963 285.824239 
L 145.934877 288.244289 
L 146.194705 303.795123 
L 146.324619 300.540671 
L 146.454532 294.091858 
L 146.584446 293.923857 
L 146.71436 295.304479 
L 146.844274 294.555081 
L 146.974187 271.14019 
L 147.104101 298.497314 
L 147.234015 287.739457 
L 147.363929 299.582726 
L 147.493843 300.283738 
L 147.623756 302.005206 
L 147.75367 278.070259 
L 147.883584 303.218537 
L 148.013498 294.360136 
L 148.143412 298.50594 
L 148.403239 288.703271 
L 148.663067 295.530506 
L 148.79298 295.044736 
L 148.922894 298.153155 
L 149.052808 295.585451 
L 149.182722 297.738823 
L 149.312636 295.198772 
L 149.442549 295.212274 
L 149.572463 274.180645 
L 149.702377 300.80567 
L 149.832291 295.283739 
L 149.962205 303.596721 
L 150.092118 294.508791 
L 150.222032 304.276283 
L 150.351946 285.657895 
L 150.48186 305.404808 
L 150.611773 288.334065 
L 150.741687 298.959577 
L 150.871601 291.415618 
L 151.001515 294.188819 
L 151.131429 300.761097 
L 151.391256 285.974901 
L 151.52117 297.462943 
L 151.780997 300.011024 
L 151.910911 292.845265 
L 152.040825 293.648091 
L 152.170739 283.986841 
L 152.430566 303.594881 
L 152.690394 294.720148 
L 152.820308 300.676895 
L 152.950222 294.816556 
L 153.080135 300.562998 
L 153.210049 283.870562 
L 153.339963 302.830027 
L 153.59979 295.657679 
L 153.729704 298.198184 
L 153.859618 296.335054 
L 153.989532 283.877855 
L 154.249359 305.293876 
L 154.509187 291.969571 
L 154.639101 290.605784 
L 154.769015 294.036555 
L 154.898928 302.709027 
L 155.158756 300.314774 
L 155.28867 299.675448 
L 155.418583 300.423376 
L 155.548497 298.159199 
L 155.808325 286.74695 
L 155.938239 302.10455 
L 156.068152 302.259393 
L 156.32798 294.482809 
L 156.457894 296.50484 
L 156.587807 290.376539 
L 156.717721 293.061447 
L 156.847635 304.279827 
L 157.237376 290.5053 
L 157.497204 304.067597 
L 157.627118 302.607539 
L 157.757032 299.720973 
L 157.886945 304.804 
L 158.276687 294.064013 
L 158.4066 290.136329 
L 158.536514 297.464263 
L 158.796342 294.527525 
L 159.056169 296.984366 
L 159.186083 296.25569 
L 159.315997 293.622081 
L 159.445911 303.083707 
L 159.575825 299.22571 
L 159.705738 300.077491 
L 159.835652 291.369187 
L 160.09548 305.557806 
L 160.225393 305.441523 
L 160.485221 297.473767 
L 160.745049 306.21001 
L 160.874962 295.008042 
L 161.004876 296.706704 
L 161.13479 293.054819 
L 161.264704 295.320753 
L 161.394617 289.833576 
L 161.524531 295.629922 
L 161.654445 292.903872 
L 161.784359 301.557416 
L 161.914273 299.428771 
L 162.044186 301.459196 
L 162.1741 301.658468 
L 162.304014 301.182695 
L 162.433928 295.531264 
L 162.693755 306.647382 
L 162.823669 302.642493 
L 162.953583 305.020184 
L 163.083497 301.375807 
L 163.21341 302.118168 
L 163.343324 305.510272 
L 163.473238 297.141723 
L 163.603152 298.344699 
L 163.733066 290.138832 
L 163.862979 296.873663 
L 163.992893 291.287324 
L 164.122807 300.857316 
L 164.252721 288.763345 
L 164.382635 301.76918 
L 164.512548 299.344035 
L 164.772376 301.205712 
L 164.90229 302.174217 
L 165.032203 300.996529 
L 165.162117 305.908747 
L 165.421945 303.461467 
L 165.551859 299.093961 
L 165.681772 304.372475 
L 165.811686 301.166232 
L 165.9416 305.078984 
L 166.071514 299.594981 
L 166.201427 299.240433 
L 166.331341 291.374523 
L 166.461255 300.289318 
L 166.591169 298.802953 
L 166.721083 304.495743 
L 166.850996 286.746975 
L 167.110824 305.797728 
L 167.240738 298.661627 
L 167.370652 302.242338 
L 167.500565 298.181121 
L 167.630479 304.604537 
L 167.760393 305.043887 
L 167.890307 302.126035 
L 168.02022 305.048781 
L 168.150134 299.502734 
L 168.280048 304.557918 
L 168.409962 298.492128 
L 168.539876 305.406725 
L 168.929617 292.29511 
L 169.059531 300.643637 
L 169.189445 300.997412 
L 169.319358 303.671161 
L 169.449272 292.134203 
L 169.7091 304.474818 
L 169.839013 298.721418 
L 169.968927 301.432565 
L 170.098841 298.699372 
L 170.228755 306.797995 
L 170.358669 307.286354 
L 170.488582 301.257289 
L 170.618496 302.74395 
L 170.878324 301.915169 
L 171.008237 296.362956 
L 171.268065 306.063864 
L 171.397979 304.945323 
L 171.527893 296.376919 
L 171.657806 304.826327 
L 171.78772 298.125653 
L 171.917634 297.177475 
L 172.047548 298.216661 
L 172.177462 305.434639 
L 172.307375 299.311063 
L 172.437289 299.321767 
L 172.567203 302.680466 
L 172.697117 296.653831 
L 172.82703 306.288574 
L 172.956944 305.283419 
L 173.086858 298.830684 
L 173.216772 299.737319 
L 173.346686 305.562875 
L 173.606513 296.576349 
L 173.866341 306.477079 
L 173.996255 304.599519 
L 174.126168 296.483516 
L 174.256082 305.90203 
L 174.51591 295.813329 
L 174.645823 306.44203 
L 174.905651 298.41496 
L 175.035565 299.680851 
L 175.165479 299.764383 
L 175.295392 300.185239 
L 175.425306 306.232215 
L 175.55522 303.186988 
L 175.685134 302.84481 
L 175.815047 299.732826 
L 175.944961 305.605797 
L 176.074875 299.099526 
L 176.204789 300.55812 
L 176.334703 306.914887 
L 176.464616 304.523913 
L 176.59453 304.268461 
L 176.724444 296.941461 
L 176.854358 303.532281 
L 177.114185 298.036961 
L 177.244099 305.185797 
L 177.374013 295.620274 
L 177.63384 299.532296 
L 177.763754 299.997166 
L 177.893668 298.784854 
L 178.023582 304.838902 
L 178.153496 300.06973 
L 178.283409 303.971381 
L 178.413323 302.567469 
L 178.543237 305.738547 
L 178.673151 299.0381 
L 179.062892 305.64713 
L 179.32272 298.506269 
L 179.452633 300.98207 
L 179.582547 298.216215 
L 179.712461 304.419356 
L 179.842375 303.690831 
L 179.972289 294.528081 
L 180.102202 300.958703 
L 180.232116 301.504073 
L 180.36203 301.440562 
L 180.491944 296.933665 
L 180.621857 301.35103 
L 180.751771 296.969495 
L 181.011599 305.124379 
L 181.141513 304.658048 
L 181.271426 301.419099 
L 181.40134 303.940346 
L 181.531254 300.531317 
L 181.661168 303.097241 
L 181.791082 298.528722 
L 181.920995 304.213705 
L 182.050909 304.356207 
L 182.180823 300.362186 
L 182.310737 300.969713 
L 182.44065 302.559515 
L 182.570564 296.423322 
L 182.700478 306.064252 
L 183.090219 298.066674 
L 183.220133 304.826271 
L 183.350047 298.678061 
L 183.609874 305.61152 
L 183.739788 305.070786 
L 183.869702 302.963281 
L 184.12953 305.012914 
L 184.389357 302.217437 
L 184.649185 299.433496 
L 184.779099 304.690653 
L 185.038926 299.136686 
L 185.16884 301.043837 
L 185.298754 305.66855 
L 185.428667 302.287379 
L 185.558581 304.447035 
L 185.688495 299.366451 
L 185.818409 303.714538 
L 185.948323 299.319923 
L 186.20815 305.692075 
L 186.467978 303.072591 
L 186.597892 302.177581 
L 186.857719 305.635044 
L 187.117547 302.911362 
L 187.24746 296.899133 
L 187.507288 301.510006 
L 187.637202 302.531002 
L 187.897029 305.642435 
L 188.026943 300.836843 
L 188.156857 304.092144 
L 188.416684 299.918086 
L 188.546598 301.139232 
L 188.806426 306.822619 
L 189.066253 303.15843 
L 189.196167 302.922007 
L 189.326081 301.562906 
L 189.585909 305.456924 
L 189.97565 295.297023 
L 190.105564 306.034986 
L 190.235477 302.636915 
L 190.365391 305.965181 
L 190.495305 304.788854 
L 190.625219 301.863036 
L 190.755133 303.791232 
L 190.885046 303.794253 
L 191.01496 299.464227 
L 191.274788 306.332351 
L 191.404702 305.246404 
L 191.534615 306.620538 
L 191.664529 306.20887 
L 191.794443 305.342382 
L 191.924357 302.091356 
L 192.05427 304.611815 
L 192.314098 299.932387 
L 192.444012 299.21183 
L 192.573926 296.850177 
L 192.833753 306.579896 
L 192.963667 306.210161 
L 193.223494 302.002808 
L 193.483322 304.340294 
L 193.613236 298.424308 
L 193.74315 303.766044 
L 193.873063 303.597793 
L 194.132891 306.831091 
L 194.262805 303.259445 
L 194.522632 305.600623 
L 194.78246 303.743318 
L 194.912374 298.99998 
L 195.042287 302.166775 
L 195.172201 299.906975 
L 195.302115 305.819459 
L 195.432029 305.306952 
L 195.561943 303.556942 
L 195.691856 305.120802 
L 195.82177 304.172978 
L 195.951684 301.458695 
L 196.081598 306.17949 
L 196.211512 302.007072 
L 196.341425 304.802639 
L 196.471339 303.154105 
L 196.601253 304.25965 
L 196.731167 302.78198 
L 196.990994 304.397347 
L 197.120908 305.988912 
L 197.250822 301.980089 
L 197.380736 304.908878 
L 197.640563 301.51147 
L 197.900391 304.477699 
L 198.160218 301.969415 
L 198.420046 307.483365 
L 198.54996 301.88491 
L 198.679873 305.42227 
L 198.809787 303.633086 
L 198.939701 305.0173 
L 199.069615 303.191133 
L 199.199529 305.323838 
L 199.329442 302.388197 
L 199.58927 306.415648 
L 199.719184 305.814042 
L 199.849097 301.85581 
L 199.979011 305.801355 
L 200.108925 305.644352 
L 200.238839 302.829073 
L 200.368753 306.331089 
L 200.498666 302.983596 
L 200.62858 305.809784 
L 200.758494 302.212423 
L 200.888408 305.26318 
L 201.018322 302.87721 
L 201.278149 304.791467 
L 201.408063 303.378398 
L 201.537977 306.22713 
L 201.66789 302.743744 
L 201.797804 304.858345 
L 201.927718 302.02085 
L 202.057632 302.641947 
L 202.187546 305.936664 
L 202.317459 304.862811 
L 202.447373 301.636531 
L 202.707201 304.520226 
L 202.837114 306.051165 
L 202.967028 305.76475 
L 203.096942 304.247027 
L 203.226856 304.934467 
L 203.35677 301.68608 
L 203.486683 301.21887 
L 203.616597 296.100794 
L 203.746511 296.38166 
L 203.876425 255.669665 
L 204.136252 300.451239 
L 204.39608 303.840031 
L 204.655907 300.985433 
L 204.785821 301.951679 
L 204.915735 306.195087 
L 205.045649 301.14393 
L 205.175563 304.88755 
L 205.305476 303.99202 
L 205.565304 305.608496 
L 205.695218 303.914376 
L 205.825132 306.826702 
L 205.955045 307.050774 
L 206.214873 302.613989 
L 206.344787 304.970588 
L 206.4747 301.231466 
L 206.734528 305.859257 
L 206.864442 302.746156 
L 207.124269 306.056052 
L 207.254183 305.418866 
L 207.384097 306.604139 
L 207.514011 305.184033 
L 207.643924 305.813782 
L 207.773838 304.564396 
L 207.903752 306.755314 
L 208.033666 305.076782 
L 208.16358 306.158951 
L 208.293493 304.905182 
L 208.423407 305.057379 
L 208.553321 303.791726 
L 208.943062 305.89734 
L 209.072976 300.423904 
L 209.332804 306.524392 
L 209.462717 304.454698 
L 209.592631 304.381179 
L 209.722545 305.034193 
L 209.852459 304.874505 
L 209.982373 305.127428 
L 210.112286 306.421657 
L 210.2422 303.939616 
L 210.372114 304.314689 
L 210.631942 306.783897 
L 210.761855 305.801172 
L 211.021683 306.990279 
L 211.151597 304.325298 
L 211.411424 306.58617 
L 211.541338 305.88429 
L 211.671252 301.156911 
L 211.801166 306.542597 
L 212.060993 305.772061 
L 212.190907 305.071895 
L 212.320821 305.045932 
L 212.450734 306.438351 
L 212.580648 306.369022 
L 212.710562 305.035901 
L 212.840476 305.42151 
L 212.97039 305.392684 
L 213.230217 306.860821 
L 213.490045 304.824545 
L 213.619959 304.935332 
L 213.749872 306.154751 
L 214.0097 304.628565 
L 214.139614 306.034246 
L 214.269527 303.956736 
L 214.529355 306.891363 
L 214.659269 305.786663 
L 214.919096 306.164999 
L 215.04901 306.114523 
L 215.178924 307.337434 
L 215.308838 306.308079 
L 215.438752 306.395568 
L 215.568665 306.005053 
L 215.698579 306.137498 
L 215.828493 305.764504 
L 215.958407 306.654528 
L 216.218234 304.585982 
L 216.478062 306.477766 
L 216.737889 304.491798 
L 216.867803 307.476845 
L 216.997717 306.060749 
L 217.127631 306.758011 
L 217.257544 304.769819 
L 217.387458 307.141111 
L 217.517372 305.8744 
L 217.647286 305.879298 
L 217.907113 304.692082 
L 218.037027 305.187578 
L 218.166941 307.045386 
L 218.296855 304.724065 
L 218.426769 306.790567 
L 218.556682 306.416433 
L 218.81651 306.937821 
L 218.946424 305.786642 
L 219.076337 305.698575 
L 219.206251 306.744187 
L 219.336165 305.135862 
L 219.595993 306.26296 
L 219.725906 306.394745 
L 219.85582 303.956172 
L 219.985734 307.465483 
L 220.115648 305.992773 
L 220.245561 306.663742 
L 220.375475 304.976664 
L 220.505389 306.394452 
L 220.765217 306.089947 
L 220.89513 306.372265 
L 221.025044 305.994211 
L 221.154958 306.29571 
L 221.414786 305.19734 
L 221.544699 306.893583 
L 221.804527 306.87655 
L 221.934441 305.813858 
L 222.064354 307.303472 
L 222.194268 306.616037 
L 222.324182 307.324908 
L 222.454096 305.871253 
L 222.58401 307.398421 
L 222.713923 307.340566 
L 222.973751 305.853059 
L 223.103665 306.86699 
L 223.363492 304.984174 
L 223.62332 306.557649 
L 223.753234 306.539443 
L 223.883147 306.802599 
L 224.013061 306.649707 
L 224.142975 305.516402 
L 224.272889 305.795037 
L 224.402803 306.565404 
L 224.532716 304.888913 
L 224.792544 307.023681 
L 224.922458 305.681952 
L 225.182285 306.76894 
L 225.312199 305.460695 
L 225.442113 306.248037 
L 225.572027 305.701273 
L 225.70194 306.651598 
L 225.831854 306.630429 
L 225.961768 304.593543 
L 226.221596 307.284248 
L 226.351509 305.626265 
L 226.481423 307.274638 
L 226.611337 305.10853 
L 226.871164 306.245375 
L 227.001078 306.738132 
L 227.130992 305.257712 
L 227.260906 306.413373 
L 227.39082 306.053293 
L 227.780561 307.152103 
L 227.910475 306.058852 
L 228.040389 306.085327 
L 228.300216 306.412515 
L 228.43013 306.012918 
L 228.560044 306.483553 
L 228.689957 306.221145 
L 228.819871 306.377651 
L 228.949785 305.882507 
L 229.079699 307.253268 
L 229.209613 306.336581 
L 229.339526 306.624195 
L 229.46944 306.340457 
L 229.599354 305.266045 
L 229.859181 306.96279 
L 229.989095 306.538315 
L 230.119009 307.068811 
L 230.248923 306.127798 
L 230.378837 306.608897 
L 230.50875 306.38014 
L 230.638664 307.385178 
L 230.768578 306.018061 
L 230.898492 306.774855 
L 231.028406 306.345495 
L 231.158319 306.447348 
L 231.418147 306.149741 
L 231.548061 305.794828 
L 231.677974 306.980363 
L 231.807888 306.863873 
L 231.937802 305.990281 
L 232.067716 307.085839 
L 232.19763 306.524453 
L 232.327543 306.699428 
L 232.457457 307.116252 
L 232.587371 306.294794 
L 232.717285 306.268689 
L 232.977112 307.197438 
L 233.23694 306.178303 
L 233.366854 306.333692 
L 233.496767 307.230797 
L 233.626681 306.218278 
L 233.756595 306.842456 
L 233.886509 306.502799 
L 234.016423 306.487801 
L 234.146336 306.606079 
L 234.27625 306.233423 
L 234.406164 306.937045 
L 234.536078 306.049719 
L 234.665991 307.267102 
L 234.795905 307.28142 
L 234.925819 306.281308 
L 235.185647 307.051578 
L 235.31556 307.048911 
L 235.445474 307.461756 
L 235.705302 306.314952 
L 235.965129 307.135354 
L 236.095043 306.846429 
L 236.224957 307.546507 
L 236.354871 306.555248 
L 236.484784 306.571731 
L 236.614698 306.469602 
L 236.744612 307.085587 
L 236.874526 307.058528 
L 237.134353 306.34365 
L 237.394181 306.897057 
L 237.524095 306.315987 
L 237.654009 307.409851 
L 237.913836 307.144705 
L 238.04375 306.995304 
L 238.173664 307.525777 
L 238.433491 307.315109 
L 238.563405 306.144128 
L 238.693319 306.620659 
L 238.823233 306.160731 
L 238.953146 306.46385 
L 239.08306 306.000963 
L 239.342888 307.145671 
L 239.472801 305.640827 
L 239.602715 307.265074 
L 239.862543 306.456158 
L 239.992457 306.812389 
L 240.12237 306.809879 
L 240.252284 305.790009 
L 240.382198 306.919175 
L 240.512112 306.6287 
L 240.642026 306.723821 
L 240.901853 306.270572 
L 241.031767 307.099067 
L 241.291594 306.379996 
L 241.551422 307.147198 
L 241.681336 306.525099 
L 241.81125 307.240146 
L 241.941163 307.096025 
L 242.071077 307.200338 
L 242.200991 305.999342 
L 242.330905 306.167172 
L 242.460819 306.982651 
L 242.590732 305.935696 
L 242.720646 306.892715 
L 242.85056 306.833152 
L 242.980474 306.606032 
L 243.110387 307.032842 
L 243.240301 307.062749 
L 243.500129 306.328237 
L 243.630043 307.440174 
L 243.759956 306.080477 
L 244.019784 307.16156 
L 244.149698 306.036546 
L 244.279611 306.337201 
L 244.539439 307.268883 
L 244.669353 306.671696 
L 244.799267 307.098473 
L 244.92918 305.997773 
L 245.059094 307.213366 
L 245.189008 306.327446 
L 245.448836 306.975051 
L 245.708663 306.135826 
L 245.838577 307.401853 
L 245.968491 306.538912 
L 246.228318 307.134553 
L 246.358232 307.381418 
L 246.488146 306.518101 
L 246.877887 306.767206 
L 247.007801 307.45047 
L 247.137715 305.716788 
L 247.267629 307.511586 
L 247.527456 306.532786 
L 247.65737 306.531367 
L 247.787284 307.448641 
L 248.047111 307.026178 
L 248.177025 307.123994 
L 248.306939 306.07543 
L 248.436853 306.268675 
L 248.566766 306.835163 
L 248.69668 306.882966 
L 248.826594 306.740845 
L 248.956508 306.840367 
L 249.086421 307.212284 
L 249.346249 307.166377 
L 249.476163 306.834109 
L 249.606077 307.241163 
L 249.73599 306.323415 
L 249.865904 306.743178 
L 249.995818 306.469339 
L 250.515473 307.180961 
L 250.645387 306.633828 
L 250.775301 306.581213 
L 251.035128 307.519724 
L 251.165042 307.291984 
L 251.42487 306.237894 
L 251.554783 306.444518 
L 251.814611 305.364537 
L 251.944525 306.94666 
L 252.074439 306.917109 
L 252.204352 307.156586 
L 252.334266 306.486172 
L 252.46418 307.475388 
L 252.724007 306.363104 
L 252.853921 306.407995 
L 252.983835 306.894332 
L 253.113749 306.548581 
L 253.373576 307.103467 
L 253.50349 306.426928 
L 253.633404 307.027853 
L 253.893231 306.261003 
L 254.023145 307.115472 
L 254.153059 307.040365 
L 254.282973 307.340171 
L 254.412887 305.334964 
L 254.802628 307.056513 
L 254.932542 306.750607 
L 255.062456 307.106279 
L 255.192369 306.942463 
L 255.322283 307.214539 
L 255.452197 306.322048 
L 255.582111 306.963054 
L 255.712024 306.624848 
L 255.841938 305.587673 
L 255.971852 307.022692 
L 256.23168 306.440714 
L 256.491507 307.070905 
L 256.751335 306.399127 
L 256.881248 306.423024 
L 257.011162 305.453426 
L 257.27099 306.23828 
L 257.400904 307.188392 
L 257.790645 306.267544 
L 258.050473 307.015264 
L 258.3103 306.194705 
L 258.570128 306.861599 
L 258.700041 306.910955 
L 258.959869 306.728015 
L 259.089783 306.748414 
L 259.219697 305.949708 
L 259.34961 305.948477 
L 259.479524 307.293296 
L 259.739352 305.540282 
L 259.869266 306.902025 
L 259.999179 305.504265 
L 260.129093 306.907379 
L 260.259007 306.160642 
L 260.388921 306.931633 
L 260.518834 306.937838 
L 260.648748 306.200717 
L 260.908576 307.279231 
L 261.03849 306.315514 
L 261.168403 306.196941 
L 261.298317 306.433924 
L 261.428231 305.714806 
L 261.558145 306.087581 
L 261.688058 306.085246 
L 261.817972 307.289892 
L 261.947886 305.422713 
L 262.0778 306.77794 
L 262.207714 305.166602 
L 262.337627 307.112199 
L 262.467541 306.340059 
L 262.727369 306.697042 
L 262.857283 306.501505 
L 262.987196 306.900795 
L 263.11711 306.55165 
L 263.247024 306.88398 
L 263.376938 305.921266 
L 263.636765 307.526455 
L 263.766679 306.382793 
L 263.896593 307.157708 
L 264.026507 306.730826 
L 264.15642 305.130118 
L 264.546162 306.434999 
L 264.676076 306.606451 
L 264.805989 306.049888 
L 264.935903 306.470216 
L 265.065817 305.839168 
L 265.325644 306.034964 
L 265.585472 307.070663 
L 265.715386 305.159893 
L 265.975213 306.9556 
L 266.105127 307.107911 
L 266.364955 306.891542 
L 266.624782 305.465973 
L 266.754696 307.04405 
L 267.014524 306.571028 
L 267.144437 305.784886 
L 267.274351 307.424042 
L 267.534179 306.039021 
L 267.664093 305.581324 
L 267.794006 307.010946 
L 267.92392 306.502713 
L 268.053834 307.36125 
L 268.313661 305.755838 
L 268.443575 307.174712 
L 268.573489 306.656588 
L 268.703403 306.666008 
L 268.833317 306.101204 
L 268.96323 306.690796 
L 269.093144 305.540892 
L 269.223058 305.954297 
L 269.352972 307.036685 
L 269.482886 306.753475 
L 269.612799 305.714902 
L 269.742713 306.27321 
L 269.872627 305.611216 
L 270.132454 306.316825 
L 270.262368 305.547316 
L 270.522196 307.348084 
L 270.911937 305.305165 
L 271.171765 306.242617 
L 271.301678 306.011128 
L 271.431592 306.875351 
L 271.69142 305.663009 
L 271.951247 307.564173 
L 272.081161 305.993381 
L 272.211075 307.24834 
L 272.340989 307.103193 
L 272.73073 305.646919 
L 272.860644 306.043265 
L 273.120471 306.961127 
L 273.250385 307.119641 
L 273.510213 305.886298 
L 273.640127 307.360743 
L 273.77004 306.055646 
L 273.899954 305.966616 
L 274.029868 306.64561 
L 274.159782 306.575582 
L 274.289696 305.234114 
L 274.419609 306.673046 
L 274.549523 305.892476 
L 274.809351 306.80708 
L 274.939264 306.224098 
L 275.069178 305.0803 
L 275.199092 306.811843 
L 275.45892 306.355492 
L 275.588833 307.141466 
L 275.718747 306.535387 
L 275.848661 307.002355 
L 275.978575 306.477053 
L 276.108488 305.156299 
L 276.238402 307.095866 
L 276.368316 307.188793 
L 276.49823 306.309721 
L 276.628144 306.344443 
L 276.758057 305.13754 
L 276.887971 306.362885 
L 277.017885 306.284138 
L 277.147799 305.929001 
L 277.277713 306.9564 
L 277.407626 305.949536 
L 277.797368 306.883324 
L 277.927281 306.719046 
L 278.057195 305.991311 
L 278.187109 306.899983 
L 278.317023 306.661505 
L 278.446937 306.135836 
L 278.57685 306.254531 
L 278.706764 306.055091 
L 278.836678 307.10677 
L 279.356333 305.754156 
L 279.486247 306.834645 
L 279.616161 305.380601 
L 279.875988 307.119917 
L 280.005902 306.789012 
L 280.135816 305.736604 
L 280.26573 306.469281 
L 280.395643 306.430174 
L 280.525557 307.11831 
L 280.655471 305.908246 
L 280.785385 306.357704 
L 280.915298 307.472655 
L 281.045212 306.073771 
L 281.175126 306.660778 
L 281.30504 305.891734 
L 281.564867 306.991477 
L 281.694781 306.083182 
L 281.824695 306.515257 
L 281.954609 306.2983 
L 282.084523 307.225027 
L 282.214436 304.715172 
L 282.34435 306.463156 
L 282.474264 306.266371 
L 282.734091 306.585865 
L 282.864005 306.71697 
L 282.993919 306.400563 
L 283.123833 306.844913 
L 283.253747 305.586957 
L 283.38366 306.919201 
L 283.513574 306.991095 
L 283.643488 305.600267 
L 283.903316 306.695099 
L 284.033229 306.202225 
L 284.163143 307.084868 
L 284.422971 305.618094 
L 284.552884 307.325208 
L 284.812712 305.335175 
L 285.07254 306.817507 
L 285.202453 305.992736 
L 285.332367 306.726547 
L 285.462281 306.659673 
L 285.852022 306.09292 
L 286.11185 307.090221 
L 286.241764 306.315109 
L 286.371677 306.43759 
L 286.501591 306.873681 
L 286.631505 305.855627 
L 286.761419 307.206359 
L 287.021246 305.970666 
L 287.281074 306.475689 
L 287.540901 305.923661 
L 287.800729 307.277944 
L 288.060557 306.415962 
L 288.19047 306.040958 
L 288.320384 306.391708 
L 288.450298 306.190856 
L 288.580212 305.750962 
L 288.710126 306.856911 
L 288.840039 306.5664 
L 288.969953 306.876351 
L 289.099867 306.846473 
L 289.229781 306.025461 
L 289.359694 306.581067 
L 289.489608 306.539781 
L 289.619522 305.187449 
L 289.749436 307.195044 
L 289.87935 305.995586 
L 290.009263 306.510682 
L 290.139177 306.175271 
L 290.269091 306.852299 
L 290.528918 306.291612 
L 290.658832 306.277271 
L 290.91866 306.620411 
L 291.048574 305.830228 
L 291.178487 305.83579 
L 291.308401 307.088162 
L 291.438315 306.796655 
L 291.568229 306.103473 
L 291.698143 307.051143 
L 291.828056 305.69703 
L 292.087884 306.853197 
L 292.217798 305.188174 
L 292.347711 306.471559 
L 292.477625 305.833744 
L 292.607539 307.390057 
L 292.867367 305.666813 
L 292.99728 305.89554 
L 293.127194 306.615427 
L 293.257108 306.230197 
L 293.387022 307.343679 
L 293.646849 306.461549 
L 293.776763 305.760125 
L 294.036591 307.368759 
L 294.166504 305.572675 
L 294.556246 307.103407 
L 294.68616 306.159021 
L 294.816073 306.499426 
L 294.945987 307.473149 
L 295.075901 306.057066 
L 295.205815 306.284772 
L 295.335728 306.963821 
L 295.465642 306.959815 
L 295.595556 305.930901 
L 295.72547 307.351184 
L 295.855384 306.687071 
L 295.985297 306.885007 
L 296.115211 305.140314 
L 296.245125 306.499852 
L 296.375039 306.182639 
L 296.504953 306.32354 
L 296.76478 306.138484 
L 296.894694 307.058711 
L 297.024608 306.200169 
L 297.154521 306.9576 
L 297.284435 305.987703 
L 297.414349 306.35717 
L 297.544263 307.07142 
L 297.674177 305.36982 
L 297.934004 307.387503 
L 298.063918 306.621214 
L 298.193832 306.878765 
L 298.323745 307.410517 
L 298.453659 307.381347 
L 298.713487 305.995 
L 298.843401 307.172498 
L 298.973314 306.444313 
L 299.233142 306.728318 
L 299.49297 306.421392 
L 299.622883 306.389863 
L 299.752797 307.041672 
L 299.882711 306.210219 
L 300.012625 306.535818 
L 300.142538 306.280985 
L 300.272452 306.428574 
L 300.402366 306.889223 
L 300.53228 306.907682 
L 300.922021 307.319105 
L 301.051935 307.292728 
L 301.181849 307.032515 
L 301.311763 305.644982 
L 301.441676 306.926999 
L 301.57159 306.654016 
L 301.701504 305.870134 
L 301.831418 307.10479 
L 301.961331 306.971136 
L 302.091245 306.554241 
L 302.351073 307.081458 
L 302.480987 306.242109 
L 302.6109 306.807662 
L 302.740814 305.572389 
L 303.000642 306.990524 
L 303.130555 306.694844 
L 303.260469 306.885489 
L 303.520297 306.374749 
L 303.650211 305.956622 
L 303.780124 306.55659 
L 303.910038 306.334711 
L 304.039952 307.308385 
L 304.29978 306.308604 
L 304.429693 307.250802 
L 304.689521 306.600691 
L 304.949348 307.46811 
L 305.33909 305.663741 
L 305.598917 307.387954 
L 305.858745 306.662688 
L 305.988659 306.400585 
L 306.118573 307.249743 
L 306.3784 306.34472 
L 306.638228 307.513256 
L 306.768141 306.657938 
L 306.898055 306.620859 
L 307.157883 306.897957 
L 307.287797 306.474042 
L 307.41771 307.310821 
L 307.547624 307.205771 
L 307.937365 306.165923 
L 308.197193 307.383247 
L 308.327107 306.342955 
L 308.457021 306.652853 
L 308.586934 306.609231 
L 308.716848 306.951091 
L 308.846762 306.41596 
L 308.976676 306.980727 
L 309.236503 306.690862 
L 309.366417 306.144387 
L 309.496331 307.299992 
L 309.886072 306.375283 
L 310.275814 307.33072 
L 310.405727 306.287954 
L 310.535641 306.837429 
L 310.665555 306.866674 
L 310.795469 306.205557 
L 310.925383 306.83693 
L 311.18521 306.772807 
L 311.315124 307.143242 
L 311.445038 306.934235 
L 311.574951 307.328904 
L 311.704865 307.102341 
L 311.834779 307.161664 
L 311.964693 306.186915 
L 312.094607 307.151683 
L 312.22452 306.997747 
L 312.484348 306.213123 
L 312.614262 307.320113 
L 312.874089 306.767847 
L 313.004003 306.774394 
L 313.133917 306.665766 
L 313.393744 306.779918 
L 313.653572 307.106582 
L 313.9134 306.87552 
L 314.043313 307.337033 
L 314.303141 306.585254 
L 314.433055 307.054446 
L 314.562968 306.629231 
L 314.822796 307.025245 
L 314.95271 306.751698 
L 315.082624 306.758606 
L 315.212537 307.070536 
L 315.342451 306.568296 
L 315.472365 306.548265 
L 315.602279 307.396992 
L 315.732193 306.845737 
L 315.862106 306.826592 
L 316.121934 307.053304 
L 316.251848 306.982374 
L 316.381761 306.70433 
L 316.511675 306.730452 
L 316.641589 307.359458 
L 316.771503 307.381455 
L 317.03133 306.902134 
L 317.161244 307.206556 
L 317.421072 306.589967 
L 317.550985 307.180213 
L 317.680899 306.540666 
L 317.810813 307.231656 
L 317.940727 307.008092 
L 318.070641 306.265707 
L 318.330468 307.36564 
L 318.460382 306.704945 
L 318.72021 306.993424 
L 318.850123 307.140501 
L 318.980037 306.203482 
L 319.109951 307.226768 
L 319.239865 306.574423 
L 319.369778 307.373506 
L 319.629606 306.38975 
L 319.889434 307.446152 
L 320.019347 306.978907 
L 320.149261 307.347914 
L 320.279175 307.154344 
L 320.409089 306.039872 
L 320.539003 307.422681 
L 320.668916 306.948109 
L 320.79883 307.378775 
L 321.058658 307.364351 
L 321.318485 307.024144 
L 321.578313 307.414408 
L 321.708227 306.480404 
L 321.968054 306.754925 
L 322.097968 307.379129 
L 322.227882 306.73662 
L 322.357795 307.054533 
L 322.487709 306.716113 
L 322.747537 307.350833 
L 323.007364 306.636248 
L 323.137278 307.444862 
L 323.397106 306.691598 
L 323.52702 307.336228 
L 323.786847 306.690513 
L 324.046675 307.136071 
L 324.176588 307.027924 
L 324.306502 307.253283 
L 324.56633 306.201393 
L 324.696244 306.944925 
L 324.826157 306.825653 
L 324.956071 307.139202 
L 325.085985 306.235818 
L 325.345813 307.330517 
L 325.475726 307.262351 
L 325.60564 306.278708 
L 325.735554 307.208156 
L 325.865468 306.89892 
L 326.125295 307.420081 
L 326.255209 306.927004 
L 326.385123 307.469641 
L 326.515037 307.294751 
L 326.64495 307.329055 
L 326.904778 306.875312 
L 327.034692 307.307968 
L 327.164605 306.717626 
L 327.294519 307.381965 
L 327.424433 306.874829 
L 327.554347 307.050114 
L 327.684261 306.809399 
L 327.814174 307.380078 
L 327.944088 306.350657 
L 328.203916 307.383327 
L 328.463743 306.922527 
L 328.723571 307.010456 
L 328.853485 307.423516 
L 329.113312 307.155577 
L 329.243226 307.448552 
L 329.503054 306.925735 
L 329.632967 307.305844 
L 329.762881 306.64562 
L 329.892795 306.729762 
L 330.022709 306.604127 
L 330.152623 307.256329 
L 330.282536 306.491594 
L 330.41245 307.236112 
L 330.542364 306.738671 
L 330.672278 306.985112 
L 330.802191 307.488081 
L 330.932105 307.164659 
L 331.062019 307.420353 
L 331.191933 307.128837 
L 331.321847 307.410012 
L 331.45176 306.647294 
L 331.581674 307.294365 
L 331.711588 306.942882 
L 331.841502 307.254767 
L 332.101329 306.859599 
L 332.231243 306.909674 
L 332.361157 306.831886 
L 332.620984 307.227733 
L 332.750898 306.919454 
L 332.880812 306.949456 
L 333.010726 306.672388 
L 333.14064 306.957424 
L 333.270553 306.932641 
L 333.400467 307.522326 
L 333.790208 307.223038 
L 334.050036 306.629704 
L 334.17995 306.332389 
L 334.439777 307.337039 
L 334.699605 306.818943 
L 334.829519 306.871738 
L 334.959433 307.300631 
L 335.089346 306.664224 
L 335.349174 307.032103 
L 335.479088 306.521321 
L 335.609001 307.179017 
L 335.868829 306.914922 
L 335.998743 307.363442 
L 336.128657 306.914513 
L 336.518398 306.906764 
L 336.778225 307.225961 
L 337.038053 307.407402 
L 337.167967 306.943653 
L 337.297881 307.489352 
L 337.427794 306.974996 
L 337.557708 306.966797 
L 337.687622 305.935041 
L 337.817536 307.099225 
L 337.94745 307.203028 
L 338.077363 306.647524 
L 338.207277 307.475608 
L 338.337191 307.153653 
L 338.467105 307.212626 
L 338.597018 307.461315 
L 338.726932 307.220756 
L 338.856846 307.496939 
L 339.116674 307.372234 
L 339.246587 306.833365 
L 339.376501 307.345559 
L 339.636329 306.872521 
L 339.766242 306.838631 
L 339.896156 307.088225 
L 340.02607 306.630892 
L 340.155984 306.849813 
L 340.285898 306.825568 
L 340.675639 307.213091 
L 340.935467 306.588081 
L 341.195294 307.311364 
L 341.325208 307.242129 
L 341.455122 307.521267 
L 341.585035 306.771321 
L 341.844863 307.287792 
L 341.974777 307.375566 
L 342.104691 306.845536 
L 342.494432 307.345739 
L 342.624346 307.217791 
L 342.75426 307.294971 
L 342.884173 306.588822 
L 343.014087 307.289353 
L 343.144001 306.9292 
L 343.273915 306.988882 
L 343.403828 306.923815 
L 343.663656 307.498268 
L 343.79357 306.969448 
L 344.053397 307.481716 
L 344.183311 306.917696 
L 344.313225 307.510191 
L 344.443139 307.362924 
L 344.573052 306.927952 
L 344.702966 307.168386 
L 344.83288 306.449537 
L 344.962794 307.400772 
L 345.092708 307.004933 
L 345.222621 307.145661 
L 345.352535 306.915954 
L 345.482449 307.446591 
L 345.742277 307.073004 
L 345.87219 307.178175 
L 346.002104 307.093173 
L 346.132018 307.316942 
L 346.391845 307.202393 
L 346.651673 307.439257 
L 346.781587 306.933077 
L 346.911501 307.246277 
L 347.041414 306.57367 
L 347.171328 306.793298 
L 347.301242 307.485972 
L 347.431156 307.19046 
L 347.820897 307.53771 
L 348.080725 306.798581 
L 348.340552 307.492837 
L 348.470466 307.223422 
L 348.60038 307.468941 
L 348.730294 307.121497 
L 348.860207 307.366034 
L 348.990121 307.246209 
L 349.120035 306.69589 
L 349.249949 307.313268 
L 349.509776 306.469701 
L 349.63969 307.352386 
L 349.769604 306.995879 
L 349.899518 307.245544 
L 350.029431 306.820906 
L 350.159345 307.388103 
L 350.289259 306.684128 
L 350.419173 307.177803 
L 350.549087 306.720198 
L 350.938828 307.481988 
L 351.068742 307.288647 
L 351.198655 307.350431 
L 351.328569 306.966338 
L 351.458483 307.350064 
L 351.588397 306.814268 
L 351.718311 307.026958 
L 351.848224 306.899423 
L 351.978138 307.334956 
L 352.497793 306.685631 
L 352.627707 306.954323 
L 352.757621 306.905299 
L 352.887535 307.439598 
L 353.017448 307.013799 
L 353.147362 307.409497 
L 353.277276 306.982185 
L 353.40719 307.293066 
L 353.537104 306.947995 
L 353.667017 307.070001 
L 353.796931 306.95213 
L 353.926845 307.034518 
L 354.056759 307.444647 
L 354.186672 307.218064 
L 354.316586 307.319893 
L 354.706328 306.654829 
L 354.836241 307.481002 
L 354.966155 307.321627 
L 355.096069 306.984998 
L 355.355897 306.979237 
L 355.48581 307.152784 
L 355.615724 307.077291 
L 355.745638 307.241274 
L 355.875552 307.139756 
L 356.005465 306.779489 
L 356.135379 306.915317 
L 356.265293 307.363042 
L 356.395207 307.354005 
L 356.525121 306.852555 
L 356.655034 307.370519 
L 356.784948 307.132267 
L 356.914862 307.374946 
L 357.17469 307.071953 
L 357.304603 307.116542 
L 357.434517 306.928324 
L 357.564431 307.478163 
L 357.694345 306.836829 
L 357.824258 307.27611 
L 358.084086 307.274917 
L 358.214 307.40998 
L 358.343914 307.03568 
L 358.603741 307.056397 
L 358.863569 306.832436 
L 359.123396 307.498545 
L 359.383224 307.047239 
L 359.513138 307.280597 
L 359.643051 307.123485 
L 359.772965 307.510599 
L 359.902879 307.246604 
L 360.032793 307.381483 
L 360.162707 307.085183 
L 360.29262 307.195215 
L 360.422534 306.706963 
L 360.552448 307.488907 
L 360.682362 306.746478 
L 360.812275 307.188631 
L 361.072103 307.058907 
L 361.202017 307.192816 
L 361.331931 305.907109 
L 361.461844 307.134784 
L 361.591758 307.121803 
L 361.851586 307.311225 
L 361.9815 306.968161 
L 362.241327 307.138157 
L 362.371241 306.892811 
L 362.631068 307.292732 
L 362.760982 307.470567 
L 363.02081 307.078819 
L 363.150724 306.615223 
L 363.280637 307.455584 
L 363.540465 307.23357 
L 363.670379 306.825166 
L 363.800292 307.014415 
L 363.930206 306.628692 
L 364.06012 307.272681 
L 364.449861 307.385212 
L 364.579775 307.225807 
L 364.709689 307.30131 
L 364.839603 306.763735 
L 364.969517 307.235926 
L 365.09943 307.16064 
L 365.229344 307.419565 
L 365.359258 307.276852 
L 365.619085 307.311891 
L 365.878913 307.299468 
L 366.008827 306.974853 
L 366.138741 307.356249 
L 366.268654 306.87091 
L 366.398568 307.467886 
L 366.528482 306.789011 
L 366.78831 307.246129 
L 366.918223 307.296619 
L 367.048137 307.530666 
L 367.178051 307.033934 
L 367.437878 307.284982 
L 367.567792 307.216677 
L 367.697706 307.304069 
L 367.82762 306.941689 
L 368.087447 307.370494 
L 368.217361 307.375989 
L 368.347275 307.019434 
L 368.477189 307.347745 
L 368.607102 307.112978 
L 368.737016 307.432799 
L 368.996844 307.103517 
L 369.256671 307.298003 
L 369.386585 307.237886 
L 369.516499 307.309768 
L 370.036154 307.047094 
L 370.166068 307.450973 
L 370.425895 306.762995 
L 370.685723 307.551575 
L 370.945551 307.126878 
L 371.465206 307.43709 
L 371.59512 306.982025 
L 371.725033 307.282536 
L 371.854947 307.169363 
L 371.984861 307.21233 
L 372.114775 307.460934 
L 372.244688 307.229628 
L 372.504516 307.239521 
L 372.63443 306.9475 
L 372.894257 307.296578 
L 373.283999 306.917285 
L 373.543826 307.44049 
L 373.67374 307.502022 
L 373.803654 307.112804 
L 373.933568 307.152465 
L 374.063481 307.491323 
L 374.193395 307.048165 
L 374.583137 307.461091 
L 374.71305 307.125028 
L 374.972878 307.202748 
L 375.102792 307.408115 
L 375.362619 307.145739 
L 375.492533 307.482777 
L 375.752361 306.995662 
L 375.882274 307.503774 
L 376.012188 307.449504 
L 376.142102 307.020191 
L 376.272016 307.031406 
L 376.531843 307.32424 
L 376.661757 306.890632 
L 376.791671 306.965506 
L 376.921585 307.201112 
L 377.051498 306.978987 
L 377.181412 307.240733 
L 377.311326 307.092441 
L 377.701067 307.219668 
L 377.830981 307.060425 
L 378.090809 307.441115 
L 378.220722 307.35717 
L 378.350636 307.438023 
L 378.610464 307.050252 
L 378.870291 307.105386 
L 379.000205 307.469478 
L 379.130119 307.274725 
L 379.260033 307.398649 
L 379.389947 306.79544 
L 379.649774 307.489087 
L 379.909602 307.01979 
L 380.169429 307.319789 
L 380.299343 307.410912 
L 380.429257 307.06122 
L 380.559171 307.461472 
L 380.689084 307.14229 
L 380.818998 307.141539 
L 380.948912 306.659462 
L 381.208739 307.482585 
L 381.338653 307.420711 
L 381.858308 307.262629 
L 381.988222 307.465155 
L 382.24805 307.228563 
L 382.377964 307.251205 
L 382.507877 307.49263 
L 382.897619 306.691632 
L 383.28736 307.309466 
L 383.417274 307.262448 
L 383.547188 306.896397 
L 383.677101 307.360675 
L 383.936929 307.237843 
L 384.066843 307.45132 
L 384.32667 307.204997 
L 384.456584 307.353721 
L 384.716412 307.253996 
L 384.846325 307.447154 
L 384.976239 307.364109 
L 385.106153 307.125976 
L 385.236067 307.528839 
L 385.495894 307.197588 
L 385.755722 307.000495 
L 385.885636 307.414825 
L 386.015549 307.308164 
L 386.145463 307.362776 
L 386.275377 307.179455 
L 386.405291 307.295709 
L 386.665118 307.138688 
L 386.924946 307.415264 
L 387.184774 307.278015 
L 387.444601 307.467007 
L 387.574515 306.913577 
L 387.704429 307.311217 
L 387.834342 307.018639 
L 387.964256 307.343675 
L 388.224084 306.754388 
L 388.353998 307.3198 
L 388.613825 307.035392 
L 388.743739 307.292009 
L 388.873653 307.220555 
L 389.13348 306.934085 
L 389.263394 307.277223 
L 389.393308 307.18495 
L 389.653135 307.489508 
L 390.042877 307.036442 
L 390.172791 307.190125 
L 390.562532 307.043387 
L 390.822359 307.400555 
L 391.342015 307.178752 
L 391.471928 306.926457 
L 391.601842 307.479565 
L 391.731756 307.211161 
L 391.86167 307.550132 
L 391.991584 307.174377 
L 392.121497 307.348971 
L 392.251411 307.254895 
L 392.381325 307.489947 
L 392.90098 307.269058 
L 393.030894 306.924058 
L 393.290721 307.404191 
L 393.420635 306.818465 
L 393.550549 307.404363 
L 393.810377 307.130806 
L 393.94029 307.463895 
L 394.070204 307.192008 
L 394.200118 307.42039 
L 394.719773 307.251269 
L 394.849687 306.927248 
L 394.979601 307.491233 
L 395.109514 307.415822 
L 395.239428 307.104031 
L 395.629169 307.339627 
L 395.759083 306.860127 
L 395.888997 306.87267 
L 396.018911 307.465988 
L 396.278738 307.221065 
L 396.66848 307.216629 
L 396.798394 307.039759 
L 396.928307 307.139691 
L 397.058221 307.40903 
L 397.188135 307.24203 
L 397.318049 307.508054 
L 397.70779 306.968008 
L 397.837704 307.570911 
L 398.097531 307.427678 
L 398.227445 307.543742 
L 398.357359 307.043111 
L 398.487273 307.415685 
L 398.487273 307.415685 
" style="fill:none;stroke:#1f77b4;stroke-linecap:square;stroke-width:1.5;"/>
   </g>
   <g id="patch_3">
    <path d="M 57.6 307.584 
L 57.6 41.472 
" style="fill:none;stroke:#000000;stroke-linecap:square;stroke-linejoin:miter;stroke-width:0.8;"/>
   </g>
   <g id="patch_4">
    <path d="M 414.72 307.584 
L 414.72 41.472 
" style="fill:none;stroke:#000000;stroke-linecap:square;stroke-linejoin:miter;stroke-width:0.8;"/>
   </g>
   <g id="patch_5">
    <path d="M 57.6 307.584 
L 414.72 307.584 
" style="fill:none;stroke:#000000;stroke-linecap:square;stroke-linejoin:miter;stroke-width:0.8;"/>
   </g>
   <g id="patch_6">
    <path d="M 57.6 41.472 
L 414.72 41.472 
" style="fill:none;stroke:#000000;stroke-linecap:square;stroke-linejoin:miter;stroke-width:0.8;"/>
   </g>
   <g id="text_20">
    <!-- Initial heartbeat frequency domain -->
    <defs>
     <path d="M 9.8125 72.90625 
L 19.671875 72.90625 
L 19.671875 0 
L 9.8125 0 
z
" id="DejaVuSans-73"/>
     <path d="M 34.28125 27.484375 
Q 23.390625 27.484375 19.1875 25 
Q 14.984375 22.515625 14.984375 16.5 
Q 14.984375 11.71875 18.140625 8.90625 
Q 21.296875 6.109375 26.703125 6.109375 
Q 34.1875 6.109375 38.703125 11.40625 
Q 43.21875 16.703125 43.21875 25.484375 
L 43.21875 27.484375 
z
M 52.203125 31.203125 
L 52.203125 0 
L 43.21875 0 
L 43.21875 8.296875 
Q 40.140625 3.328125 35.546875 0.953125 
Q 30.953125 -1.421875 24.3125 -1.421875 
Q 15.921875 -1.421875 10.953125 3.296875 
Q 6 8.015625 6 15.921875 
Q 6 25.140625 12.171875 29.828125 
Q 18.359375 34.515625 30.609375 34.515625 
L 43.21875 34.515625 
L 43.21875 35.40625 
Q 43.21875 41.609375 39.140625 45 
Q 35.0625 48.390625 27.6875 48.390625 
Q 23 48.390625 18.546875 47.265625 
Q 14.109375 46.140625 10.015625 43.890625 
L 10.015625 52.203125 
Q 14.9375 54.109375 19.578125 55.046875 
Q 24.21875 56 28.609375 56 
Q 40.484375 56 46.34375 49.84375 
Q 52.203125 43.703125 52.203125 31.203125 
z
" id="DejaVuSans-97"/>
     <path d="M 54.890625 33.015625 
L 54.890625 0 
L 45.90625 0 
L 45.90625 32.71875 
Q 45.90625 40.484375 42.875 44.328125 
Q 39.84375 48.1875 33.796875 48.1875 
Q 26.515625 48.1875 22.3125 43.546875 
Q 18.109375 38.921875 18.109375 30.90625 
L 18.109375 0 
L 9.078125 0 
L 9.078125 75.984375 
L 18.109375 75.984375 
L 18.109375 46.1875 
Q 21.34375 51.125 25.703125 53.5625 
Q 30.078125 56 35.796875 56 
Q 45.21875 56 50.046875 50.171875 
Q 54.890625 44.34375 54.890625 33.015625 
z
" id="DejaVuSans-104"/>
     <path d="M 48.6875 27.296875 
Q 48.6875 37.203125 44.609375 42.84375 
Q 40.53125 48.484375 33.40625 48.484375 
Q 26.265625 48.484375 22.1875 42.84375 
Q 18.109375 37.203125 18.109375 27.296875 
Q 18.109375 17.390625 22.1875 11.75 
Q 26.265625 6.109375 33.40625 6.109375 
Q 40.53125 6.109375 44.609375 11.75 
Q 48.6875 17.390625 48.6875 27.296875 
z
M 18.109375 46.390625 
Q 20.953125 51.265625 25.265625 53.625 
Q 29.59375 56 35.59375 56 
Q 45.5625 56 51.78125 48.09375 
Q 58.015625 40.1875 58.015625 27.296875 
Q 58.015625 14.40625 51.78125 6.484375 
Q 45.5625 -1.421875 35.59375 -1.421875 
Q 29.59375 -1.421875 25.265625 0.953125 
Q 20.953125 3.328125 18.109375 8.203125 
L 18.109375 0 
L 9.078125 0 
L 9.078125 75.984375 
L 18.109375 75.984375 
z
" id="DejaVuSans-98"/>
     <path d="M 37.109375 75.984375 
L 37.109375 68.5 
L 28.515625 68.5 
Q 23.6875 68.5 21.796875 66.546875 
Q 19.921875 64.59375 19.921875 59.515625 
L 19.921875 54.6875 
L 34.71875 54.6875 
L 34.71875 47.703125 
L 19.921875 47.703125 
L 19.921875 0 
L 10.890625 0 
L 10.890625 47.703125 
L 2.296875 47.703125 
L 2.296875 54.6875 
L 10.890625 54.6875 
L 10.890625 58.5 
Q 10.890625 67.625 15.140625 71.796875 
Q 19.390625 75.984375 28.609375 75.984375 
z
" id="DejaVuSans-102"/>
     <path d="M 30.609375 48.390625 
Q 23.390625 48.390625 19.1875 42.75 
Q 14.984375 37.109375 14.984375 27.296875 
Q 14.984375 17.484375 19.15625 11.84375 
Q 23.34375 6.203125 30.609375 6.203125 
Q 37.796875 6.203125 41.984375 11.859375 
Q 46.1875 17.53125 46.1875 27.296875 
Q 46.1875 37.015625 41.984375 42.703125 
Q 37.796875 48.390625 30.609375 48.390625 
z
M 30.609375 56 
Q 42.328125 56 49.015625 48.375 
Q 55.71875 40.765625 55.71875 27.296875 
Q 55.71875 13.875 49.015625 6.21875 
Q 42.328125 -1.421875 30.609375 -1.421875 
Q 18.84375 -1.421875 12.171875 6.21875 
Q 5.515625 13.875 5.515625 27.296875 
Q 5.515625 40.765625 12.171875 48.375 
Q 18.84375 56 30.609375 56 
z
" id="DejaVuSans-111"/>
    </defs>
    <g transform="translate(131.754375 35.472)scale(0.12 -0.12)">
     <use xlink:href="#DejaVuSans-73"/>
     <use x="29.492188" xlink:href="#DejaVuSans-110"/>
     <use x="92.871094" xlink:href="#DejaVuSans-105"/>
     <use x="120.654297" xlink:href="#DejaVuSans-116"/>
     <use x="159.863281" xlink:href="#DejaVuSans-105"/>
     <use x="187.646484" xlink:href="#DejaVuSans-97"/>
     <use x="248.925781" xlink:href="#DejaVuSans-108"/>
     <use x="276.708984" xlink:href="#DejaVuSans-32"/>
     <use x="308.496094" xlink:href="#DejaVuSans-104"/>
     <use x="371.875" xlink:href="#DejaVuSans-101"/>
     <use x="433.398438" xlink:href="#DejaVuSans-97"/>
     <use x="494.677734" xlink:href="#DejaVuSans-114"/>
     <use x="535.791016" xlink:href="#DejaVuSans-116"/>
     <use x="575" xlink:href="#DejaVuSans-98"/>
     <use x="638.476562" xlink:href="#DejaVuSans-101"/>
     <use x="700" xlink:href="#DejaVuSans-97"/>
     <use x="761.279297" xlink:href="#DejaVuSans-116"/>
     <use x="800.488281" xlink:href="#DejaVuSans-32"/>
     <use x="832.275391" xlink:href="#DejaVuSans-102"/>
     <use x="867.480469" xlink:href="#DejaVuSans-114"/>
     <use x="906.34375" xlink:href="#DejaVuSans-101"/>
     <use x="967.867188" xlink:href="#DejaVuSans-113"/>
     <use x="1031.34375" xlink:href="#DejaVuSans-117"/>
     <use x="1094.722656" xlink:href="#DejaVuSans-101"/>
     <use x="1156.246094" xlink:href="#DejaVuSans-110"/>
     <use x="1219.625" xlink:href="#DejaVuSans-99"/>
     <use x="1274.605469" xlink:href="#DejaVuSans-121"/>
     <use x="1333.785156" xlink:href="#DejaVuSans-32"/>
     <use x="1365.572266" xlink:href="#DejaVuSans-100"/>
     <use x="1429.048828" xlink:href="#DejaVuSans-111"/>
     <use x="1490.230469" xlink:href="#DejaVuSans-109"/>
     <use x="1587.642578" xlink:href="#DejaVuSans-97"/>
     <use x="1648.921875" xlink:href="#DejaVuSans-105"/>
     <use x="1676.705078" xlink:href="#DejaVuSans-110"/>
    </g>
   </g>
  </g>
 </g>
 <defs>
  <clipPath id="p37e5792805">
   <rect height="266.112" width="357.12" x="57.6" y="41.472"/>
  </clipPath>
 </defs>
</svg>
