<?xml version="1.0" encoding="utf-8" standalone="no"?>
<!DOCTYPE svg PUBLIC "-//W3C//DTD SVG 1.1//EN"
  "http://www.w3.org/Graphics/SVG/1.1/DTD/svg11.dtd">
<!-- Created with matplotlib (https://matplotlib.org/) -->
<svg height="345.6pt" version="1.1" viewBox="0 0 460.8 345.6" width="460.8pt" xmlns="http://www.w3.org/2000/svg" xmlns:xlink="http://www.w3.org/1999/xlink">
 <defs>
  <style type="text/css">
*{stroke-linecap:butt;stroke-linejoin:round;}
  </style>
 </defs>
 <g id="figure_1">
  <g id="patch_1">
   <path d="M 0 345.6 
L 460.8 345.6 
L 460.8 0 
L 0 0 
z
" style="fill:#ffffff;"/>
  </g>
  <g id="axes_1">
   <g id="patch_2">
    <path d="M 57.6 307.584 
L 414.72 307.584 
L 414.72 41.472 
L 57.6 41.472 
z
" style="fill:#ffffff;"/>
   </g>
   <g id="matplotlib.axis_1">
    <g id="xtick_1">
     <g id="line2d_1">
      <defs>
       <path d="M 0 0 
L 0 3.5 
" id="mec43d6c7fa" style="stroke:#000000;stroke-width:0.8;"/>
      </defs>
      <g>
       <use style="stroke:#000000;stroke-width:0.8;" x="73.832727" xlink:href="#mec43d6c7fa" y="307.584"/>
      </g>
     </g>
     <g id="text_1">
      <!-- 0 -->
      <defs>
       <path d="M 31.78125 66.40625 
Q 24.171875 66.40625 20.328125 58.90625 
Q 16.5 51.421875 16.5 36.375 
Q 16.5 21.390625 20.328125 13.890625 
Q 24.171875 6.390625 31.78125 6.390625 
Q 39.453125 6.390625 43.28125 13.890625 
Q 47.125 21.390625 47.125 36.375 
Q 47.125 51.421875 43.28125 58.90625 
Q 39.453125 66.40625 31.78125 66.40625 
z
M 31.78125 74.21875 
Q 44.046875 74.21875 50.515625 64.515625 
Q 56.984375 54.828125 56.984375 36.375 
Q 56.984375 17.96875 50.515625 8.265625 
Q 44.046875 -1.421875 31.78125 -1.421875 
Q 19.53125 -1.421875 13.0625 8.265625 
Q 6.59375 17.96875 6.59375 36.375 
Q 6.59375 54.828125 13.0625 64.515625 
Q 19.53125 74.21875 31.78125 74.21875 
z
" id="DejaVuSans-48"/>
      </defs>
      <g transform="translate(70.651477 322.182437)scale(0.1 -0.1)">
       <use xlink:href="#DejaVuSans-48"/>
      </g>
     </g>
    </g>
    <g id="xtick_2">
     <g id="line2d_2">
      <g>
       <use style="stroke:#000000;stroke-width:0.8;" x="138.828632" xlink:href="#mec43d6c7fa" y="307.584"/>
      </g>
     </g>
     <g id="text_2">
      <!-- 200 -->
      <defs>
       <path d="M 19.1875 8.296875 
L 53.609375 8.296875 
L 53.609375 0 
L 7.328125 0 
L 7.328125 8.296875 
Q 12.9375 14.109375 22.625 23.890625 
Q 32.328125 33.6875 34.8125 36.53125 
Q 39.546875 41.84375 41.421875 45.53125 
Q 43.3125 49.21875 43.3125 52.78125 
Q 43.3125 58.59375 39.234375 62.25 
Q 35.15625 65.921875 28.609375 65.921875 
Q 23.96875 65.921875 18.8125 64.3125 
Q 13.671875 62.703125 7.8125 59.421875 
L 7.8125 69.390625 
Q 13.765625 71.78125 18.9375 73 
Q 24.125 74.21875 28.421875 74.21875 
Q 39.75 74.21875 46.484375 68.546875 
Q 53.21875 62.890625 53.21875 53.421875 
Q 53.21875 48.921875 51.53125 44.890625 
Q 49.859375 40.875 45.40625 35.40625 
Q 44.1875 33.984375 37.640625 27.21875 
Q 31.109375 20.453125 19.1875 8.296875 
z
" id="DejaVuSans-50"/>
      </defs>
      <g transform="translate(129.284882 322.182437)scale(0.1 -0.1)">
       <use xlink:href="#DejaVuSans-50"/>
       <use x="63.623047" xlink:href="#DejaVuSans-48"/>
       <use x="127.246094" xlink:href="#DejaVuSans-48"/>
      </g>
     </g>
    </g>
    <g id="xtick_3">
     <g id="line2d_3">
      <g>
       <use style="stroke:#000000;stroke-width:0.8;" x="203.824537" xlink:href="#mec43d6c7fa" y="307.584"/>
      </g>
     </g>
     <g id="text_3">
      <!-- 400 -->
      <defs>
       <path d="M 37.796875 64.3125 
L 12.890625 25.390625 
L 37.796875 25.390625 
z
M 35.203125 72.90625 
L 47.609375 72.90625 
L 47.609375 25.390625 
L 58.015625 25.390625 
L 58.015625 17.1875 
L 47.609375 17.1875 
L 47.609375 0 
L 37.796875 0 
L 37.796875 17.1875 
L 4.890625 17.1875 
L 4.890625 26.703125 
z
" id="DejaVuSans-52"/>
      </defs>
      <g transform="translate(194.280787 322.182437)scale(0.1 -0.1)">
       <use xlink:href="#DejaVuSans-52"/>
       <use x="63.623047" xlink:href="#DejaVuSans-48"/>
       <use x="127.246094" xlink:href="#DejaVuSans-48"/>
      </g>
     </g>
    </g>
    <g id="xtick_4">
     <g id="line2d_4">
      <g>
       <use style="stroke:#000000;stroke-width:0.8;" x="268.820442" xlink:href="#mec43d6c7fa" y="307.584"/>
      </g>
     </g>
     <g id="text_4">
      <!-- 600 -->
      <defs>
       <path d="M 33.015625 40.375 
Q 26.375 40.375 22.484375 35.828125 
Q 18.609375 31.296875 18.609375 23.390625 
Q 18.609375 15.53125 22.484375 10.953125 
Q 26.375 6.390625 33.015625 6.390625 
Q 39.65625 6.390625 43.53125 10.953125 
Q 47.40625 15.53125 47.40625 23.390625 
Q 47.40625 31.296875 43.53125 35.828125 
Q 39.65625 40.375 33.015625 40.375 
z
M 52.59375 71.296875 
L 52.59375 62.3125 
Q 48.875 64.0625 45.09375 64.984375 
Q 41.3125 65.921875 37.59375 65.921875 
Q 27.828125 65.921875 22.671875 59.328125 
Q 17.53125 52.734375 16.796875 39.40625 
Q 19.671875 43.65625 24.015625 45.921875 
Q 28.375 48.1875 33.59375 48.1875 
Q 44.578125 48.1875 50.953125 41.515625 
Q 57.328125 34.859375 57.328125 23.390625 
Q 57.328125 12.15625 50.6875 5.359375 
Q 44.046875 -1.421875 33.015625 -1.421875 
Q 20.359375 -1.421875 13.671875 8.265625 
Q 6.984375 17.96875 6.984375 36.375 
Q 6.984375 53.65625 15.1875 63.9375 
Q 23.390625 74.21875 37.203125 74.21875 
Q 40.921875 74.21875 44.703125 73.484375 
Q 48.484375 72.75 52.59375 71.296875 
z
" id="DejaVuSans-54"/>
      </defs>
      <g transform="translate(259.276692 322.182437)scale(0.1 -0.1)">
       <use xlink:href="#DejaVuSans-54"/>
       <use x="63.623047" xlink:href="#DejaVuSans-48"/>
       <use x="127.246094" xlink:href="#DejaVuSans-48"/>
      </g>
     </g>
    </g>
    <g id="xtick_5">
     <g id="line2d_5">
      <g>
       <use style="stroke:#000000;stroke-width:0.8;" x="333.816347" xlink:href="#mec43d6c7fa" y="307.584"/>
      </g>
     </g>
     <g id="text_5">
      <!-- 800 -->
      <defs>
       <path d="M 31.78125 34.625 
Q 24.75 34.625 20.71875 30.859375 
Q 16.703125 27.09375 16.703125 20.515625 
Q 16.703125 13.921875 20.71875 10.15625 
Q 24.75 6.390625 31.78125 6.390625 
Q 38.8125 6.390625 42.859375 10.171875 
Q 46.921875 13.96875 46.921875 20.515625 
Q 46.921875 27.09375 42.890625 30.859375 
Q 38.875 34.625 31.78125 34.625 
z
M 21.921875 38.8125 
Q 15.578125 40.375 12.03125 44.71875 
Q 8.5 49.078125 8.5 55.328125 
Q 8.5 64.0625 14.71875 69.140625 
Q 20.953125 74.21875 31.78125 74.21875 
Q 42.671875 74.21875 48.875 69.140625 
Q 55.078125 64.0625 55.078125 55.328125 
Q 55.078125 49.078125 51.53125 44.71875 
Q 48 40.375 41.703125 38.8125 
Q 48.828125 37.15625 52.796875 32.3125 
Q 56.78125 27.484375 56.78125 20.515625 
Q 56.78125 9.90625 50.3125 4.234375 
Q 43.84375 -1.421875 31.78125 -1.421875 
Q 19.734375 -1.421875 13.25 4.234375 
Q 6.78125 9.90625 6.78125 20.515625 
Q 6.78125 27.484375 10.78125 32.3125 
Q 14.796875 37.15625 21.921875 38.8125 
z
M 18.3125 54.390625 
Q 18.3125 48.734375 21.84375 45.5625 
Q 25.390625 42.390625 31.78125 42.390625 
Q 38.140625 42.390625 41.71875 45.5625 
Q 45.3125 48.734375 45.3125 54.390625 
Q 45.3125 60.0625 41.71875 63.234375 
Q 38.140625 66.40625 31.78125 66.40625 
Q 25.390625 66.40625 21.84375 63.234375 
Q 18.3125 60.0625 18.3125 54.390625 
z
" id="DejaVuSans-56"/>
      </defs>
      <g transform="translate(324.272597 322.182437)scale(0.1 -0.1)">
       <use xlink:href="#DejaVuSans-56"/>
       <use x="63.623047" xlink:href="#DejaVuSans-48"/>
       <use x="127.246094" xlink:href="#DejaVuSans-48"/>
      </g>
     </g>
    </g>
    <g id="xtick_6">
     <g id="line2d_6">
      <g>
       <use style="stroke:#000000;stroke-width:0.8;" x="398.812252" xlink:href="#mec43d6c7fa" y="307.584"/>
      </g>
     </g>
     <g id="text_6">
      <!-- 1000 -->
      <defs>
       <path d="M 12.40625 8.296875 
L 28.515625 8.296875 
L 28.515625 63.921875 
L 10.984375 60.40625 
L 10.984375 69.390625 
L 28.421875 72.90625 
L 38.28125 72.90625 
L 38.28125 8.296875 
L 54.390625 8.296875 
L 54.390625 0 
L 12.40625 0 
z
" id="DejaVuSans-49"/>
      </defs>
      <g transform="translate(386.087252 322.182437)scale(0.1 -0.1)">
       <use xlink:href="#DejaVuSans-49"/>
       <use x="63.623047" xlink:href="#DejaVuSans-48"/>
       <use x="127.246094" xlink:href="#DejaVuSans-48"/>
       <use x="190.869141" xlink:href="#DejaVuSans-48"/>
      </g>
     </g>
    </g>
    <g id="text_7">
     <!-- Frequency (Hz) -->
     <defs>
      <path d="M 9.8125 72.90625 
L 51.703125 72.90625 
L 51.703125 64.59375 
L 19.671875 64.59375 
L 19.671875 43.109375 
L 48.578125 43.109375 
L 48.578125 34.8125 
L 19.671875 34.8125 
L 19.671875 0 
L 9.8125 0 
z
" id="DejaVuSans-70"/>
      <path d="M 41.109375 46.296875 
Q 39.59375 47.171875 37.8125 47.578125 
Q 36.03125 48 33.890625 48 
Q 26.265625 48 22.1875 43.046875 
Q 18.109375 38.09375 18.109375 28.8125 
L 18.109375 0 
L 9.078125 0 
L 9.078125 54.6875 
L 18.109375 54.6875 
L 18.109375 46.1875 
Q 20.953125 51.171875 25.484375 53.578125 
Q 30.03125 56 36.53125 56 
Q 37.453125 56 38.578125 55.875 
Q 39.703125 55.765625 41.0625 55.515625 
z
" id="DejaVuSans-114"/>
      <path d="M 56.203125 29.59375 
L 56.203125 25.203125 
L 14.890625 25.203125 
Q 15.484375 15.921875 20.484375 11.0625 
Q 25.484375 6.203125 34.421875 6.203125 
Q 39.59375 6.203125 44.453125 7.46875 
Q 49.3125 8.734375 54.109375 11.28125 
L 54.109375 2.78125 
Q 49.265625 0.734375 44.1875 -0.34375 
Q 39.109375 -1.421875 33.890625 -1.421875 
Q 20.796875 -1.421875 13.15625 6.1875 
Q 5.515625 13.8125 5.515625 26.8125 
Q 5.515625 40.234375 12.765625 48.109375 
Q 20.015625 56 32.328125 56 
Q 43.359375 56 49.78125 48.890625 
Q 56.203125 41.796875 56.203125 29.59375 
z
M 47.21875 32.234375 
Q 47.125 39.59375 43.09375 43.984375 
Q 39.0625 48.390625 32.421875 48.390625 
Q 24.90625 48.390625 20.390625 44.140625 
Q 15.875 39.890625 15.1875 32.171875 
z
" id="DejaVuSans-101"/>
      <path d="M 14.796875 27.296875 
Q 14.796875 17.390625 18.875 11.75 
Q 22.953125 6.109375 30.078125 6.109375 
Q 37.203125 6.109375 41.296875 11.75 
Q 45.40625 17.390625 45.40625 27.296875 
Q 45.40625 37.203125 41.296875 42.84375 
Q 37.203125 48.484375 30.078125 48.484375 
Q 22.953125 48.484375 18.875 42.84375 
Q 14.796875 37.203125 14.796875 27.296875 
z
M 45.40625 8.203125 
Q 42.578125 3.328125 38.25 0.953125 
Q 33.9375 -1.421875 27.875 -1.421875 
Q 17.96875 -1.421875 11.734375 6.484375 
Q 5.515625 14.40625 5.515625 27.296875 
Q 5.515625 40.1875 11.734375 48.09375 
Q 17.96875 56 27.875 56 
Q 33.9375 56 38.25 53.625 
Q 42.578125 51.265625 45.40625 46.390625 
L 45.40625 54.6875 
L 54.390625 54.6875 
L 54.390625 -20.796875 
L 45.40625 -20.796875 
z
" id="DejaVuSans-113"/>
      <path d="M 8.5 21.578125 
L 8.5 54.6875 
L 17.484375 54.6875 
L 17.484375 21.921875 
Q 17.484375 14.15625 20.5 10.265625 
Q 23.53125 6.390625 29.59375 6.390625 
Q 36.859375 6.390625 41.078125 11.03125 
Q 45.3125 15.671875 45.3125 23.6875 
L 45.3125 54.6875 
L 54.296875 54.6875 
L 54.296875 0 
L 45.3125 0 
L 45.3125 8.40625 
Q 42.046875 3.421875 37.71875 1 
Q 33.40625 -1.421875 27.6875 -1.421875 
Q 18.265625 -1.421875 13.375 4.4375 
Q 8.5 10.296875 8.5 21.578125 
z
M 31.109375 56 
z
" id="DejaVuSans-117"/>
      <path d="M 54.890625 33.015625 
L 54.890625 0 
L 45.90625 0 
L 45.90625 32.71875 
Q 45.90625 40.484375 42.875 44.328125 
Q 39.84375 48.1875 33.796875 48.1875 
Q 26.515625 48.1875 22.3125 43.546875 
Q 18.109375 38.921875 18.109375 30.90625 
L 18.109375 0 
L 9.078125 0 
L 9.078125 54.6875 
L 18.109375 54.6875 
L 18.109375 46.1875 
Q 21.34375 51.125 25.703125 53.5625 
Q 30.078125 56 35.796875 56 
Q 45.21875 56 50.046875 50.171875 
Q 54.890625 44.34375 54.890625 33.015625 
z
" id="DejaVuSans-110"/>
      <path d="M 48.78125 52.59375 
L 48.78125 44.1875 
Q 44.96875 46.296875 41.140625 47.34375 
Q 37.3125 48.390625 33.40625 48.390625 
Q 24.65625 48.390625 19.8125 42.84375 
Q 14.984375 37.3125 14.984375 27.296875 
Q 14.984375 17.28125 19.8125 11.734375 
Q 24.65625 6.203125 33.40625 6.203125 
Q 37.3125 6.203125 41.140625 7.25 
Q 44.96875 8.296875 48.78125 10.40625 
L 48.78125 2.09375 
Q 45.015625 0.34375 40.984375 -0.53125 
Q 36.96875 -1.421875 32.421875 -1.421875 
Q 20.0625 -1.421875 12.78125 6.34375 
Q 5.515625 14.109375 5.515625 27.296875 
Q 5.515625 40.671875 12.859375 48.328125 
Q 20.21875 56 33.015625 56 
Q 37.15625 56 41.109375 55.140625 
Q 45.0625 54.296875 48.78125 52.59375 
z
" id="DejaVuSans-99"/>
      <path d="M 32.171875 -5.078125 
Q 28.375 -14.84375 24.75 -17.8125 
Q 21.140625 -20.796875 15.09375 -20.796875 
L 7.90625 -20.796875 
L 7.90625 -13.28125 
L 13.1875 -13.28125 
Q 16.890625 -13.28125 18.9375 -11.515625 
Q 21 -9.765625 23.484375 -3.21875 
L 25.09375 0.875 
L 2.984375 54.6875 
L 12.5 54.6875 
L 29.59375 11.921875 
L 46.6875 54.6875 
L 56.203125 54.6875 
z
" id="DejaVuSans-121"/>
      <path id="DejaVuSans-32"/>
      <path d="M 31 75.875 
Q 24.46875 64.65625 21.28125 53.65625 
Q 18.109375 42.671875 18.109375 31.390625 
Q 18.109375 20.125 21.3125 9.0625 
Q 24.515625 -2 31 -13.1875 
L 23.1875 -13.1875 
Q 15.875 -1.703125 12.234375 9.375 
Q 8.59375 20.453125 8.59375 31.390625 
Q 8.59375 42.28125 12.203125 53.3125 
Q 15.828125 64.359375 23.1875 75.875 
z
" id="DejaVuSans-40"/>
      <path d="M 9.8125 72.90625 
L 19.671875 72.90625 
L 19.671875 43.015625 
L 55.515625 43.015625 
L 55.515625 72.90625 
L 65.375 72.90625 
L 65.375 0 
L 55.515625 0 
L 55.515625 34.71875 
L 19.671875 34.71875 
L 19.671875 0 
L 9.8125 0 
z
" id="DejaVuSans-72"/>
      <path d="M 5.515625 54.6875 
L 48.1875 54.6875 
L 48.1875 46.484375 
L 14.40625 7.171875 
L 48.1875 7.171875 
L 48.1875 0 
L 4.296875 0 
L 4.296875 8.203125 
L 38.09375 47.515625 
L 5.515625 47.515625 
z
" id="DejaVuSans-122"/>
      <path d="M 8.015625 75.875 
L 15.828125 75.875 
Q 23.140625 64.359375 26.78125 53.3125 
Q 30.421875 42.28125 30.421875 31.390625 
Q 30.421875 20.453125 26.78125 9.375 
Q 23.140625 -1.703125 15.828125 -13.1875 
L 8.015625 -13.1875 
Q 14.5 -2 17.703125 9.0625 
Q 20.90625 20.125 20.90625 31.390625 
Q 20.90625 42.671875 17.703125 53.65625 
Q 14.5 64.65625 8.015625 75.875 
z
" id="DejaVuSans-41"/>
     </defs>
     <g transform="translate(198.455312 335.860562)scale(0.1 -0.1)">
      <use xlink:href="#DejaVuSans-70"/>
      <use x="50.269531" xlink:href="#DejaVuSans-114"/>
      <use x="89.132812" xlink:href="#DejaVuSans-101"/>
      <use x="150.65625" xlink:href="#DejaVuSans-113"/>
      <use x="214.132812" xlink:href="#DejaVuSans-117"/>
      <use x="277.511719" xlink:href="#DejaVuSans-101"/>
      <use x="339.035156" xlink:href="#DejaVuSans-110"/>
      <use x="402.414062" xlink:href="#DejaVuSans-99"/>
      <use x="457.394531" xlink:href="#DejaVuSans-121"/>
      <use x="516.574219" xlink:href="#DejaVuSans-32"/>
      <use x="548.361328" xlink:href="#DejaVuSans-40"/>
      <use x="587.375" xlink:href="#DejaVuSans-72"/>
      <use x="662.570312" xlink:href="#DejaVuSans-122"/>
      <use x="715.060547" xlink:href="#DejaVuSans-41"/>
     </g>
    </g>
   </g>
   <g id="matplotlib.axis_2">
    <g id="ytick_1">
     <g id="line2d_7">
      <defs>
       <path d="M 0 0 
L -3.5 0 
" id="mc4d2584905" style="stroke:#000000;stroke-width:0.8;"/>
      </defs>
      <g>
       <use style="stroke:#000000;stroke-width:0.8;" x="57.6" xlink:href="#mc4d2584905" y="295.769651"/>
      </g>
     </g>
     <g id="text_8">
      <!-- 0 -->
      <g transform="translate(44.2375 299.56887)scale(0.1 -0.1)">
       <use xlink:href="#DejaVuSans-48"/>
      </g>
     </g>
    </g>
    <g id="ytick_2">
     <g id="line2d_8">
      <g>
       <use style="stroke:#000000;stroke-width:0.8;" x="57.6" xlink:href="#mc4d2584905" y="245.071822"/>
      </g>
     </g>
     <g id="text_9">
      <!-- 20 -->
      <g transform="translate(37.875 248.87104)scale(0.1 -0.1)">
       <use xlink:href="#DejaVuSans-50"/>
       <use x="63.623047" xlink:href="#DejaVuSans-48"/>
      </g>
     </g>
    </g>
    <g id="ytick_3">
     <g id="line2d_9">
      <g>
       <use style="stroke:#000000;stroke-width:0.8;" x="57.6" xlink:href="#mc4d2584905" y="194.373992"/>
      </g>
     </g>
     <g id="text_10">
      <!-- 40 -->
      <g transform="translate(37.875 198.173211)scale(0.1 -0.1)">
       <use xlink:href="#DejaVuSans-52"/>
       <use x="63.623047" xlink:href="#DejaVuSans-48"/>
      </g>
     </g>
    </g>
    <g id="ytick_4">
     <g id="line2d_10">
      <g>
       <use style="stroke:#000000;stroke-width:0.8;" x="57.6" xlink:href="#mc4d2584905" y="143.676163"/>
      </g>
     </g>
     <g id="text_11">
      <!-- 60 -->
      <g transform="translate(37.875 147.475381)scale(0.1 -0.1)">
       <use xlink:href="#DejaVuSans-54"/>
       <use x="63.623047" xlink:href="#DejaVuSans-48"/>
      </g>
     </g>
    </g>
    <g id="ytick_5">
     <g id="line2d_11">
      <g>
       <use style="stroke:#000000;stroke-width:0.8;" x="57.6" xlink:href="#mc4d2584905" y="92.978333"/>
      </g>
     </g>
     <g id="text_12">
      <!-- 80 -->
      <g transform="translate(37.875 96.777552)scale(0.1 -0.1)">
       <use xlink:href="#DejaVuSans-56"/>
       <use x="63.623047" xlink:href="#DejaVuSans-48"/>
      </g>
     </g>
    </g>
    <g id="ytick_6">
     <g id="line2d_12">
      <g>
       <use style="stroke:#000000;stroke-width:0.8;" x="57.6" xlink:href="#mc4d2584905" y="42.280504"/>
      </g>
     </g>
     <g id="text_13">
      <!-- 100 -->
      <g transform="translate(31.5125 46.079722)scale(0.1 -0.1)">
       <use xlink:href="#DejaVuSans-49"/>
       <use x="63.623047" xlink:href="#DejaVuSans-48"/>
       <use x="127.246094" xlink:href="#DejaVuSans-48"/>
      </g>
     </g>
    </g>
    <g id="text_14">
     <!-- Amplitude -->
     <defs>
      <path d="M 34.1875 63.1875 
L 20.796875 26.90625 
L 47.609375 26.90625 
z
M 28.609375 72.90625 
L 39.796875 72.90625 
L 67.578125 0 
L 57.328125 0 
L 50.6875 18.703125 
L 17.828125 18.703125 
L 11.1875 0 
L 0.78125 0 
z
" id="DejaVuSans-65"/>
      <path d="M 52 44.1875 
Q 55.375 50.25 60.0625 53.125 
Q 64.75 56 71.09375 56 
Q 79.640625 56 84.28125 50.015625 
Q 88.921875 44.046875 88.921875 33.015625 
L 88.921875 0 
L 79.890625 0 
L 79.890625 32.71875 
Q 79.890625 40.578125 77.09375 44.375 
Q 74.3125 48.1875 68.609375 48.1875 
Q 61.625 48.1875 57.5625 43.546875 
Q 53.515625 38.921875 53.515625 30.90625 
L 53.515625 0 
L 44.484375 0 
L 44.484375 32.71875 
Q 44.484375 40.625 41.703125 44.40625 
Q 38.921875 48.1875 33.109375 48.1875 
Q 26.21875 48.1875 22.15625 43.53125 
Q 18.109375 38.875 18.109375 30.90625 
L 18.109375 0 
L 9.078125 0 
L 9.078125 54.6875 
L 18.109375 54.6875 
L 18.109375 46.1875 
Q 21.1875 51.21875 25.484375 53.609375 
Q 29.78125 56 35.6875 56 
Q 41.65625 56 45.828125 52.96875 
Q 50 49.953125 52 44.1875 
z
" id="DejaVuSans-109"/>
      <path d="M 18.109375 8.203125 
L 18.109375 -20.796875 
L 9.078125 -20.796875 
L 9.078125 54.6875 
L 18.109375 54.6875 
L 18.109375 46.390625 
Q 20.953125 51.265625 25.265625 53.625 
Q 29.59375 56 35.59375 56 
Q 45.5625 56 51.78125 48.09375 
Q 58.015625 40.1875 58.015625 27.296875 
Q 58.015625 14.40625 51.78125 6.484375 
Q 45.5625 -1.421875 35.59375 -1.421875 
Q 29.59375 -1.421875 25.265625 0.953125 
Q 20.953125 3.328125 18.109375 8.203125 
z
M 48.6875 27.296875 
Q 48.6875 37.203125 44.609375 42.84375 
Q 40.53125 48.484375 33.40625 48.484375 
Q 26.265625 48.484375 22.1875 42.84375 
Q 18.109375 37.203125 18.109375 27.296875 
Q 18.109375 17.390625 22.1875 11.75 
Q 26.265625 6.109375 33.40625 6.109375 
Q 40.53125 6.109375 44.609375 11.75 
Q 48.6875 17.390625 48.6875 27.296875 
z
" id="DejaVuSans-112"/>
      <path d="M 9.421875 75.984375 
L 18.40625 75.984375 
L 18.40625 0 
L 9.421875 0 
z
" id="DejaVuSans-108"/>
      <path d="M 9.421875 54.6875 
L 18.40625 54.6875 
L 18.40625 0 
L 9.421875 0 
z
M 9.421875 75.984375 
L 18.40625 75.984375 
L 18.40625 64.59375 
L 9.421875 64.59375 
z
" id="DejaVuSans-105"/>
      <path d="M 18.3125 70.21875 
L 18.3125 54.6875 
L 36.8125 54.6875 
L 36.8125 47.703125 
L 18.3125 47.703125 
L 18.3125 18.015625 
Q 18.3125 11.328125 20.140625 9.421875 
Q 21.96875 7.515625 27.59375 7.515625 
L 36.8125 7.515625 
L 36.8125 0 
L 27.59375 0 
Q 17.1875 0 13.234375 3.875 
Q 9.28125 7.765625 9.28125 18.015625 
L 9.28125 47.703125 
L 2.6875 47.703125 
L 2.6875 54.6875 
L 9.28125 54.6875 
L 9.28125 70.21875 
z
" id="DejaVuSans-116"/>
      <path d="M 45.40625 46.390625 
L 45.40625 75.984375 
L 54.390625 75.984375 
L 54.390625 0 
L 45.40625 0 
L 45.40625 8.203125 
Q 42.578125 3.328125 38.25 0.953125 
Q 33.9375 -1.421875 27.875 -1.421875 
Q 17.96875 -1.421875 11.734375 6.484375 
Q 5.515625 14.40625 5.515625 27.296875 
Q 5.515625 40.1875 11.734375 48.09375 
Q 17.96875 56 27.875 56 
Q 33.9375 56 38.25 53.625 
Q 42.578125 51.265625 45.40625 46.390625 
z
M 14.796875 27.296875 
Q 14.796875 17.390625 18.875 11.75 
Q 22.953125 6.109375 30.078125 6.109375 
Q 37.203125 6.109375 41.296875 11.75 
Q 45.40625 17.390625 45.40625 27.296875 
Q 45.40625 37.203125 41.296875 42.84375 
Q 37.203125 48.484375 30.078125 48.484375 
Q 22.953125 48.484375 18.875 42.84375 
Q 14.796875 37.203125 14.796875 27.296875 
z
" id="DejaVuSans-100"/>
     </defs>
     <g transform="translate(25.432812 200.150656)rotate(-90)scale(0.1 -0.1)">
      <use xlink:href="#DejaVuSans-65"/>
      <use x="68.408203" xlink:href="#DejaVuSans-109"/>
      <use x="165.820312" xlink:href="#DejaVuSans-112"/>
      <use x="229.296875" xlink:href="#DejaVuSans-108"/>
      <use x="257.080078" xlink:href="#DejaVuSans-105"/>
      <use x="284.863281" xlink:href="#DejaVuSans-116"/>
      <use x="324.072266" xlink:href="#DejaVuSans-117"/>
      <use x="387.451172" xlink:href="#DejaVuSans-100"/>
      <use x="450.927734" xlink:href="#DejaVuSans-101"/>
     </g>
    </g>
   </g>
   <g id="line2d_13">
    <path clip-path="url(#pd6d7ca2a19)" d="M 73.832727 253.152501 
L 74.157707 244.395472 
L 74.482686 214.281632 
L 74.807666 253.556398 
L 75.132645 210.222778 
L 75.457625 238.705647 
L 75.782604 250.227912 
L 76.107584 219.071178 
L 76.432563 252.700715 
L 76.757543 262.22607 
L 77.082523 254.433982 
L 77.407502 224.921043 
L 77.732482 243.503253 
L 78.057461 235.635392 
L 78.382441 240.775651 
L 78.70742 265.261988 
L 79.0324 266.847621 
L 79.357379 214.605738 
L 79.682359 237.787154 
L 80.007338 275.377727 
L 80.332318 199.628763 
L 80.657297 231.723033 
L 80.982277 219.408167 
L 81.307256 238.079943 
L 81.632236 224.980354 
L 81.957215 244.908895 
L 82.282195 251.136394 
L 82.607174 284.881471 
L 82.932154 223.589237 
L 83.257133 226.881672 
L 83.582113 239.93837 
L 83.907093 207.264992 
L 84.232072 261.75893 
L 84.557052 175.297951 
L 85.207011 243.259177 
L 85.53199 261.62817 
L 85.85697 206.346529 
L 86.181949 236.489666 
L 86.506929 200.604317 
L 86.831908 145.337492 
L 87.156888 235.041631 
L 87.806847 205.491439 
L 88.131826 235.031458 
L 88.781785 53.568 
L 89.106765 239.687591 
L 89.431744 237.280605 
L 90.081704 217.766657 
L 90.406683 263.007588 
L 90.731663 250.733486 
L 91.056642 141.509465 
L 91.381622 237.422048 
L 91.706601 253.068823 
L 92.031581 292.453516 
L 92.35656 185.600728 
L 92.68154 220.585343 
L 93.006519 191.696758 
L 93.331499 194.900226 
L 93.656478 224.234481 
L 93.981458 280.289031 
L 94.306437 225.161156 
L 94.631417 214.279606 
L 94.956396 152.20721 
L 95.281376 197.832601 
L 95.606355 226.028796 
L 95.931335 282.576087 
L 96.581294 184.00265 
L 96.906274 232.78518 
L 97.231253 196.352436 
L 97.556233 199.825863 
L 97.881212 177.930393 
L 98.206192 260.32559 
L 98.531171 194.675247 
L 98.856151 294.50912 
L 99.18113 187.650188 
L 99.50611 214.399836 
L 99.831089 273.194481 
L 100.156069 252.640325 
L 100.481048 205.702595 
L 100.806028 292.645847 
L 101.131007 242.308045 
L 101.455987 168.523971 
L 101.780966 248.858123 
L 102.105946 193.753723 
L 102.430925 251.463765 
L 102.755905 260.779062 
L 103.080885 250.670974 
L 103.405864 198.790894 
L 103.730844 254.226689 
L 104.055823 277.302884 
L 104.705782 171.89267 
L 105.030762 230.530732 
L 105.355741 197.804194 
L 105.680721 128.046945 
L 106.0057 252.892979 
L 106.33068 176.924056 
L 106.655659 254.441124 
L 106.980639 210.09292 
L 107.305618 200.001512 
L 107.630598 198.946924 
L 107.955577 212.261033 
L 108.280557 252.746342 
L 108.605536 258.061553 
L 108.930516 271.566534 
L 109.255495 246.532527 
L 109.905455 215.404091 
L 110.230434 190.495047 
L 110.555414 194.470988 
L 110.880393 226.579663 
L 111.205373 293.526819 
L 111.530352 211.399698 
L 111.855332 240.694753 
L 112.180311 284.11782 
L 112.505291 228.931089 
L 112.83027 240.883198 
L 113.15525 211.61416 
L 113.805209 257.604641 
L 114.130188 215.310369 
L 114.455168 241.021431 
L 114.780147 290.709082 
L 115.105127 208.9537 
L 115.430106 218.980633 
L 115.755086 243.705713 
L 116.080066 243.746373 
L 116.405045 254.749881 
L 116.730025 278.05311 
L 117.055004 203.023056 
L 117.379984 212.394035 
L 117.704963 183.677001 
L 118.029943 244.967017 
L 118.354922 241.308109 
L 118.679902 247.657525 
L 119.004881 192.966177 
L 119.329861 237.093332 
L 119.65484 224.098523 
L 119.97982 280.020863 
L 120.304799 186.672903 
L 120.629779 281.757234 
L 120.954758 216.340888 
L 121.279738 209.728338 
L 121.604717 233.608836 
L 121.929697 270.612704 
L 122.579656 218.762169 
L 122.904636 280.389974 
L 123.229615 210.197104 
L 123.554595 288.274322 
L 123.879574 209.61609 
L 124.204554 238.321611 
L 124.529533 253.500638 
L 124.854513 231.355936 
L 125.179492 228.432673 
L 125.504472 256.588113 
L 125.829451 227.910118 
L 126.154431 230.174084 
L 126.47941 277.866858 
L 126.80439 217.303292 
L 127.129369 266.356907 
L 127.454349 263.615478 
L 127.779328 274.609637 
L 128.104308 259.189406 
L 128.429287 259.745731 
L 128.754267 248.64217 
L 129.079247 163.245217 
L 129.404226 209.481503 
L 129.729206 210.716249 
L 130.379165 177.842764 
L 130.704144 209.760627 
L 131.029124 258.386502 
L 131.354103 265.953399 
L 131.679083 267.848381 
L 132.004062 275.716359 
L 132.329042 280.727622 
L 132.654021 294.338891 
L 132.979001 197.057612 
L 133.30398 220.652285 
L 133.62896 168.690856 
L 133.953939 269.45976 
L 134.278919 252.00629 
L 134.603898 206.494009 
L 134.928878 259.13526 
L 135.253857 248.798882 
L 135.578837 247.780369 
L 135.903817 228.131143 
L 136.228796 224.787348 
L 136.553776 272.556921 
L 136.878755 269.668631 
L 137.203735 271.250563 
L 137.528714 217.658212 
L 137.853694 267.381916 
L 138.178673 193.953988 
L 138.503653 258.856858 
L 138.828632 239.134349 
L 139.153612 285.033555 
L 139.478591 207.64939 
L 139.803571 239.188409 
L 140.12855 252.493228 
L 140.45353 230.269115 
L 140.778509 257.638067 
L 141.103489 232.934497 
L 141.428468 191.316433 
L 141.753448 211.810854 
L 142.078428 218.144245 
L 142.403407 253.697035 
L 142.728387 219.166661 
L 143.053366 265.805122 
L 143.378346 265.116047 
L 143.703325 234.413019 
L 144.028305 245.340182 
L 144.353284 241.772677 
L 144.678264 261.70669 
L 145.003243 220.827888 
L 145.328223 231.180047 
L 145.653202 277.047561 
L 145.978182 258.650896 
L 146.303161 207.862856 
L 146.628141 265.679953 
L 146.95312 271.329019 
L 147.2781 208.512573 
L 147.928059 268.736225 
L 148.253038 244.170674 
L 148.578018 244.445099 
L 148.902998 261.790667 
L 149.227977 206.824448 
L 149.552957 258.653227 
L 149.877936 200.622278 
L 150.202916 218.429032 
L 150.527895 259.495411 
L 150.852875 274.987744 
L 151.177854 238.765719 
L 151.502834 248.830254 
L 151.827813 232.975646 
L 152.152793 154.691974 
L 152.477772 293.666464 
L 152.802752 275.044136 
L 153.127731 238.448974 
L 153.77769 261.291652 
L 154.10267 235.298191 
L 154.427649 224.326941 
L 154.752629 280.729125 
L 155.077609 233.418205 
L 155.402588 275.965045 
L 155.727568 273.081004 
L 156.052547 244.105675 
L 156.377527 270.503954 
L 156.702506 252.762917 
L 157.027486 267.841675 
L 157.352465 240.343409 
L 157.677445 275.947149 
L 158.002424 268.271628 
L 158.327404 234.902876 
L 158.652383 257.130866 
L 158.977363 247.289372 
L 159.302342 283.582763 
L 159.627322 261.185958 
L 159.952301 221.564734 
L 160.277281 237.412716 
L 160.60226 285.66392 
L 161.252219 255.194229 
L 161.577199 278.058982 
L 161.902179 291.206265 
L 162.227158 279.629576 
L 162.552138 216.632609 
L 162.877117 257.474351 
L 163.202097 244.527922 
L 163.527076 280.287048 
L 163.852056 259.963214 
L 164.502015 287.864561 
L 164.826994 264.211295 
L 165.151974 258.718065 
L 165.476953 267.683299 
L 165.801933 264.034508 
L 166.126912 245.684539 
L 166.451892 216.000661 
L 166.776871 234.632581 
L 167.101851 284.16601 
L 167.42683 219.516426 
L 167.75181 239.831999 
L 168.07679 226.497874 
L 168.401769 257.60201 
L 168.726749 257.777314 
L 169.051728 258.111605 
L 169.376708 245.84723 
L 169.701687 290.737908 
L 170.026667 224.15501 
L 170.351646 256.673978 
L 170.676626 262.910138 
L 171.001605 252.864095 
L 171.326585 232.89148 
L 171.651564 282.878237 
L 171.976544 239.902028 
L 172.301523 239.931871 
L 172.626503 265.736837 
L 172.951482 259.9407 
L 173.276462 248.841213 
L 173.926421 270.254141 
L 174.2514 256.907087 
L 174.57638 292.746984 
L 174.90136 275.763508 
L 175.226339 238.601065 
L 175.551319 255.978516 
L 175.876298 227.66618 
L 176.201278 246.034391 
L 176.526257 256.512328 
L 176.851237 249.688661 
L 177.176216 229.117369 
L 177.501196 274.426985 
L 177.826175 290.228495 
L 178.151155 278.633479 
L 178.476134 248.456927 
L 178.801114 267.193214 
L 179.126093 240.009758 
L 179.451073 233.529835 
L 179.776052 252.041445 
L 180.101032 233.546199 
L 180.426011 263.435492 
L 180.750991 249.233983 
L 181.075971 245.580227 
L 181.40095 293.273683 
L 181.72593 271.874259 
L 182.050909 271.834088 
L 182.375889 245.488593 
L 182.700868 281.981644 
L 183.025848 274.81695 
L 183.350827 262.589335 
L 183.675807 230.785048 
L 184.000786 269.569094 
L 184.325766 282.099573 
L 184.650745 252.560183 
L 184.975725 260.561614 
L 185.300704 259.860736 
L 185.625684 289.074989 
L 185.950663 266.091904 
L 186.275643 269.657749 
L 186.600622 227.555532 
L 186.925602 276.545522 
L 187.250581 236.442864 
L 187.575561 266.061997 
L 187.900541 246.383046 
L 188.22552 251.57112 
L 188.5505 260.891776 
L 188.875479 243.527009 
L 189.200459 280.760265 
L 189.525438 265.783037 
L 189.850418 282.385837 
L 190.175397 265.027952 
L 190.500377 238.655843 
L 190.825356 275.293854 
L 191.150336 266.450775 
L 191.475315 279.007306 
L 191.800295 267.269539 
L 192.125274 275.370412 
L 192.450254 288.793184 
L 192.775233 275.084682 
L 193.100213 277.513556 
L 193.425192 262.240818 
L 193.750172 267.858804 
L 194.075152 276.864962 
L 194.400131 273.735991 
L 194.725111 266.942896 
L 195.05009 245.645148 
L 195.37507 275.916471 
L 195.700049 269.608911 
L 196.025029 265.477249 
L 196.350008 275.39596 
L 196.674988 277.03522 
L 196.999967 266.009002 
L 197.324947 278.87621 
L 197.649926 279.187565 
L 197.974906 270.465772 
L 198.299885 273.085791 
L 198.624865 284.202789 
L 198.949844 283.211104 
L 199.274824 248.455873 
L 199.599803 291.852111 
L 199.924783 284.675769 
L 200.574742 254.586689 
L 200.899722 271.673062 
L 201.224701 267.360947 
L 201.549681 290.173131 
L 201.87466 288.448339 
L 202.19964 271.026293 
L 202.524619 288.902352 
L 202.849599 246.184155 
L 203.174578 283.982708 
L 203.499558 231.58559 
L 203.824537 286.592865 
L 204.474496 279.35121 
L 204.799476 280.124608 
L 205.124455 261.704655 
L 205.774414 291.031586 
L 206.099394 281.378153 
L 206.424373 277.341395 
L 206.749353 275.913616 
L 207.074333 276.952785 
L 207.399312 286.764178 
L 207.724292 259.591695 
L 208.049271 291.646298 
L 208.374251 286.07011 
L 208.69923 283.240126 
L 209.02421 271.893445 
L 209.349189 290.426505 
L 209.674169 280.375651 
L 209.999148 290.667983 
L 210.324128 274.307327 
L 210.649107 284.487804 
L 211.299066 278.417866 
L 211.624046 287.220267 
L 211.949025 278.84394 
L 212.598984 284.769012 
L 212.923964 278.132518 
L 213.248943 287.019839 
L 213.573923 275.405756 
L 213.898903 273.85356 
L 214.223882 282.845669 
L 214.548862 275.66616 
L 214.873841 281.810973 
L 215.198821 285.433024 
L 215.5238 283.100847 
L 215.84878 286.43631 
L 216.173759 285.664924 
L 216.498739 285.815629 
L 216.823718 283.347739 
L 217.148698 290.931585 
L 217.473677 279.225699 
L 217.798657 283.763454 
L 218.123636 274.227797 
L 218.773595 289.881303 
L 219.098575 280.211997 
L 219.423554 280.562028 
L 219.748534 293.59712 
L 220.073514 288.028442 
L 220.398493 288.692513 
L 220.723473 289.733114 
L 221.048452 285.17661 
L 221.373432 295.488 
L 221.698411 286.591039 
L 222.023391 287.163013 
L 222.34837 289.176602 
L 222.998329 283.826664 
L 223.323309 290.902591 
L 223.648288 294.047343 
L 223.973268 291.225695 
L 224.298247 283.062607 
L 224.948206 290.432899 
L 225.273186 292.626395 
L 225.598165 283.643422 
L 225.923145 291.617591 
L 226.573104 282.495307 
L 226.898084 291.878906 
L 227.223063 288.230286 
L 227.548043 292.394875 
L 227.873022 290.267748 
L 228.198002 290.124231 
L 228.522981 288.644858 
L 228.847961 288.356537 
L 229.17294 294.233749 
L 229.49792 289.576949 
L 229.822899 290.190531 
L 230.147879 290.551639 
L 230.472858 295.194836 
L 231.122817 289.864872 
L 231.447797 295.195508 
L 231.772776 295.340372 
L 232.422735 291.199396 
L 232.747715 292.656972 
L 233.397674 294.67991 
L 234.047633 293.029159 
L 234.372613 292.940461 
L 234.697592 293.801787 
L 235.022572 294.282368 
L 235.347551 295.035704 
L 235.672531 294.578616 
L 235.99751 294.619653 
L 236.32249 294.472309 
L 236.647469 294.619653 
L 236.972449 294.578616 
L 237.297428 295.035704 
L 238.272367 292.940461 
L 238.597346 293.029159 
L 239.247305 294.67991 
L 240.222244 291.199396 
L 240.872203 295.340372 
L 241.197183 295.195508 
L 241.522162 289.864872 
L 242.172121 295.194836 
L 242.497101 290.551639 
L 242.82208 290.190531 
L 243.14706 289.576949 
L 243.472039 294.233749 
L 243.797019 288.356537 
L 244.121998 288.644858 
L 244.446978 290.124231 
L 244.771957 290.267748 
L 245.096937 292.394875 
L 245.421916 288.230286 
L 245.746896 291.878906 
L 246.071876 282.495307 
L 246.721835 291.617591 
L 247.046814 283.643422 
L 247.371794 292.626395 
L 247.696773 290.432899 
L 248.346732 283.062607 
L 248.671712 291.225695 
L 248.996691 294.047343 
L 249.321671 290.902591 
L 249.64665 283.826664 
L 250.296609 289.176602 
L 250.621589 287.163013 
L 250.946568 286.591039 
L 251.271548 295.488 
L 251.596527 285.17661 
L 251.921507 289.733114 
L 252.246486 288.692513 
L 252.571466 288.028442 
L 252.896446 293.59712 
L 253.221425 280.562028 
L 253.546405 280.211997 
L 253.871384 289.881303 
L 254.196364 283.461381 
L 254.521343 274.227797 
L 254.846323 283.763454 
L 255.171302 279.225699 
L 255.496282 290.931585 
L 255.821261 283.347739 
L 256.146241 285.815629 
L 256.47122 285.664924 
L 256.7962 286.43631 
L 257.121179 283.100847 
L 257.446159 285.433024 
L 257.771138 281.810973 
L 258.096118 275.66616 
L 258.421097 282.845669 
L 258.746077 273.85356 
L 259.071057 275.405756 
L 259.396036 287.019839 
L 259.721016 278.132518 
L 260.045995 284.769012 
L 260.695954 278.84394 
L 261.020934 287.220267 
L 261.345913 278.417866 
L 261.995872 284.487804 
L 262.320852 274.307327 
L 262.645831 290.667983 
L 262.970811 280.375651 
L 263.29579 290.426505 
L 263.62077 271.893445 
L 263.945749 283.240126 
L 264.270729 286.07011 
L 264.595708 291.646298 
L 264.920688 259.591695 
L 265.245667 286.764178 
L 265.570647 276.952785 
L 265.895627 275.913616 
L 266.220606 277.341395 
L 266.545586 281.378153 
L 266.870565 291.031586 
L 267.195545 278.524039 
L 267.520524 261.704655 
L 267.845504 280.124608 
L 268.170483 279.35121 
L 268.820442 286.592865 
L 269.145422 231.58559 
L 269.470401 283.982708 
L 269.795381 246.184155 
L 270.12036 288.902352 
L 270.44534 271.026293 
L 270.770319 288.448339 
L 271.095299 290.173131 
L 271.420278 267.360947 
L 271.745258 271.673062 
L 272.070238 254.586689 
L 272.720197 284.675769 
L 273.045176 291.852111 
L 273.370156 248.455873 
L 273.695135 283.211104 
L 274.020115 284.202789 
L 274.345094 273.085791 
L 274.670074 270.465772 
L 274.995053 279.187565 
L 275.320033 278.87621 
L 275.645012 266.009002 
L 275.969992 277.03522 
L 276.294971 275.39596 
L 276.619951 265.477249 
L 276.94493 269.608911 
L 277.26991 275.916471 
L 277.594889 245.645148 
L 277.919869 266.942896 
L 278.244848 273.735991 
L 278.569828 276.864962 
L 278.894808 267.858804 
L 279.219787 262.240818 
L 279.544767 277.513556 
L 279.869746 275.084682 
L 280.194726 288.793184 
L 280.519705 275.370412 
L 280.844685 267.269539 
L 281.169664 279.007306 
L 281.494644 266.450775 
L 281.819623 275.293854 
L 282.144603 238.655843 
L 282.794562 282.385837 
L 283.119541 265.783037 
L 283.444521 280.760265 
L 283.7695 243.527009 
L 284.09448 260.891776 
L 284.419459 251.57112 
L 284.744439 246.383046 
L 285.069419 266.061997 
L 285.394398 236.442864 
L 285.719378 276.545522 
L 286.044357 227.555532 
L 286.369337 269.657749 
L 286.694316 266.091904 
L 287.019296 289.074989 
L 287.344275 259.860736 
L 287.669255 260.561614 
L 287.994234 252.560183 
L 288.319214 282.099573 
L 288.644193 269.569094 
L 288.969173 230.785048 
L 289.294152 262.589335 
L 289.619132 274.81695 
L 289.944111 281.981644 
L 290.269091 245.488593 
L 290.59407 271.834088 
L 290.91905 271.874259 
L 291.244029 293.273683 
L 291.569009 245.580227 
L 291.893989 249.233983 
L 292.218968 263.435492 
L 292.543948 233.546199 
L 292.868927 252.041445 
L 293.193907 233.529835 
L 293.518886 240.009758 
L 293.843866 267.193214 
L 294.168845 248.456927 
L 294.493825 278.633479 
L 294.818804 290.228495 
L 295.143784 274.426985 
L 295.468763 229.117369 
L 295.793743 249.688661 
L 296.118722 256.512328 
L 296.443702 246.034391 
L 296.768681 227.66618 
L 297.093661 255.978516 
L 297.41864 238.601065 
L 297.74362 275.763508 
L 298.0686 292.746984 
L 298.393579 256.907087 
L 298.718559 270.254141 
L 299.368518 248.841213 
L 299.693497 259.9407 
L 300.018477 265.736837 
L 300.343456 239.931871 
L 300.668436 239.902028 
L 300.993415 282.878237 
L 301.318395 232.89148 
L 301.643374 252.864095 
L 301.968354 262.910138 
L 302.293333 256.673978 
L 302.618313 224.15501 
L 302.943292 290.737908 
L 303.268272 245.84723 
L 303.593251 258.111605 
L 304.24321 257.60201 
L 304.56819 226.497874 
L 304.89317 239.831999 
L 305.218149 219.516426 
L 305.543129 284.16601 
L 305.868108 234.632581 
L 306.193088 216.000661 
L 306.518067 245.684539 
L 306.843047 264.034508 
L 307.168026 267.683299 
L 307.493006 258.718065 
L 307.817985 264.211295 
L 308.142965 287.864561 
L 308.792924 259.963214 
L 309.117903 280.287048 
L 309.442883 244.527922 
L 309.767862 257.474351 
L 310.092842 216.632609 
L 310.417821 279.629576 
L 310.742801 291.206265 
L 311.067781 278.058982 
L 311.39276 255.194229 
L 312.042719 285.66392 
L 312.367699 237.412716 
L 312.692678 221.564734 
L 313.017658 261.185958 
L 313.342637 283.582763 
L 313.667617 247.289372 
L 313.992596 257.130866 
L 314.317576 234.902876 
L 314.642555 268.271628 
L 314.967535 275.947149 
L 315.292514 240.343409 
L 315.617494 267.841675 
L 315.942473 252.762917 
L 316.267453 270.503954 
L 316.592432 244.105675 
L 316.917412 273.081004 
L 317.242391 275.965045 
L 317.567371 233.418205 
L 317.892351 280.729125 
L 318.21733 224.326941 
L 318.54231 235.298191 
L 318.867289 261.291652 
L 319.517248 238.448974 
L 319.842228 275.044136 
L 320.167207 293.666464 
L 320.492187 154.691974 
L 320.817166 232.975646 
L 321.142146 248.830254 
L 321.467125 238.765719 
L 321.792105 274.987744 
L 322.117084 259.495411 
L 322.442064 218.429032 
L 322.767043 200.622278 
L 323.092023 258.653227 
L 323.417002 206.824448 
L 323.741982 261.790667 
L 324.066962 244.445099 
L 324.391941 244.170674 
L 324.716921 268.736225 
L 325.36688 208.512573 
L 325.691859 271.329019 
L 326.016839 265.679953 
L 326.341818 207.862856 
L 326.666798 258.650896 
L 326.991777 277.047561 
L 327.316757 231.180047 
L 327.641736 220.827888 
L 327.966716 261.70669 
L 328.291695 241.772677 
L 328.616675 245.340182 
L 328.941654 234.413019 
L 329.266634 265.116047 
L 329.591613 265.805122 
L 329.916593 219.166661 
L 330.241572 253.697035 
L 330.566552 218.144245 
L 330.891532 211.810854 
L 331.216511 191.316433 
L 331.541491 232.934497 
L 331.86647 257.638067 
L 332.19145 230.269115 
L 332.516429 252.493228 
L 332.841409 239.188409 
L 333.166388 207.64939 
L 333.491368 285.033555 
L 333.816347 239.134349 
L 334.141327 258.856858 
L 334.466306 193.953988 
L 334.791286 267.381916 
L 335.116265 217.658212 
L 335.441245 271.250563 
L 335.766224 269.668631 
L 336.091204 272.556921 
L 336.416183 224.787348 
L 336.741163 228.131143 
L 337.066143 247.780369 
L 337.391122 248.798882 
L 337.716102 259.13526 
L 338.041081 206.494009 
L 338.366061 252.00629 
L 338.69104 269.45976 
L 339.01602 168.690856 
L 339.340999 220.652285 
L 339.665979 197.057612 
L 339.990958 294.338891 
L 340.315938 280.727622 
L 340.640917 275.716359 
L 340.965897 267.848381 
L 341.290876 265.953399 
L 341.615856 258.386502 
L 341.940835 209.760627 
L 342.265815 177.842764 
L 342.915774 210.716249 
L 343.240753 209.481503 
L 343.565733 163.245217 
L 343.890713 248.64217 
L 344.215692 259.745731 
L 344.540672 259.189406 
L 344.865651 274.609637 
L 345.190631 263.615478 
L 345.51561 266.356907 
L 345.84059 217.303292 
L 346.165569 277.866858 
L 346.490549 230.174084 
L 346.815528 227.910118 
L 347.140508 256.588113 
L 347.465487 228.432673 
L 347.790467 231.355936 
L 348.115446 253.500638 
L 348.440426 238.321611 
L 348.765405 209.61609 
L 349.090385 288.274322 
L 349.415364 210.197104 
L 349.740344 280.389974 
L 350.065324 218.762169 
L 350.715283 270.612704 
L 351.040262 233.608836 
L 351.365242 209.728338 
L 351.690221 216.340888 
L 352.015201 281.757234 
L 352.34018 186.672903 
L 352.66516 280.020863 
L 352.990139 224.098523 
L 353.315119 237.093332 
L 353.640098 192.966177 
L 353.965078 247.657525 
L 354.290057 241.308109 
L 354.615037 244.967017 
L 354.940016 183.677001 
L 355.264996 212.394035 
L 355.589975 203.023056 
L 355.914955 278.05311 
L 356.239934 254.749881 
L 356.564914 243.746373 
L 356.889894 243.705713 
L 357.214873 218.980633 
L 357.539853 208.9537 
L 357.864832 290.709082 
L 358.189812 241.021431 
L 358.514791 215.310369 
L 358.839771 257.604641 
L 359.48973 211.61416 
L 359.814709 240.883198 
L 360.139689 228.931089 
L 360.464668 284.11782 
L 361.114627 211.399698 
L 361.439607 293.526819 
L 361.764586 226.579663 
L 362.089566 194.470988 
L 362.414545 190.495047 
L 362.739525 215.404091 
L 363.389484 246.532527 
L 363.714464 271.566534 
L 364.039443 258.061553 
L 364.364423 252.746342 
L 364.689402 212.261033 
L 365.014382 198.946924 
L 365.339361 200.001512 
L 365.664341 210.09292 
L 365.98932 254.441124 
L 366.3143 176.924056 
L 366.639279 252.892979 
L 366.964259 128.046945 
L 367.289238 197.804194 
L 367.614218 230.530732 
L 367.939197 171.89267 
L 368.589156 277.302884 
L 368.914136 254.226689 
L 369.239115 198.790894 
L 369.564095 250.670974 
L 369.889075 260.779062 
L 370.214054 251.463765 
L 370.539034 193.753723 
L 370.864013 248.858123 
L 371.188993 168.523971 
L 371.838952 292.645847 
L 372.163931 205.702595 
L 372.488911 252.640325 
L 372.81389 273.194481 
L 373.13887 214.399836 
L 373.463849 187.650188 
L 373.788829 294.50912 
L 374.113808 194.675247 
L 374.438788 260.32559 
L 374.763767 177.930393 
L 375.088747 199.825863 
L 375.413726 196.352436 
L 375.738706 232.78518 
L 376.063686 184.00265 
L 376.713645 282.576087 
L 377.038624 226.028796 
L 377.363604 197.832601 
L 377.688583 152.20721 
L 378.013563 214.279606 
L 378.338542 225.161156 
L 378.663522 280.289031 
L 378.988501 224.234481 
L 379.313481 194.900226 
L 379.63846 191.696758 
L 379.96344 220.585343 
L 380.288419 185.600728 
L 380.613399 292.453516 
L 380.938378 253.068823 
L 381.263358 237.422048 
L 381.588337 141.509465 
L 381.913317 250.733486 
L 382.238296 263.007588 
L 382.563276 217.766657 
L 383.213235 237.280605 
L 383.538215 239.687591 
L 383.863194 53.568 
L 384.513153 235.031458 
L 384.838133 205.491439 
L 385.488092 235.041631 
L 385.813071 145.337492 
L 386.138051 200.604317 
L 386.46303 236.489666 
L 386.78801 206.346529 
L 387.112989 261.62817 
L 387.437969 243.259177 
L 388.087928 175.297951 
L 388.412907 261.75893 
L 388.737887 207.264992 
L 389.062867 239.93837 
L 389.387846 226.881672 
L 389.712826 223.589237 
L 390.037805 284.881471 
L 390.362785 251.136394 
L 390.687764 244.908895 
L 391.012744 224.980354 
L 391.337723 238.079943 
L 391.662703 219.408167 
L 391.987682 231.723033 
L 392.312662 199.628763 
L 392.637641 275.377727 
L 392.962621 237.787154 
L 393.2876 214.605738 
L 393.61258 266.847621 
L 393.937559 265.261988 
L 394.262539 240.775651 
L 394.587518 235.635392 
L 394.912498 243.503253 
L 395.237477 224.921043 
L 395.562457 254.433982 
L 395.887437 262.22607 
L 396.212416 252.700715 
L 396.537396 219.071178 
L 396.862375 250.227912 
L 397.187355 238.705647 
L 397.512334 210.222778 
L 397.837314 253.556398 
L 398.162293 214.281632 
L 398.487273 244.395472 
L 398.487273 244.395472 
" style="fill:none;stroke:#1f77b4;stroke-linecap:square;stroke-width:1.5;"/>
   </g>
   <g id="patch_3">
    <path d="M 57.6 307.584 
L 57.6 41.472 
" style="fill:none;stroke:#000000;stroke-linecap:square;stroke-linejoin:miter;stroke-width:0.8;"/>
   </g>
   <g id="patch_4">
    <path d="M 414.72 307.584 
L 414.72 41.472 
" style="fill:none;stroke:#000000;stroke-linecap:square;stroke-linejoin:miter;stroke-width:0.8;"/>
   </g>
   <g id="patch_5">
    <path d="M 57.6 307.584 
L 414.72 307.584 
" style="fill:none;stroke:#000000;stroke-linecap:square;stroke-linejoin:miter;stroke-width:0.8;"/>
   </g>
   <g id="patch_6">
    <path d="M 57.6 41.472 
L 414.72 41.472 
" style="fill:none;stroke:#000000;stroke-linecap:square;stroke-linejoin:miter;stroke-width:0.8;"/>
   </g>
   <g id="text_15">
    <!-- Frequency domain - averaging filter 1/2 (Noise) -->
    <defs>
     <path d="M 30.609375 48.390625 
Q 23.390625 48.390625 19.1875 42.75 
Q 14.984375 37.109375 14.984375 27.296875 
Q 14.984375 17.484375 19.15625 11.84375 
Q 23.34375 6.203125 30.609375 6.203125 
Q 37.796875 6.203125 41.984375 11.859375 
Q 46.1875 17.53125 46.1875 27.296875 
Q 46.1875 37.015625 41.984375 42.703125 
Q 37.796875 48.390625 30.609375 48.390625 
z
M 30.609375 56 
Q 42.328125 56 49.015625 48.375 
Q 55.71875 40.765625 55.71875 27.296875 
Q 55.71875 13.875 49.015625 6.21875 
Q 42.328125 -1.421875 30.609375 -1.421875 
Q 18.84375 -1.421875 12.171875 6.21875 
Q 5.515625 13.875 5.515625 27.296875 
Q 5.515625 40.765625 12.171875 48.375 
Q 18.84375 56 30.609375 56 
z
" id="DejaVuSans-111"/>
     <path d="M 34.28125 27.484375 
Q 23.390625 27.484375 19.1875 25 
Q 14.984375 22.515625 14.984375 16.5 
Q 14.984375 11.71875 18.140625 8.90625 
Q 21.296875 6.109375 26.703125 6.109375 
Q 34.1875 6.109375 38.703125 11.40625 
Q 43.21875 16.703125 43.21875 25.484375 
L 43.21875 27.484375 
z
M 52.203125 31.203125 
L 52.203125 0 
L 43.21875 0 
L 43.21875 8.296875 
Q 40.140625 3.328125 35.546875 0.953125 
Q 30.953125 -1.421875 24.3125 -1.421875 
Q 15.921875 -1.421875 10.953125 3.296875 
Q 6 8.015625 6 15.921875 
Q 6 25.140625 12.171875 29.828125 
Q 18.359375 34.515625 30.609375 34.515625 
L 43.21875 34.515625 
L 43.21875 35.40625 
Q 43.21875 41.609375 39.140625 45 
Q 35.0625 48.390625 27.6875 48.390625 
Q 23 48.390625 18.546875 47.265625 
Q 14.109375 46.140625 10.015625 43.890625 
L 10.015625 52.203125 
Q 14.9375 54.109375 19.578125 55.046875 
Q 24.21875 56 28.609375 56 
Q 40.484375 56 46.34375 49.84375 
Q 52.203125 43.703125 52.203125 31.203125 
z
" id="DejaVuSans-97"/>
     <path d="M 4.890625 31.390625 
L 31.203125 31.390625 
L 31.203125 23.390625 
L 4.890625 23.390625 
z
" id="DejaVuSans-45"/>
     <path d="M 2.984375 54.6875 
L 12.5 54.6875 
L 29.59375 8.796875 
L 46.6875 54.6875 
L 56.203125 54.6875 
L 35.6875 0 
L 23.484375 0 
z
" id="DejaVuSans-118"/>
     <path d="M 45.40625 27.984375 
Q 45.40625 37.75 41.375 43.109375 
Q 37.359375 48.484375 30.078125 48.484375 
Q 22.859375 48.484375 18.828125 43.109375 
Q 14.796875 37.75 14.796875 27.984375 
Q 14.796875 18.265625 18.828125 12.890625 
Q 22.859375 7.515625 30.078125 7.515625 
Q 37.359375 7.515625 41.375 12.890625 
Q 45.40625 18.265625 45.40625 27.984375 
z
M 54.390625 6.78125 
Q 54.390625 -7.171875 48.1875 -13.984375 
Q 42 -20.796875 29.203125 -20.796875 
Q 24.46875 -20.796875 20.265625 -20.09375 
Q 16.0625 -19.390625 12.109375 -17.921875 
L 12.109375 -9.1875 
Q 16.0625 -11.328125 19.921875 -12.34375 
Q 23.78125 -13.375 27.78125 -13.375 
Q 36.625 -13.375 41.015625 -8.765625 
Q 45.40625 -4.15625 45.40625 5.171875 
L 45.40625 9.625 
Q 42.625 4.78125 38.28125 2.390625 
Q 33.9375 0 27.875 0 
Q 17.828125 0 11.671875 7.65625 
Q 5.515625 15.328125 5.515625 27.984375 
Q 5.515625 40.671875 11.671875 48.328125 
Q 17.828125 56 27.875 56 
Q 33.9375 56 38.28125 53.609375 
Q 42.625 51.21875 45.40625 46.390625 
L 45.40625 54.6875 
L 54.390625 54.6875 
z
" id="DejaVuSans-103"/>
     <path d="M 37.109375 75.984375 
L 37.109375 68.5 
L 28.515625 68.5 
Q 23.6875 68.5 21.796875 66.546875 
Q 19.921875 64.59375 19.921875 59.515625 
L 19.921875 54.6875 
L 34.71875 54.6875 
L 34.71875 47.703125 
L 19.921875 47.703125 
L 19.921875 0 
L 10.890625 0 
L 10.890625 47.703125 
L 2.296875 47.703125 
L 2.296875 54.6875 
L 10.890625 54.6875 
L 10.890625 58.5 
Q 10.890625 67.625 15.140625 71.796875 
Q 19.390625 75.984375 28.609375 75.984375 
z
" id="DejaVuSans-102"/>
     <path d="M 25.390625 72.90625 
L 33.6875 72.90625 
L 8.296875 -9.28125 
L 0 -9.28125 
z
" id="DejaVuSans-47"/>
     <path d="M 9.8125 72.90625 
L 23.09375 72.90625 
L 55.421875 11.921875 
L 55.421875 72.90625 
L 64.984375 72.90625 
L 64.984375 0 
L 51.703125 0 
L 19.390625 60.984375 
L 19.390625 0 
L 9.8125 0 
z
" id="DejaVuSans-78"/>
     <path d="M 44.28125 53.078125 
L 44.28125 44.578125 
Q 40.484375 46.53125 36.375 47.5 
Q 32.28125 48.484375 27.875 48.484375 
Q 21.1875 48.484375 17.84375 46.4375 
Q 14.5 44.390625 14.5 40.28125 
Q 14.5 37.15625 16.890625 35.375 
Q 19.28125 33.59375 26.515625 31.984375 
L 29.59375 31.296875 
Q 39.15625 29.25 43.1875 25.515625 
Q 47.21875 21.78125 47.21875 15.09375 
Q 47.21875 7.46875 41.1875 3.015625 
Q 35.15625 -1.421875 24.609375 -1.421875 
Q 20.21875 -1.421875 15.453125 -0.5625 
Q 10.6875 0.296875 5.421875 2 
L 5.421875 11.28125 
Q 10.40625 8.6875 15.234375 7.390625 
Q 20.0625 6.109375 24.8125 6.109375 
Q 31.15625 6.109375 34.5625 8.28125 
Q 37.984375 10.453125 37.984375 14.40625 
Q 37.984375 18.0625 35.515625 20.015625 
Q 33.0625 21.96875 24.703125 23.78125 
L 21.578125 24.515625 
Q 13.234375 26.265625 9.515625 29.90625 
Q 5.8125 33.546875 5.8125 39.890625 
Q 5.8125 47.609375 11.28125 51.796875 
Q 16.75 56 26.8125 56 
Q 31.78125 56 36.171875 55.265625 
Q 40.578125 54.546875 44.28125 53.078125 
z
" id="DejaVuSans-115"/>
    </defs>
    <g transform="translate(93.9975 35.472)scale(0.12 -0.12)">
     <use xlink:href="#DejaVuSans-70"/>
     <use x="50.269531" xlink:href="#DejaVuSans-114"/>
     <use x="89.132812" xlink:href="#DejaVuSans-101"/>
     <use x="150.65625" xlink:href="#DejaVuSans-113"/>
     <use x="214.132812" xlink:href="#DejaVuSans-117"/>
     <use x="277.511719" xlink:href="#DejaVuSans-101"/>
     <use x="339.035156" xlink:href="#DejaVuSans-110"/>
     <use x="402.414062" xlink:href="#DejaVuSans-99"/>
     <use x="457.394531" xlink:href="#DejaVuSans-121"/>
     <use x="516.574219" xlink:href="#DejaVuSans-32"/>
     <use x="548.361328" xlink:href="#DejaVuSans-100"/>
     <use x="611.837891" xlink:href="#DejaVuSans-111"/>
     <use x="673.019531" xlink:href="#DejaVuSans-109"/>
     <use x="770.431641" xlink:href="#DejaVuSans-97"/>
     <use x="831.710938" xlink:href="#DejaVuSans-105"/>
     <use x="859.494141" xlink:href="#DejaVuSans-110"/>
     <use x="922.873047" xlink:href="#DejaVuSans-32"/>
     <use x="954.660156" xlink:href="#DejaVuSans-45"/>
     <use x="990.744141" xlink:href="#DejaVuSans-32"/>
     <use x="1022.53125" xlink:href="#DejaVuSans-97"/>
     <use x="1083.810547" xlink:href="#DejaVuSans-118"/>
     <use x="1142.990234" xlink:href="#DejaVuSans-101"/>
     <use x="1204.513672" xlink:href="#DejaVuSans-114"/>
     <use x="1245.626953" xlink:href="#DejaVuSans-97"/>
     <use x="1306.90625" xlink:href="#DejaVuSans-103"/>
     <use x="1370.382812" xlink:href="#DejaVuSans-105"/>
     <use x="1398.166016" xlink:href="#DejaVuSans-110"/>
     <use x="1461.544922" xlink:href="#DejaVuSans-103"/>
     <use x="1525.021484" xlink:href="#DejaVuSans-32"/>
     <use x="1556.808594" xlink:href="#DejaVuSans-102"/>
     <use x="1592.013672" xlink:href="#DejaVuSans-105"/>
     <use x="1619.796875" xlink:href="#DejaVuSans-108"/>
     <use x="1647.580078" xlink:href="#DejaVuSans-116"/>
     <use x="1686.789062" xlink:href="#DejaVuSans-101"/>
     <use x="1748.3125" xlink:href="#DejaVuSans-114"/>
     <use x="1789.425781" xlink:href="#DejaVuSans-32"/>
     <use x="1821.212891" xlink:href="#DejaVuSans-49"/>
     <use x="1884.835938" xlink:href="#DejaVuSans-47"/>
     <use x="1918.527344" xlink:href="#DejaVuSans-50"/>
     <use x="1982.150391" xlink:href="#DejaVuSans-32"/>
     <use x="2013.9375" xlink:href="#DejaVuSans-40"/>
     <use x="2052.951172" xlink:href="#DejaVuSans-78"/>
     <use x="2127.755859" xlink:href="#DejaVuSans-111"/>
     <use x="2188.9375" xlink:href="#DejaVuSans-105"/>
     <use x="2216.720703" xlink:href="#DejaVuSans-115"/>
     <use x="2268.820312" xlink:href="#DejaVuSans-101"/>
     <use x="2330.34375" xlink:href="#DejaVuSans-41"/>
    </g>
   </g>
  </g>
 </g>
 <defs>
  <clipPath id="pd6d7ca2a19">
   <rect height="266.112" width="357.12" x="57.6" y="41.472"/>
  </clipPath>
 </defs>
</svg>
