<?xml version="1.0" encoding="utf-8" standalone="no"?>
<!DOCTYPE svg PUBLIC "-//W3C//DTD SVG 1.1//EN"
  "http://www.w3.org/Graphics/SVG/1.1/DTD/svg11.dtd">
<!-- Created with matplotlib (https://matplotlib.org/) -->
<svg height="345.6pt" version="1.1" viewBox="0 0 460.8 345.6" width="460.8pt" xmlns="http://www.w3.org/2000/svg" xmlns:xlink="http://www.w3.org/1999/xlink">
 <defs>
  <style type="text/css">
*{stroke-linecap:butt;stroke-linejoin:round;}
  </style>
 </defs>
 <g id="figure_1">
  <g id="patch_1">
   <path d="M 0 345.6 
L 460.8 345.6 
L 460.8 0 
L 0 0 
z
" style="fill:#ffffff;"/>
  </g>
  <g id="axes_1">
   <g id="patch_2">
    <path d="M 57.6 307.584 
L 414.72 307.584 
L 414.72 41.472 
L 57.6 41.472 
z
" style="fill:#ffffff;"/>
   </g>
   <g id="matplotlib.axis_1">
    <g id="xtick_1">
     <g id="line2d_1">
      <defs>
       <path d="M 0 0 
L 0 3.5 
" id="mda33fb3b4a" style="stroke:#000000;stroke-width:0.8;"/>
      </defs>
      <g>
       <use style="stroke:#000000;stroke-width:0.8;" x="73.832727" xlink:href="#mda33fb3b4a" y="307.584"/>
      </g>
     </g>
     <g id="text_1">
      <!-- 0 -->
      <defs>
       <path d="M 31.78125 66.40625 
Q 24.171875 66.40625 20.328125 58.90625 
Q 16.5 51.421875 16.5 36.375 
Q 16.5 21.390625 20.328125 13.890625 
Q 24.171875 6.390625 31.78125 6.390625 
Q 39.453125 6.390625 43.28125 13.890625 
Q 47.125 21.390625 47.125 36.375 
Q 47.125 51.421875 43.28125 58.90625 
Q 39.453125 66.40625 31.78125 66.40625 
z
M 31.78125 74.21875 
Q 44.046875 74.21875 50.515625 64.515625 
Q 56.984375 54.828125 56.984375 36.375 
Q 56.984375 17.96875 50.515625 8.265625 
Q 44.046875 -1.421875 31.78125 -1.421875 
Q 19.53125 -1.421875 13.0625 8.265625 
Q 6.59375 17.96875 6.59375 36.375 
Q 6.59375 54.828125 13.0625 64.515625 
Q 19.53125 74.21875 31.78125 74.21875 
z
" id="DejaVuSans-48"/>
      </defs>
      <g transform="translate(70.651477 322.182437)scale(0.1 -0.1)">
       <use xlink:href="#DejaVuSans-48"/>
      </g>
     </g>
    </g>
    <g id="xtick_2">
     <g id="line2d_2">
      <g>
       <use style="stroke:#000000;stroke-width:0.8;" x="138.828632" xlink:href="#mda33fb3b4a" y="307.584"/>
      </g>
     </g>
     <g id="text_2">
      <!-- 200 -->
      <defs>
       <path d="M 19.1875 8.296875 
L 53.609375 8.296875 
L 53.609375 0 
L 7.328125 0 
L 7.328125 8.296875 
Q 12.9375 14.109375 22.625 23.890625 
Q 32.328125 33.6875 34.8125 36.53125 
Q 39.546875 41.84375 41.421875 45.53125 
Q 43.3125 49.21875 43.3125 52.78125 
Q 43.3125 58.59375 39.234375 62.25 
Q 35.15625 65.921875 28.609375 65.921875 
Q 23.96875 65.921875 18.8125 64.3125 
Q 13.671875 62.703125 7.8125 59.421875 
L 7.8125 69.390625 
Q 13.765625 71.78125 18.9375 73 
Q 24.125 74.21875 28.421875 74.21875 
Q 39.75 74.21875 46.484375 68.546875 
Q 53.21875 62.890625 53.21875 53.421875 
Q 53.21875 48.921875 51.53125 44.890625 
Q 49.859375 40.875 45.40625 35.40625 
Q 44.1875 33.984375 37.640625 27.21875 
Q 31.109375 20.453125 19.1875 8.296875 
z
" id="DejaVuSans-50"/>
      </defs>
      <g transform="translate(129.284882 322.182437)scale(0.1 -0.1)">
       <use xlink:href="#DejaVuSans-50"/>
       <use x="63.623047" xlink:href="#DejaVuSans-48"/>
       <use x="127.246094" xlink:href="#DejaVuSans-48"/>
      </g>
     </g>
    </g>
    <g id="xtick_3">
     <g id="line2d_3">
      <g>
       <use style="stroke:#000000;stroke-width:0.8;" x="203.824537" xlink:href="#mda33fb3b4a" y="307.584"/>
      </g>
     </g>
     <g id="text_3">
      <!-- 400 -->
      <defs>
       <path d="M 37.796875 64.3125 
L 12.890625 25.390625 
L 37.796875 25.390625 
z
M 35.203125 72.90625 
L 47.609375 72.90625 
L 47.609375 25.390625 
L 58.015625 25.390625 
L 58.015625 17.1875 
L 47.609375 17.1875 
L 47.609375 0 
L 37.796875 0 
L 37.796875 17.1875 
L 4.890625 17.1875 
L 4.890625 26.703125 
z
" id="DejaVuSans-52"/>
      </defs>
      <g transform="translate(194.280787 322.182437)scale(0.1 -0.1)">
       <use xlink:href="#DejaVuSans-52"/>
       <use x="63.623047" xlink:href="#DejaVuSans-48"/>
       <use x="127.246094" xlink:href="#DejaVuSans-48"/>
      </g>
     </g>
    </g>
    <g id="xtick_4">
     <g id="line2d_4">
      <g>
       <use style="stroke:#000000;stroke-width:0.8;" x="268.820442" xlink:href="#mda33fb3b4a" y="307.584"/>
      </g>
     </g>
     <g id="text_4">
      <!-- 600 -->
      <defs>
       <path d="M 33.015625 40.375 
Q 26.375 40.375 22.484375 35.828125 
Q 18.609375 31.296875 18.609375 23.390625 
Q 18.609375 15.53125 22.484375 10.953125 
Q 26.375 6.390625 33.015625 6.390625 
Q 39.65625 6.390625 43.53125 10.953125 
Q 47.40625 15.53125 47.40625 23.390625 
Q 47.40625 31.296875 43.53125 35.828125 
Q 39.65625 40.375 33.015625 40.375 
z
M 52.59375 71.296875 
L 52.59375 62.3125 
Q 48.875 64.0625 45.09375 64.984375 
Q 41.3125 65.921875 37.59375 65.921875 
Q 27.828125 65.921875 22.671875 59.328125 
Q 17.53125 52.734375 16.796875 39.40625 
Q 19.671875 43.65625 24.015625 45.921875 
Q 28.375 48.1875 33.59375 48.1875 
Q 44.578125 48.1875 50.953125 41.515625 
Q 57.328125 34.859375 57.328125 23.390625 
Q 57.328125 12.15625 50.6875 5.359375 
Q 44.046875 -1.421875 33.015625 -1.421875 
Q 20.359375 -1.421875 13.671875 8.265625 
Q 6.984375 17.96875 6.984375 36.375 
Q 6.984375 53.65625 15.1875 63.9375 
Q 23.390625 74.21875 37.203125 74.21875 
Q 40.921875 74.21875 44.703125 73.484375 
Q 48.484375 72.75 52.59375 71.296875 
z
" id="DejaVuSans-54"/>
      </defs>
      <g transform="translate(259.276692 322.182437)scale(0.1 -0.1)">
       <use xlink:href="#DejaVuSans-54"/>
       <use x="63.623047" xlink:href="#DejaVuSans-48"/>
       <use x="127.246094" xlink:href="#DejaVuSans-48"/>
      </g>
     </g>
    </g>
    <g id="xtick_5">
     <g id="line2d_5">
      <g>
       <use style="stroke:#000000;stroke-width:0.8;" x="333.816347" xlink:href="#mda33fb3b4a" y="307.584"/>
      </g>
     </g>
     <g id="text_5">
      <!-- 800 -->
      <defs>
       <path d="M 31.78125 34.625 
Q 24.75 34.625 20.71875 30.859375 
Q 16.703125 27.09375 16.703125 20.515625 
Q 16.703125 13.921875 20.71875 10.15625 
Q 24.75 6.390625 31.78125 6.390625 
Q 38.8125 6.390625 42.859375 10.171875 
Q 46.921875 13.96875 46.921875 20.515625 
Q 46.921875 27.09375 42.890625 30.859375 
Q 38.875 34.625 31.78125 34.625 
z
M 21.921875 38.8125 
Q 15.578125 40.375 12.03125 44.71875 
Q 8.5 49.078125 8.5 55.328125 
Q 8.5 64.0625 14.71875 69.140625 
Q 20.953125 74.21875 31.78125 74.21875 
Q 42.671875 74.21875 48.875 69.140625 
Q 55.078125 64.0625 55.078125 55.328125 
Q 55.078125 49.078125 51.53125 44.71875 
Q 48 40.375 41.703125 38.8125 
Q 48.828125 37.15625 52.796875 32.3125 
Q 56.78125 27.484375 56.78125 20.515625 
Q 56.78125 9.90625 50.3125 4.234375 
Q 43.84375 -1.421875 31.78125 -1.421875 
Q 19.734375 -1.421875 13.25 4.234375 
Q 6.78125 9.90625 6.78125 20.515625 
Q 6.78125 27.484375 10.78125 32.3125 
Q 14.796875 37.15625 21.921875 38.8125 
z
M 18.3125 54.390625 
Q 18.3125 48.734375 21.84375 45.5625 
Q 25.390625 42.390625 31.78125 42.390625 
Q 38.140625 42.390625 41.71875 45.5625 
Q 45.3125 48.734375 45.3125 54.390625 
Q 45.3125 60.0625 41.71875 63.234375 
Q 38.140625 66.40625 31.78125 66.40625 
Q 25.390625 66.40625 21.84375 63.234375 
Q 18.3125 60.0625 18.3125 54.390625 
z
" id="DejaVuSans-56"/>
      </defs>
      <g transform="translate(324.272597 322.182437)scale(0.1 -0.1)">
       <use xlink:href="#DejaVuSans-56"/>
       <use x="63.623047" xlink:href="#DejaVuSans-48"/>
       <use x="127.246094" xlink:href="#DejaVuSans-48"/>
      </g>
     </g>
    </g>
    <g id="xtick_6">
     <g id="line2d_6">
      <g>
       <use style="stroke:#000000;stroke-width:0.8;" x="398.812252" xlink:href="#mda33fb3b4a" y="307.584"/>
      </g>
     </g>
     <g id="text_6">
      <!-- 1000 -->
      <defs>
       <path d="M 12.40625 8.296875 
L 28.515625 8.296875 
L 28.515625 63.921875 
L 10.984375 60.40625 
L 10.984375 69.390625 
L 28.421875 72.90625 
L 38.28125 72.90625 
L 38.28125 8.296875 
L 54.390625 8.296875 
L 54.390625 0 
L 12.40625 0 
z
" id="DejaVuSans-49"/>
      </defs>
      <g transform="translate(386.087252 322.182437)scale(0.1 -0.1)">
       <use xlink:href="#DejaVuSans-49"/>
       <use x="63.623047" xlink:href="#DejaVuSans-48"/>
       <use x="127.246094" xlink:href="#DejaVuSans-48"/>
       <use x="190.869141" xlink:href="#DejaVuSans-48"/>
      </g>
     </g>
    </g>
    <g id="text_7">
     <!-- Frequency (Hz) -->
     <defs>
      <path d="M 9.8125 72.90625 
L 51.703125 72.90625 
L 51.703125 64.59375 
L 19.671875 64.59375 
L 19.671875 43.109375 
L 48.578125 43.109375 
L 48.578125 34.8125 
L 19.671875 34.8125 
L 19.671875 0 
L 9.8125 0 
z
" id="DejaVuSans-70"/>
      <path d="M 41.109375 46.296875 
Q 39.59375 47.171875 37.8125 47.578125 
Q 36.03125 48 33.890625 48 
Q 26.265625 48 22.1875 43.046875 
Q 18.109375 38.09375 18.109375 28.8125 
L 18.109375 0 
L 9.078125 0 
L 9.078125 54.6875 
L 18.109375 54.6875 
L 18.109375 46.1875 
Q 20.953125 51.171875 25.484375 53.578125 
Q 30.03125 56 36.53125 56 
Q 37.453125 56 38.578125 55.875 
Q 39.703125 55.765625 41.0625 55.515625 
z
" id="DejaVuSans-114"/>
      <path d="M 56.203125 29.59375 
L 56.203125 25.203125 
L 14.890625 25.203125 
Q 15.484375 15.921875 20.484375 11.0625 
Q 25.484375 6.203125 34.421875 6.203125 
Q 39.59375 6.203125 44.453125 7.46875 
Q 49.3125 8.734375 54.109375 11.28125 
L 54.109375 2.78125 
Q 49.265625 0.734375 44.1875 -0.34375 
Q 39.109375 -1.421875 33.890625 -1.421875 
Q 20.796875 -1.421875 13.15625 6.1875 
Q 5.515625 13.8125 5.515625 26.8125 
Q 5.515625 40.234375 12.765625 48.109375 
Q 20.015625 56 32.328125 56 
Q 43.359375 56 49.78125 48.890625 
Q 56.203125 41.796875 56.203125 29.59375 
z
M 47.21875 32.234375 
Q 47.125 39.59375 43.09375 43.984375 
Q 39.0625 48.390625 32.421875 48.390625 
Q 24.90625 48.390625 20.390625 44.140625 
Q 15.875 39.890625 15.1875 32.171875 
z
" id="DejaVuSans-101"/>
      <path d="M 14.796875 27.296875 
Q 14.796875 17.390625 18.875 11.75 
Q 22.953125 6.109375 30.078125 6.109375 
Q 37.203125 6.109375 41.296875 11.75 
Q 45.40625 17.390625 45.40625 27.296875 
Q 45.40625 37.203125 41.296875 42.84375 
Q 37.203125 48.484375 30.078125 48.484375 
Q 22.953125 48.484375 18.875 42.84375 
Q 14.796875 37.203125 14.796875 27.296875 
z
M 45.40625 8.203125 
Q 42.578125 3.328125 38.25 0.953125 
Q 33.9375 -1.421875 27.875 -1.421875 
Q 17.96875 -1.421875 11.734375 6.484375 
Q 5.515625 14.40625 5.515625 27.296875 
Q 5.515625 40.1875 11.734375 48.09375 
Q 17.96875 56 27.875 56 
Q 33.9375 56 38.25 53.625 
Q 42.578125 51.265625 45.40625 46.390625 
L 45.40625 54.6875 
L 54.390625 54.6875 
L 54.390625 -20.796875 
L 45.40625 -20.796875 
z
" id="DejaVuSans-113"/>
      <path d="M 8.5 21.578125 
L 8.5 54.6875 
L 17.484375 54.6875 
L 17.484375 21.921875 
Q 17.484375 14.15625 20.5 10.265625 
Q 23.53125 6.390625 29.59375 6.390625 
Q 36.859375 6.390625 41.078125 11.03125 
Q 45.3125 15.671875 45.3125 23.6875 
L 45.3125 54.6875 
L 54.296875 54.6875 
L 54.296875 0 
L 45.3125 0 
L 45.3125 8.40625 
Q 42.046875 3.421875 37.71875 1 
Q 33.40625 -1.421875 27.6875 -1.421875 
Q 18.265625 -1.421875 13.375 4.4375 
Q 8.5 10.296875 8.5 21.578125 
z
M 31.109375 56 
z
" id="DejaVuSans-117"/>
      <path d="M 54.890625 33.015625 
L 54.890625 0 
L 45.90625 0 
L 45.90625 32.71875 
Q 45.90625 40.484375 42.875 44.328125 
Q 39.84375 48.1875 33.796875 48.1875 
Q 26.515625 48.1875 22.3125 43.546875 
Q 18.109375 38.921875 18.109375 30.90625 
L 18.109375 0 
L 9.078125 0 
L 9.078125 54.6875 
L 18.109375 54.6875 
L 18.109375 46.1875 
Q 21.34375 51.125 25.703125 53.5625 
Q 30.078125 56 35.796875 56 
Q 45.21875 56 50.046875 50.171875 
Q 54.890625 44.34375 54.890625 33.015625 
z
" id="DejaVuSans-110"/>
      <path d="M 48.78125 52.59375 
L 48.78125 44.1875 
Q 44.96875 46.296875 41.140625 47.34375 
Q 37.3125 48.390625 33.40625 48.390625 
Q 24.65625 48.390625 19.8125 42.84375 
Q 14.984375 37.3125 14.984375 27.296875 
Q 14.984375 17.28125 19.8125 11.734375 
Q 24.65625 6.203125 33.40625 6.203125 
Q 37.3125 6.203125 41.140625 7.25 
Q 44.96875 8.296875 48.78125 10.40625 
L 48.78125 2.09375 
Q 45.015625 0.34375 40.984375 -0.53125 
Q 36.96875 -1.421875 32.421875 -1.421875 
Q 20.0625 -1.421875 12.78125 6.34375 
Q 5.515625 14.109375 5.515625 27.296875 
Q 5.515625 40.671875 12.859375 48.328125 
Q 20.21875 56 33.015625 56 
Q 37.15625 56 41.109375 55.140625 
Q 45.0625 54.296875 48.78125 52.59375 
z
" id="DejaVuSans-99"/>
      <path d="M 32.171875 -5.078125 
Q 28.375 -14.84375 24.75 -17.8125 
Q 21.140625 -20.796875 15.09375 -20.796875 
L 7.90625 -20.796875 
L 7.90625 -13.28125 
L 13.1875 -13.28125 
Q 16.890625 -13.28125 18.9375 -11.515625 
Q 21 -9.765625 23.484375 -3.21875 
L 25.09375 0.875 
L 2.984375 54.6875 
L 12.5 54.6875 
L 29.59375 11.921875 
L 46.6875 54.6875 
L 56.203125 54.6875 
z
" id="DejaVuSans-121"/>
      <path id="DejaVuSans-32"/>
      <path d="M 31 75.875 
Q 24.46875 64.65625 21.28125 53.65625 
Q 18.109375 42.671875 18.109375 31.390625 
Q 18.109375 20.125 21.3125 9.0625 
Q 24.515625 -2 31 -13.1875 
L 23.1875 -13.1875 
Q 15.875 -1.703125 12.234375 9.375 
Q 8.59375 20.453125 8.59375 31.390625 
Q 8.59375 42.28125 12.203125 53.3125 
Q 15.828125 64.359375 23.1875 75.875 
z
" id="DejaVuSans-40"/>
      <path d="M 9.8125 72.90625 
L 19.671875 72.90625 
L 19.671875 43.015625 
L 55.515625 43.015625 
L 55.515625 72.90625 
L 65.375 72.90625 
L 65.375 0 
L 55.515625 0 
L 55.515625 34.71875 
L 19.671875 34.71875 
L 19.671875 0 
L 9.8125 0 
z
" id="DejaVuSans-72"/>
      <path d="M 5.515625 54.6875 
L 48.1875 54.6875 
L 48.1875 46.484375 
L 14.40625 7.171875 
L 48.1875 7.171875 
L 48.1875 0 
L 4.296875 0 
L 4.296875 8.203125 
L 38.09375 47.515625 
L 5.515625 47.515625 
z
" id="DejaVuSans-122"/>
      <path d="M 8.015625 75.875 
L 15.828125 75.875 
Q 23.140625 64.359375 26.78125 53.3125 
Q 30.421875 42.28125 30.421875 31.390625 
Q 30.421875 20.453125 26.78125 9.375 
Q 23.140625 -1.703125 15.828125 -13.1875 
L 8.015625 -13.1875 
Q 14.5 -2 17.703125 9.0625 
Q 20.90625 20.125 20.90625 31.390625 
Q 20.90625 42.671875 17.703125 53.65625 
Q 14.5 64.65625 8.015625 75.875 
z
" id="DejaVuSans-41"/>
     </defs>
     <g transform="translate(198.455312 335.860562)scale(0.1 -0.1)">
      <use xlink:href="#DejaVuSans-70"/>
      <use x="50.269531" xlink:href="#DejaVuSans-114"/>
      <use x="89.132812" xlink:href="#DejaVuSans-101"/>
      <use x="150.65625" xlink:href="#DejaVuSans-113"/>
      <use x="214.132812" xlink:href="#DejaVuSans-117"/>
      <use x="277.511719" xlink:href="#DejaVuSans-101"/>
      <use x="339.035156" xlink:href="#DejaVuSans-110"/>
      <use x="402.414062" xlink:href="#DejaVuSans-99"/>
      <use x="457.394531" xlink:href="#DejaVuSans-121"/>
      <use x="516.574219" xlink:href="#DejaVuSans-32"/>
      <use x="548.361328" xlink:href="#DejaVuSans-40"/>
      <use x="587.375" xlink:href="#DejaVuSans-72"/>
      <use x="662.570312" xlink:href="#DejaVuSans-122"/>
      <use x="715.060547" xlink:href="#DejaVuSans-41"/>
     </g>
    </g>
   </g>
   <g id="matplotlib.axis_2">
    <g id="ytick_1">
     <g id="line2d_7">
      <defs>
       <path d="M 0 0 
L -3.5 0 
" id="m176c951ef3" style="stroke:#000000;stroke-width:0.8;"/>
      </defs>
      <g>
       <use style="stroke:#000000;stroke-width:0.8;" x="57.6" xlink:href="#m176c951ef3" y="295.803677"/>
      </g>
     </g>
     <g id="text_8">
      <!-- 0 -->
      <g transform="translate(44.2375 299.602896)scale(0.1 -0.1)">
       <use xlink:href="#DejaVuSans-48"/>
      </g>
     </g>
    </g>
    <g id="ytick_2">
     <g id="line2d_8">
      <g>
       <use style="stroke:#000000;stroke-width:0.8;" x="57.6" xlink:href="#m176c951ef3" y="242.273498"/>
      </g>
     </g>
     <g id="text_9">
      <!-- 20 -->
      <g transform="translate(37.875 246.072717)scale(0.1 -0.1)">
       <use xlink:href="#DejaVuSans-50"/>
       <use x="63.623047" xlink:href="#DejaVuSans-48"/>
      </g>
     </g>
    </g>
    <g id="ytick_3">
     <g id="line2d_9">
      <g>
       <use style="stroke:#000000;stroke-width:0.8;" x="57.6" xlink:href="#m176c951ef3" y="188.743319"/>
      </g>
     </g>
     <g id="text_10">
      <!-- 40 -->
      <g transform="translate(37.875 192.542538)scale(0.1 -0.1)">
       <use xlink:href="#DejaVuSans-52"/>
       <use x="63.623047" xlink:href="#DejaVuSans-48"/>
      </g>
     </g>
    </g>
    <g id="ytick_4">
     <g id="line2d_10">
      <g>
       <use style="stroke:#000000;stroke-width:0.8;" x="57.6" xlink:href="#m176c951ef3" y="135.21314"/>
      </g>
     </g>
     <g id="text_11">
      <!-- 60 -->
      <g transform="translate(37.875 139.012359)scale(0.1 -0.1)">
       <use xlink:href="#DejaVuSans-54"/>
       <use x="63.623047" xlink:href="#DejaVuSans-48"/>
      </g>
     </g>
    </g>
    <g id="ytick_5">
     <g id="line2d_11">
      <g>
       <use style="stroke:#000000;stroke-width:0.8;" x="57.6" xlink:href="#m176c951ef3" y="81.682961"/>
      </g>
     </g>
     <g id="text_12">
      <!-- 80 -->
      <g transform="translate(37.875 85.48218)scale(0.1 -0.1)">
       <use xlink:href="#DejaVuSans-56"/>
       <use x="63.623047" xlink:href="#DejaVuSans-48"/>
      </g>
     </g>
    </g>
    <g id="text_13">
     <!-- Amplitude -->
     <defs>
      <path d="M 34.1875 63.1875 
L 20.796875 26.90625 
L 47.609375 26.90625 
z
M 28.609375 72.90625 
L 39.796875 72.90625 
L 67.578125 0 
L 57.328125 0 
L 50.6875 18.703125 
L 17.828125 18.703125 
L 11.1875 0 
L 0.78125 0 
z
" id="DejaVuSans-65"/>
      <path d="M 52 44.1875 
Q 55.375 50.25 60.0625 53.125 
Q 64.75 56 71.09375 56 
Q 79.640625 56 84.28125 50.015625 
Q 88.921875 44.046875 88.921875 33.015625 
L 88.921875 0 
L 79.890625 0 
L 79.890625 32.71875 
Q 79.890625 40.578125 77.09375 44.375 
Q 74.3125 48.1875 68.609375 48.1875 
Q 61.625 48.1875 57.5625 43.546875 
Q 53.515625 38.921875 53.515625 30.90625 
L 53.515625 0 
L 44.484375 0 
L 44.484375 32.71875 
Q 44.484375 40.625 41.703125 44.40625 
Q 38.921875 48.1875 33.109375 48.1875 
Q 26.21875 48.1875 22.15625 43.53125 
Q 18.109375 38.875 18.109375 30.90625 
L 18.109375 0 
L 9.078125 0 
L 9.078125 54.6875 
L 18.109375 54.6875 
L 18.109375 46.1875 
Q 21.1875 51.21875 25.484375 53.609375 
Q 29.78125 56 35.6875 56 
Q 41.65625 56 45.828125 52.96875 
Q 50 49.953125 52 44.1875 
z
" id="DejaVuSans-109"/>
      <path d="M 18.109375 8.203125 
L 18.109375 -20.796875 
L 9.078125 -20.796875 
L 9.078125 54.6875 
L 18.109375 54.6875 
L 18.109375 46.390625 
Q 20.953125 51.265625 25.265625 53.625 
Q 29.59375 56 35.59375 56 
Q 45.5625 56 51.78125 48.09375 
Q 58.015625 40.1875 58.015625 27.296875 
Q 58.015625 14.40625 51.78125 6.484375 
Q 45.5625 -1.421875 35.59375 -1.421875 
Q 29.59375 -1.421875 25.265625 0.953125 
Q 20.953125 3.328125 18.109375 8.203125 
z
M 48.6875 27.296875 
Q 48.6875 37.203125 44.609375 42.84375 
Q 40.53125 48.484375 33.40625 48.484375 
Q 26.265625 48.484375 22.1875 42.84375 
Q 18.109375 37.203125 18.109375 27.296875 
Q 18.109375 17.390625 22.1875 11.75 
Q 26.265625 6.109375 33.40625 6.109375 
Q 40.53125 6.109375 44.609375 11.75 
Q 48.6875 17.390625 48.6875 27.296875 
z
" id="DejaVuSans-112"/>
      <path d="M 9.421875 75.984375 
L 18.40625 75.984375 
L 18.40625 0 
L 9.421875 0 
z
" id="DejaVuSans-108"/>
      <path d="M 9.421875 54.6875 
L 18.40625 54.6875 
L 18.40625 0 
L 9.421875 0 
z
M 9.421875 75.984375 
L 18.40625 75.984375 
L 18.40625 64.59375 
L 9.421875 64.59375 
z
" id="DejaVuSans-105"/>
      <path d="M 18.3125 70.21875 
L 18.3125 54.6875 
L 36.8125 54.6875 
L 36.8125 47.703125 
L 18.3125 47.703125 
L 18.3125 18.015625 
Q 18.3125 11.328125 20.140625 9.421875 
Q 21.96875 7.515625 27.59375 7.515625 
L 36.8125 7.515625 
L 36.8125 0 
L 27.59375 0 
Q 17.1875 0 13.234375 3.875 
Q 9.28125 7.765625 9.28125 18.015625 
L 9.28125 47.703125 
L 2.6875 47.703125 
L 2.6875 54.6875 
L 9.28125 54.6875 
L 9.28125 70.21875 
z
" id="DejaVuSans-116"/>
      <path d="M 45.40625 46.390625 
L 45.40625 75.984375 
L 54.390625 75.984375 
L 54.390625 0 
L 45.40625 0 
L 45.40625 8.203125 
Q 42.578125 3.328125 38.25 0.953125 
Q 33.9375 -1.421875 27.875 -1.421875 
Q 17.96875 -1.421875 11.734375 6.484375 
Q 5.515625 14.40625 5.515625 27.296875 
Q 5.515625 40.1875 11.734375 48.09375 
Q 17.96875 56 27.875 56 
Q 33.9375 56 38.25 53.625 
Q 42.578125 51.265625 45.40625 46.390625 
z
M 14.796875 27.296875 
Q 14.796875 17.390625 18.875 11.75 
Q 22.953125 6.109375 30.078125 6.109375 
Q 37.203125 6.109375 41.296875 11.75 
Q 45.40625 17.390625 45.40625 27.296875 
Q 45.40625 37.203125 41.296875 42.84375 
Q 37.203125 48.484375 30.078125 48.484375 
Q 22.953125 48.484375 18.875 42.84375 
Q 14.796875 37.203125 14.796875 27.296875 
z
" id="DejaVuSans-100"/>
     </defs>
     <g transform="translate(31.795312 200.150656)rotate(-90)scale(0.1 -0.1)">
      <use xlink:href="#DejaVuSans-65"/>
      <use x="68.408203" xlink:href="#DejaVuSans-109"/>
      <use x="165.820312" xlink:href="#DejaVuSans-112"/>
      <use x="229.296875" xlink:href="#DejaVuSans-108"/>
      <use x="257.080078" xlink:href="#DejaVuSans-105"/>
      <use x="284.863281" xlink:href="#DejaVuSans-116"/>
      <use x="324.072266" xlink:href="#DejaVuSans-117"/>
      <use x="387.451172" xlink:href="#DejaVuSans-100"/>
      <use x="450.927734" xlink:href="#DejaVuSans-101"/>
     </g>
    </g>
   </g>
   <g id="line2d_12">
    <path clip-path="url(#pbe4ebd518c)" d="M 73.832727 247.774489 
L 74.157707 240.622777 
L 74.482686 212.317432 
L 74.807666 252.08416 
L 75.132645 207.93591 
L 75.457625 237.798323 
L 75.782604 245.230994 
L 76.107584 217.188655 
L 76.432563 248.892805 
L 76.757543 263.183105 
L 77.082523 249.25304 
L 77.407502 223.311151 
L 77.732482 239.282707 
L 78.057461 235.119015 
L 78.382441 238.207851 
L 78.70742 262.297588 
L 79.0324 263.306752 
L 79.357379 213.357155 
L 79.682359 232.751531 
L 80.007338 271.447302 
L 80.332318 192.129582 
L 80.657297 231.789782 
L 80.982277 215.473357 
L 81.307256 237.964922 
L 81.632236 221.612147 
L 81.957215 245.164865 
L 82.282195 248.161575 
L 82.607174 286.099574 
L 82.932154 219.067843 
L 83.257133 221.779773 
L 83.582113 235.425022 
L 83.907093 201.339618 
L 84.232072 263.466516 
L 84.557052 174.273882 
L 85.207011 239.905028 
L 85.53199 260.323037 
L 85.85697 204.425907 
L 86.181949 237.889747 
L 86.831908 139.434639 
L 87.156888 231.57624 
L 87.806847 205.012513 
L 88.131826 237.02842 
L 88.781785 53.568 
L 89.106765 239.548468 
L 89.431744 236.021432 
L 89.756724 231.203571 
L 90.081704 216.817413 
L 90.406683 264.641066 
L 90.731663 250.52176 
L 91.056642 144.200184 
L 91.381622 240.000118 
L 91.706601 253.762468 
L 92.031581 290.081126 
L 92.35656 186.649353 
L 92.68154 222.632204 
L 93.006519 195.604951 
L 93.331499 197.640561 
L 93.656478 227.960016 
L 93.981458 281.666788 
L 94.306437 229.83279 
L 94.631417 214.169337 
L 94.956396 159.595899 
L 95.281376 203.306742 
L 95.606355 230.112231 
L 95.931335 285.748901 
L 96.581294 188.083286 
L 96.906274 236.379053 
L 97.231253 204.331116 
L 97.556233 207.89687 
L 97.881212 181.792132 
L 98.206192 262.717337 
L 98.531171 200.074696 
L 98.856151 291.746705 
L 99.18113 195.466808 
L 99.50611 217.390251 
L 99.831089 272.387108 
L 100.156069 257.589932 
L 100.481048 215.896503 
L 100.806028 290.103573 
L 101.131007 247.848931 
L 101.455987 182.56534 
L 101.780966 256.255975 
L 102.105946 202.753541 
L 102.430925 253.076461 
L 102.755905 267.37821 
L 103.080885 258.248779 
L 103.405864 207.161603 
L 103.730844 257.576311 
L 104.055823 278.118317 
L 104.705782 185.636631 
L 105.030762 240.454349 
L 105.355741 213.554343 
L 105.680721 149.00621 
L 106.0057 256.99424 
L 106.33068 191.759645 
L 106.655659 260.773111 
L 106.980639 220.699397 
L 107.305618 212.2493 
L 107.630598 216.68665 
L 107.955577 227.464916 
L 108.280557 262.955586 
L 108.605536 263.005679 
L 108.930516 276.962497 
L 109.580475 240.927875 
L 109.905455 230.322982 
L 110.230434 209.048345 
L 110.555414 214.342068 
L 110.880393 241.51517 
L 111.205373 294.115495 
L 111.530352 229.772946 
L 112.180311 284.493312 
L 112.505291 243.812232 
L 112.83027 255.438734 
L 113.15525 228.586438 
L 113.805209 264.139957 
L 114.130188 238.165893 
L 114.455168 257.72143 
L 114.780147 289.912108 
L 115.105127 229.08694 
L 115.430106 237.818487 
L 115.755086 259.414953 
L 116.080066 256.248827 
L 116.405045 264.757351 
L 116.730025 281.400546 
L 117.055004 232.139748 
L 117.379984 237.255881 
L 117.704963 218.231272 
L 118.029943 257.908024 
L 118.354922 258.031815 
L 118.679902 265.416174 
L 119.004881 225.285824 
L 119.329861 254.363867 
L 119.65484 245.243432 
L 119.97982 287.726921 
L 120.304799 222.393785 
L 120.629779 285.605147 
L 120.954758 244.837421 
L 121.279738 241.118266 
L 121.604717 258.574988 
L 121.929697 282.643195 
L 122.579656 246.463372 
L 122.904636 287.186486 
L 123.229615 240.915834 
L 123.554595 288.564184 
L 123.879574 241.855883 
L 124.204554 261.088393 
L 124.529533 268.957599 
L 124.854513 256.490023 
L 125.179492 254.596839 
L 125.504472 275.668359 
L 125.829451 258.527512 
L 126.154431 261.70473 
L 126.47941 287.431234 
L 126.80439 255.295344 
L 127.129369 277.166969 
L 127.454349 277.942776 
L 127.779328 285.553505 
L 128.104308 279.193908 
L 128.429287 278.889494 
L 128.754267 272.299829 
L 129.079247 225.779849 
L 129.404226 250.152072 
L 129.729206 253.270536 
L 130.379165 239.418252 
L 130.704144 255.452676 
L 131.029124 279.085161 
L 131.679083 280.390173 
L 132.004062 289.030767 
L 132.329042 287.525419 
L 132.654021 292.728287 
L 132.979001 251.514507 
L 133.30398 261.880986 
L 133.62896 243.530803 
L 133.953939 287.105467 
L 134.278919 276.413495 
L 134.603898 261.504523 
L 134.928878 282.571889 
L 135.253857 274.73455 
L 135.578837 279.671012 
L 135.903817 272.126973 
L 136.228796 270.865896 
L 136.553776 288.88447 
L 136.878755 284.0816 
L 137.203735 289.382094 
L 137.528714 267.099338 
L 137.853694 288.184903 
L 138.178673 260.337607 
L 138.503653 281.071933 
L 138.828632 278.222652 
L 139.153612 291.024922 
L 139.478591 270.62732 
L 140.12855 280.321308 
L 140.45353 274.052295 
L 140.778509 282.929838 
L 141.103489 280.482154 
L 141.428468 264.623783 
L 141.753448 275.540755 
L 142.078428 274.342416 
L 142.403407 286.104541 
L 142.728387 278.137979 
L 143.053366 288.202822 
L 143.378346 286.829552 
L 143.703325 283.768551 
L 144.028305 282.552743 
L 144.353284 286.400446 
L 144.678264 286.446354 
L 145.003243 278.128619 
L 145.328223 281.484259 
L 145.653202 289.929099 
L 145.978182 290.280499 
L 146.303161 277.768948 
L 146.628141 288.306941 
L 146.95312 290.028813 
L 147.2781 280.564446 
L 147.928059 290.753149 
L 148.253038 287.521589 
L 148.902998 293.575065 
L 149.227977 287.426542 
L 149.552957 289.445742 
L 149.877936 284.541377 
L 150.202916 286.751958 
L 150.527895 291.052121 
L 150.852875 293.037273 
L 151.177854 289.294848 
L 151.502834 290.144793 
L 151.827813 293.870189 
L 152.152793 285.172018 
L 152.477772 293.559511 
L 153.127731 291.617926 
L 153.452711 292.783937 
L 153.77769 292.955935 
L 154.10267 294.031392 
L 154.427649 292.877468 
L 154.752629 293.677729 
L 155.077609 293.597791 
L 155.402588 293.707508 
L 155.727568 293.386934 
L 156.052547 293.392394 
L 156.377527 294.100787 
L 156.702506 292.699132 
L 157.027486 293.271866 
L 157.352465 291.114315 
L 157.677445 294.251732 
L 158.002424 292.769365 
L 158.327404 289.837912 
L 158.652383 295.122475 
L 158.977363 289.859616 
L 159.302342 293.157509 
L 159.627322 292.236623 
L 159.952301 287.758663 
L 160.277281 291.304713 
L 160.60226 292.669806 
L 160.92724 291.387892 
L 161.252219 288.648634 
L 161.577199 295.028758 
L 161.902179 294.308355 
L 162.227158 291.537473 
L 162.552138 281.937096 
L 162.877117 288.801182 
L 163.202097 289.386585 
L 163.527076 291.157603 
L 163.852056 291.45051 
L 164.177035 291.130363 
L 164.502015 295.233506 
L 164.826994 291.51834 
L 165.151974 286.227795 
L 165.476953 291.631875 
L 166.126912 282.611902 
L 166.451892 276.800659 
L 166.776871 282.959966 
L 167.101851 292.922752 
L 167.42683 274.808546 
L 167.75181 281.419393 
L 168.07679 278.016823 
L 168.401769 287.456292 
L 168.726749 283.470201 
L 169.051728 284.868843 
L 169.376708 282.024463 
L 169.701687 292.409167 
L 170.026667 276.1202 
L 170.351646 284.099448 
L 170.676626 284.175574 
L 171.001605 283.287701 
L 171.326585 273.567199 
L 171.651564 293.294055 
L 171.976544 275.43831 
L 172.301523 276.13451 
L 172.626503 286.599881 
L 172.951482 284.606627 
L 173.276462 276.892541 
L 173.601441 281.236141 
L 173.926421 287.757566 
L 174.2514 282.723211 
L 174.57638 295.158706 
L 174.90136 286.903709 
L 175.226339 274.226062 
L 175.551319 279.952263 
L 175.876298 269.33588 
L 176.201278 275.805131 
L 176.526257 277.35751 
L 176.851237 276.783154 
L 177.176216 268.169422 
L 177.501196 288.062529 
L 177.826175 294.979233 
L 178.151155 286.701441 
L 178.476134 274.165584 
L 178.801114 284.046064 
L 179.126093 267.981145 
L 179.451073 266.245537 
L 179.776052 275.763244 
L 180.101032 265.61885 
L 180.426011 279.808739 
L 180.750991 271.087482 
L 181.075971 269.511464 
L 181.40095 293.123213 
L 181.72593 282.738926 
L 182.050909 282.567106 
L 182.375889 269.480245 
L 182.700868 288.447904 
L 183.350827 277.125952 
L 183.675807 259.713383 
L 184.000786 280.88022 
L 184.325766 286.484497 
L 184.650745 270.035708 
L 184.975725 276.17479 
L 185.300704 273.325589 
L 185.625684 293.414301 
L 185.950663 277.065463 
L 186.275643 279.091556 
L 186.600622 255.256546 
L 186.925602 283.212678 
L 187.250581 260.097879 
L 187.575561 278.396516 
L 187.900541 264.596435 
L 188.22552 266.395661 
L 188.5505 274.770914 
L 188.875479 262.675294 
L 189.200459 287.485402 
L 189.525438 277.34479 
L 189.850418 285.707077 
L 190.175397 275.049813 
L 190.500377 256.198902 
L 190.825356 281.600044 
L 191.150336 276.791085 
L 191.475315 285.135593 
L 191.800295 275.621754 
L 192.125274 281.710502 
L 192.450254 290.18715 
L 192.775233 282.370566 
L 193.100213 281.504276 
L 193.425192 271.290704 
L 194.075152 282.130887 
L 194.400131 279.527946 
L 194.725111 273.327706 
L 195.05009 259.7506 
L 195.37507 281.470186 
L 195.700049 276.67278 
L 196.025029 274.177598 
L 196.350008 279.887921 
L 196.674988 282.266735 
L 196.999967 273.831974 
L 197.324947 281.889256 
L 197.649926 282.428516 
L 197.974906 275.021942 
L 198.299885 277.260493 
L 198.624865 287.973274 
L 198.949844 286.346898 
L 199.274824 259.352134 
L 199.599803 291.876515 
L 199.924783 288.075979 
L 200.574742 262.657503 
L 200.899722 275.335149 
L 201.224701 271.430644 
L 201.549681 290.350953 
L 201.87466 289.104777 
L 202.19964 274.967052 
L 202.524619 289.166496 
L 202.849599 253.321473 
L 203.174578 285.890328 
L 203.499558 240.368935 
L 203.824537 288.842161 
L 204.474496 280.509292 
L 204.799476 281.582544 
L 205.124455 265.044295 
L 205.774414 292.608074 
L 206.099394 283.788639 
L 206.424373 279.130575 
L 206.749353 279.151592 
L 207.074333 278.506928 
L 207.399312 288.688904 
L 207.724292 262.21875 
L 208.049271 293.143894 
L 208.374251 286.39435 
L 208.69923 285.00216 
L 209.02421 273.267856 
L 209.349189 290.159278 
L 209.674169 281.585084 
L 209.999148 291.299418 
L 210.324128 275.535622 
L 210.649107 285.598418 
L 210.974087 281.67173 
L 211.299066 279.681785 
L 211.624046 288.711356 
L 211.949025 280.881943 
L 212.274005 281.759384 
L 212.598984 285.110732 
L 212.923964 279.387459 
L 213.248943 286.591535 
L 213.573923 275.828859 
L 213.898903 273.920985 
L 214.223882 283.145394 
L 214.548862 275.546586 
L 214.873841 282.879202 
L 215.198821 285.15484 
L 215.5238 282.554002 
L 215.84878 286.915651 
L 216.173759 285.008626 
L 216.498739 285.436493 
L 216.823718 283.214655 
L 217.148698 290.563557 
L 217.473677 280.361374 
L 217.798657 284.674489 
L 218.123636 274.957549 
L 218.448616 284.412487 
L 218.773595 289.144511 
L 219.098575 279.62925 
L 219.423554 279.915301 
L 219.748534 292.980837 
L 220.073514 287.658063 
L 220.398493 288.841826 
L 220.723473 288.954278 
L 221.048452 284.464186 
L 221.373432 294.84809 
L 221.698411 285.722737 
L 222.023391 286.39829 
L 222.34837 289.931946 
L 222.67335 286.047789 
L 222.998329 284.205334 
L 223.323309 291.39722 
L 223.648288 293.56124 
L 223.973268 290.462533 
L 224.298247 282.404512 
L 224.948206 290.506866 
L 225.273186 291.804089 
L 225.598165 282.93493 
L 225.923145 290.74468 
L 226.573104 281.464548 
L 226.898084 292.229221 
L 227.223063 288.747502 
L 227.548043 292.113326 
L 227.873022 289.570692 
L 228.198002 290.353344 
L 228.522981 287.8799 
L 228.847961 287.797341 
L 229.17294 293.462757 
L 229.49792 289.536326 
L 229.822899 289.928101 
L 230.147879 291.066113 
L 230.472858 295.488 
L 231.122817 288.937489 
L 231.447797 294.463958 
L 231.772776 294.702499 
L 232.422735 290.696368 
L 233.072695 293.182635 
L 233.397674 293.914088 
L 234.047633 292.501894 
L 234.372613 292.287328 
L 234.697592 293.37058 
L 235.022572 293.595346 
L 235.347551 294.30191 
L 235.672531 293.846566 
L 235.99751 293.864106 
L 236.32249 293.696229 
L 236.647469 293.864106 
L 236.972449 293.846566 
L 237.297428 294.30191 
L 237.622408 293.595346 
L 237.947387 293.37058 
L 238.272367 292.287328 
L 238.597346 292.501894 
L 239.247305 293.914088 
L 239.572285 293.182635 
L 240.222244 290.696368 
L 240.872203 294.702499 
L 241.197183 294.463958 
L 241.522162 288.937489 
L 242.172121 295.488 
L 242.497101 291.066113 
L 242.82208 289.928101 
L 243.14706 289.536326 
L 243.472039 293.462757 
L 243.797019 287.797341 
L 244.121998 287.8799 
L 244.446978 290.353344 
L 244.771957 289.570692 
L 245.096937 292.113326 
L 245.421916 288.747502 
L 245.746896 292.229221 
L 246.071876 281.464548 
L 246.721835 290.74468 
L 247.046814 282.93493 
L 247.371794 291.804089 
L 247.696773 290.506866 
L 248.021753 287.259955 
L 248.346732 282.404512 
L 248.671712 290.462533 
L 248.996691 293.56124 
L 249.321671 291.39722 
L 249.64665 284.205334 
L 249.97163 286.047789 
L 250.296609 289.931946 
L 250.621589 286.39829 
L 250.946568 285.722737 
L 251.271548 294.84809 
L 251.596527 284.464186 
L 251.921507 288.954278 
L 252.246486 288.841826 
L 252.571466 287.658063 
L 252.896446 292.980837 
L 253.221425 279.915301 
L 253.546405 279.62925 
L 253.871384 289.144511 
L 254.196364 284.412487 
L 254.521343 274.957549 
L 254.846323 284.674489 
L 255.171302 280.361374 
L 255.496282 290.563557 
L 255.821261 283.214655 
L 256.146241 285.436493 
L 256.47122 285.008626 
L 256.7962 286.915651 
L 257.121179 282.554002 
L 257.446159 285.15484 
L 257.771138 282.879202 
L 258.096118 275.546586 
L 258.421097 283.145394 
L 258.746077 273.920985 
L 259.071057 275.828859 
L 259.396036 286.591535 
L 259.721016 279.387459 
L 260.045995 285.110732 
L 260.370975 281.759384 
L 260.695954 280.881943 
L 261.020934 288.711356 
L 261.345913 279.681785 
L 261.670893 281.67173 
L 261.995872 285.598418 
L 262.320852 275.535622 
L 262.645831 291.299418 
L 262.970811 281.585084 
L 263.29579 290.159278 
L 263.62077 273.267856 
L 263.945749 285.00216 
L 264.270729 286.39435 
L 264.595708 293.143894 
L 264.920688 262.21875 
L 265.245667 288.688904 
L 265.570647 278.506928 
L 265.895627 279.151592 
L 266.220606 279.130575 
L 266.545586 283.788639 
L 266.870565 292.608074 
L 267.520524 265.044295 
L 267.845504 281.582544 
L 268.170483 280.509292 
L 268.820442 288.842161 
L 269.145422 240.368935 
L 269.470401 285.890328 
L 269.795381 253.321473 
L 270.12036 289.166496 
L 270.44534 274.967052 
L 270.770319 289.104777 
L 271.095299 290.350953 
L 271.420278 271.430644 
L 271.745258 275.335149 
L 272.070238 262.657503 
L 272.720197 288.075979 
L 273.045176 291.876515 
L 273.370156 259.352134 
L 273.695135 286.346898 
L 274.020115 287.973274 
L 274.345094 277.260493 
L 274.670074 275.021942 
L 274.995053 282.428516 
L 275.320033 281.889256 
L 275.645012 273.831974 
L 275.969992 282.266735 
L 276.294971 279.887921 
L 276.619951 274.177598 
L 276.94493 276.67278 
L 277.26991 281.470186 
L 277.594889 259.7506 
L 277.919869 273.327706 
L 278.244848 279.527946 
L 278.569828 282.130887 
L 279.219787 271.290704 
L 279.544767 281.504276 
L 279.869746 282.370566 
L 280.194726 290.18715 
L 280.844685 275.621754 
L 281.169664 285.135593 
L 281.494644 276.791085 
L 281.819623 281.600044 
L 282.144603 256.198902 
L 282.469582 275.049813 
L 282.794562 285.707077 
L 283.119541 277.34479 
L 283.444521 287.485402 
L 283.7695 262.675294 
L 284.09448 274.770914 
L 284.419459 266.395661 
L 284.744439 264.596435 
L 285.069419 278.396516 
L 285.394398 260.097879 
L 285.719378 283.212678 
L 286.044357 255.256546 
L 286.369337 279.091556 
L 286.694316 277.065463 
L 287.019296 293.414301 
L 287.344275 273.325589 
L 287.669255 276.17479 
L 287.994234 270.035708 
L 288.319214 286.484497 
L 288.644193 280.88022 
L 288.969173 259.713383 
L 289.294152 277.125952 
L 289.944111 288.447904 
L 290.269091 269.480245 
L 290.59407 282.567106 
L 290.91905 282.738926 
L 291.244029 293.123213 
L 291.569009 269.511464 
L 291.893989 271.087482 
L 292.218968 279.808739 
L 292.543948 265.61885 
L 292.868927 275.763244 
L 293.193907 266.245537 
L 293.518886 267.981145 
L 293.843866 284.046064 
L 294.168845 274.165584 
L 294.818804 294.979233 
L 295.143784 288.062529 
L 295.468763 268.169422 
L 295.793743 276.783154 
L 296.118722 277.35751 
L 296.443702 275.805131 
L 296.768681 269.33588 
L 297.093661 279.952263 
L 297.41864 274.226062 
L 297.74362 286.903709 
L 298.0686 295.158706 
L 298.393579 282.723211 
L 298.718559 287.757566 
L 299.368518 276.892541 
L 299.693497 284.606627 
L 300.018477 286.599881 
L 300.343456 276.13451 
L 300.668436 275.43831 
L 300.993415 293.294055 
L 301.318395 273.567199 
L 301.643374 283.287701 
L 301.968354 284.175574 
L 302.293333 284.099448 
L 302.618313 276.1202 
L 302.943292 292.409167 
L 303.268272 282.024463 
L 303.593251 284.868843 
L 303.918231 283.470201 
L 304.24321 287.456292 
L 304.56819 278.016823 
L 304.89317 281.419393 
L 305.218149 274.808546 
L 305.543129 292.922752 
L 305.868108 282.959966 
L 306.193088 276.800659 
L 306.843047 287.679201 
L 307.168026 291.631875 
L 307.493006 286.227795 
L 308.142965 295.233506 
L 308.467944 291.130363 
L 308.792924 291.45051 
L 309.117903 291.157603 
L 309.442883 289.386585 
L 309.767862 288.801182 
L 310.092842 281.937096 
L 310.417821 291.537473 
L 310.742801 294.308355 
L 311.067781 295.028758 
L 311.39276 288.648634 
L 311.71774 291.387892 
L 312.042719 292.669806 
L 312.367699 291.304713 
L 312.692678 287.758663 
L 313.017658 292.236623 
L 313.342637 293.157509 
L 313.667617 289.859616 
L 313.992596 295.122475 
L 314.317576 289.837912 
L 314.642555 292.769365 
L 314.967535 294.251732 
L 315.292514 291.114315 
L 315.617494 293.271866 
L 315.942473 292.699132 
L 316.267453 294.100787 
L 316.592432 293.392394 
L 316.917412 293.386934 
L 317.242391 293.707508 
L 317.567371 293.597791 
L 317.892351 293.677729 
L 318.21733 292.877468 
L 318.54231 294.031392 
L 318.867289 292.955935 
L 319.192269 292.783937 
L 319.517248 291.617926 
L 320.167207 293.559511 
L 320.492187 285.172018 
L 320.817166 293.870189 
L 321.142146 290.144793 
L 321.467125 289.294848 
L 321.792105 293.037273 
L 322.117084 291.052121 
L 322.442064 286.751958 
L 322.767043 284.541377 
L 323.092023 289.445742 
L 323.417002 287.426542 
L 323.741982 293.575065 
L 324.391941 287.521589 
L 324.716921 290.753149 
L 325.36688 280.564446 
L 325.691859 290.028813 
L 326.016839 288.306941 
L 326.341818 277.768948 
L 326.666798 290.280499 
L 326.991777 289.929099 
L 327.316757 281.484259 
L 327.641736 278.128619 
L 327.966716 286.446354 
L 328.291695 286.400446 
L 328.616675 282.552743 
L 328.941654 283.768551 
L 329.266634 286.829552 
L 329.591613 288.202822 
L 329.916593 278.137979 
L 330.241572 286.104541 
L 330.566552 274.342416 
L 330.891532 275.540755 
L 331.216511 264.623783 
L 331.541491 280.482154 
L 331.86647 282.929838 
L 332.19145 274.052295 
L 332.516429 280.321308 
L 332.841409 276.398733 
L 333.166388 270.62732 
L 333.491368 291.024922 
L 333.816347 278.222652 
L 334.141327 281.071933 
L 334.466306 260.337607 
L 334.791286 288.184903 
L 335.116265 267.099338 
L 335.441245 289.382094 
L 335.766224 284.0816 
L 336.091204 288.88447 
L 336.416183 270.865896 
L 336.741163 272.126973 
L 337.066143 279.671012 
L 337.391122 274.73455 
L 337.716102 282.571889 
L 338.041081 261.504523 
L 338.69104 287.105467 
L 339.01602 243.530803 
L 339.340999 261.880986 
L 339.665979 251.514507 
L 339.990958 292.728287 
L 340.315938 287.525419 
L 340.640917 289.030767 
L 340.965897 280.390173 
L 341.615856 279.085161 
L 342.265815 239.418252 
L 342.915774 253.270536 
L 343.240753 250.152072 
L 343.565733 225.779849 
L 343.890713 272.299829 
L 344.215692 278.889494 
L 344.540672 279.193908 
L 344.865651 285.553505 
L 345.190631 277.942776 
L 345.51561 277.166969 
L 345.84059 255.295344 
L 346.165569 287.431234 
L 346.490549 261.70473 
L 346.815528 258.527512 
L 347.140508 275.668359 
L 347.465487 254.596839 
L 347.790467 256.490023 
L 348.115446 268.957599 
L 348.440426 261.088393 
L 348.765405 241.855883 
L 349.090385 288.564184 
L 349.415364 240.915834 
L 349.740344 287.186486 
L 350.065324 246.463372 
L 350.715283 282.643195 
L 351.365242 241.118266 
L 351.690221 244.837421 
L 352.015201 285.605147 
L 352.34018 222.393785 
L 352.66516 287.726921 
L 352.990139 245.243432 
L 353.315119 254.363867 
L 353.640098 225.285824 
L 353.965078 265.416174 
L 354.290057 258.031815 
L 354.615037 257.908024 
L 354.940016 218.231272 
L 355.264996 237.255881 
L 355.589975 232.139748 
L 355.914955 281.400546 
L 356.239934 264.757351 
L 356.564914 256.248827 
L 356.889894 259.414953 
L 357.214873 237.818487 
L 357.539853 229.08694 
L 357.864832 289.912108 
L 358.189812 257.72143 
L 358.514791 238.165893 
L 358.839771 264.139957 
L 359.48973 228.586438 
L 359.814709 255.438734 
L 360.139689 243.812232 
L 360.464668 284.493312 
L 361.114627 229.772946 
L 361.439607 294.115495 
L 361.764586 241.51517 
L 362.089566 214.342068 
L 362.414545 209.048345 
L 362.739525 230.322982 
L 363.064505 240.927875 
L 363.714464 276.962497 
L 364.039443 263.005679 
L 364.364423 262.955586 
L 364.689402 227.464916 
L 365.014382 216.68665 
L 365.339361 212.2493 
L 365.664341 220.699397 
L 365.98932 260.773111 
L 366.3143 191.759645 
L 366.639279 256.99424 
L 366.964259 149.00621 
L 367.289238 213.554343 
L 367.614218 240.454349 
L 367.939197 185.636631 
L 368.589156 278.118317 
L 368.914136 257.576311 
L 369.239115 207.161603 
L 369.564095 258.248779 
L 369.889075 267.37821 
L 370.214054 253.076461 
L 370.539034 202.753541 
L 370.864013 256.255975 
L 371.188993 182.56534 
L 371.513972 247.848931 
L 371.838952 290.103573 
L 372.163931 215.896503 
L 372.488911 257.589932 
L 372.81389 272.387108 
L 373.13887 217.390251 
L 373.463849 195.466808 
L 373.788829 291.746705 
L 374.113808 200.074696 
L 374.438788 262.717337 
L 374.763767 181.792132 
L 375.088747 207.89687 
L 375.413726 204.331116 
L 375.738706 236.379053 
L 376.063686 188.083286 
L 376.713645 285.748901 
L 377.038624 230.112231 
L 377.363604 203.306742 
L 377.688583 159.595899 
L 378.013563 214.169337 
L 378.338542 229.83279 
L 378.663522 281.666788 
L 378.988501 227.960016 
L 379.313481 197.640561 
L 379.63846 195.604951 
L 379.96344 222.632204 
L 380.288419 186.649353 
L 380.613399 290.081126 
L 380.938378 253.762468 
L 381.263358 240.000118 
L 381.588337 144.200184 
L 381.913317 250.52176 
L 382.238296 264.641066 
L 382.563276 216.817413 
L 382.888256 231.203571 
L 383.538215 239.548468 
L 383.863194 53.568 
L 384.513153 237.02842 
L 384.838133 205.012513 
L 385.488092 231.57624 
L 385.813071 139.434639 
L 386.46303 237.889747 
L 386.78801 204.425907 
L 387.112989 260.323037 
L 387.762948 213.314605 
L 388.087928 174.273882 
L 388.412907 263.466516 
L 388.737887 201.339618 
L 389.062867 235.425022 
L 389.387846 221.779773 
L 389.712826 219.067843 
L 390.037805 286.099574 
L 390.362785 248.161575 
L 390.687764 245.164865 
L 391.012744 221.612147 
L 391.337723 237.964922 
L 391.662703 215.473357 
L 391.987682 231.789782 
L 392.312662 192.129582 
L 392.637641 271.447302 
L 392.962621 232.751531 
L 393.2876 213.357155 
L 393.61258 263.306752 
L 393.937559 262.297588 
L 394.262539 238.207851 
L 394.587518 235.119015 
L 394.912498 239.282707 
L 395.237477 223.311151 
L 395.562457 249.25304 
L 395.887437 263.183105 
L 396.212416 248.892805 
L 396.537396 217.188655 
L 396.862375 245.230994 
L 397.187355 237.798323 
L 397.512334 207.93591 
L 397.837314 252.08416 
L 398.162293 212.317432 
L 398.487273 240.622777 
L 398.487273 240.622777 
" style="fill:none;stroke:#1f77b4;stroke-linecap:square;stroke-width:1.5;"/>
   </g>
   <g id="patch_3">
    <path d="M 57.6 307.584 
L 57.6 41.472 
" style="fill:none;stroke:#000000;stroke-linecap:square;stroke-linejoin:miter;stroke-width:0.8;"/>
   </g>
   <g id="patch_4">
    <path d="M 414.72 307.584 
L 414.72 41.472 
" style="fill:none;stroke:#000000;stroke-linecap:square;stroke-linejoin:miter;stroke-width:0.8;"/>
   </g>
   <g id="patch_5">
    <path d="M 57.6 307.584 
L 414.72 307.584 
" style="fill:none;stroke:#000000;stroke-linecap:square;stroke-linejoin:miter;stroke-width:0.8;"/>
   </g>
   <g id="patch_6">
    <path d="M 57.6 41.472 
L 414.72 41.472 
" style="fill:none;stroke:#000000;stroke-linecap:square;stroke-linejoin:miter;stroke-width:0.8;"/>
   </g>
   <g id="text_14">
    <!-- Frequency domain - averaging filter 1/4 (Noise) -->
    <defs>
     <path d="M 30.609375 48.390625 
Q 23.390625 48.390625 19.1875 42.75 
Q 14.984375 37.109375 14.984375 27.296875 
Q 14.984375 17.484375 19.15625 11.84375 
Q 23.34375 6.203125 30.609375 6.203125 
Q 37.796875 6.203125 41.984375 11.859375 
Q 46.1875 17.53125 46.1875 27.296875 
Q 46.1875 37.015625 41.984375 42.703125 
Q 37.796875 48.390625 30.609375 48.390625 
z
M 30.609375 56 
Q 42.328125 56 49.015625 48.375 
Q 55.71875 40.765625 55.71875 27.296875 
Q 55.71875 13.875 49.015625 6.21875 
Q 42.328125 -1.421875 30.609375 -1.421875 
Q 18.84375 -1.421875 12.171875 6.21875 
Q 5.515625 13.875 5.515625 27.296875 
Q 5.515625 40.765625 12.171875 48.375 
Q 18.84375 56 30.609375 56 
z
" id="DejaVuSans-111"/>
     <path d="M 34.28125 27.484375 
Q 23.390625 27.484375 19.1875 25 
Q 14.984375 22.515625 14.984375 16.5 
Q 14.984375 11.71875 18.140625 8.90625 
Q 21.296875 6.109375 26.703125 6.109375 
Q 34.1875 6.109375 38.703125 11.40625 
Q 43.21875 16.703125 43.21875 25.484375 
L 43.21875 27.484375 
z
M 52.203125 31.203125 
L 52.203125 0 
L 43.21875 0 
L 43.21875 8.296875 
Q 40.140625 3.328125 35.546875 0.953125 
Q 30.953125 -1.421875 24.3125 -1.421875 
Q 15.921875 -1.421875 10.953125 3.296875 
Q 6 8.015625 6 15.921875 
Q 6 25.140625 12.171875 29.828125 
Q 18.359375 34.515625 30.609375 34.515625 
L 43.21875 34.515625 
L 43.21875 35.40625 
Q 43.21875 41.609375 39.140625 45 
Q 35.0625 48.390625 27.6875 48.390625 
Q 23 48.390625 18.546875 47.265625 
Q 14.109375 46.140625 10.015625 43.890625 
L 10.015625 52.203125 
Q 14.9375 54.109375 19.578125 55.046875 
Q 24.21875 56 28.609375 56 
Q 40.484375 56 46.34375 49.84375 
Q 52.203125 43.703125 52.203125 31.203125 
z
" id="DejaVuSans-97"/>
     <path d="M 4.890625 31.390625 
L 31.203125 31.390625 
L 31.203125 23.390625 
L 4.890625 23.390625 
z
" id="DejaVuSans-45"/>
     <path d="M 2.984375 54.6875 
L 12.5 54.6875 
L 29.59375 8.796875 
L 46.6875 54.6875 
L 56.203125 54.6875 
L 35.6875 0 
L 23.484375 0 
z
" id="DejaVuSans-118"/>
     <path d="M 45.40625 27.984375 
Q 45.40625 37.75 41.375 43.109375 
Q 37.359375 48.484375 30.078125 48.484375 
Q 22.859375 48.484375 18.828125 43.109375 
Q 14.796875 37.75 14.796875 27.984375 
Q 14.796875 18.265625 18.828125 12.890625 
Q 22.859375 7.515625 30.078125 7.515625 
Q 37.359375 7.515625 41.375 12.890625 
Q 45.40625 18.265625 45.40625 27.984375 
z
M 54.390625 6.78125 
Q 54.390625 -7.171875 48.1875 -13.984375 
Q 42 -20.796875 29.203125 -20.796875 
Q 24.46875 -20.796875 20.265625 -20.09375 
Q 16.0625 -19.390625 12.109375 -17.921875 
L 12.109375 -9.1875 
Q 16.0625 -11.328125 19.921875 -12.34375 
Q 23.78125 -13.375 27.78125 -13.375 
Q 36.625 -13.375 41.015625 -8.765625 
Q 45.40625 -4.15625 45.40625 5.171875 
L 45.40625 9.625 
Q 42.625 4.78125 38.28125 2.390625 
Q 33.9375 0 27.875 0 
Q 17.828125 0 11.671875 7.65625 
Q 5.515625 15.328125 5.515625 27.984375 
Q 5.515625 40.671875 11.671875 48.328125 
Q 17.828125 56 27.875 56 
Q 33.9375 56 38.28125 53.609375 
Q 42.625 51.21875 45.40625 46.390625 
L 45.40625 54.6875 
L 54.390625 54.6875 
z
" id="DejaVuSans-103"/>
     <path d="M 37.109375 75.984375 
L 37.109375 68.5 
L 28.515625 68.5 
Q 23.6875 68.5 21.796875 66.546875 
Q 19.921875 64.59375 19.921875 59.515625 
L 19.921875 54.6875 
L 34.71875 54.6875 
L 34.71875 47.703125 
L 19.921875 47.703125 
L 19.921875 0 
L 10.890625 0 
L 10.890625 47.703125 
L 2.296875 47.703125 
L 2.296875 54.6875 
L 10.890625 54.6875 
L 10.890625 58.5 
Q 10.890625 67.625 15.140625 71.796875 
Q 19.390625 75.984375 28.609375 75.984375 
z
" id="DejaVuSans-102"/>
     <path d="M 25.390625 72.90625 
L 33.6875 72.90625 
L 8.296875 -9.28125 
L 0 -9.28125 
z
" id="DejaVuSans-47"/>
     <path d="M 9.8125 72.90625 
L 23.09375 72.90625 
L 55.421875 11.921875 
L 55.421875 72.90625 
L 64.984375 72.90625 
L 64.984375 0 
L 51.703125 0 
L 19.390625 60.984375 
L 19.390625 0 
L 9.8125 0 
z
" id="DejaVuSans-78"/>
     <path d="M 44.28125 53.078125 
L 44.28125 44.578125 
Q 40.484375 46.53125 36.375 47.5 
Q 32.28125 48.484375 27.875 48.484375 
Q 21.1875 48.484375 17.84375 46.4375 
Q 14.5 44.390625 14.5 40.28125 
Q 14.5 37.15625 16.890625 35.375 
Q 19.28125 33.59375 26.515625 31.984375 
L 29.59375 31.296875 
Q 39.15625 29.25 43.1875 25.515625 
Q 47.21875 21.78125 47.21875 15.09375 
Q 47.21875 7.46875 41.1875 3.015625 
Q 35.15625 -1.421875 24.609375 -1.421875 
Q 20.21875 -1.421875 15.453125 -0.5625 
Q 10.6875 0.296875 5.421875 2 
L 5.421875 11.28125 
Q 10.40625 8.6875 15.234375 7.390625 
Q 20.0625 6.109375 24.8125 6.109375 
Q 31.15625 6.109375 34.5625 8.28125 
Q 37.984375 10.453125 37.984375 14.40625 
Q 37.984375 18.0625 35.515625 20.015625 
Q 33.0625 21.96875 24.703125 23.78125 
L 21.578125 24.515625 
Q 13.234375 26.265625 9.515625 29.90625 
Q 5.8125 33.546875 5.8125 39.890625 
Q 5.8125 47.609375 11.28125 51.796875 
Q 16.75 56 26.8125 56 
Q 31.78125 56 36.171875 55.265625 
Q 40.578125 54.546875 44.28125 53.078125 
z
" id="DejaVuSans-115"/>
    </defs>
    <g transform="translate(93.9975 35.472)scale(0.12 -0.12)">
     <use xlink:href="#DejaVuSans-70"/>
     <use x="50.269531" xlink:href="#DejaVuSans-114"/>
     <use x="89.132812" xlink:href="#DejaVuSans-101"/>
     <use x="150.65625" xlink:href="#DejaVuSans-113"/>
     <use x="214.132812" xlink:href="#DejaVuSans-117"/>
     <use x="277.511719" xlink:href="#DejaVuSans-101"/>
     <use x="339.035156" xlink:href="#DejaVuSans-110"/>
     <use x="402.414062" xlink:href="#DejaVuSans-99"/>
     <use x="457.394531" xlink:href="#DejaVuSans-121"/>
     <use x="516.574219" xlink:href="#DejaVuSans-32"/>
     <use x="548.361328" xlink:href="#DejaVuSans-100"/>
     <use x="611.837891" xlink:href="#DejaVuSans-111"/>
     <use x="673.019531" xlink:href="#DejaVuSans-109"/>
     <use x="770.431641" xlink:href="#DejaVuSans-97"/>
     <use x="831.710938" xlink:href="#DejaVuSans-105"/>
     <use x="859.494141" xlink:href="#DejaVuSans-110"/>
     <use x="922.873047" xlink:href="#DejaVuSans-32"/>
     <use x="954.660156" xlink:href="#DejaVuSans-45"/>
     <use x="990.744141" xlink:href="#DejaVuSans-32"/>
     <use x="1022.53125" xlink:href="#DejaVuSans-97"/>
     <use x="1083.810547" xlink:href="#DejaVuSans-118"/>
     <use x="1142.990234" xlink:href="#DejaVuSans-101"/>
     <use x="1204.513672" xlink:href="#DejaVuSans-114"/>
     <use x="1245.626953" xlink:href="#DejaVuSans-97"/>
     <use x="1306.90625" xlink:href="#DejaVuSans-103"/>
     <use x="1370.382812" xlink:href="#DejaVuSans-105"/>
     <use x="1398.166016" xlink:href="#DejaVuSans-110"/>
     <use x="1461.544922" xlink:href="#DejaVuSans-103"/>
     <use x="1525.021484" xlink:href="#DejaVuSans-32"/>
     <use x="1556.808594" xlink:href="#DejaVuSans-102"/>
     <use x="1592.013672" xlink:href="#DejaVuSans-105"/>
     <use x="1619.796875" xlink:href="#DejaVuSans-108"/>
     <use x="1647.580078" xlink:href="#DejaVuSans-116"/>
     <use x="1686.789062" xlink:href="#DejaVuSans-101"/>
     <use x="1748.3125" xlink:href="#DejaVuSans-114"/>
     <use x="1789.425781" xlink:href="#DejaVuSans-32"/>
     <use x="1821.212891" xlink:href="#DejaVuSans-49"/>
     <use x="1884.835938" xlink:href="#DejaVuSans-47"/>
     <use x="1918.527344" xlink:href="#DejaVuSans-52"/>
     <use x="1982.150391" xlink:href="#DejaVuSans-32"/>
     <use x="2013.9375" xlink:href="#DejaVuSans-40"/>
     <use x="2052.951172" xlink:href="#DejaVuSans-78"/>
     <use x="2127.755859" xlink:href="#DejaVuSans-111"/>
     <use x="2188.9375" xlink:href="#DejaVuSans-105"/>
     <use x="2216.720703" xlink:href="#DejaVuSans-115"/>
     <use x="2268.820312" xlink:href="#DejaVuSans-101"/>
     <use x="2330.34375" xlink:href="#DejaVuSans-41"/>
    </g>
   </g>
  </g>
 </g>
 <defs>
  <clipPath id="pbe4ebd518c">
   <rect height="266.112" width="357.12" x="57.6" y="41.472"/>
  </clipPath>
 </defs>
</svg>
