<?xml version="1.0" encoding="utf-8" standalone="no"?>
<!DOCTYPE svg PUBLIC "-//W3C//DTD SVG 1.1//EN"
  "http://www.w3.org/Graphics/SVG/1.1/DTD/svg11.dtd">
<!-- Created with matplotlib (https://matplotlib.org/) -->
<svg height="345.6pt" version="1.1" viewBox="0 0 460.8 345.6" width="460.8pt" xmlns="http://www.w3.org/2000/svg" xmlns:xlink="http://www.w3.org/1999/xlink">
 <defs>
  <style type="text/css">
*{stroke-linecap:butt;stroke-linejoin:round;}
  </style>
 </defs>
 <g id="figure_1">
  <g id="patch_1">
   <path d="M 0 345.6 
L 460.8 345.6 
L 460.8 0 
L 0 0 
z
" style="fill:#ffffff;"/>
  </g>
  <g id="axes_1">
   <g id="patch_2">
    <path d="M 57.6 307.584 
L 414.72 307.584 
L 414.72 41.472 
L 57.6 41.472 
z
" style="fill:#ffffff;"/>
   </g>
   <g id="matplotlib.axis_1">
    <g id="xtick_1">
     <g id="line2d_1">
      <defs>
       <path d="M 0 0 
L 0 3.5 
" id="mb8ae2a0eaa" style="stroke:#000000;stroke-width:0.8;"/>
      </defs>
      <g>
       <use style="stroke:#000000;stroke-width:0.8;" x="73.832727" xlink:href="#mb8ae2a0eaa" y="307.584"/>
      </g>
     </g>
     <g id="text_1">
      <!-- 0 -->
      <defs>
       <path d="M 31.78125 66.40625 
Q 24.171875 66.40625 20.328125 58.90625 
Q 16.5 51.421875 16.5 36.375 
Q 16.5 21.390625 20.328125 13.890625 
Q 24.171875 6.390625 31.78125 6.390625 
Q 39.453125 6.390625 43.28125 13.890625 
Q 47.125 21.390625 47.125 36.375 
Q 47.125 51.421875 43.28125 58.90625 
Q 39.453125 66.40625 31.78125 66.40625 
z
M 31.78125 74.21875 
Q 44.046875 74.21875 50.515625 64.515625 
Q 56.984375 54.828125 56.984375 36.375 
Q 56.984375 17.96875 50.515625 8.265625 
Q 44.046875 -1.421875 31.78125 -1.421875 
Q 19.53125 -1.421875 13.0625 8.265625 
Q 6.59375 17.96875 6.59375 36.375 
Q 6.59375 54.828125 13.0625 64.515625 
Q 19.53125 74.21875 31.78125 74.21875 
z
" id="DejaVuSans-48"/>
      </defs>
      <g transform="translate(70.651477 322.182437)scale(0.1 -0.1)">
       <use xlink:href="#DejaVuSans-48"/>
      </g>
     </g>
    </g>
    <g id="xtick_2">
     <g id="line2d_2">
      <g>
       <use style="stroke:#000000;stroke-width:0.8;" x="138.776625" xlink:href="#mb8ae2a0eaa" y="307.584"/>
      </g>
     </g>
     <g id="text_2">
      <!-- 1000 -->
      <defs>
       <path d="M 12.40625 8.296875 
L 28.515625 8.296875 
L 28.515625 63.921875 
L 10.984375 60.40625 
L 10.984375 69.390625 
L 28.421875 72.90625 
L 38.28125 72.90625 
L 38.28125 8.296875 
L 54.390625 8.296875 
L 54.390625 0 
L 12.40625 0 
z
" id="DejaVuSans-49"/>
      </defs>
      <g transform="translate(126.051625 322.182437)scale(0.1 -0.1)">
       <use xlink:href="#DejaVuSans-49"/>
       <use x="63.623047" xlink:href="#DejaVuSans-48"/>
       <use x="127.246094" xlink:href="#DejaVuSans-48"/>
       <use x="190.869141" xlink:href="#DejaVuSans-48"/>
      </g>
     </g>
    </g>
    <g id="xtick_3">
     <g id="line2d_3">
      <g>
       <use style="stroke:#000000;stroke-width:0.8;" x="203.720523" xlink:href="#mb8ae2a0eaa" y="307.584"/>
      </g>
     </g>
     <g id="text_3">
      <!-- 2000 -->
      <defs>
       <path d="M 19.1875 8.296875 
L 53.609375 8.296875 
L 53.609375 0 
L 7.328125 0 
L 7.328125 8.296875 
Q 12.9375 14.109375 22.625 23.890625 
Q 32.328125 33.6875 34.8125 36.53125 
Q 39.546875 41.84375 41.421875 45.53125 
Q 43.3125 49.21875 43.3125 52.78125 
Q 43.3125 58.59375 39.234375 62.25 
Q 35.15625 65.921875 28.609375 65.921875 
Q 23.96875 65.921875 18.8125 64.3125 
Q 13.671875 62.703125 7.8125 59.421875 
L 7.8125 69.390625 
Q 13.765625 71.78125 18.9375 73 
Q 24.125 74.21875 28.421875 74.21875 
Q 39.75 74.21875 46.484375 68.546875 
Q 53.21875 62.890625 53.21875 53.421875 
Q 53.21875 48.921875 51.53125 44.890625 
Q 49.859375 40.875 45.40625 35.40625 
Q 44.1875 33.984375 37.640625 27.21875 
Q 31.109375 20.453125 19.1875 8.296875 
z
" id="DejaVuSans-50"/>
      </defs>
      <g transform="translate(190.995523 322.182437)scale(0.1 -0.1)">
       <use xlink:href="#DejaVuSans-50"/>
       <use x="63.623047" xlink:href="#DejaVuSans-48"/>
       <use x="127.246094" xlink:href="#DejaVuSans-48"/>
       <use x="190.869141" xlink:href="#DejaVuSans-48"/>
      </g>
     </g>
    </g>
    <g id="xtick_4">
     <g id="line2d_4">
      <g>
       <use style="stroke:#000000;stroke-width:0.8;" x="268.664421" xlink:href="#mb8ae2a0eaa" y="307.584"/>
      </g>
     </g>
     <g id="text_4">
      <!-- 3000 -->
      <defs>
       <path d="M 40.578125 39.3125 
Q 47.65625 37.796875 51.625 33 
Q 55.609375 28.21875 55.609375 21.1875 
Q 55.609375 10.40625 48.1875 4.484375 
Q 40.765625 -1.421875 27.09375 -1.421875 
Q 22.515625 -1.421875 17.65625 -0.515625 
Q 12.796875 0.390625 7.625 2.203125 
L 7.625 11.71875 
Q 11.71875 9.328125 16.59375 8.109375 
Q 21.484375 6.890625 26.8125 6.890625 
Q 36.078125 6.890625 40.9375 10.546875 
Q 45.796875 14.203125 45.796875 21.1875 
Q 45.796875 27.640625 41.28125 31.265625 
Q 36.765625 34.90625 28.71875 34.90625 
L 20.21875 34.90625 
L 20.21875 43.015625 
L 29.109375 43.015625 
Q 36.375 43.015625 40.234375 45.921875 
Q 44.09375 48.828125 44.09375 54.296875 
Q 44.09375 59.90625 40.109375 62.90625 
Q 36.140625 65.921875 28.71875 65.921875 
Q 24.65625 65.921875 20.015625 65.03125 
Q 15.375 64.15625 9.8125 62.3125 
L 9.8125 71.09375 
Q 15.4375 72.65625 20.34375 73.4375 
Q 25.25 74.21875 29.59375 74.21875 
Q 40.828125 74.21875 47.359375 69.109375 
Q 53.90625 64.015625 53.90625 55.328125 
Q 53.90625 49.265625 50.4375 45.09375 
Q 46.96875 40.921875 40.578125 39.3125 
z
" id="DejaVuSans-51"/>
      </defs>
      <g transform="translate(255.939421 322.182437)scale(0.1 -0.1)">
       <use xlink:href="#DejaVuSans-51"/>
       <use x="63.623047" xlink:href="#DejaVuSans-48"/>
       <use x="127.246094" xlink:href="#DejaVuSans-48"/>
       <use x="190.869141" xlink:href="#DejaVuSans-48"/>
      </g>
     </g>
    </g>
    <g id="xtick_5">
     <g id="line2d_5">
      <g>
       <use style="stroke:#000000;stroke-width:0.8;" x="333.608319" xlink:href="#mb8ae2a0eaa" y="307.584"/>
      </g>
     </g>
     <g id="text_5">
      <!-- 4000 -->
      <defs>
       <path d="M 37.796875 64.3125 
L 12.890625 25.390625 
L 37.796875 25.390625 
z
M 35.203125 72.90625 
L 47.609375 72.90625 
L 47.609375 25.390625 
L 58.015625 25.390625 
L 58.015625 17.1875 
L 47.609375 17.1875 
L 47.609375 0 
L 37.796875 0 
L 37.796875 17.1875 
L 4.890625 17.1875 
L 4.890625 26.703125 
z
" id="DejaVuSans-52"/>
      </defs>
      <g transform="translate(320.883319 322.182437)scale(0.1 -0.1)">
       <use xlink:href="#DejaVuSans-52"/>
       <use x="63.623047" xlink:href="#DejaVuSans-48"/>
       <use x="127.246094" xlink:href="#DejaVuSans-48"/>
       <use x="190.869141" xlink:href="#DejaVuSans-48"/>
      </g>
     </g>
    </g>
    <g id="xtick_6">
     <g id="line2d_6">
      <g>
       <use style="stroke:#000000;stroke-width:0.8;" x="398.552217" xlink:href="#mb8ae2a0eaa" y="307.584"/>
      </g>
     </g>
     <g id="text_6">
      <!-- 5000 -->
      <defs>
       <path d="M 10.796875 72.90625 
L 49.515625 72.90625 
L 49.515625 64.59375 
L 19.828125 64.59375 
L 19.828125 46.734375 
Q 21.96875 47.46875 24.109375 47.828125 
Q 26.265625 48.1875 28.421875 48.1875 
Q 40.625 48.1875 47.75 41.5 
Q 54.890625 34.8125 54.890625 23.390625 
Q 54.890625 11.625 47.5625 5.09375 
Q 40.234375 -1.421875 26.90625 -1.421875 
Q 22.3125 -1.421875 17.546875 -0.640625 
Q 12.796875 0.140625 7.71875 1.703125 
L 7.71875 11.625 
Q 12.109375 9.234375 16.796875 8.0625 
Q 21.484375 6.890625 26.703125 6.890625 
Q 35.15625 6.890625 40.078125 11.328125 
Q 45.015625 15.765625 45.015625 23.390625 
Q 45.015625 31 40.078125 35.4375 
Q 35.15625 39.890625 26.703125 39.890625 
Q 22.75 39.890625 18.8125 39.015625 
Q 14.890625 38.140625 10.796875 36.28125 
z
" id="DejaVuSans-53"/>
      </defs>
      <g transform="translate(385.827217 322.182437)scale(0.1 -0.1)">
       <use xlink:href="#DejaVuSans-53"/>
       <use x="63.623047" xlink:href="#DejaVuSans-48"/>
       <use x="127.246094" xlink:href="#DejaVuSans-48"/>
       <use x="190.869141" xlink:href="#DejaVuSans-48"/>
      </g>
     </g>
    </g>
   </g>
   <g id="matplotlib.axis_2">
    <g id="ytick_1">
     <g id="line2d_7">
      <defs>
       <path d="M 0 0 
L -3.5 0 
" id="m71cca8b340" style="stroke:#000000;stroke-width:0.8;"/>
      </defs>
      <g>
       <use style="stroke:#000000;stroke-width:0.8;" x="57.6" xlink:href="#m71cca8b340" y="299.445988"/>
      </g>
     </g>
     <g id="text_7">
      <!-- −0.0020 -->
      <defs>
       <path d="M 10.59375 35.5 
L 73.1875 35.5 
L 73.1875 27.203125 
L 10.59375 27.203125 
z
" id="DejaVuSans-8722"/>
       <path d="M 10.6875 12.40625 
L 21 12.40625 
L 21 0 
L 10.6875 0 
z
" id="DejaVuSans-46"/>
      </defs>
      <g transform="translate(7.229687 303.245206)scale(0.1 -0.1)">
       <use xlink:href="#DejaVuSans-8722"/>
       <use x="83.789062" xlink:href="#DejaVuSans-48"/>
       <use x="147.412109" xlink:href="#DejaVuSans-46"/>
       <use x="179.199219" xlink:href="#DejaVuSans-48"/>
       <use x="242.822266" xlink:href="#DejaVuSans-48"/>
       <use x="306.445312" xlink:href="#DejaVuSans-50"/>
       <use x="370.068359" xlink:href="#DejaVuSans-48"/>
      </g>
     </g>
    </g>
    <g id="ytick_2">
     <g id="line2d_8">
      <g>
       <use style="stroke:#000000;stroke-width:0.8;" x="57.6" xlink:href="#m71cca8b340" y="268.139981"/>
      </g>
     </g>
     <g id="text_8">
      <!-- −0.0015 -->
      <g transform="translate(7.229687 271.9392)scale(0.1 -0.1)">
       <use xlink:href="#DejaVuSans-8722"/>
       <use x="83.789062" xlink:href="#DejaVuSans-48"/>
       <use x="147.412109" xlink:href="#DejaVuSans-46"/>
       <use x="179.199219" xlink:href="#DejaVuSans-48"/>
       <use x="242.822266" xlink:href="#DejaVuSans-48"/>
       <use x="306.445312" xlink:href="#DejaVuSans-49"/>
       <use x="370.068359" xlink:href="#DejaVuSans-53"/>
      </g>
     </g>
    </g>
    <g id="ytick_3">
     <g id="line2d_9">
      <g>
       <use style="stroke:#000000;stroke-width:0.8;" x="57.6" xlink:href="#m71cca8b340" y="236.833974"/>
      </g>
     </g>
     <g id="text_9">
      <!-- −0.0010 -->
      <g transform="translate(7.229687 240.633193)scale(0.1 -0.1)">
       <use xlink:href="#DejaVuSans-8722"/>
       <use x="83.789062" xlink:href="#DejaVuSans-48"/>
       <use x="147.412109" xlink:href="#DejaVuSans-46"/>
       <use x="179.199219" xlink:href="#DejaVuSans-48"/>
       <use x="242.822266" xlink:href="#DejaVuSans-48"/>
       <use x="306.445312" xlink:href="#DejaVuSans-49"/>
       <use x="370.068359" xlink:href="#DejaVuSans-48"/>
      </g>
     </g>
    </g>
    <g id="ytick_4">
     <g id="line2d_10">
      <g>
       <use style="stroke:#000000;stroke-width:0.8;" x="57.6" xlink:href="#m71cca8b340" y="205.527968"/>
      </g>
     </g>
     <g id="text_10">
      <!-- −0.0005 -->
      <g transform="translate(7.229687 209.327186)scale(0.1 -0.1)">
       <use xlink:href="#DejaVuSans-8722"/>
       <use x="83.789062" xlink:href="#DejaVuSans-48"/>
       <use x="147.412109" xlink:href="#DejaVuSans-46"/>
       <use x="179.199219" xlink:href="#DejaVuSans-48"/>
       <use x="242.822266" xlink:href="#DejaVuSans-48"/>
       <use x="306.445312" xlink:href="#DejaVuSans-48"/>
       <use x="370.068359" xlink:href="#DejaVuSans-53"/>
      </g>
     </g>
    </g>
    <g id="ytick_5">
     <g id="line2d_11">
      <g>
       <use style="stroke:#000000;stroke-width:0.8;" x="57.6" xlink:href="#m71cca8b340" y="174.221961"/>
      </g>
     </g>
     <g id="text_11">
      <!-- 0.0000 -->
      <g transform="translate(15.609375 178.02118)scale(0.1 -0.1)">
       <use xlink:href="#DejaVuSans-48"/>
       <use x="63.623047" xlink:href="#DejaVuSans-46"/>
       <use x="95.410156" xlink:href="#DejaVuSans-48"/>
       <use x="159.033203" xlink:href="#DejaVuSans-48"/>
       <use x="222.65625" xlink:href="#DejaVuSans-48"/>
       <use x="286.279297" xlink:href="#DejaVuSans-48"/>
      </g>
     </g>
    </g>
    <g id="ytick_6">
     <g id="line2d_12">
      <g>
       <use style="stroke:#000000;stroke-width:0.8;" x="57.6" xlink:href="#m71cca8b340" y="142.915954"/>
      </g>
     </g>
     <g id="text_12">
      <!-- 0.0005 -->
      <g transform="translate(15.609375 146.715173)scale(0.1 -0.1)">
       <use xlink:href="#DejaVuSans-48"/>
       <use x="63.623047" xlink:href="#DejaVuSans-46"/>
       <use x="95.410156" xlink:href="#DejaVuSans-48"/>
       <use x="159.033203" xlink:href="#DejaVuSans-48"/>
       <use x="222.65625" xlink:href="#DejaVuSans-48"/>
       <use x="286.279297" xlink:href="#DejaVuSans-53"/>
      </g>
     </g>
    </g>
    <g id="ytick_7">
     <g id="line2d_13">
      <g>
       <use style="stroke:#000000;stroke-width:0.8;" x="57.6" xlink:href="#m71cca8b340" y="111.609948"/>
      </g>
     </g>
     <g id="text_13">
      <!-- 0.0010 -->
      <g transform="translate(15.609375 115.409166)scale(0.1 -0.1)">
       <use xlink:href="#DejaVuSans-48"/>
       <use x="63.623047" xlink:href="#DejaVuSans-46"/>
       <use x="95.410156" xlink:href="#DejaVuSans-48"/>
       <use x="159.033203" xlink:href="#DejaVuSans-48"/>
       <use x="222.65625" xlink:href="#DejaVuSans-49"/>
       <use x="286.279297" xlink:href="#DejaVuSans-48"/>
      </g>
     </g>
    </g>
    <g id="ytick_8">
     <g id="line2d_14">
      <g>
       <use style="stroke:#000000;stroke-width:0.8;" x="57.6" xlink:href="#m71cca8b340" y="80.303941"/>
      </g>
     </g>
     <g id="text_14">
      <!-- 0.0015 -->
      <g transform="translate(15.609375 84.10316)scale(0.1 -0.1)">
       <use xlink:href="#DejaVuSans-48"/>
       <use x="63.623047" xlink:href="#DejaVuSans-46"/>
       <use x="95.410156" xlink:href="#DejaVuSans-48"/>
       <use x="159.033203" xlink:href="#DejaVuSans-48"/>
       <use x="222.65625" xlink:href="#DejaVuSans-49"/>
       <use x="286.279297" xlink:href="#DejaVuSans-53"/>
      </g>
     </g>
    </g>
    <g id="ytick_9">
     <g id="line2d_15">
      <g>
       <use style="stroke:#000000;stroke-width:0.8;" x="57.6" xlink:href="#m71cca8b340" y="48.997934"/>
      </g>
     </g>
     <g id="text_15">
      <!-- 0.0020 -->
      <g transform="translate(15.609375 52.797153)scale(0.1 -0.1)">
       <use xlink:href="#DejaVuSans-48"/>
       <use x="63.623047" xlink:href="#DejaVuSans-46"/>
       <use x="95.410156" xlink:href="#DejaVuSans-48"/>
       <use x="159.033203" xlink:href="#DejaVuSans-48"/>
       <use x="222.65625" xlink:href="#DejaVuSans-50"/>
       <use x="286.279297" xlink:href="#DejaVuSans-48"/>
      </g>
     </g>
    </g>
   </g>
   <g id="line2d_16">
    <path clip-path="url(#p0c79e57928)" d="M 73.832727 173.924896 
L 73.897671 173.834725 
L 74.027559 174.301186 
L 74.092503 174.223608 
L 74.222391 173.933884 
L 74.417222 174.26155 
L 74.676998 174.232475 
L 74.741942 174.404431 
L 74.87183 175.157514 
L 75.001717 174.305514 
L 75.066661 174.679435 
L 75.196549 176.1424 
L 75.326437 174.499149 
L 75.391381 174.901612 
L 75.521269 176.342148 
L 75.651156 174.500417 
L 75.7161 174.510773 
L 75.781044 174.743296 
L 75.975876 173.547288 
L 76.170708 169.509817 
L 76.235651 170.014768 
L 76.300595 170.791464 
L 76.495427 162.455414 
L 76.560371 164.213751 
L 76.625315 166.178732 
L 76.820147 156.503267 
L 76.88509 158.979131 
L 76.950034 161.415439 
L 77.014978 160.050503 
L 77.144866 156.941527 
L 77.664417 174.733725 
L 77.794305 197.591347 
L 77.859249 193.914601 
L 77.924193 189.506456 
L 78.119025 241.055771 
L 78.183968 233.897038 
L 78.248912 226.306793 
L 78.443744 294.84342 
L 78.508688 285.410314 
L 78.573632 276.142376 
L 78.638576 295.488 
L 78.70352 53.740912 
L 78.768464 72.949556 
L 78.898351 53.568 
L 79.093183 122.527391 
L 79.158127 114.76055 
L 79.223071 107.09126 
L 79.417902 159.058081 
L 79.482846 154.443138 
L 79.54779 150.480284 
L 79.742622 179.436778 
L 79.807566 178.394854 
L 79.87251 178.33997 
L 80.197229 191.236541 
L 80.262173 190.411069 
L 80.392061 185.846782 
L 80.521949 190.969283 
L 80.586893 188.935147 
L 80.71678 181.496592 
L 80.846668 185.546921 
L 81.0415 177.92812 
L 81.106444 178.354256 
L 81.171388 179.079105 
L 81.561051 174.042508 
L 81.625995 174.729639 
L 81.690939 174.691677 
L 81.820827 173.010835 
L 81.885771 173.043277 
L 82.015658 174.962764 
L 82.53521 168.201162 
L 82.600153 168.885137 
L 82.924873 174.152751 
L 82.989817 173.940249 
L 83.249592 172.422694 
L 83.314536 172.640077 
L 83.444424 174.967263 
L 83.509368 173.963054 
L 83.574312 174.336951 
L 83.834088 178.915234 
L 83.963975 178.295559 
L 84.223751 183.723232 
L 84.288695 182.291491 
L 84.353639 182.480894 
L 84.613414 193.322838 
L 84.678358 193.293754 
L 84.808246 186.642652 
L 85.003078 132.82807 
L 85.132966 100.597492 
L 85.457685 192.566202 
L 85.522629 189.046548 
L 85.652517 181.986146 
L 85.847348 185.448283 
L 85.977236 181.96053 
L 86.04218 182.2673 
L 86.107124 182.131189 
L 86.3669 177.580996 
L 86.431843 177.723288 
L 86.496787 177.846948 
L 86.561731 177.553731 
L 86.756563 173.747717 
L 86.821507 174.079893 
L 86.886451 174.569698 
L 86.951395 174.219699 
L 87.146226 172.209471 
L 87.21117 172.458525 
L 87.276114 172.331497 
L 87.406002 172.604272 
L 87.470946 172.321895 
L 87.600834 174.114313 
L 87.730721 173.803819 
L 87.860609 173.601798 
L 87.990497 174.288492 
L 88.055441 174.135639 
L 88.120385 174.741574 
L 88.250273 174.088018 
L 88.445104 175.091202 
L 88.510048 175.063739 
L 88.70488 175.602963 
L 88.834768 174.688491 
L 88.899712 174.912236 
L 88.964655 174.824424 
L 89.094543 175.073208 
L 89.159487 174.368073 
L 89.224431 174.548264 
L 89.419263 174.088056 
L 89.484207 173.960805 
L 89.549151 174.402465 
L 89.679038 172.59853 
L 89.743982 173.348198 
L 90.068702 171.563428 
L 90.133646 171.268512 
L 90.263533 172.06825 
L 90.328477 171.959021 
L 90.458365 172.660209 
L 90.783085 176.201159 
L 90.848029 176.176107 
L 90.977916 176.667641 
L 91.107804 175.662037 
L 91.172748 176.31123 
L 91.237692 176.066274 
L 91.36758 176.898979 
L 91.432524 176.749278 
L 91.627355 174.532336 
L 91.757243 175.112064 
L 92.081963 173.252241 
L 92.21185 174.316234 
L 92.471626 173.103832 
L 92.601514 174.592839 
L 92.731402 172.77934 
L 92.796345 173.450575 
L 92.991177 174.941681 
L 93.121065 174.270611 
L 93.250953 173.359251 
L 93.445784 175.337232 
L 93.510728 175.177338 
L 93.640616 173.369224 
L 93.70556 174.117167 
L 93.770504 173.382795 
L 93.835448 173.751982 
L 93.965336 175.272423 
L 94.095223 173.988669 
L 94.225111 174.509587 
L 94.354999 174.14003 
L 94.419943 174.991265 
L 94.484887 174.632776 
L 94.549831 173.308824 
L 94.614775 174.287003 
L 94.679718 173.985982 
L 94.744662 173.516206 
L 94.87455 175.190121 
L 94.939494 174.808766 
L 95.004438 174.854185 
L 95.069382 174.738368 
L 95.19927 173.663024 
L 95.264214 173.95434 
L 95.329157 173.586501 
L 95.459045 174.200472 
L 95.523989 173.679192 
L 95.588933 173.920201 
L 95.653877 174.12416 
L 95.718821 173.85561 
L 95.783765 174.212608 
L 95.848709 174.138864 
L 95.913653 174.176655 
L 96.04354 174.768085 
L 96.108484 174.420739 
L 96.173428 175.27193 
L 96.238372 174.915668 
L 96.433204 173.437336 
L 96.498148 173.460376 
L 96.628035 174.740303 
L 96.757923 173.227582 
L 96.822867 174.161683 
L 96.887811 174.085261 
L 96.952755 174.31486 
L 97.017699 175.547932 
L 97.082643 175.346951 
L 97.147587 175.233632 
L 97.212531 174.513369 
L 97.277474 174.623028 
L 97.407362 176.198661 
L 97.53725 175.087911 
L 97.602194 175.359912 
L 97.667138 175.569931 
L 97.732082 176.321296 
L 97.797026 175.461264 
L 97.861969 175.605743 
L 97.926913 175.448809 
L 98.056801 172.743921 
L 98.121745 173.189254 
L 98.381521 168.618155 
L 98.511408 170.362784 
L 98.641296 172.334067 
L 98.771184 171.459841 
L 98.836128 173.243035 
L 98.901072 172.559323 
L 99.290735 174.578089 
L 99.745343 179.918191 
L 99.810286 178.724678 
L 99.87523 179.93495 
L 100.005118 184.617833 
L 100.135006 183.404472 
L 100.394782 193.48585 
L 100.459725 193.44265 
L 100.524669 191.849841 
L 100.654557 177.457995 
L 100.979277 104.066464 
L 101.303996 194.740325 
L 101.498828 183.010798 
L 101.628716 186.57616 
L 101.888491 181.329035 
L 101.953435 183.228679 
L 102.018379 182.020889 
L 102.278155 176.552693 
L 102.343098 178.084979 
L 102.667818 173.466004 
L 102.732762 174.244314 
L 102.797706 174.002055 
L 102.927594 172.282457 
L 102.992537 171.91915 
L 103.057481 172.141562 
L 103.187369 173.921776 
L 103.317257 171.650064 
L 103.382201 172.020324 
L 103.447145 171.67492 
L 103.836808 174.860318 
L 103.901752 174.37992 
L 103.966696 173.012484 
L 104.03164 173.27621 
L 104.096584 175.358225 
L 104.161528 175.084173 
L 104.226471 175.207658 
L 104.291415 176.516545 
L 104.356359 176.055666 
L 104.486247 175.299295 
L 104.551191 175.316539 
L 104.681079 177.057119 
L 104.810967 173.790262 
L 104.940854 175.604043 
L 105.005798 174.748364 
L 105.070742 174.614854 
L 105.135686 176.071213 
L 105.20063 175.15551 
L 105.330518 172.215173 
L 105.460406 174.773249 
L 105.590293 172.391095 
L 105.655237 172.660683 
L 105.850069 170.782307 
L 105.915013 170.81204 
L 105.979957 171.366487 
L 106.044901 170.178342 
L 106.174788 172.939705 
L 106.239732 172.26631 
L 106.36962 175.207787 
L 106.434564 173.917792 
L 106.499508 174.0614 
L 106.629396 175.759524 
L 106.69434 174.14637 
L 106.759283 174.54694 
L 106.889171 178.105488 
L 106.954115 177.701351 
L 107.019059 177.927124 
L 107.148947 175.907924 
L 107.278835 176.428964 
L 107.473666 174.339949 
L 107.53861 172.460461 
L 107.603554 172.603077 
L 107.86333 175.90177 
L 108.188049 172.402879 
L 108.252993 172.60395 
L 108.317937 173.935225 
L 108.382881 173.308248 
L 108.512769 173.036769 
L 108.642657 174.190881 
L 108.7076 172.990767 
L 108.837488 175.797504 
L 109.03232 173.479047 
L 109.162208 174.053954 
L 109.227152 176.017258 
L 109.357039 172.319232 
L 109.421983 172.607435 
L 109.551871 172.653599 
L 109.681759 177.552545 
L 109.746703 177.141859 
L 109.876591 174.109448 
L 109.941534 174.385777 
L 110.006478 173.007587 
L 110.071422 173.022361 
L 110.20131 174.629814 
L 110.266254 174.44576 
L 110.396142 172.735367 
L 110.590973 174.014706 
L 110.720861 173.522732 
L 110.785805 174.572003 
L 110.850749 174.184006 
L 110.915693 173.586617 
L 111.045581 175.523628 
L 111.110525 175.355704 
L 111.175469 175.328869 
L 111.240412 174.556366 
L 111.305356 175.655655 
L 111.3703 174.928482 
L 111.500188 171.932757 
L 111.565132 172.264037 
L 111.630076 171.966902 
L 111.824908 175.553942 
L 111.889851 175.918816 
L 111.954795 175.750926 
L 112.019739 175.624802 
L 112.084683 175.125959 
L 112.214571 177.246673 
L 112.344459 174.330983 
L 112.604234 176.409032 
L 112.669178 176.241162 
L 112.799066 175.155807 
L 112.928954 171.818673 
L 112.993898 172.417913 
L 113.253673 170.563537 
L 113.383561 169.820827 
L 113.448505 169.1742 
L 113.513449 169.231779 
L 113.838168 173.703915 
L 113.903112 172.39633 
L 113.968056 172.510606 
L 114.227832 176.420821 
L 114.35772 176.329134 
L 114.422663 176.623332 
L 114.617495 179.553141 
L 114.682439 179.419835 
L 114.812327 180.143605 
L 114.942215 186.709423 
L 115.007159 185.093973 
L 115.072102 183.56324 
L 115.137046 184.689479 
L 115.396822 196.29656 
L 115.52671 187.418759 
L 115.656598 166.208729 
L 115.916373 100.88118 
L 116.111205 167.545391 
L 116.241093 195.37615 
L 116.306036 193.195001 
L 116.435924 182.79852 
L 116.630756 187.451362 
L 116.825588 181.887901 
L 116.890532 182.832905 
L 117.215251 177.640614 
L 117.280195 177.286572 
L 117.345139 177.70756 
L 117.604914 173.385364 
L 117.734802 174.011662 
L 117.799746 173.721694 
L 117.86469 172.497085 
L 117.929634 172.556212 
L 117.994578 173.231817 
L 118.059522 172.749607 
L 118.124466 171.46119 
L 118.18941 172.067836 
L 118.254353 172.938347 
L 118.319297 172.549651 
L 118.384241 172.253645 
L 118.514129 174.082593 
L 118.644017 173.065664 
L 118.773905 174.050942 
L 118.838848 173.469517 
L 118.903792 173.525119 
L 119.228512 175.067907 
L 119.293456 174.83262 
L 119.3584 174.937802 
L 119.423344 175.447857 
L 119.618175 174.837515 
L 119.683119 175.421857 
L 119.748063 175.333429 
L 119.813007 175.307959 
L 119.942895 175.879152 
L 120.332558 173.410906 
L 120.462446 172.399658 
L 120.52739 172.784113 
L 120.722222 171.801465 
L 120.852109 171.060703 
L 120.981997 170.149332 
L 121.371661 175.737114 
L 121.436604 175.488734 
L 121.631436 177.0296 
L 121.69638 176.537964 
L 121.761324 176.168794 
L 121.891212 176.902367 
L 121.956156 175.983665 
L 122.021099 176.99987 
L 122.150987 174.553752 
L 122.215931 175.37716 
L 122.280875 175.576954 
L 122.475707 174.563242 
L 122.540651 174.726532 
L 122.670538 173.634386 
L 122.735482 174.329151 
L 122.86537 172.996783 
L 122.930314 173.052087 
L 122.995258 173.131593 
L 123.19009 175.252318 
L 123.384921 173.525248 
L 123.449865 173.678988 
L 123.514809 173.447117 
L 123.579753 173.594614 
L 123.644697 174.676257 
L 123.709641 173.9784 
L 123.774585 173.606315 
L 123.969416 174.227607 
L 124.03436 174.312263 
L 124.099304 173.889347 
L 124.164248 174.302043 
L 124.229192 174.166732 
L 124.294136 174.18007 
L 124.35908 174.536697 
L 124.488968 173.727237 
L 124.553912 173.839995 
L 124.748743 174.410791 
L 124.813687 174.56172 
L 124.878631 174.178093 
L 125.073463 175.067695 
L 125.333238 172.962067 
L 125.52807 175.580226 
L 125.593014 175.267189 
L 125.722902 173.774895 
L 125.787846 173.963734 
L 125.852789 174.037181 
L 125.917733 173.939127 
L 125.982677 174.402319 
L 126.047621 174.356797 
L 126.112565 173.911173 
L 126.242453 175.767402 
L 126.307397 175.133012 
L 126.567172 173.027458 
L 126.69706 174.376301 
L 126.826948 173.726027 
L 126.891892 173.846959 
L 126.956836 173.795166 
L 127.02178 174.236281 
L 127.086724 174.082856 
L 127.151667 174.002854 
L 127.216611 173.661599 
L 127.281555 173.740068 
L 127.476387 174.871405 
L 127.606275 174.04549 
L 127.671219 174.086663 
L 127.801106 175.369813 
L 127.86605 174.960326 
L 128.060882 173.768612 
L 128.125826 174.268234 
L 128.19077 174.821203 
L 128.255714 174.61708 
L 128.320658 174.617357 
L 128.450545 174.157247 
L 128.645377 175.313906 
L 128.775265 174.996308 
L 128.905153 176.032222 
L 128.970097 175.760225 
L 129.099984 173.097747 
L 129.229872 169.947071 
L 129.294816 170.375297 
L 129.424704 170.107041 
L 129.489648 170.268793 
L 129.554592 169.872759 
L 129.814367 174.918532 
L 129.879311 173.971156 
L 130.009199 170.947808 
L 130.268975 175.80576 
L 130.333918 175.674585 
L 130.398862 175.581451 
L 130.52875 176.464536 
L 130.593694 178.317483 
L 130.658638 178.028588 
L 130.723582 178.093844 
L 130.85347 180.254062 
L 130.983357 184.487909 
L 131.048301 183.29516 
L 131.113245 183.399602 
L 131.437965 193.306709 
L 131.632796 177.946786 
L 131.892572 108.121022 
L 131.957516 110.208316 
L 132.217291 191.638362 
L 132.282235 190.481111 
L 132.412123 181.959119 
L 132.477067 182.323619 
L 132.606955 185.369136 
L 132.736843 182.294816 
L 132.801787 180.732776 
L 132.86673 181.51213 
L 132.931674 181.67971 
L 133.19145 176.825315 
L 133.321338 177.703992 
L 133.646057 173.763776 
L 133.711001 174.107204 
L 133.775945 173.829973 
L 133.970777 172.225384 
L 134.100664 173.391332 
L 134.230552 172.73852 
L 134.295496 172.767978 
L 134.36044 173.263742 
L 134.425384 172.711625 
L 134.490328 172.898379 
L 134.555272 172.945767 
L 134.879991 174.558971 
L 134.944935 174.681521 
L 135.009879 174.585299 
L 135.139767 174.559387 
L 135.204711 174.989693 
L 135.269655 174.63732 
L 135.334599 174.708231 
L 135.399542 174.978761 
L 135.52943 176.045392 
L 135.594374 175.327939 
L 135.659318 175.517131 
L 135.724262 175.705125 
L 135.984038 174.743652 
L 136.178869 173.575787 
L 136.308757 173.561507 
L 136.503589 171.567946 
L 136.568533 171.740775 
L 136.633477 172.040879 
L 136.828308 171.27393 
L 137.02314 171.076548 
L 137.412803 175.811105 
L 137.477747 176.703578 
L 137.542691 176.463963 
L 137.672579 175.820093 
L 137.867411 176.582181 
L 137.997298 177.401865 
L 138.646737 173.859387 
L 138.711681 174.383125 
L 138.841569 173.402003 
L 138.971457 173.844052 
L 139.101345 172.747711 
L 139.231232 173.951205 
L 139.296176 173.211293 
L 139.426064 174.296298 
L 139.491008 173.956902 
L 139.555952 173.374981 
L 139.620896 173.768201 
L 139.68584 173.45746 
L 139.750784 173.818083 
L 139.815728 173.783628 
L 139.880671 173.49621 
L 140.075503 175.057713 
L 140.140447 174.462114 
L 140.400223 173.574453 
L 140.53011 174.629865 
L 140.724942 174.063575 
L 140.789886 174.177636 
L 140.919774 174.935105 
L 141.049662 173.673014 
L 141.114605 173.689102 
L 141.309437 174.591553 
L 141.374381 174.326702 
L 141.439325 174.56443 
L 141.569213 173.542809 
L 141.764044 174.893875 
L 141.828988 174.792973 
L 141.958876 175.356871 
L 142.02382 175.085792 
L 142.34854 173.748046 
L 142.478427 174.516236 
L 142.543371 174.503331 
L 142.608315 174.218086 
L 142.738203 173.403658 
L 142.933035 174.277812 
L 143.127866 173.471541 
L 143.257754 174.69298 
L 143.322698 174.46968 
L 143.452586 174.80712 
L 143.582474 174.189328 
L 143.712361 174.990342 
L 143.972137 173.523867 
L 144.296856 174.969252 
L 144.426744 174.069194 
L 144.491688 174.026201 
L 144.556632 174.343259 
L 144.621576 173.828149 
L 144.751464 174.600463 
L 144.816408 174.247934 
L 144.881352 174.739353 
L 145.011239 173.471823 
L 145.076183 174.050623 
L 145.141127 173.652557 
L 145.335959 174.916283 
L 145.465847 173.992466 
L 145.530791 174.136271 
L 145.725622 174.737568 
L 145.790566 175.714557 
L 145.85551 175.14041 
L 145.920454 174.672879 
L 145.985398 174.908715 
L 146.050342 174.872287 
L 146.115286 174.570336 
L 146.310117 175.681811 
L 146.375061 175.714293 
L 146.504949 174.928487 
L 146.764725 170.393821 
L 146.829668 171.074519 
L 146.959556 170.347909 
L 147.154388 171.595665 
L 147.284276 174.559734 
L 147.34922 174.493095 
L 147.544051 172.079494 
L 147.803827 174.786051 
L 147.868771 174.543786 
L 148.388322 182.261763 
L 148.453266 184.004158 
L 148.51821 182.950987 
L 148.583154 181.544094 
L 148.907873 193.22211 
L 148.972817 191.534259 
L 149.102705 182.730185 
L 149.427424 108.176068 
L 149.752144 191.272316 
L 149.946976 180.284309 
L 150.076863 185.151072 
L 150.141807 183.984611 
L 150.336639 181.513648 
L 150.401583 181.589717 
L 150.466527 181.482641 
L 150.661358 177.308134 
L 150.726302 177.41797 
L 150.791246 177.303082 
L 150.921134 175.844494 
L 151.051022 174.116962 
L 151.115966 174.531433 
L 151.440685 171.395861 
L 151.505629 172.267456 
L 151.570573 172.709402 
L 151.635517 172.488699 
L 151.700461 172.48683 
L 151.765405 172.276779 
L 151.895293 173.047027 
L 152.02518 173.259253 
L 152.090124 173.080006 
L 152.155068 173.162041 
L 152.220012 173.211435 
L 152.479788 175.342161 
L 152.544731 175.1564 
L 152.609675 174.938378 
L 152.674619 175.361283 
L 152.739563 174.942994 
L 152.999339 177.448491 
L 153.259114 174.606894 
L 153.389002 174.378502 
L 153.583834 174.819015 
L 153.713722 174.237379 
L 153.778666 174.202088 
L 154.103385 172.094015 
L 154.363161 170.83464 
L 154.428105 170.649468 
L 154.622936 172.072254 
L 154.882712 174.381047 
L 155.0126 175.404066 
L 155.207431 176.832613 
L 155.272375 176.865308 
L 155.337319 176.446758 
L 155.402263 176.644683 
L 155.467207 176.778177 
L 155.532151 176.743656 
L 155.921814 175.600345 
L 155.986758 175.550901 
L 156.311478 173.481711 
L 156.376421 174.032421 
L 156.441365 173.915543 
L 156.506309 173.423429 
L 156.571253 173.620777 
L 156.701141 173.446384 
L 156.766085 173.92194 
L 156.831029 173.826831 
L 157.02586 173.097765 
L 157.090804 173.173856 
L 157.220692 174.047999 
L 157.285636 173.81249 
L 157.35058 173.753893 
L 157.415524 173.94276 
L 157.545412 173.797003 
L 157.675299 174.466473 
L 157.740243 174.34917 
L 157.805187 174.195047 
L 157.935075 174.567396 
L 158.000019 174.204991 
L 158.129907 174.533438 
L 158.259795 174.265704 
L 158.389682 174.397756 
L 158.51957 174.304476 
L 158.584514 174.721251 
L 158.649458 174.406659 
L 158.714402 174.431661 
L 158.779346 175.022451 
L 158.84429 174.743772 
L 158.974177 174.624218 
L 159.169009 173.751186 
L 159.298897 174.333613 
L 159.493729 173.497839 
L 159.753504 174.767667 
L 159.818448 174.603044 
L 159.883392 174.222074 
L 159.948336 174.496007 
L 160.01328 174.342445 
L 160.078224 174.492432 
L 160.208111 174.165777 
L 160.532831 175.510519 
L 160.662719 174.225221 
L 160.792607 173.626849 
L 160.85755 173.563974 
L 160.987438 173.962939 
L 161.18227 174.549782 
L 161.312158 173.802902 
L 161.442046 174.601797 
L 161.506989 174.205293 
L 161.571933 174.567803 
L 161.831709 173.34414 
L 162.091484 174.178672 
L 162.156428 173.813149 
L 162.286316 175.090165 
L 162.35126 174.541138 
L 162.416204 173.621728 
L 162.546092 174.429996 
L 162.611036 173.936696 
L 162.805867 174.885182 
L 162.935755 173.409234 
L 163.000699 174.280397 
L 163.065643 173.852461 
L 163.130587 173.98669 
L 163.260475 174.643775 
L 163.455306 174.96159 
L 163.585194 175.393284 
L 163.780026 174.677746 
L 163.909914 174.297609 
L 164.169689 175.763901 
L 164.299577 174.146917 
L 164.494409 169.921498 
L 164.559353 170.015736 
L 164.68924 170.476098 
L 164.884072 172.02717 
L 165.078904 174.501365 
L 165.273735 172.266158 
L 165.598455 175.274392 
L 165.858231 177.904773 
L 165.923174 177.785856 
L 166.053062 178.926942 
L 166.18295 182.676567 
L 166.247894 182.482804 
L 166.312838 181.670747 
L 166.442726 186.735641 
L 166.637557 192.205643 
L 166.702501 191.460839 
L 166.832389 186.222431 
L 167.157109 104.326388 
L 167.222052 126.207589 
L 167.481828 191.330849 
L 167.67666 180.36504 
L 167.806547 185.558981 
L 167.871491 185.084122 
L 168.001379 180.297903 
L 168.066323 180.360092 
L 168.131267 181.390944 
L 168.196211 181.361134 
L 168.455986 177.451563 
L 168.650818 175.882614 
L 168.780706 173.872237 
L 168.84565 174.022901 
L 168.910594 174.168489 
L 169.040482 173.399767 
L 169.105425 172.43725 
L 169.170369 172.850633 
L 169.235313 172.990435 
L 169.430145 171.878287 
L 169.819808 174.127463 
L 169.949696 174.203751 
L 170.079584 174.822464 
L 170.209472 172.875185 
L 170.274416 173.547308 
L 170.404303 174.49768 
L 170.534191 174.055783 
L 170.599135 174.866992 
L 170.664079 174.494806 
L 170.923855 176.190307 
L 170.988798 176.088726 
L 171.053742 175.328272 
L 171.18363 176.194971 
L 171.898013 171.294938 
L 172.027901 171.206306 
L 172.092845 171.549967 
L 172.157789 171.497538 
L 172.222733 170.953344 
L 172.937115 177.151822 
L 173.002059 176.533563 
L 173.067003 176.83396 
L 173.131947 177.694709 
L 173.456667 174.222954 
L 173.521611 174.617925 
L 173.586554 174.706871 
L 173.716442 174.373564 
L 173.781386 174.694494 
L 173.84633 174.545644 
L 173.911274 174.465088 
L 173.976218 174.1736 
L 174.041162 174.369489 
L 174.106106 174.148825 
L 174.235993 173.065085 
L 174.365881 173.290168 
L 174.495769 174.347332 
L 174.560713 173.971465 
L 174.625657 174.397696 
L 174.690601 174.130722 
L 174.755545 173.367274 
L 174.820488 173.613596 
L 174.950376 174.480941 
L 175.080264 174.01319 
L 175.145208 174.261774 
L 175.210152 173.748628 
L 175.275096 173.811105 
L 175.469927 174.510362 
L 175.599815 173.626634 
L 175.924535 174.842869 
L 176.054423 174.633419 
L 176.18431 173.755385 
L 176.379142 174.551692 
L 176.444086 174.763708 
L 176.573974 174.433499 
L 176.703861 174.683581 
L 176.963637 173.330077 
L 177.028581 173.319746 
L 177.223413 174.617712 
L 177.288357 174.447164 
L 177.3533 174.840252 
L 177.418244 174.678492 
L 177.483188 174.479957 
L 177.67802 175.450297 
L 177.937796 173.628787 
L 178.002739 173.717029 
L 178.067683 173.460942 
L 178.197571 174.31747 
L 178.327459 173.963834 
L 178.392403 174.012421 
L 178.457347 174.894162 
L 178.522291 174.592107 
L 178.587235 174.470674 
L 178.652178 174.507563 
L 178.84701 172.968649 
L 179.106786 174.70519 
L 179.17173 174.557033 
L 179.236674 174.859849 
L 179.301617 174.428545 
L 179.366561 174.6507 
L 179.626337 173.612516 
L 179.821169 174.37546 
L 179.886112 174.600557 
L 179.951056 174.489588 
L 180.016 174.615666 
L 180.080944 174.5363 
L 180.145888 173.914516 
L 180.210832 174.127964 
L 180.34072 173.836606 
L 180.535551 174.942391 
L 180.600495 174.842044 
L 180.730383 175.286025 
L 180.795327 175.085494 
L 180.860271 175.832604 
L 180.925215 175.7777 
L 181.120047 173.943697 
L 181.314878 175.431637 
L 181.444766 175.452926 
L 181.834429 168.759543 
L 181.899373 168.865742 
L 182.353981 174.204266 
L 182.483868 172.336787 
L 182.548812 172.711912 
L 182.808588 175.807733 
L 182.873532 175.673402 
L 183.00342 176.477944 
L 183.198251 178.955649 
L 183.263195 179.053426 
L 183.328139 180.014766 
L 183.458027 184.512949 
L 183.522971 184.222649 
L 183.587915 183.105903 
L 183.652859 183.557584 
L 183.912634 194.141083 
L 183.977578 193.026969 
L 184.107466 184.314748 
L 184.432185 98.209506 
L 184.497129 116.148602 
L 184.756905 194.949293 
L 184.951737 182.480182 
L 185.01668 184.435492 
L 185.081624 186.464999 
L 185.146568 185.603938 
L 185.3414 181.67029 
L 185.471288 183.037217 
L 185.731063 177.33825 
L 185.796007 177.421633 
L 186.120727 173.979958 
L 186.185671 173.937653 
L 186.445446 171.785196 
L 186.575334 172.868438 
L 186.705222 172.112389 
L 186.770166 172.213015 
L 186.83511 173.558672 
L 186.900053 173.202018 
L 186.964997 173.324713 
L 187.029941 173.276953 
L 187.224773 172.808621 
L 187.419605 174.338404 
L 187.549492 174.348653 
L 187.614436 174.623918 
L 187.67938 174.194856 
L 187.744324 174.412048 
L 187.874212 175.251913 
L 188.0041 174.906517 
L 188.133988 175.662414 
L 188.198931 175.110548 
L 188.328819 176.248195 
L 188.458707 174.652896 
L 188.523651 174.75222 
L 188.653539 175.317899 
L 189.238034 170.637849 
L 189.302978 171.018999 
L 189.497809 172.381841 
L 189.562753 171.825887 
L 189.822529 173.228725 
L 189.887473 173.592819 
L 189.952417 173.234525 
L 190.212192 177.156052 
L 190.277136 176.32931 
L 190.34208 176.479077 
L 190.407024 176.829134 
L 190.471968 176.062237 
L 190.536912 176.249246 
L 190.6668 175.837911 
L 190.796687 176.118415 
L 191.121407 173.098757 
L 191.251295 175.123469 
L 191.316239 175.008576 
L 191.381182 174.581104 
L 191.446126 174.676385 
L 191.51107 174.48422 
L 191.576014 173.580955 
L 191.640958 173.741319 
L 191.705902 173.726602 
L 191.770846 173.88818 
L 191.965677 173.123769 
L 192.030621 173.205215 
L 192.225453 174.674107 
L 192.290397 174.60382 
L 192.550173 173.011862 
L 192.615116 174.040543 
L 192.68006 173.770116 
L 192.745004 173.647902 
L 193.00478 175.519825 
L 193.069724 174.868396 
L 193.264555 173.026497 
L 193.329499 173.289915 
L 193.524331 174.738761 
L 193.589275 174.692798 
L 193.654219 173.96745 
L 193.719163 174.295762 
L 193.784107 174.432276 
L 193.849051 174.98533 
L 193.913994 173.852698 
L 193.978938 173.945047 
L 194.108826 173.962798 
L 194.303658 174.941798 
L 194.49849 174.491363 
L 194.563433 175.5584 
L 194.628377 174.864565 
L 194.693321 174.062871 
L 194.758265 174.379552 
L 195.018041 174.008837 
L 195.082985 173.695395 
L 195.147928 172.750801 
L 195.212872 173.247197 
L 195.407704 174.509373 
L 195.537592 174.125533 
L 195.602536 173.46492 
L 195.66748 173.606711 
L 195.862311 175.129669 
L 195.992199 174.945692 
L 196.187031 174.614313 
L 196.251975 174.701763 
L 196.316919 175.624228 
L 196.381863 175.425023 
L 196.446806 175.465027 
L 196.576694 174.302583 
L 196.641638 174.4435 
L 196.771526 175.902931 
L 196.83647 175.665171 
L 197.031302 174.004068 
L 197.356021 169.356737 
L 197.420965 169.462226 
L 197.615797 171.037113 
L 197.745684 172.285281 
L 197.810628 173.905559 
L 197.875572 173.29494 
L 198.00546 171.601161 
L 198.395123 176.911339 
L 198.460067 176.989408 
L 198.654899 179.744128 
L 198.719843 179.726425 
L 198.784787 179.431198 
L 199.17445 186.89612 
L 199.369282 195.377216 
L 199.434226 195.01241 
L 199.564114 186.250373 
L 199.758945 133.214409 
L 199.888833 99.165174 
L 199.953777 106.1564 
L 200.278496 194.81199 
L 200.473328 183.42448 
L 200.603216 187.185604 
L 200.798048 181.722274 
L 200.862992 182.236392 
L 200.927935 182.277097 
L 200.992879 181.470409 
L 201.187711 176.599721 
L 201.252655 176.669337 
L 201.317599 177.397392 
L 201.382543 176.821758 
L 201.577374 173.032161 
L 201.772206 173.99145 
L 201.967038 172.634983 
L 202.161869 173.765482 
L 202.226813 173.012946 
L 202.291757 173.130367 
L 202.421645 173.678371 
L 202.486589 173.081888 
L 202.551533 173.426181 
L 202.746365 172.830084 
L 203.00614 173.997593 
L 203.136028 173.633206 
L 203.265916 175.13069 
L 203.395804 175.081533 
L 203.525691 174.038465 
L 203.590635 174.369873 
L 203.785467 176.086197 
L 203.980299 174.31037 
L 204.110186 174.759879 
L 204.17513 174.96846 
L 204.240074 174.901534 
L 204.629738 172.641639 
L 204.759625 171.590899 
L 204.824569 171.604729 
L 205.019401 170.817121 
L 205.084345 171.10497 
L 205.279177 173.559155 
L 205.474008 175.511572 
L 205.538952 175.679332 
L 205.66884 176.501479 
L 205.733784 175.977498 
L 205.798728 176.201875 
L 205.863672 176.291817 
L 205.928616 176.067364 
L 205.993559 176.126531 
L 206.058503 176.237456 
L 206.123447 176.171946 
L 206.448167 174.611523 
L 206.578055 174.635107 
L 206.83783 173.523683 
L 206.967718 173.897627 
L 207.032662 173.563199 
L 207.16255 174.131231 
L 207.227493 174.028293 
L 207.292437 174.025908 
L 207.357381 174.824373 
L 207.422325 174.407675 
L 207.617157 173.532347 
L 207.682101 173.125004 
L 207.747045 173.348335 
L 207.811989 173.116355 
L 208.00682 174.258372 
L 208.071764 174.293363 
L 208.136708 174.455178 
L 208.201652 174.363714 
L 208.266596 174.179313 
L 208.33154 174.39477 
L 208.396484 174.178625 
L 208.461428 174.355816 
L 208.526371 173.818654 
L 208.591315 174.035457 
L 208.656259 174.779543 
L 208.721203 174.559129 
L 208.786147 174.380306 
L 208.851091 174.666926 
L 208.980979 173.685187 
L 209.045923 173.886836 
L 209.17581 174.564566 
L 209.370642 174.075619 
L 209.435586 173.958412 
L 209.565474 174.491831 
L 209.630418 174.270168 
L 209.695362 174.50425 
L 209.760306 174.353386 
L 209.825249 174.208396 
L 209.890193 174.259736 
L 209.955137 174.839757 
L 210.020081 174.796211 
L 210.085025 173.84768 
L 210.149969 173.994244 
L 210.409744 174.507187 
L 210.539632 173.584766 
L 210.604576 172.964738 
L 210.66952 173.26444 
L 210.864352 174.894596 
L 211.124127 174.072361 
L 211.189071 174.601183 
L 211.254015 174.492193 
L 211.383903 173.820914 
L 211.448847 173.777611 
L 211.513791 173.233985 
L 211.708622 174.215571 
L 211.968398 174.919394 
L 212.033342 174.729308 
L 212.098286 174.931197 
L 212.228174 174.416796 
L 212.423005 175.603313 
L 212.487949 175.505787 
L 212.552893 176.291678 
L 212.617837 176.017109 
L 212.682781 175.544485 
L 212.747725 176.028326 
L 212.812669 175.497588 
L 213.072444 170.758949 
L 213.202332 169.292509 
L 213.462108 170.568455 
L 213.591995 173.956095 
L 213.656939 173.200195 
L 213.786827 172.431037 
L 213.851771 172.517973 
L 213.981659 174.198695 
L 214.046603 174.193805 
L 214.111547 174.326349 
L 214.436266 179.147368 
L 214.50121 178.14442 
L 214.566154 178.352987 
L 214.696042 181.80125 
L 214.760986 183.926809 
L 214.890873 181.68264 
L 215.020761 186.391651 
L 215.215593 194.005973 
L 215.280537 193.119857 
L 215.410425 185.121036 
L 215.605256 130.678999 
L 215.735144 102.325573 
L 216.059864 191.880213 
L 216.124808 186.868533 
L 216.254695 180.526603 
L 216.384583 185.857348 
L 216.449527 185.418909 
L 216.579415 181.124465 
L 216.644359 181.460641 
L 216.774246 181.851553 
L 217.423685 173.441582 
L 217.553573 173.463818 
L 217.683461 172.118057 
L 217.748405 172.002287 
L 217.878293 173.616002 
L 217.943237 173.55879 
L 218.073124 172.650851 
L 218.203012 173.510384 
L 218.267956 173.435785 
L 218.397844 174.120148 
L 218.462788 173.994929 
L 218.592676 174.398665 
L 218.722563 173.479371 
L 218.787507 173.758629 
L 219.047283 175.042452 
L 219.112227 174.777684 
L 219.177171 174.934447 
L 219.436946 175.688395 
L 219.566834 174.87462 
L 219.631778 175.230248 
L 219.696722 174.533684 
L 219.82661 175.406957 
L 220.021441 174.242584 
L 220.086385 174.153333 
L 220.151329 173.150741 
L 220.216273 173.372037 
L 220.346161 172.5548 
L 220.476049 171.518474 
L 220.540993 171.561771 
L 220.67088 170.761163 
L 220.9956 172.428582 
L 221.385263 175.9904 
L 221.580095 177.120779 
L 221.645039 176.56527 
L 221.709983 177.002526 
L 221.839871 175.977197 
L 221.904814 176.436903 
L 222.16459 174.465194 
L 222.229534 175.231473 
L 222.294478 175.213028 
L 222.359422 175.384857 
L 222.619197 173.377037 
L 222.749085 173.721881 
L 222.814029 174.013856 
L 222.943917 172.681327 
L 223.008861 173.402801 
L 223.073805 172.748084 
L 223.138748 172.987693 
L 223.268636 174.245019 
L 223.528412 173.903735 
L 223.593356 174.125603 
L 223.6583 173.880192 
L 223.788187 174.526134 
L 223.983019 173.845012 
L 224.177851 174.591429 
L 224.242795 174.374784 
L 224.307739 174.474821 
L 224.372683 174.560498 
L 224.50257 173.875159 
L 224.567514 174.107023 
L 224.632458 173.816523 
L 224.697402 173.991719 
L 224.762346 173.999027 
L 224.957178 175.07734 
L 225.087065 174.115142 
L 225.152009 174.513349 
L 225.216953 173.757277 
L 225.281897 174.183139 
L 225.346841 174.792338 
L 225.411785 174.365644 
L 225.67156 173.835885 
L 225.866392 174.557396 
L 226.061224 174.057787 
L 226.126168 174.248224 
L 226.191112 173.668646 
L 226.256056 173.9298 
L 226.320999 174.077056 
L 226.515831 175.224979 
L 226.645719 174.930062 
L 226.710663 174.566419 
L 226.775607 173.312759 
L 226.840551 173.405813 
L 226.905495 174.201482 
L 226.970438 173.725775 
L 227.100326 174.373913 
L 227.16527 174.003481 
L 227.295158 174.165982 
L 227.360102 173.679587 
L 227.48999 174.855513 
L 227.554934 174.758801 
L 227.814709 173.703419 
L 227.944597 173.384178 
L 228.139429 174.325271 
L 228.204373 174.020587 
L 228.269316 174.190412 
L 228.33426 174.810692 
L 228.399204 174.6209 
L 228.464148 174.604668 
L 228.529092 175.447728 
L 228.594036 175.348827 
L 228.788868 174.115648 
L 228.983699 174.954656 
L 229.048643 175.172449 
L 229.113587 174.964782 
L 229.308419 175.754323 
L 229.373363 175.715236 
L 229.438307 175.218997 
L 229.633138 170.621949 
L 229.698082 171.158417 
L 229.763026 170.860691 
L 229.82797 169.888213 
L 229.892914 170.86001 
L 229.957858 170.762769 
L 230.022802 169.955466 
L 230.217633 174.54842 
L 230.282577 174.370305 
L 230.477409 172.288988 
L 230.672241 174.44104 
L 230.737185 173.990736 
L 231.256736 179.546011 
L 231.386624 182.847623 
L 231.451567 182.388577 
L 231.516511 181.149704 
L 231.581455 182.032255 
L 231.841231 192.036302 
L 231.906175 191.572351 
L 232.036062 186.985354 
L 232.230894 135.587983 
L 232.360782 103.716776 
L 232.685501 192.379393 
L 232.750445 187.307383 
L 232.880333 180.520281 
L 233.010221 184.568009 
L 233.075165 184.551169 
L 233.205053 180.970753 
L 233.269997 181.435033 
L 233.33494 181.828843 
L 233.399884 181.781868 
L 233.594716 177.388714 
L 233.724604 177.487175 
L 233.854492 175.334772 
L 233.984379 173.535295 
L 234.049323 173.764508 
L 234.179211 174.582647 
L 234.374043 172.737935 
L 234.568875 173.109168 
L 234.698762 172.294657 
L 234.763706 172.201102 
L 235.088426 173.690993 
L 235.283257 173.390106 
L 235.478089 174.319627 
L 235.607977 175.353949 
L 235.672921 175.12843 
L 235.737865 174.929459 
L 235.802809 175.074513 
L 235.867752 175.165262 
L 235.99764 176.031603 
L 236.257416 174.547654 
L 236.452248 175.810971 
L 236.517191 175.845816 
L 236.971799 172.233835 
L 237.101687 172.152505 
L 237.16663 171.313786 
L 237.231574 171.569621 
L 237.296518 172.202034 
L 237.361462 171.083979 
L 237.426406 171.469576 
L 237.556294 172.718819 
L 237.621238 172.616011 
L 237.686182 172.782048 
L 237.751125 172.756135 
L 238.075845 176.637453 
L 238.205733 175.20694 
L 238.270677 175.966984 
L 238.335621 176.6914 
L 238.400564 176.464204 
L 238.465508 176.308135 
L 238.530452 176.337359 
L 238.595396 176.290633 
L 238.725284 175.96523 
L 238.98506 174.115132 
L 239.050003 173.999608 
L 239.114947 174.466297 
L 239.179891 174.249202 
L 239.374723 173.553488 
L 239.439667 173.977882 
L 239.504611 173.754339 
L 239.569555 173.891816 
L 239.634499 173.812649 
L 239.699442 173.335488 
L 239.764386 173.581234 
L 240.024162 174.085065 
L 240.348881 173.575422 
L 240.478769 174.235317 
L 240.543713 173.929827 
L 240.673601 174.622913 
L 240.738545 174.348162 
L 240.803489 173.625147 
L 240.933376 174.967587 
L 240.99832 174.798104 
L 241.128208 174.042301 
L 241.193152 174.391836 
L 241.258096 174.270891 
L 241.32304 173.894341 
L 241.452928 174.82271 
L 241.647759 173.89421 
L 241.777647 174.646974 
L 241.842591 174.570052 
L 241.907535 174.663734 
L 241.972479 174.632874 
L 242.232254 173.322523 
L 242.362142 174.607429 
L 242.427086 174.258307 
L 242.556974 174.773782 
L 242.686862 174.189025 
L 242.81675 174.321352 
L 242.881693 174.423625 
L 243.011581 173.990773 
L 243.271357 174.634675 
L 243.336301 174.299842 
L 243.401245 174.677761 
L 243.531132 173.741808 
L 243.596076 174.040353 
L 243.66102 174.341189 
L 243.725964 174.192117 
L 243.855852 174.053643 
L 243.920796 174.2662 
L 244.050684 173.827413 
L 244.115627 174.108052 
L 244.180571 173.885821 
L 244.375403 174.469985 
L 244.505291 174.281665 
L 244.635179 173.024501 
L 244.700123 173.059511 
L 244.959898 175.210477 
L 245.15473 174.138239 
L 245.219674 174.42036 
L 245.349562 175.574839 
L 245.414505 175.413836 
L 245.544393 174.656943 
L 245.609337 175.052448 
L 245.674281 174.836011 
L 245.739225 174.571112 
L 245.804169 175.17119 
L 245.869113 174.519177 
L 245.934057 174.75833 
L 245.999001 174.608423 
L 246.128888 176.068196 
L 246.193832 175.667852 
L 246.388664 171.666162 
L 246.583496 169.525241 
L 246.843271 171.149505 
L 247.038103 174.161262 
L 247.103047 173.385977 
L 247.167991 172.28659 
L 247.232935 172.452294 
L 247.362822 173.286189 
L 247.622598 175.584622 
L 247.752486 177.683619 
L 247.947317 178.844601 
L 248.077205 181.462863 
L 248.207093 183.896766 
L 248.272037 182.20015 
L 248.336981 182.234994 
L 248.6617 193.680741 
L 248.856532 181.877156 
L 249.181252 102.854346 
L 249.505971 194.518856 
L 249.700803 182.252798 
L 249.830691 185.824217 
L 250.480129 177.31382 
L 250.545073 177.537492 
L 250.610017 176.771527 
L 250.804849 172.892902 
L 250.934737 174.165814 
L 251.194512 172.725648 
L 251.3244 173.485582 
L 251.454288 172.647764 
L 251.519232 172.749454 
L 251.584176 172.653437 
L 251.64912 172.567484 
L 251.779007 173.197436 
L 251.843951 173.030388 
L 252.038783 174.309676 
L 252.103727 173.40547 
L 252.168671 173.550481 
L 252.49339 175.525118 
L 252.558334 175.483089 
L 252.688222 175.199191 
L 252.753166 175.399269 
L 252.947998 174.464537 
L 253.012941 174.417616 
L 253.077885 175.31996 
L 253.142829 175.201857 
L 253.207773 175.002409 
L 253.272717 175.321144 
L 253.337661 175.170022 
L 253.402605 175.043162 
L 253.727324 172.499646 
L 253.857212 172.638328 
L 254.181932 171.234537 
L 254.246876 171.407347 
L 254.311819 172.119993 
L 254.376763 171.831829 
L 254.441707 171.930821 
L 254.701483 175.342276 
L 254.831371 176.351314 
L 254.961258 175.961929 
L 255.091146 176.651983 
L 255.221034 175.689756 
L 255.285978 175.978657 
L 255.350922 175.628736 
L 255.48081 176.603194 
L 255.545754 176.327637 
L 255.805529 173.831533 
L 255.870473 174.043655 
L 255.935417 174.16024 
L 256.000361 173.902167 
L 256.065305 174.233063 
L 256.195192 172.867544 
L 256.32508 173.963308 
L 256.454968 173.315063 
L 256.779688 174.464666 
L 256.844631 174.429124 
L 256.909575 173.493744 
L 256.974519 173.624535 
L 257.104407 174.698427 
L 257.169351 174.520396 
L 257.364183 173.88801 
L 257.429127 174.184979 
L 257.559014 173.648673 
L 257.623958 174.587247 
L 257.688902 173.687314 
L 257.81879 174.543047 
L 257.948678 174.527494 
L 258.078566 173.623047 
L 258.273397 174.999238 
L 258.338341 175.501412 
L 258.533173 173.906858 
L 258.598117 173.571489 
L 258.792948 175.31856 
L 258.922836 173.721953 
L 258.98778 174.124935 
L 259.052724 173.621923 
L 259.117668 173.646894 
L 259.247556 175.33326 
L 259.507331 173.438815 
L 259.572275 173.240624 
L 259.832051 174.274208 
L 259.961939 173.753497 
L 260.091826 174.873041 
L 260.351602 173.987549 
L 260.416546 173.900594 
L 260.546434 175.350003 
L 260.611378 174.987497 
L 260.806209 174.304866 
L 260.936097 174.833469 
L 261.001041 175.344762 
L 261.130929 174.052811 
L 261.390704 175.058951 
L 261.455648 174.748038 
L 261.585536 176.447858 
L 261.715424 176.211944 
L 261.845312 174.230737 
L 261.975199 170.876656 
L 262.040143 171.133601 
L 262.105087 171.054639 
L 262.234975 169.330982 
L 262.299919 169.621382 
L 262.364863 169.896145 
L 262.624638 172.934417 
L 262.689582 172.823682 
L 262.81947 171.039696 
L 263.014302 175.368664 
L 263.079246 175.084283 
L 263.403965 178.781742 
L 263.468909 179.942397 
L 263.533853 179.676521 
L 263.598797 179.123391 
L 263.793629 184.452719 
L 263.858572 184.128473 
L 263.923516 182.581292 
L 264.053404 187.267215 
L 264.248236 194.69214 
L 264.378124 188.069658 
L 264.508011 166.869024 
L 264.767787 102.109954 
L 265.092507 194.960063 
L 265.15745 191.30837 
L 265.287338 183.101035 
L 265.48217 186.076229 
L 265.677002 182.045624 
L 265.741945 182.212601 
L 265.806889 182.101217 
L 266.066665 177.576537 
L 266.131609 177.51904 
L 266.261497 176.234208 
L 266.391384 172.836771 
L 266.456328 173.120401 
L 266.521272 173.001109 
L 266.586216 173.04775 
L 266.65116 173.449429 
L 266.781048 172.898107 
L 266.845992 173.009263 
L 266.910936 172.61432 
L 266.97588 173.013421 
L 267.040823 172.068399 
L 267.105767 172.298613 
L 267.235655 174.191633 
L 267.365543 172.267012 
L 267.430487 172.843144 
L 267.495431 172.597489 
L 267.560375 172.654326 
L 267.755206 174.826844 
L 267.885094 173.666058 
L 267.950038 174.286172 
L 268.14487 175.626727 
L 268.209814 175.603984 
L 268.274757 175.211002 
L 268.339701 173.981548 
L 268.404645 174.549273 
L 268.469589 174.544651 
L 268.599477 175.919336 
L 268.859253 174.272114 
L 268.924196 174.435359 
L 268.98914 174.823311 
L 269.054084 174.692985 
L 269.119028 173.902224 
L 269.183972 174.339378 
L 269.248916 174.770095 
L 269.443748 173.476344 
L 269.573635 170.793201 
L 269.638579 171.296137 
L 269.833411 171.444646 
L 269.898355 171.926771 
L 269.963299 171.463395 
L 270.158131 173.328398 
L 270.547794 176.955486 
L 270.612738 175.738595 
L 270.677682 176.192779 
L 270.80757 175.840212 
L 270.872513 176.752196 
L 270.937457 176.496962 
L 271.132289 175.18891 
L 271.262177 175.502356 
L 271.521952 172.850854 
L 271.781728 173.902439 
L 271.911616 175.46905 
L 271.97656 175.339874 
L 272.236335 172.962586 
L 272.431167 174.170791 
L 272.561055 172.980039 
L 272.625999 173.244889 
L 272.690943 173.206335 
L 272.885774 174.37822 
L 273.015662 174.048262 
L 273.210494 174.676795 
L 273.275438 174.239266 
L 273.340382 174.608165 
L 273.405325 174.477486 
L 273.665101 173.377916 
L 273.989821 175.691559 
L 274.184652 173.010128 
L 274.31454 174.379317 
L 274.379484 174.227719 
L 274.444428 174.210775 
L 274.509372 174.738694 
L 274.639259 173.666107 
L 274.769147 174.945295 
L 275.093867 173.606765 
L 275.223755 174.466394 
L 275.353642 173.824721 
L 275.418586 174.093332 
L 275.48353 173.650211 
L 275.548474 173.664051 
L 275.873194 175.181941 
L 275.938137 174.120653 
L 276.068025 175.505319 
L 276.132969 174.816261 
L 276.197913 175.28497 
L 276.262857 175.736868 
L 276.392745 174.725672 
L 276.457689 174.794757 
L 276.587576 176.261717 
L 276.65252 176.202522 
L 276.782408 175.157192 
L 277.107128 170.235513 
L 277.172072 169.363929 
L 277.237015 169.574691 
L 277.301959 169.390204 
L 277.496791 170.69486 
L 277.691623 173.559349 
L 277.82151 172.644267 
L 277.886454 172.5989 
L 278.406006 179.00934 
L 278.665781 181.749306 
L 278.795669 184.727437 
L 278.925557 183.068925 
L 279.055445 188.886322 
L 279.250276 195.35084 
L 279.380164 186.854691 
L 279.510052 158.963041 
L 279.704884 101.564453 
L 279.769827 103.757517 
L 280.094547 194.005112 
L 280.289379 183.347907 
L 280.419266 186.820684 
L 281.328481 173.835295 
L 281.393425 173.880698 
L 281.458369 174.415162 
L 281.523313 174.381692 
L 281.6532 172.856714 
L 281.718144 171.739868 
L 281.848032 172.796555 
L 281.97792 172.35385 
L 282.042864 172.388322 
L 282.107808 171.362664 
L 282.172752 171.840543 
L 282.237696 173.256942 
L 282.302639 172.869474 
L 282.692303 174.695988 
L 282.757247 174.29018 
L 282.822191 174.32322 
L 282.887135 174.982738 
L 282.952078 174.62461 
L 283.017022 174.421947 
L 283.14691 175.437816 
L 283.276798 174.623468 
L 283.341742 175.573681 
L 283.406686 175.233863 
L 283.47163 174.65267 
L 283.666461 175.516653 
L 284.056125 173.811904 
L 284.250956 173.38932 
L 284.3159 173.345791 
L 284.445788 172.505835 
L 284.575676 171.602016 
L 284.64062 171.952647 
L 284.705564 171.359832 
L 284.770508 171.741985 
L 284.835451 172.257574 
L 284.900395 171.533781 
L 284.965339 171.662809 
L 285.290059 175.344023 
L 285.48489 176.864758 
L 285.549834 176.944154 
L 285.744666 176.010618 
L 285.874554 176.779541 
L 286.523993 172.680373 
L 286.588937 173.24878 
L 286.783768 174.234405 
L 286.848712 174.443434 
L 286.9786 173.570533 
L 287.043544 173.662115 
L 287.108488 174.228368 
L 287.173432 174.031018 
L 287.368263 173.449682 
L 287.563095 174.313003 
L 287.692983 174.129923 
L 287.757927 174.466399 
L 287.887815 173.844106 
L 288.017702 174.433437 
L 288.082646 174.043174 
L 288.14759 174.29498 
L 288.212534 174.183119 
L 288.407366 174.731965 
L 288.47231 174.603941 
L 288.602198 174.616776 
L 288.797029 173.299288 
L 289.056805 175.028393 
L 289.31658 173.635636 
L 289.381524 173.571614 
L 289.511412 174.745383 
L 289.6413 174.103902 
L 289.706244 174.637323 
L 289.771188 174.613583 
L 289.836132 174.628295 
L 289.901075 174.064696 
L 289.966019 174.290622 
L 290.095907 174.794587 
L 290.160851 174.471236 
L 290.225795 174.638291 
L 290.290739 175.036276 
L 290.485571 173.098098 
L 290.680402 174.018133 
L 290.745346 173.755926 
L 290.940178 174.386385 
L 291.005122 174.188257 
L 291.13501 174.929564 
L 291.264897 174.194105 
L 291.329841 174.246098 
L 291.394785 174.495041 
L 291.524673 173.40191 
L 291.784449 175.160569 
L 291.849392 175.15843 
L 291.97928 173.96774 
L 292.239056 175.523018 
L 292.304 175.773966 
L 292.433888 174.651453 
L 292.628719 175.958104 
L 292.758607 174.490556 
L 293.018383 169.980336 
L 293.083326 170.418906 
L 293.14827 170.231419 
L 293.213214 170.207729 
L 293.408046 171.118097 
L 293.602878 174.052181 
L 293.667822 173.734166 
L 293.732765 172.5264 
L 293.797709 172.571715 
L 293.992541 174.569555 
L 294.122429 175.118477 
L 294.382204 178.897785 
L 294.447148 178.842315 
L 294.512092 178.258353 
L 294.706924 183.389322 
L 294.771868 182.748966 
L 294.836812 181.521584 
L 294.901756 182.954951 
L 295.161531 193.49263 
L 295.291419 188.656298 
L 295.356363 183.319759 
L 295.681082 104.236358 
L 296.005802 191.974646 
L 296.200634 180.201969 
L 296.330521 185.1122 
L 296.395465 184.60737 
L 296.525353 180.930207 
L 296.590297 181.450569 
L 296.655241 182.402954 
L 296.850073 178.236268 
L 296.915016 178.413041 
L 297.174792 175.640471 
L 297.30468 173.257322 
L 297.434568 174.404301 
L 297.499512 174.223609 
L 297.629399 172.732213 
L 297.694343 173.067147 
L 297.759287 172.999104 
L 297.954119 172.201863 
L 298.084007 172.8014 
L 298.278838 173.705168 
L 298.343782 173.184958 
L 298.538614 174.439487 
L 298.668502 174.038417 
L 298.863333 175.187968 
L 298.928277 175.699343 
L 298.993221 175.676566 
L 299.188053 174.752547 
L 299.252997 174.823311 
L 299.447828 175.437467 
L 299.512772 175.319407 
L 299.577716 175.906643 
L 299.772548 174.551386 
L 300.227155 172.876849 
L 300.551875 170.392404 
L 300.681763 170.582142 
L 300.941538 172.282839 
L 301.006482 172.688443 
L 301.331202 177.204129 
L 301.526033 176.8179 
L 301.655921 177.68556 
L 302.045584 175.322338 
L 302.110528 175.59384 
L 302.370304 173.851694 
L 302.565136 172.887531 
L 302.630079 172.978415 
L 302.695023 173.426114 
L 302.824911 172.944387 
L 302.889855 173.077904 
L 303.149631 174.461381 
L 303.214575 174.194936 
L 303.279518 174.637822 
L 303.409406 173.354773 
L 303.604238 174.497086 
L 303.734126 175.215562 
L 303.79907 175.156861 
L 303.928957 173.405576 
L 303.993901 173.731627 
L 304.058845 173.550106 
L 304.123789 173.678199 
L 304.253677 174.906457 
L 304.383565 174.004369 
L 304.448509 174.388888 
L 304.513453 173.753424 
L 304.578396 173.779595 
L 304.64334 174.105648 
L 304.708284 173.761057 
L 304.838172 174.583467 
L 304.96806 174.239658 
L 305.162891 174.798839 
L 305.292779 174.776343 
L 305.357723 175.049927 
L 305.487611 174.311583 
L 305.552555 174.733859 
L 305.617499 174.608431 
L 305.747387 173.996877 
L 305.877274 173.484544 
L 306.201994 174.427383 
L 306.266938 174.017915 
L 306.331882 174.417769 
L 306.396826 174.142531 
L 306.461769 174.140118 
L 306.526713 174.553057 
L 306.656601 174.095733 
L 306.851433 174.544252 
L 306.916377 173.871209 
L 306.981321 174.134796 
L 307.046265 174.645208 
L 307.111208 174.33824 
L 307.176152 174.141896 
L 307.241096 174.232577 
L 307.30604 174.53885 
L 307.370984 174.456805 
L 307.435928 174.329443 
L 307.63076 174.810224 
L 307.760647 174.052834 
L 307.890535 174.492809 
L 307.955479 173.99458 
L 308.020423 174.292835 
L 308.150311 173.886771 
L 308.215255 174.371208 
L 308.345142 173.402235 
L 308.410086 173.455601 
L 308.539974 173.9445 
L 308.604918 173.709789 
L 308.734806 174.741119 
L 308.79975 174.492067 
L 308.864694 173.950586 
L 308.994581 174.864869 
L 309.124469 173.997022 
L 309.189413 174.073027 
L 309.449189 175.409127 
L 309.579077 175.5346 
L 309.64402 175.296722 
L 309.708964 175.703228 
L 309.903796 174.578307 
L 310.033684 175.019458 
L 310.098628 174.914136 
L 310.163572 175.766777 
L 310.618179 169.944567 
L 310.813011 170.387819 
L 311.007842 174.48521 
L 311.072786 174.209626 
L 311.202674 172.339977 
L 311.657281 176.423822 
L 311.852113 177.692504 
L 311.917057 177.246424 
L 311.982001 177.487245 
L 312.176832 182.421306 
L 312.241776 180.560122 
L 312.30672 181.25088 
L 312.63144 193.013339 
L 312.826271 181.374449 
L 313.086047 107.241802 
L 313.150991 111.488699 
L 313.410767 192.005214 
L 313.605598 180.520961 
L 313.670542 181.619972 
L 313.80043 185.240132 
L 313.995262 180.664834 
L 314.060205 181.379138 
L 314.125149 182.382693 
L 314.319981 177.205174 
L 314.384925 177.308291 
L 314.774588 173.657364 
L 314.904476 174.437948 
L 314.96942 174.245616 
L 315.099308 172.514383 
L 315.164252 173.433887 
L 315.229196 173.339439 
L 315.359083 172.941298 
L 315.424027 172.897098 
L 315.488971 172.599399 
L 315.553915 172.981629 
L 315.618859 172.775307 
L 315.748747 172.875859 
L 315.813691 173.131219 
L 316.008522 174.743888 
L 316.203354 174.586016 
L 316.398186 174.133452 
L 316.657961 175.750065 
L 316.852793 174.772699 
L 316.917737 174.796629 
L 317.047625 175.898287 
L 317.372344 173.851947 
L 317.437288 173.941718 
L 317.502232 174.397114 
L 317.567176 174.295208 
L 317.891895 170.951309 
L 317.956839 170.892866 
L 318.476391 172.976824 
L 318.671222 175.336119 
L 318.736166 175.405163 
L 318.866054 176.460821 
L 318.930998 176.260171 
L 318.995942 176.360153 
L 319.060886 176.871641 
L 319.12583 176.723352 
L 319.255717 176.188802 
L 319.320661 176.168633 
L 319.385605 176.541604 
L 319.580437 175.205302 
L 319.710325 174.424804 
L 319.840212 175.406261 
L 319.9701 174.355331 
L 320.035044 173.530087 
L 320.099988 173.553301 
L 320.164932 173.347876 
L 320.229876 173.453655 
L 320.29482 173.590071 
L 320.359764 173.403942 
L 320.424707 172.65361 
L 320.489651 172.72859 
L 320.554595 172.738515 
L 320.749427 174.224627 
L 320.814371 173.879723 
L 321.009203 173.426242 
L 321.074146 173.656059 
L 321.204034 175.094437 
L 321.268978 174.848676 
L 321.333922 174.872933 
L 321.528754 174.266249 
L 321.658642 174.979097 
L 321.918417 173.274923 
L 322.113249 174.617771 
L 322.373024 173.738647 
L 322.437968 174.351915 
L 322.502912 173.907816 
L 322.567856 173.9662 
L 322.697744 174.405611 
L 322.762688 174.453562 
L 322.892576 175.143767 
L 323.022463 174.28001 
L 323.087407 174.432264 
L 323.152351 173.852213 
L 323.217295 173.979939 
L 323.412127 174.964872 
L 323.477071 174.977229 
L 323.671902 173.652772 
L 323.736846 173.716018 
L 323.866734 174.44068 
L 323.931678 174.320149 
L 324.061566 174.217433 
L 324.12651 174.410915 
L 324.191454 174.337014 
L 324.256397 174.40432 
L 324.321341 174.884296 
L 324.451229 173.730232 
L 324.516173 173.740521 
L 324.581117 174.424715 
L 324.646061 174.047436 
L 324.711005 174.054215 
L 324.775949 173.824841 
L 324.840893 173.119298 
L 325.100668 174.828382 
L 325.165612 175.404495 
L 325.2955 173.887453 
L 325.490332 174.482226 
L 325.555275 174.252398 
L 325.620219 174.484096 
L 325.685163 174.383302 
L 325.750107 173.88594 
L 325.815051 174.05307 
L 325.879995 174.142622 
L 325.944939 174.091141 
L 326.074827 173.927933 
L 326.13977 174.037258 
L 326.269658 174.761226 
L 326.334602 174.63308 
L 326.529434 174.177495 
L 326.594378 174.648442 
L 326.659322 174.260149 
L 326.789209 174.894115 
L 326.854153 173.981493 
L 326.919097 174.460343 
L 326.984041 174.947452 
L 327.048985 174.329388 
L 327.113929 174.381506 
L 327.178873 174.796773 
L 327.308761 173.91009 
L 327.438648 175.33347 
L 327.568536 174.583349 
L 327.893256 176.148989 
L 327.9582 175.716905 
L 328.088087 172.861592 
L 328.282919 169.637049 
L 328.347863 169.14822 
L 328.607639 171.532645 
L 328.80247 174.110771 
L 328.867414 173.825257 
L 328.997302 171.511016 
L 329.257078 175.120078 
L 329.322021 175.090304 
L 329.646741 179.267867 
L 329.711685 178.672779 
L 329.776629 178.984176 
L 329.97146 183.957363 
L 330.036404 183.636487 
L 330.101348 183.217601 
L 330.426068 193.994296 
L 330.620899 179.32793 
L 330.880675 101.894728 
L 330.945619 106.685824 
L 331.205395 193.09574 
L 331.270338 192.874064 
L 331.46517 182.704661 
L 331.595058 186.136674 
L 331.78989 181.922145 
L 331.854834 182.164389 
L 331.919777 182.151068 
L 332.699104 173.298853 
L 332.828992 172.195914 
L 332.893936 172.239452 
L 333.023824 173.581859 
L 333.218655 172.77341 
L 333.413487 173.55924 
L 333.478431 173.359353 
L 333.543375 172.707577 
L 333.608319 172.744202 
L 333.80315 174.074515 
L 333.933038 173.623239 
L 333.997982 173.803264 
L 334.192814 175.642102 
L 334.257758 175.601476 
L 334.387646 174.284659 
L 334.452589 174.424516 
L 334.582477 175.944333 
L 334.647421 175.766331 
L 334.907197 174.165918 
L 335.102028 175.422208 
L 335.29686 174.052493 
L 335.62158 171.632574 
L 335.686523 172.222075 
L 335.751467 171.882869 
L 335.816411 171.580577 
L 335.881355 171.997977 
L 335.946299 171.61043 
L 336.011243 170.392926 
L 336.076187 170.861447 
L 336.335962 174.535942 
L 336.595738 175.940148 
L 336.725626 176.609168 
L 336.855514 175.709166 
L 336.920458 175.954212 
L 336.985401 175.785917 
L 337.050345 176.244692 
L 337.180233 175.452564 
L 337.245177 175.938613 
L 337.375065 175.138661 
L 337.440009 175.243918 
L 337.504953 175.31025 
L 337.569897 174.945203 
L 337.63484 174.99489 
L 337.699784 174.934271 
L 338.024504 173.183208 
L 338.089448 173.297969 
L 338.154392 173.728147 
L 338.219336 173.425659 
L 338.284279 173.426898 
L 338.414167 173.626282 
L 338.479111 173.488248 
L 338.544055 173.537376 
L 338.673943 174.082482 
L 338.738887 173.475309 
L 338.803831 173.609136 
L 338.998662 174.751805 
L 339.063606 174.575658 
L 339.12855 173.76615 
L 339.193494 174.244776 
L 339.323382 173.122743 
L 339.388326 173.633756 
L 339.45327 174.593117 
L 339.518213 174.3127 
L 339.583157 174.146251 
L 339.648101 175.044048 
L 339.713045 174.450965 
L 339.777989 174.343354 
L 339.842933 174.522499 
L 339.972821 173.829913 
L 340.102709 174.739888 
L 340.167652 173.575179 
L 340.232596 173.962993 
L 340.362484 175.211202 
L 340.427428 174.816117 
L 340.492372 174.950875 
L 340.557316 175.092164 
L 340.752148 173.017165 
L 340.817091 173.47771 
L 340.946979 174.601012 
L 341.011923 173.936715 
L 341.141811 174.954537 
L 341.336643 174.37521 
L 341.401586 174.244313 
L 341.46653 174.336717 
L 341.596418 172.991404 
L 341.726306 174.551892 
L 341.79125 173.83104 
L 341.856194 173.900223 
L 341.921138 174.833703 
L 341.986082 174.803973 
L 342.310801 173.467955 
L 342.440689 174.374731 
L 342.505633 175.180887 
L 342.570577 174.884838 
L 342.635521 174.891662 
L 342.830352 173.72897 
L 342.96024 174.15613 
L 343.155072 173.030474 
L 343.28496 173.462973 
L 343.479791 175.647652 
L 343.739567 174.191057 
L 343.869455 174.966124 
L 343.934399 174.695547 
L 343.999342 174.379698 
L 344.064286 174.807023 
L 344.12923 174.154592 
L 344.194174 174.459018 
L 344.45395 176.257189 
L 344.518894 175.684547 
L 344.713725 173.67913 
L 344.778669 173.985474 
L 344.973501 171.979261 
L 345.103389 168.709194 
L 345.168333 168.816225 
L 345.493052 172.931562 
L 345.557996 173.773473 
L 345.752828 172.352659 
L 346.597098 181.760563 
L 346.726986 184.278334 
L 346.79193 182.9866 
L 346.921818 186.645177 
L 347.11665 194.855414 
L 347.181593 194.066604 
L 347.376425 174.801523 
L 347.636201 101.118291 
L 347.701145 108.206883 
L 348.025864 193.970688 
L 348.155752 183.245716 
L 348.220696 184.179748 
L 348.350584 186.464121 
L 348.545415 181.506128 
L 348.675303 183.129629 
L 349.12991 175.582327 
L 349.194854 175.854124 
L 349.389686 173.292025 
L 349.45463 174.896268 
L 349.519574 173.846059 
L 349.584518 172.157537 
L 349.649462 173.040865 
L 349.714405 173.685762 
L 349.909237 172.682953 
L 350.169013 171.600546 
L 350.298901 173.169983 
L 350.363844 172.846182 
L 350.493732 174.456489 
L 350.558676 174.037476 
L 350.62362 173.545764 
L 350.688564 173.766344 
L 350.883396 174.973442 
L 350.948339 175.302284 
L 351.078227 174.571366 
L 351.143171 175.212029 
L 351.208115 174.772882 
L 351.273059 175.058613 
L 351.338003 175.963933 
L 351.532835 174.73467 
L 351.597778 175.344044 
L 351.662722 175.09342 
L 351.857554 174.222083 
L 351.922498 174.737844 
L 351.987442 173.806418 
L 352.052386 174.174119 
L 352.11733 174.919135 
L 352.571937 171.178596 
L 352.636881 171.223747 
L 352.701825 171.465572 
L 352.766769 172.269562 
L 352.831713 171.722687 
L 353.481152 176.686377 
L 353.546095 175.761503 
L 353.611039 176.624567 
L 353.675983 176.60573 
L 354.065647 174.954365 
L 354.13059 174.168984 
L 354.195534 174.471742 
L 354.260478 174.468532 
L 354.45531 173.878689 
L 354.520254 174.47963 
L 354.585198 173.503789 
L 354.650142 173.622853 
L 354.780029 174.530285 
L 354.909917 174.137733 
L 354.974861 174.355671 
L 355.104749 173.176864 
L 355.234637 173.327044 
L 355.299581 173.19894 
L 355.494412 174.632215 
L 355.559356 175.272769 
L 355.6243 175.133117 
L 355.884076 173.626292 
L 355.94902 173.482055 
L 356.013964 173.023114 
L 356.143851 173.965488 
L 356.273739 173.411682 
L 356.338683 174.831554 
L 356.403627 174.650175 
L 356.468571 174.243518 
L 356.598459 175.183154 
L 356.663402 175.087253 
L 356.79329 173.853162 
L 356.858234 174.255531 
L 356.988122 173.554484 
L 357.182954 174.461977 
L 357.312841 174.236459 
L 357.442729 174.821709 
L 357.507673 174.12918 
L 357.572617 174.227461 
L 357.637561 174.966537 
L 357.702505 174.693938 
L 357.96228 173.450626 
L 358.092168 174.118034 
L 358.157112 175.123453 
L 358.222056 174.714735 
L 358.287 175.05652 
L 358.481832 173.717123 
L 358.546776 174.223639 
L 358.611719 173.856865 
L 358.676663 173.746013 
L 358.806551 174.837893 
L 359.131271 173.284463 
L 359.196215 173.502982 
L 359.326102 175.082261 
L 359.391046 174.509598 
L 359.45599 174.103988 
L 359.585878 174.61229 
L 359.78071 174.154996 
L 359.910597 174.837249 
L 359.975541 174.412933 
L 360.040485 175.282668 
L 360.105429 175.093419 
L 360.170373 174.416517 
L 360.235317 174.991467 
L 360.300261 174.777994 
L 360.365205 174.950811 
L 360.495092 176.202557 
L 360.560036 175.306244 
L 360.62498 175.510286 
L 360.689924 175.209304 
L 360.884756 171.092835 
L 361.014644 169.375886 
L 361.079588 169.368481 
L 361.144531 169.23512 
L 361.209475 169.614799 
L 361.469251 173.34251 
L 361.534195 174.067078 
L 361.664083 171.670366 
L 362.183634 177.519555 
L 362.508353 181.224635 
L 362.638241 185.079354 
L 362.703185 184.726032 
L 362.768129 183.134927 
L 362.898017 188.15723 
L 363.092848 195.566271 
L 363.222736 187.507722 
L 363.352624 162.735578 
L 363.6124 101.621699 
L 363.937119 193.911586 
L 364.131951 183.906184 
L 364.261839 187.2933 
L 364.326782 186.514558 
L 364.45667 181.803404 
L 364.521614 181.86286 
L 364.586558 182.606571 
L 364.911278 177.740692 
L 364.976221 177.511826 
L 365.235997 173.512918 
L 365.300941 173.408826 
L 365.430829 174.128767 
L 365.560717 171.365855 
L 365.62566 172.330934 
L 365.690604 173.071675 
L 365.755548 172.924424 
L 365.820492 172.319394 
L 365.885436 172.859906 
L 365.95038 172.755776 
L 366.015324 172.387999 
L 366.210155 173.83097 
L 366.275099 173.419225 
L 366.340043 173.470596 
L 366.534875 174.109833 
L 366.729707 174.42396 
L 366.859594 173.775068 
L 367.11937 175.40468 
L 367.184314 175.79357 
L 367.249258 175.550738 
L 367.379146 175.555041 
L 367.509033 175.922042 
L 367.638921 174.900735 
L 367.703865 175.35791 
L 367.833753 174.588973 
L 367.898697 174.128693 
L 367.963641 174.705823 
L 368.093529 172.835976 
L 368.158472 173.183572 
L 368.483192 170.797288 
L 368.548136 170.582274 
L 368.678024 171.260994 
L 368.742968 171.192808 
L 368.807911 171.318487 
L 369.132631 175.957066 
L 369.327463 176.911286 
L 369.392406 177.029017 
L 369.522294 175.617169 
L 369.587238 175.927343 
L 369.717126 176.052755 
L 369.78207 176.78108 
L 369.847014 176.596175 
L 370.041845 175.652682 
L 370.431509 173.060307 
L 370.756228 174.011752 
L 370.821172 173.425737 
L 370.886116 173.604605 
L 370.95106 173.526277 
L 371.210836 174.550516 
L 371.340723 173.954084 
L 371.405667 174.262531 
L 371.470611 174.07736 
L 371.535555 174.219511 
L 371.795331 173.259302 
L 371.990162 174.293611 
L 372.184994 173.847094 
L 372.379826 175.146601 
L 372.44477 175.128829 
L 372.639601 174.3203 
L 372.769489 173.681559 
L 372.834433 174.446977 
L 372.899377 174.172346 
L 372.964321 173.973556 
L 373.029265 174.792511 
L 373.094209 174.690002 
L 373.159153 174.870761 
L 373.418928 173.779891 
L 373.548816 173.986085 
L 373.61376 175.165687 
L 373.678704 174.649985 
L 373.743648 174.505215 
L 373.808592 174.70355 
L 374.003423 173.189705 
L 374.068367 173.528586 
L 374.133311 174.439104 
L 374.198255 174.319459 
L 374.263199 174.220477 
L 374.328143 174.353686 
L 374.393087 174.285611 
L 374.458031 173.583753 
L 374.522974 174.016532 
L 374.652862 175.400505 
L 374.78275 174.583479 
L 374.847694 174.647174 
L 374.977582 173.884879 
L 375.172413 173.685205 
L 375.237357 173.770982 
L 375.367245 174.371743 
L 375.432189 174.034024 
L 375.497133 174.182457 
L 375.562077 174.162429 
L 375.627021 173.87815 
L 375.821852 174.730232 
L 375.886796 174.58977 
L 375.95174 174.798251 
L 376.016684 174.483038 
L 376.081628 174.745651 
L 376.146572 174.569275 
L 376.211516 174.355159 
L 376.341404 175.050946 
L 376.406347 174.779173 
L 376.536235 175.483449 
L 376.666123 174.731026 
L 376.990843 176.02594 
L 377.380506 169.523333 
L 377.44545 169.338715 
L 377.510394 170.172039 
L 377.575338 169.556792 
L 377.640282 169.755439 
L 377.835113 174.106622 
L 377.900057 173.911476 
L 377.965001 173.077783 
L 378.029945 173.30905 
L 378.354664 175.365195 
L 378.419608 175.228247 
L 378.61444 178.378434 
L 378.874216 181.518688 
L 378.939159 183.33898 
L 379.004103 183.267492 
L 379.069047 182.08058 
L 379.133991 183.185532 
L 379.393767 193.261889 
L 379.458711 192.641695 
L 379.588598 185.447904 
L 379.913318 102.873031 
L 379.978262 119.47887 
L 380.238037 192.30769 
L 380.432869 181.007109 
L 380.627701 186.258086 
L 380.757589 181.537793 
L 380.822533 181.771586 
L 380.887476 182.285836 
L 380.95242 182.229863 
L 381.212196 176.951552 
L 381.342084 176.615711 
L 381.666803 173.57919 
L 381.731747 174.032978 
L 381.926579 172.149076 
L 381.991523 172.676422 
L 382.056467 173.582644 
L 382.186354 171.730495 
L 382.316242 173.130724 
L 382.381186 172.91159 
L 382.511074 173.806477 
L 382.576018 173.740188 
L 382.640962 173.048152 
L 382.705906 173.213168 
L 382.900737 174.537498 
L 382.965681 174.414184 
L 383.030625 174.480469 
L 383.160513 175.398078 
L 383.225457 175.313458 
L 383.420288 176.226841 
L 383.61512 174.939617 
L 383.874896 175.811552 
L 384.199615 173.636148 
L 384.264559 174.155974 
L 384.459391 172.408013 
L 384.524335 172.443288 
L 384.78411 171.125576 
L 384.913998 170.689822 
L 384.978942 170.879902 
L 385.823213 177.189341 
L 386.537596 174.589597 
L 386.602539 175.415373 
L 386.732427 173.894078 
L 386.797371 173.910114 
L 386.862315 173.683977 
L 386.927259 173.046426 
L 386.992203 173.54954 
L 387.057147 173.455283 
L 387.187034 173.327455 
L 387.251978 172.852853 
L 387.381866 174.035959 
L 387.44681 173.577933 
L 387.511754 173.829709 
L 387.576698 174.194991 
L 387.641642 174.124345 
L 387.77153 173.64508 
L 387.836473 174.52712 
L 387.901417 174.017889 
L 387.966361 173.802284 
L 388.031305 174.105176 
L 388.096249 173.982782 
L 388.161193 174.047042 
L 388.485912 175.123757 
L 388.6158 173.800156 
L 388.680744 174.476412 
L 388.810632 173.287964 
L 388.94052 174.293489 
L 389.005464 174.143228 
L 389.070408 174.331711 
L 389.135351 174.296374 
L 389.200295 174.312525 
L 389.330183 174.727956 
L 389.395127 174.570419 
L 389.525015 173.809822 
L 389.589959 174.191505 
L 389.654903 173.861073 
L 389.849734 174.899336 
L 389.979622 173.241085 
L 390.044566 174.226183 
L 390.10951 174.036721 
L 390.174454 173.995717 
L 390.304342 174.598 
L 390.369285 174.524228 
L 390.434229 174.61247 
L 390.499173 174.85888 
L 390.564117 174.838163 
L 390.758949 173.670155 
L 390.823893 173.946899 
L 390.888837 173.541579 
L 391.018724 174.549558 
L 391.213556 174.661689 
L 391.2785 174.963335 
L 391.60322 173.592364 
L 391.862995 174.098994 
L 391.927939 174.609133 
L 391.992883 174.585899 
L 392.057827 173.844398 
L 392.122771 174.045776 
L 392.187715 174.309938 
L 392.252659 174.016236 
L 392.317602 174.118369 
L 392.44749 174.588693 
L 392.512434 173.853066 
L 392.577378 173.881255 
L 392.77221 174.579225 
L 392.902098 174.401279 
L 393.031985 174.795575 
L 393.096929 174.774326 
L 393.161873 174.897877 
L 393.226817 174.755492 
L 393.356705 175.301599 
L 393.421649 175.543626 
L 393.486593 175.400956 
L 393.551536 175.481253 
L 393.61648 175.378321 
L 393.746368 174.221579 
L 393.811312 175.130752 
L 394.006144 172.196668 
L 394.200975 169.652223 
L 394.265919 169.250698 
L 394.395807 170.813664 
L 394.460751 170.697006 
L 394.590639 173.864893 
L 394.655583 173.826832 
L 394.850414 172.789202 
L 395.43491 177.359461 
L 395.499853 177.302373 
L 395.564797 177.575952 
L 395.694685 181.092504 
L 395.759629 183.243852 
L 395.824573 182.986306 
L 395.954461 181.676793 
L 396.27918 192.701115 
L 396.474012 178.989315 
L 396.733787 105.402771 
L 396.798731 114.190401 
L 397.058507 192.471652 
L 397.253339 181.050988 
L 397.318283 182.029172 
L 397.44817 185.254797 
L 397.643002 180.564413 
L 397.77289 181.281446 
L 397.837834 180.686307 
L 398.032665 177.484061 
L 398.162553 177.081522 
L 398.422329 173.264337 
L 398.487273 173.735167 
" style="fill:none;stroke:#1f77b4;stroke-linecap:square;stroke-width:1.5;"/>
   </g>
   <g id="patch_3">
    <path d="M 57.6 307.584 
L 57.6 41.472 
" style="fill:none;stroke:#000000;stroke-linecap:square;stroke-linejoin:miter;stroke-width:0.8;"/>
   </g>
   <g id="patch_4">
    <path d="M 414.72 307.584 
L 414.72 41.472 
" style="fill:none;stroke:#000000;stroke-linecap:square;stroke-linejoin:miter;stroke-width:0.8;"/>
   </g>
   <g id="patch_5">
    <path d="M 57.6 307.584 
L 414.72 307.584 
" style="fill:none;stroke:#000000;stroke-linecap:square;stroke-linejoin:miter;stroke-width:0.8;"/>
   </g>
   <g id="patch_6">
    <path d="M 57.6 41.472 
L 414.72 41.472 
" style="fill:none;stroke:#000000;stroke-linecap:square;stroke-linejoin:miter;stroke-width:0.8;"/>
   </g>
   <g id="text_16">
    <!-- Remove 50Hz and DC -->
    <defs>
     <path d="M 44.390625 34.1875 
Q 47.5625 33.109375 50.5625 29.59375 
Q 53.5625 26.078125 56.59375 19.921875 
L 66.609375 0 
L 56 0 
L 46.6875 18.703125 
Q 43.0625 26.03125 39.671875 28.421875 
Q 36.28125 30.8125 30.421875 30.8125 
L 19.671875 30.8125 
L 19.671875 0 
L 9.8125 0 
L 9.8125 72.90625 
L 32.078125 72.90625 
Q 44.578125 72.90625 50.734375 67.671875 
Q 56.890625 62.453125 56.890625 51.90625 
Q 56.890625 45.015625 53.6875 40.46875 
Q 50.484375 35.9375 44.390625 34.1875 
z
M 19.671875 64.796875 
L 19.671875 38.921875 
L 32.078125 38.921875 
Q 39.203125 38.921875 42.84375 42.21875 
Q 46.484375 45.515625 46.484375 51.90625 
Q 46.484375 58.296875 42.84375 61.546875 
Q 39.203125 64.796875 32.078125 64.796875 
z
" id="DejaVuSans-82"/>
     <path d="M 56.203125 29.59375 
L 56.203125 25.203125 
L 14.890625 25.203125 
Q 15.484375 15.921875 20.484375 11.0625 
Q 25.484375 6.203125 34.421875 6.203125 
Q 39.59375 6.203125 44.453125 7.46875 
Q 49.3125 8.734375 54.109375 11.28125 
L 54.109375 2.78125 
Q 49.265625 0.734375 44.1875 -0.34375 
Q 39.109375 -1.421875 33.890625 -1.421875 
Q 20.796875 -1.421875 13.15625 6.1875 
Q 5.515625 13.8125 5.515625 26.8125 
Q 5.515625 40.234375 12.765625 48.109375 
Q 20.015625 56 32.328125 56 
Q 43.359375 56 49.78125 48.890625 
Q 56.203125 41.796875 56.203125 29.59375 
z
M 47.21875 32.234375 
Q 47.125 39.59375 43.09375 43.984375 
Q 39.0625 48.390625 32.421875 48.390625 
Q 24.90625 48.390625 20.390625 44.140625 
Q 15.875 39.890625 15.1875 32.171875 
z
" id="DejaVuSans-101"/>
     <path d="M 52 44.1875 
Q 55.375 50.25 60.0625 53.125 
Q 64.75 56 71.09375 56 
Q 79.640625 56 84.28125 50.015625 
Q 88.921875 44.046875 88.921875 33.015625 
L 88.921875 0 
L 79.890625 0 
L 79.890625 32.71875 
Q 79.890625 40.578125 77.09375 44.375 
Q 74.3125 48.1875 68.609375 48.1875 
Q 61.625 48.1875 57.5625 43.546875 
Q 53.515625 38.921875 53.515625 30.90625 
L 53.515625 0 
L 44.484375 0 
L 44.484375 32.71875 
Q 44.484375 40.625 41.703125 44.40625 
Q 38.921875 48.1875 33.109375 48.1875 
Q 26.21875 48.1875 22.15625 43.53125 
Q 18.109375 38.875 18.109375 30.90625 
L 18.109375 0 
L 9.078125 0 
L 9.078125 54.6875 
L 18.109375 54.6875 
L 18.109375 46.1875 
Q 21.1875 51.21875 25.484375 53.609375 
Q 29.78125 56 35.6875 56 
Q 41.65625 56 45.828125 52.96875 
Q 50 49.953125 52 44.1875 
z
" id="DejaVuSans-109"/>
     <path d="M 30.609375 48.390625 
Q 23.390625 48.390625 19.1875 42.75 
Q 14.984375 37.109375 14.984375 27.296875 
Q 14.984375 17.484375 19.15625 11.84375 
Q 23.34375 6.203125 30.609375 6.203125 
Q 37.796875 6.203125 41.984375 11.859375 
Q 46.1875 17.53125 46.1875 27.296875 
Q 46.1875 37.015625 41.984375 42.703125 
Q 37.796875 48.390625 30.609375 48.390625 
z
M 30.609375 56 
Q 42.328125 56 49.015625 48.375 
Q 55.71875 40.765625 55.71875 27.296875 
Q 55.71875 13.875 49.015625 6.21875 
Q 42.328125 -1.421875 30.609375 -1.421875 
Q 18.84375 -1.421875 12.171875 6.21875 
Q 5.515625 13.875 5.515625 27.296875 
Q 5.515625 40.765625 12.171875 48.375 
Q 18.84375 56 30.609375 56 
z
" id="DejaVuSans-111"/>
     <path d="M 2.984375 54.6875 
L 12.5 54.6875 
L 29.59375 8.796875 
L 46.6875 54.6875 
L 56.203125 54.6875 
L 35.6875 0 
L 23.484375 0 
z
" id="DejaVuSans-118"/>
     <path id="DejaVuSans-32"/>
     <path d="M 9.8125 72.90625 
L 19.671875 72.90625 
L 19.671875 43.015625 
L 55.515625 43.015625 
L 55.515625 72.90625 
L 65.375 72.90625 
L 65.375 0 
L 55.515625 0 
L 55.515625 34.71875 
L 19.671875 34.71875 
L 19.671875 0 
L 9.8125 0 
z
" id="DejaVuSans-72"/>
     <path d="M 5.515625 54.6875 
L 48.1875 54.6875 
L 48.1875 46.484375 
L 14.40625 7.171875 
L 48.1875 7.171875 
L 48.1875 0 
L 4.296875 0 
L 4.296875 8.203125 
L 38.09375 47.515625 
L 5.515625 47.515625 
z
" id="DejaVuSans-122"/>
     <path d="M 34.28125 27.484375 
Q 23.390625 27.484375 19.1875 25 
Q 14.984375 22.515625 14.984375 16.5 
Q 14.984375 11.71875 18.140625 8.90625 
Q 21.296875 6.109375 26.703125 6.109375 
Q 34.1875 6.109375 38.703125 11.40625 
Q 43.21875 16.703125 43.21875 25.484375 
L 43.21875 27.484375 
z
M 52.203125 31.203125 
L 52.203125 0 
L 43.21875 0 
L 43.21875 8.296875 
Q 40.140625 3.328125 35.546875 0.953125 
Q 30.953125 -1.421875 24.3125 -1.421875 
Q 15.921875 -1.421875 10.953125 3.296875 
Q 6 8.015625 6 15.921875 
Q 6 25.140625 12.171875 29.828125 
Q 18.359375 34.515625 30.609375 34.515625 
L 43.21875 34.515625 
L 43.21875 35.40625 
Q 43.21875 41.609375 39.140625 45 
Q 35.0625 48.390625 27.6875 48.390625 
Q 23 48.390625 18.546875 47.265625 
Q 14.109375 46.140625 10.015625 43.890625 
L 10.015625 52.203125 
Q 14.9375 54.109375 19.578125 55.046875 
Q 24.21875 56 28.609375 56 
Q 40.484375 56 46.34375 49.84375 
Q 52.203125 43.703125 52.203125 31.203125 
z
" id="DejaVuSans-97"/>
     <path d="M 54.890625 33.015625 
L 54.890625 0 
L 45.90625 0 
L 45.90625 32.71875 
Q 45.90625 40.484375 42.875 44.328125 
Q 39.84375 48.1875 33.796875 48.1875 
Q 26.515625 48.1875 22.3125 43.546875 
Q 18.109375 38.921875 18.109375 30.90625 
L 18.109375 0 
L 9.078125 0 
L 9.078125 54.6875 
L 18.109375 54.6875 
L 18.109375 46.1875 
Q 21.34375 51.125 25.703125 53.5625 
Q 30.078125 56 35.796875 56 
Q 45.21875 56 50.046875 50.171875 
Q 54.890625 44.34375 54.890625 33.015625 
z
" id="DejaVuSans-110"/>
     <path d="M 45.40625 46.390625 
L 45.40625 75.984375 
L 54.390625 75.984375 
L 54.390625 0 
L 45.40625 0 
L 45.40625 8.203125 
Q 42.578125 3.328125 38.25 0.953125 
Q 33.9375 -1.421875 27.875 -1.421875 
Q 17.96875 -1.421875 11.734375 6.484375 
Q 5.515625 14.40625 5.515625 27.296875 
Q 5.515625 40.1875 11.734375 48.09375 
Q 17.96875 56 27.875 56 
Q 33.9375 56 38.25 53.625 
Q 42.578125 51.265625 45.40625 46.390625 
z
M 14.796875 27.296875 
Q 14.796875 17.390625 18.875 11.75 
Q 22.953125 6.109375 30.078125 6.109375 
Q 37.203125 6.109375 41.296875 11.75 
Q 45.40625 17.390625 45.40625 27.296875 
Q 45.40625 37.203125 41.296875 42.84375 
Q 37.203125 48.484375 30.078125 48.484375 
Q 22.953125 48.484375 18.875 42.84375 
Q 14.796875 37.203125 14.796875 27.296875 
z
" id="DejaVuSans-100"/>
     <path d="M 19.671875 64.796875 
L 19.671875 8.109375 
L 31.59375 8.109375 
Q 46.6875 8.109375 53.6875 14.9375 
Q 60.6875 21.78125 60.6875 36.53125 
Q 60.6875 51.171875 53.6875 57.984375 
Q 46.6875 64.796875 31.59375 64.796875 
z
M 9.8125 72.90625 
L 30.078125 72.90625 
Q 51.265625 72.90625 61.171875 64.09375 
Q 71.09375 55.28125 71.09375 36.53125 
Q 71.09375 17.671875 61.125 8.828125 
Q 51.171875 0 30.078125 0 
L 9.8125 0 
z
" id="DejaVuSans-68"/>
     <path d="M 64.40625 67.28125 
L 64.40625 56.890625 
Q 59.421875 61.53125 53.78125 63.8125 
Q 48.140625 66.109375 41.796875 66.109375 
Q 29.296875 66.109375 22.65625 58.46875 
Q 16.015625 50.828125 16.015625 36.375 
Q 16.015625 21.96875 22.65625 14.328125 
Q 29.296875 6.6875 41.796875 6.6875 
Q 48.140625 6.6875 53.78125 8.984375 
Q 59.421875 11.28125 64.40625 15.921875 
L 64.40625 5.609375 
Q 59.234375 2.09375 53.4375 0.328125 
Q 47.65625 -1.421875 41.21875 -1.421875 
Q 24.65625 -1.421875 15.125 8.703125 
Q 5.609375 18.84375 5.609375 36.375 
Q 5.609375 53.953125 15.125 64.078125 
Q 24.65625 74.21875 41.21875 74.21875 
Q 47.75 74.21875 53.53125 72.484375 
Q 59.328125 70.75 64.40625 67.28125 
z
" id="DejaVuSans-67"/>
    </defs>
    <g transform="translate(170.695312 35.472)scale(0.12 -0.12)">
     <use xlink:href="#DejaVuSans-82"/>
     <use x="64.982422" xlink:href="#DejaVuSans-101"/>
     <use x="126.505859" xlink:href="#DejaVuSans-109"/>
     <use x="223.917969" xlink:href="#DejaVuSans-111"/>
     <use x="285.099609" xlink:href="#DejaVuSans-118"/>
     <use x="344.279297" xlink:href="#DejaVuSans-101"/>
     <use x="405.802734" xlink:href="#DejaVuSans-32"/>
     <use x="437.589844" xlink:href="#DejaVuSans-53"/>
     <use x="501.212891" xlink:href="#DejaVuSans-48"/>
     <use x="564.835938" xlink:href="#DejaVuSans-72"/>
     <use x="640.03125" xlink:href="#DejaVuSans-122"/>
     <use x="692.521484" xlink:href="#DejaVuSans-32"/>
     <use x="724.308594" xlink:href="#DejaVuSans-97"/>
     <use x="785.587891" xlink:href="#DejaVuSans-110"/>
     <use x="848.966797" xlink:href="#DejaVuSans-100"/>
     <use x="912.443359" xlink:href="#DejaVuSans-32"/>
     <use x="944.230469" xlink:href="#DejaVuSans-68"/>
     <use x="1021.232422" xlink:href="#DejaVuSans-67"/>
    </g>
   </g>
  </g>
 </g>
 <defs>
  <clipPath id="p0c79e57928">
   <rect height="266.112" width="357.12" x="57.6" y="41.472"/>
  </clipPath>
 </defs>
</svg>
