<?xml version="1.0" encoding="utf-8" standalone="no"?>
<!DOCTYPE svg PUBLIC "-//W3C//DTD SVG 1.1//EN"
  "http://www.w3.org/Graphics/SVG/1.1/DTD/svg11.dtd">
<!-- Created with matplotlib (https://matplotlib.org/) -->
<svg height="345.6pt" version="1.1" viewBox="0 0 460.8 345.6" width="460.8pt" xmlns="http://www.w3.org/2000/svg" xmlns:xlink="http://www.w3.org/1999/xlink">
 <defs>
  <style type="text/css">
*{stroke-linecap:butt;stroke-linejoin:round;}
  </style>
 </defs>
 <g id="figure_1">
  <g id="patch_1">
   <path d="M 0 345.6 
L 460.8 345.6 
L 460.8 0 
L 0 0 
z
" style="fill:#ffffff;"/>
  </g>
  <g id="axes_1">
   <g id="patch_2">
    <path d="M 57.6 307.584 
L 414.72 307.584 
L 414.72 41.472 
L 57.6 41.472 
z
" style="fill:#ffffff;"/>
   </g>
   <g id="matplotlib.axis_1">
    <g id="xtick_1">
     <g id="line2d_1">
      <defs>
       <path d="M 0 0 
L 0 3.5 
" id="m1e64399ed0" style="stroke:#000000;stroke-width:0.8;"/>
      </defs>
      <g>
       <use style="stroke:#000000;stroke-width:0.8;" x="73.832727" xlink:href="#m1e64399ed0" y="307.584"/>
      </g>
     </g>
     <g id="text_1">
      <!-- 0 -->
      <defs>
       <path d="M 31.78125 66.40625 
Q 24.171875 66.40625 20.328125 58.90625 
Q 16.5 51.421875 16.5 36.375 
Q 16.5 21.390625 20.328125 13.890625 
Q 24.171875 6.390625 31.78125 6.390625 
Q 39.453125 6.390625 43.28125 13.890625 
Q 47.125 21.390625 47.125 36.375 
Q 47.125 51.421875 43.28125 58.90625 
Q 39.453125 66.40625 31.78125 66.40625 
z
M 31.78125 74.21875 
Q 44.046875 74.21875 50.515625 64.515625 
Q 56.984375 54.828125 56.984375 36.375 
Q 56.984375 17.96875 50.515625 8.265625 
Q 44.046875 -1.421875 31.78125 -1.421875 
Q 19.53125 -1.421875 13.0625 8.265625 
Q 6.59375 17.96875 6.59375 36.375 
Q 6.59375 54.828125 13.0625 64.515625 
Q 19.53125 74.21875 31.78125 74.21875 
z
" id="DejaVuSans-48"/>
      </defs>
      <g transform="translate(70.651477 322.182437)scale(0.1 -0.1)">
       <use xlink:href="#DejaVuSans-48"/>
      </g>
     </g>
    </g>
    <g id="xtick_2">
     <g id="line2d_2">
      <g>
       <use style="stroke:#000000;stroke-width:0.8;" x="125.787848" xlink:href="#m1e64399ed0" y="307.584"/>
      </g>
     </g>
     <g id="text_2">
      <!-- 20 -->
      <defs>
       <path d="M 19.1875 8.296875 
L 53.609375 8.296875 
L 53.609375 0 
L 7.328125 0 
L 7.328125 8.296875 
Q 12.9375 14.109375 22.625 23.890625 
Q 32.328125 33.6875 34.8125 36.53125 
Q 39.546875 41.84375 41.421875 45.53125 
Q 43.3125 49.21875 43.3125 52.78125 
Q 43.3125 58.59375 39.234375 62.25 
Q 35.15625 65.921875 28.609375 65.921875 
Q 23.96875 65.921875 18.8125 64.3125 
Q 13.671875 62.703125 7.8125 59.421875 
L 7.8125 69.390625 
Q 13.765625 71.78125 18.9375 73 
Q 24.125 74.21875 28.421875 74.21875 
Q 39.75 74.21875 46.484375 68.546875 
Q 53.21875 62.890625 53.21875 53.421875 
Q 53.21875 48.921875 51.53125 44.890625 
Q 49.859375 40.875 45.40625 35.40625 
Q 44.1875 33.984375 37.640625 27.21875 
Q 31.109375 20.453125 19.1875 8.296875 
z
" id="DejaVuSans-50"/>
      </defs>
      <g transform="translate(119.425348 322.182437)scale(0.1 -0.1)">
       <use xlink:href="#DejaVuSans-50"/>
       <use x="63.623047" xlink:href="#DejaVuSans-48"/>
      </g>
     </g>
    </g>
    <g id="xtick_3">
     <g id="line2d_3">
      <g>
       <use style="stroke:#000000;stroke-width:0.8;" x="177.742968" xlink:href="#m1e64399ed0" y="307.584"/>
      </g>
     </g>
     <g id="text_3">
      <!-- 40 -->
      <defs>
       <path d="M 37.796875 64.3125 
L 12.890625 25.390625 
L 37.796875 25.390625 
z
M 35.203125 72.90625 
L 47.609375 72.90625 
L 47.609375 25.390625 
L 58.015625 25.390625 
L 58.015625 17.1875 
L 47.609375 17.1875 
L 47.609375 0 
L 37.796875 0 
L 37.796875 17.1875 
L 4.890625 17.1875 
L 4.890625 26.703125 
z
" id="DejaVuSans-52"/>
      </defs>
      <g transform="translate(171.380468 322.182437)scale(0.1 -0.1)">
       <use xlink:href="#DejaVuSans-52"/>
       <use x="63.623047" xlink:href="#DejaVuSans-48"/>
      </g>
     </g>
    </g>
    <g id="xtick_4">
     <g id="line2d_4">
      <g>
       <use style="stroke:#000000;stroke-width:0.8;" x="229.698088" xlink:href="#m1e64399ed0" y="307.584"/>
      </g>
     </g>
     <g id="text_4">
      <!-- 60 -->
      <defs>
       <path d="M 33.015625 40.375 
Q 26.375 40.375 22.484375 35.828125 
Q 18.609375 31.296875 18.609375 23.390625 
Q 18.609375 15.53125 22.484375 10.953125 
Q 26.375 6.390625 33.015625 6.390625 
Q 39.65625 6.390625 43.53125 10.953125 
Q 47.40625 15.53125 47.40625 23.390625 
Q 47.40625 31.296875 43.53125 35.828125 
Q 39.65625 40.375 33.015625 40.375 
z
M 52.59375 71.296875 
L 52.59375 62.3125 
Q 48.875 64.0625 45.09375 64.984375 
Q 41.3125 65.921875 37.59375 65.921875 
Q 27.828125 65.921875 22.671875 59.328125 
Q 17.53125 52.734375 16.796875 39.40625 
Q 19.671875 43.65625 24.015625 45.921875 
Q 28.375 48.1875 33.59375 48.1875 
Q 44.578125 48.1875 50.953125 41.515625 
Q 57.328125 34.859375 57.328125 23.390625 
Q 57.328125 12.15625 50.6875 5.359375 
Q 44.046875 -1.421875 33.015625 -1.421875 
Q 20.359375 -1.421875 13.671875 8.265625 
Q 6.984375 17.96875 6.984375 36.375 
Q 6.984375 53.65625 15.1875 63.9375 
Q 23.390625 74.21875 37.203125 74.21875 
Q 40.921875 74.21875 44.703125 73.484375 
Q 48.484375 72.75 52.59375 71.296875 
z
" id="DejaVuSans-54"/>
      </defs>
      <g transform="translate(223.335588 322.182437)scale(0.1 -0.1)">
       <use xlink:href="#DejaVuSans-54"/>
       <use x="63.623047" xlink:href="#DejaVuSans-48"/>
      </g>
     </g>
    </g>
    <g id="xtick_5">
     <g id="line2d_5">
      <g>
       <use style="stroke:#000000;stroke-width:0.8;" x="281.653209" xlink:href="#m1e64399ed0" y="307.584"/>
      </g>
     </g>
     <g id="text_5">
      <!-- 80 -->
      <defs>
       <path d="M 31.78125 34.625 
Q 24.75 34.625 20.71875 30.859375 
Q 16.703125 27.09375 16.703125 20.515625 
Q 16.703125 13.921875 20.71875 10.15625 
Q 24.75 6.390625 31.78125 6.390625 
Q 38.8125 6.390625 42.859375 10.171875 
Q 46.921875 13.96875 46.921875 20.515625 
Q 46.921875 27.09375 42.890625 30.859375 
Q 38.875 34.625 31.78125 34.625 
z
M 21.921875 38.8125 
Q 15.578125 40.375 12.03125 44.71875 
Q 8.5 49.078125 8.5 55.328125 
Q 8.5 64.0625 14.71875 69.140625 
Q 20.953125 74.21875 31.78125 74.21875 
Q 42.671875 74.21875 48.875 69.140625 
Q 55.078125 64.0625 55.078125 55.328125 
Q 55.078125 49.078125 51.53125 44.71875 
Q 48 40.375 41.703125 38.8125 
Q 48.828125 37.15625 52.796875 32.3125 
Q 56.78125 27.484375 56.78125 20.515625 
Q 56.78125 9.90625 50.3125 4.234375 
Q 43.84375 -1.421875 31.78125 -1.421875 
Q 19.734375 -1.421875 13.25 4.234375 
Q 6.78125 9.90625 6.78125 20.515625 
Q 6.78125 27.484375 10.78125 32.3125 
Q 14.796875 37.15625 21.921875 38.8125 
z
M 18.3125 54.390625 
Q 18.3125 48.734375 21.84375 45.5625 
Q 25.390625 42.390625 31.78125 42.390625 
Q 38.140625 42.390625 41.71875 45.5625 
Q 45.3125 48.734375 45.3125 54.390625 
Q 45.3125 60.0625 41.71875 63.234375 
Q 38.140625 66.40625 31.78125 66.40625 
Q 25.390625 66.40625 21.84375 63.234375 
Q 18.3125 60.0625 18.3125 54.390625 
z
" id="DejaVuSans-56"/>
      </defs>
      <g transform="translate(275.290709 322.182437)scale(0.1 -0.1)">
       <use xlink:href="#DejaVuSans-56"/>
       <use x="63.623047" xlink:href="#DejaVuSans-48"/>
      </g>
     </g>
    </g>
    <g id="xtick_6">
     <g id="line2d_6">
      <g>
       <use style="stroke:#000000;stroke-width:0.8;" x="333.608329" xlink:href="#m1e64399ed0" y="307.584"/>
      </g>
     </g>
     <g id="text_6">
      <!-- 100 -->
      <defs>
       <path d="M 12.40625 8.296875 
L 28.515625 8.296875 
L 28.515625 63.921875 
L 10.984375 60.40625 
L 10.984375 69.390625 
L 28.421875 72.90625 
L 38.28125 72.90625 
L 38.28125 8.296875 
L 54.390625 8.296875 
L 54.390625 0 
L 12.40625 0 
z
" id="DejaVuSans-49"/>
      </defs>
      <g transform="translate(324.064579 322.182437)scale(0.1 -0.1)">
       <use xlink:href="#DejaVuSans-49"/>
       <use x="63.623047" xlink:href="#DejaVuSans-48"/>
       <use x="127.246094" xlink:href="#DejaVuSans-48"/>
      </g>
     </g>
    </g>
    <g id="xtick_7">
     <g id="line2d_7">
      <g>
       <use style="stroke:#000000;stroke-width:0.8;" x="385.56345" xlink:href="#m1e64399ed0" y="307.584"/>
      </g>
     </g>
     <g id="text_7">
      <!-- 120 -->
      <g transform="translate(376.0197 322.182437)scale(0.1 -0.1)">
       <use xlink:href="#DejaVuSans-49"/>
       <use x="63.623047" xlink:href="#DejaVuSans-50"/>
       <use x="127.246094" xlink:href="#DejaVuSans-48"/>
      </g>
     </g>
    </g>
    <g id="text_8">
     <!-- Frequency (Hz) -->
     <defs>
      <path d="M 9.8125 72.90625 
L 51.703125 72.90625 
L 51.703125 64.59375 
L 19.671875 64.59375 
L 19.671875 43.109375 
L 48.578125 43.109375 
L 48.578125 34.8125 
L 19.671875 34.8125 
L 19.671875 0 
L 9.8125 0 
z
" id="DejaVuSans-70"/>
      <path d="M 41.109375 46.296875 
Q 39.59375 47.171875 37.8125 47.578125 
Q 36.03125 48 33.890625 48 
Q 26.265625 48 22.1875 43.046875 
Q 18.109375 38.09375 18.109375 28.8125 
L 18.109375 0 
L 9.078125 0 
L 9.078125 54.6875 
L 18.109375 54.6875 
L 18.109375 46.1875 
Q 20.953125 51.171875 25.484375 53.578125 
Q 30.03125 56 36.53125 56 
Q 37.453125 56 38.578125 55.875 
Q 39.703125 55.765625 41.0625 55.515625 
z
" id="DejaVuSans-114"/>
      <path d="M 56.203125 29.59375 
L 56.203125 25.203125 
L 14.890625 25.203125 
Q 15.484375 15.921875 20.484375 11.0625 
Q 25.484375 6.203125 34.421875 6.203125 
Q 39.59375 6.203125 44.453125 7.46875 
Q 49.3125 8.734375 54.109375 11.28125 
L 54.109375 2.78125 
Q 49.265625 0.734375 44.1875 -0.34375 
Q 39.109375 -1.421875 33.890625 -1.421875 
Q 20.796875 -1.421875 13.15625 6.1875 
Q 5.515625 13.8125 5.515625 26.8125 
Q 5.515625 40.234375 12.765625 48.109375 
Q 20.015625 56 32.328125 56 
Q 43.359375 56 49.78125 48.890625 
Q 56.203125 41.796875 56.203125 29.59375 
z
M 47.21875 32.234375 
Q 47.125 39.59375 43.09375 43.984375 
Q 39.0625 48.390625 32.421875 48.390625 
Q 24.90625 48.390625 20.390625 44.140625 
Q 15.875 39.890625 15.1875 32.171875 
z
" id="DejaVuSans-101"/>
      <path d="M 14.796875 27.296875 
Q 14.796875 17.390625 18.875 11.75 
Q 22.953125 6.109375 30.078125 6.109375 
Q 37.203125 6.109375 41.296875 11.75 
Q 45.40625 17.390625 45.40625 27.296875 
Q 45.40625 37.203125 41.296875 42.84375 
Q 37.203125 48.484375 30.078125 48.484375 
Q 22.953125 48.484375 18.875 42.84375 
Q 14.796875 37.203125 14.796875 27.296875 
z
M 45.40625 8.203125 
Q 42.578125 3.328125 38.25 0.953125 
Q 33.9375 -1.421875 27.875 -1.421875 
Q 17.96875 -1.421875 11.734375 6.484375 
Q 5.515625 14.40625 5.515625 27.296875 
Q 5.515625 40.1875 11.734375 48.09375 
Q 17.96875 56 27.875 56 
Q 33.9375 56 38.25 53.625 
Q 42.578125 51.265625 45.40625 46.390625 
L 45.40625 54.6875 
L 54.390625 54.6875 
L 54.390625 -20.796875 
L 45.40625 -20.796875 
z
" id="DejaVuSans-113"/>
      <path d="M 8.5 21.578125 
L 8.5 54.6875 
L 17.484375 54.6875 
L 17.484375 21.921875 
Q 17.484375 14.15625 20.5 10.265625 
Q 23.53125 6.390625 29.59375 6.390625 
Q 36.859375 6.390625 41.078125 11.03125 
Q 45.3125 15.671875 45.3125 23.6875 
L 45.3125 54.6875 
L 54.296875 54.6875 
L 54.296875 0 
L 45.3125 0 
L 45.3125 8.40625 
Q 42.046875 3.421875 37.71875 1 
Q 33.40625 -1.421875 27.6875 -1.421875 
Q 18.265625 -1.421875 13.375 4.4375 
Q 8.5 10.296875 8.5 21.578125 
z
M 31.109375 56 
z
" id="DejaVuSans-117"/>
      <path d="M 54.890625 33.015625 
L 54.890625 0 
L 45.90625 0 
L 45.90625 32.71875 
Q 45.90625 40.484375 42.875 44.328125 
Q 39.84375 48.1875 33.796875 48.1875 
Q 26.515625 48.1875 22.3125 43.546875 
Q 18.109375 38.921875 18.109375 30.90625 
L 18.109375 0 
L 9.078125 0 
L 9.078125 54.6875 
L 18.109375 54.6875 
L 18.109375 46.1875 
Q 21.34375 51.125 25.703125 53.5625 
Q 30.078125 56 35.796875 56 
Q 45.21875 56 50.046875 50.171875 
Q 54.890625 44.34375 54.890625 33.015625 
z
" id="DejaVuSans-110"/>
      <path d="M 48.78125 52.59375 
L 48.78125 44.1875 
Q 44.96875 46.296875 41.140625 47.34375 
Q 37.3125 48.390625 33.40625 48.390625 
Q 24.65625 48.390625 19.8125 42.84375 
Q 14.984375 37.3125 14.984375 27.296875 
Q 14.984375 17.28125 19.8125 11.734375 
Q 24.65625 6.203125 33.40625 6.203125 
Q 37.3125 6.203125 41.140625 7.25 
Q 44.96875 8.296875 48.78125 10.40625 
L 48.78125 2.09375 
Q 45.015625 0.34375 40.984375 -0.53125 
Q 36.96875 -1.421875 32.421875 -1.421875 
Q 20.0625 -1.421875 12.78125 6.34375 
Q 5.515625 14.109375 5.515625 27.296875 
Q 5.515625 40.671875 12.859375 48.328125 
Q 20.21875 56 33.015625 56 
Q 37.15625 56 41.109375 55.140625 
Q 45.0625 54.296875 48.78125 52.59375 
z
" id="DejaVuSans-99"/>
      <path d="M 32.171875 -5.078125 
Q 28.375 -14.84375 24.75 -17.8125 
Q 21.140625 -20.796875 15.09375 -20.796875 
L 7.90625 -20.796875 
L 7.90625 -13.28125 
L 13.1875 -13.28125 
Q 16.890625 -13.28125 18.9375 -11.515625 
Q 21 -9.765625 23.484375 -3.21875 
L 25.09375 0.875 
L 2.984375 54.6875 
L 12.5 54.6875 
L 29.59375 11.921875 
L 46.6875 54.6875 
L 56.203125 54.6875 
z
" id="DejaVuSans-121"/>
      <path id="DejaVuSans-32"/>
      <path d="M 31 75.875 
Q 24.46875 64.65625 21.28125 53.65625 
Q 18.109375 42.671875 18.109375 31.390625 
Q 18.109375 20.125 21.3125 9.0625 
Q 24.515625 -2 31 -13.1875 
L 23.1875 -13.1875 
Q 15.875 -1.703125 12.234375 9.375 
Q 8.59375 20.453125 8.59375 31.390625 
Q 8.59375 42.28125 12.203125 53.3125 
Q 15.828125 64.359375 23.1875 75.875 
z
" id="DejaVuSans-40"/>
      <path d="M 9.8125 72.90625 
L 19.671875 72.90625 
L 19.671875 43.015625 
L 55.515625 43.015625 
L 55.515625 72.90625 
L 65.375 72.90625 
L 65.375 0 
L 55.515625 0 
L 55.515625 34.71875 
L 19.671875 34.71875 
L 19.671875 0 
L 9.8125 0 
z
" id="DejaVuSans-72"/>
      <path d="M 5.515625 54.6875 
L 48.1875 54.6875 
L 48.1875 46.484375 
L 14.40625 7.171875 
L 48.1875 7.171875 
L 48.1875 0 
L 4.296875 0 
L 4.296875 8.203125 
L 38.09375 47.515625 
L 5.515625 47.515625 
z
" id="DejaVuSans-122"/>
      <path d="M 8.015625 75.875 
L 15.828125 75.875 
Q 23.140625 64.359375 26.78125 53.3125 
Q 30.421875 42.28125 30.421875 31.390625 
Q 30.421875 20.453125 26.78125 9.375 
Q 23.140625 -1.703125 15.828125 -13.1875 
L 8.015625 -13.1875 
Q 14.5 -2 17.703125 9.0625 
Q 20.90625 20.125 20.90625 31.390625 
Q 20.90625 42.671875 17.703125 53.65625 
Q 14.5 64.65625 8.015625 75.875 
z
" id="DejaVuSans-41"/>
     </defs>
     <g transform="translate(198.455312 335.860562)scale(0.1 -0.1)">
      <use xlink:href="#DejaVuSans-70"/>
      <use x="50.269531" xlink:href="#DejaVuSans-114"/>
      <use x="89.132812" xlink:href="#DejaVuSans-101"/>
      <use x="150.65625" xlink:href="#DejaVuSans-113"/>
      <use x="214.132812" xlink:href="#DejaVuSans-117"/>
      <use x="277.511719" xlink:href="#DejaVuSans-101"/>
      <use x="339.035156" xlink:href="#DejaVuSans-110"/>
      <use x="402.414062" xlink:href="#DejaVuSans-99"/>
      <use x="457.394531" xlink:href="#DejaVuSans-121"/>
      <use x="516.574219" xlink:href="#DejaVuSans-32"/>
      <use x="548.361328" xlink:href="#DejaVuSans-40"/>
      <use x="587.375" xlink:href="#DejaVuSans-72"/>
      <use x="662.570312" xlink:href="#DejaVuSans-122"/>
      <use x="715.060547" xlink:href="#DejaVuSans-41"/>
     </g>
    </g>
   </g>
   <g id="matplotlib.axis_2">
    <g id="ytick_1">
     <g id="line2d_8">
      <defs>
       <path d="M 0 0 
L -3.5 0 
" id="m4a3e90b206" style="stroke:#000000;stroke-width:0.8;"/>
      </defs>
      <g>
       <use style="stroke:#000000;stroke-width:0.8;" x="57.6" xlink:href="#m4a3e90b206" y="295.493746"/>
      </g>
     </g>
     <g id="text_9">
      <!-- 0.00 -->
      <defs>
       <path d="M 10.6875 12.40625 
L 21 12.40625 
L 21 0 
L 10.6875 0 
z
" id="DejaVuSans-46"/>
      </defs>
      <g transform="translate(28.334375 299.292965)scale(0.1 -0.1)">
       <use xlink:href="#DejaVuSans-48"/>
       <use x="63.623047" xlink:href="#DejaVuSans-46"/>
       <use x="95.410156" xlink:href="#DejaVuSans-48"/>
       <use x="159.033203" xlink:href="#DejaVuSans-48"/>
      </g>
     </g>
    </g>
    <g id="ytick_2">
     <g id="line2d_9">
      <g>
       <use style="stroke:#000000;stroke-width:0.8;" x="57.6" xlink:href="#m4a3e90b206" y="259.864994"/>
      </g>
     </g>
     <g id="text_10">
      <!-- 0.25 -->
      <defs>
       <path d="M 10.796875 72.90625 
L 49.515625 72.90625 
L 49.515625 64.59375 
L 19.828125 64.59375 
L 19.828125 46.734375 
Q 21.96875 47.46875 24.109375 47.828125 
Q 26.265625 48.1875 28.421875 48.1875 
Q 40.625 48.1875 47.75 41.5 
Q 54.890625 34.8125 54.890625 23.390625 
Q 54.890625 11.625 47.5625 5.09375 
Q 40.234375 -1.421875 26.90625 -1.421875 
Q 22.3125 -1.421875 17.546875 -0.640625 
Q 12.796875 0.140625 7.71875 1.703125 
L 7.71875 11.625 
Q 12.109375 9.234375 16.796875 8.0625 
Q 21.484375 6.890625 26.703125 6.890625 
Q 35.15625 6.890625 40.078125 11.328125 
Q 45.015625 15.765625 45.015625 23.390625 
Q 45.015625 31 40.078125 35.4375 
Q 35.15625 39.890625 26.703125 39.890625 
Q 22.75 39.890625 18.8125 39.015625 
Q 14.890625 38.140625 10.796875 36.28125 
z
" id="DejaVuSans-53"/>
      </defs>
      <g transform="translate(28.334375 263.664213)scale(0.1 -0.1)">
       <use xlink:href="#DejaVuSans-48"/>
       <use x="63.623047" xlink:href="#DejaVuSans-46"/>
       <use x="95.410156" xlink:href="#DejaVuSans-50"/>
       <use x="159.033203" xlink:href="#DejaVuSans-53"/>
      </g>
     </g>
    </g>
    <g id="ytick_3">
     <g id="line2d_10">
      <g>
       <use style="stroke:#000000;stroke-width:0.8;" x="57.6" xlink:href="#m4a3e90b206" y="224.236243"/>
      </g>
     </g>
     <g id="text_11">
      <!-- 0.50 -->
      <g transform="translate(28.334375 228.035462)scale(0.1 -0.1)">
       <use xlink:href="#DejaVuSans-48"/>
       <use x="63.623047" xlink:href="#DejaVuSans-46"/>
       <use x="95.410156" xlink:href="#DejaVuSans-53"/>
       <use x="159.033203" xlink:href="#DejaVuSans-48"/>
      </g>
     </g>
    </g>
    <g id="ytick_4">
     <g id="line2d_11">
      <g>
       <use style="stroke:#000000;stroke-width:0.8;" x="57.6" xlink:href="#m4a3e90b206" y="188.607491"/>
      </g>
     </g>
     <g id="text_12">
      <!-- 0.75 -->
      <defs>
       <path d="M 8.203125 72.90625 
L 55.078125 72.90625 
L 55.078125 68.703125 
L 28.609375 0 
L 18.3125 0 
L 43.21875 64.59375 
L 8.203125 64.59375 
z
" id="DejaVuSans-55"/>
      </defs>
      <g transform="translate(28.334375 192.40671)scale(0.1 -0.1)">
       <use xlink:href="#DejaVuSans-48"/>
       <use x="63.623047" xlink:href="#DejaVuSans-46"/>
       <use x="95.410156" xlink:href="#DejaVuSans-55"/>
       <use x="159.033203" xlink:href="#DejaVuSans-53"/>
      </g>
     </g>
    </g>
    <g id="ytick_5">
     <g id="line2d_12">
      <g>
       <use style="stroke:#000000;stroke-width:0.8;" x="57.6" xlink:href="#m4a3e90b206" y="152.97874"/>
      </g>
     </g>
     <g id="text_13">
      <!-- 1.00 -->
      <g transform="translate(28.334375 156.777958)scale(0.1 -0.1)">
       <use xlink:href="#DejaVuSans-49"/>
       <use x="63.623047" xlink:href="#DejaVuSans-46"/>
       <use x="95.410156" xlink:href="#DejaVuSans-48"/>
       <use x="159.033203" xlink:href="#DejaVuSans-48"/>
      </g>
     </g>
    </g>
    <g id="ytick_6">
     <g id="line2d_13">
      <g>
       <use style="stroke:#000000;stroke-width:0.8;" x="57.6" xlink:href="#m4a3e90b206" y="117.349988"/>
      </g>
     </g>
     <g id="text_14">
      <!-- 1.25 -->
      <g transform="translate(28.334375 121.149207)scale(0.1 -0.1)">
       <use xlink:href="#DejaVuSans-49"/>
       <use x="63.623047" xlink:href="#DejaVuSans-46"/>
       <use x="95.410156" xlink:href="#DejaVuSans-50"/>
       <use x="159.033203" xlink:href="#DejaVuSans-53"/>
      </g>
     </g>
    </g>
    <g id="ytick_7">
     <g id="line2d_14">
      <g>
       <use style="stroke:#000000;stroke-width:0.8;" x="57.6" xlink:href="#m4a3e90b206" y="81.721236"/>
      </g>
     </g>
     <g id="text_15">
      <!-- 1.50 -->
      <g transform="translate(28.334375 85.520455)scale(0.1 -0.1)">
       <use xlink:href="#DejaVuSans-49"/>
       <use x="63.623047" xlink:href="#DejaVuSans-46"/>
       <use x="95.410156" xlink:href="#DejaVuSans-53"/>
       <use x="159.033203" xlink:href="#DejaVuSans-48"/>
      </g>
     </g>
    </g>
    <g id="ytick_8">
     <g id="line2d_15">
      <g>
       <use style="stroke:#000000;stroke-width:0.8;" x="57.6" xlink:href="#m4a3e90b206" y="46.092485"/>
      </g>
     </g>
     <g id="text_16">
      <!-- 1.75 -->
      <g transform="translate(28.334375 49.891703)scale(0.1 -0.1)">
       <use xlink:href="#DejaVuSans-49"/>
       <use x="63.623047" xlink:href="#DejaVuSans-46"/>
       <use x="95.410156" xlink:href="#DejaVuSans-55"/>
       <use x="159.033203" xlink:href="#DejaVuSans-53"/>
      </g>
     </g>
    </g>
    <g id="text_17">
     <!-- Amplitude -->
     <defs>
      <path d="M 34.1875 63.1875 
L 20.796875 26.90625 
L 47.609375 26.90625 
z
M 28.609375 72.90625 
L 39.796875 72.90625 
L 67.578125 0 
L 57.328125 0 
L 50.6875 18.703125 
L 17.828125 18.703125 
L 11.1875 0 
L 0.78125 0 
z
" id="DejaVuSans-65"/>
      <path d="M 52 44.1875 
Q 55.375 50.25 60.0625 53.125 
Q 64.75 56 71.09375 56 
Q 79.640625 56 84.28125 50.015625 
Q 88.921875 44.046875 88.921875 33.015625 
L 88.921875 0 
L 79.890625 0 
L 79.890625 32.71875 
Q 79.890625 40.578125 77.09375 44.375 
Q 74.3125 48.1875 68.609375 48.1875 
Q 61.625 48.1875 57.5625 43.546875 
Q 53.515625 38.921875 53.515625 30.90625 
L 53.515625 0 
L 44.484375 0 
L 44.484375 32.71875 
Q 44.484375 40.625 41.703125 44.40625 
Q 38.921875 48.1875 33.109375 48.1875 
Q 26.21875 48.1875 22.15625 43.53125 
Q 18.109375 38.875 18.109375 30.90625 
L 18.109375 0 
L 9.078125 0 
L 9.078125 54.6875 
L 18.109375 54.6875 
L 18.109375 46.1875 
Q 21.1875 51.21875 25.484375 53.609375 
Q 29.78125 56 35.6875 56 
Q 41.65625 56 45.828125 52.96875 
Q 50 49.953125 52 44.1875 
z
" id="DejaVuSans-109"/>
      <path d="M 18.109375 8.203125 
L 18.109375 -20.796875 
L 9.078125 -20.796875 
L 9.078125 54.6875 
L 18.109375 54.6875 
L 18.109375 46.390625 
Q 20.953125 51.265625 25.265625 53.625 
Q 29.59375 56 35.59375 56 
Q 45.5625 56 51.78125 48.09375 
Q 58.015625 40.1875 58.015625 27.296875 
Q 58.015625 14.40625 51.78125 6.484375 
Q 45.5625 -1.421875 35.59375 -1.421875 
Q 29.59375 -1.421875 25.265625 0.953125 
Q 20.953125 3.328125 18.109375 8.203125 
z
M 48.6875 27.296875 
Q 48.6875 37.203125 44.609375 42.84375 
Q 40.53125 48.484375 33.40625 48.484375 
Q 26.265625 48.484375 22.1875 42.84375 
Q 18.109375 37.203125 18.109375 27.296875 
Q 18.109375 17.390625 22.1875 11.75 
Q 26.265625 6.109375 33.40625 6.109375 
Q 40.53125 6.109375 44.609375 11.75 
Q 48.6875 17.390625 48.6875 27.296875 
z
" id="DejaVuSans-112"/>
      <path d="M 9.421875 75.984375 
L 18.40625 75.984375 
L 18.40625 0 
L 9.421875 0 
z
" id="DejaVuSans-108"/>
      <path d="M 9.421875 54.6875 
L 18.40625 54.6875 
L 18.40625 0 
L 9.421875 0 
z
M 9.421875 75.984375 
L 18.40625 75.984375 
L 18.40625 64.59375 
L 9.421875 64.59375 
z
" id="DejaVuSans-105"/>
      <path d="M 18.3125 70.21875 
L 18.3125 54.6875 
L 36.8125 54.6875 
L 36.8125 47.703125 
L 18.3125 47.703125 
L 18.3125 18.015625 
Q 18.3125 11.328125 20.140625 9.421875 
Q 21.96875 7.515625 27.59375 7.515625 
L 36.8125 7.515625 
L 36.8125 0 
L 27.59375 0 
Q 17.1875 0 13.234375 3.875 
Q 9.28125 7.765625 9.28125 18.015625 
L 9.28125 47.703125 
L 2.6875 47.703125 
L 2.6875 54.6875 
L 9.28125 54.6875 
L 9.28125 70.21875 
z
" id="DejaVuSans-116"/>
      <path d="M 45.40625 46.390625 
L 45.40625 75.984375 
L 54.390625 75.984375 
L 54.390625 0 
L 45.40625 0 
L 45.40625 8.203125 
Q 42.578125 3.328125 38.25 0.953125 
Q 33.9375 -1.421875 27.875 -1.421875 
Q 17.96875 -1.421875 11.734375 6.484375 
Q 5.515625 14.40625 5.515625 27.296875 
Q 5.515625 40.1875 11.734375 48.09375 
Q 17.96875 56 27.875 56 
Q 33.9375 56 38.25 53.625 
Q 42.578125 51.265625 45.40625 46.390625 
z
M 14.796875 27.296875 
Q 14.796875 17.390625 18.875 11.75 
Q 22.953125 6.109375 30.078125 6.109375 
Q 37.203125 6.109375 41.296875 11.75 
Q 45.40625 17.390625 45.40625 27.296875 
Q 45.40625 37.203125 41.296875 42.84375 
Q 37.203125 48.484375 30.078125 48.484375 
Q 22.953125 48.484375 18.875 42.84375 
Q 14.796875 37.203125 14.796875 27.296875 
z
" id="DejaVuSans-100"/>
     </defs>
     <g transform="translate(22.254687 200.150656)rotate(-90)scale(0.1 -0.1)">
      <use xlink:href="#DejaVuSans-65"/>
      <use x="68.408203" xlink:href="#DejaVuSans-109"/>
      <use x="165.820312" xlink:href="#DejaVuSans-112"/>
      <use x="229.296875" xlink:href="#DejaVuSans-108"/>
      <use x="257.080078" xlink:href="#DejaVuSans-105"/>
      <use x="284.863281" xlink:href="#DejaVuSans-116"/>
      <use x="324.072266" xlink:href="#DejaVuSans-117"/>
      <use x="387.451172" xlink:href="#DejaVuSans-100"/>
      <use x="450.927734" xlink:href="#DejaVuSans-101"/>
     </g>
    </g>
    <g id="text_18">
     <!-- 1e−5 -->
     <defs>
      <path d="M 10.59375 35.5 
L 73.1875 35.5 
L 73.1875 27.203125 
L 10.59375 27.203125 
z
" id="DejaVuSans-8722"/>
     </defs>
     <g transform="translate(57.6 38.472)scale(0.1 -0.1)">
      <use xlink:href="#DejaVuSans-49"/>
      <use x="63.623047" xlink:href="#DejaVuSans-101"/>
      <use x="125.146484" xlink:href="#DejaVuSans-8722"/>
      <use x="208.935547" xlink:href="#DejaVuSans-53"/>
     </g>
    </g>
   </g>
   <g id="line2d_16">
    <path clip-path="url(#p362e7d4f55)" d="M 73.832727 288.287893 
L 73.962641 294.963617 
L 74.352382 295.156031 
L 74.482296 294.849434 
L 74.742124 294.878998 
L 74.872038 294.633254 
L 75.131865 294.827686 
L 75.261779 294.712908 
L 75.521606 294.748712 
L 75.781434 294.650636 
L 75.911348 294.822829 
L 76.301089 294.579017 
L 76.431003 294.039337 
L 76.560917 294.616079 
L 76.690831 294.568123 
L 76.950658 294.778695 
L 77.080572 294.625865 
L 77.470313 294.69287 
L 78.37971 294.583986 
L 78.769451 294.181002 
L 78.899365 293.869916 
L 79.029279 293.948857 
L 79.159192 293.535849 
L 79.289106 293.849598 
L 79.41902 293.528358 
L 79.548934 292.208801 
L 79.678848 292.720667 
L 79.808761 291.065664 
L 79.938675 291.237439 
L 80.068589 291.223516 
L 80.198503 290.238109 
L 80.328416 290.725564 
L 80.45833 290.36605 
L 80.718158 287.570693 
L 80.848072 291.083584 
L 80.977985 290.202785 
L 81.107899 281.629323 
L 81.237813 282.36281 
L 81.367727 292.865455 
L 81.497641 290.605257 
L 81.627554 279.248769 
L 81.757468 290.48515 
L 81.887382 265.789478 
L 82.017296 269.91512 
L 82.147209 280.281086 
L 82.277123 266.984841 
L 82.407037 286.270498 
L 82.536951 277.882887 
L 82.666865 279.096359 
L 82.796778 284.83984 
L 83.056606 267.249883 
L 83.316433 287.290914 
L 83.576261 243.802455 
L 83.706175 289.922472 
L 84.095916 236.656076 
L 84.22583 255.150151 
L 84.355744 215.364039 
L 84.485658 283.28119 
L 84.615571 282.456174 
L 84.745485 269.096883 
L 84.875399 280.891956 
L 85.005313 236.099974 
L 85.135226 256.23096 
L 85.26514 249.511189 
L 85.395054 224.090985 
L 85.524968 265.819695 
L 85.654882 263.410065 
L 85.914709 212.344083 
L 86.044623 266.387287 
L 86.174537 267.445217 
L 86.434364 207.132768 
L 86.564278 235.647247 
L 86.694192 219.376615 
L 86.954019 275.291808 
L 87.083933 225.576234 
L 87.213847 241.311429 
L 87.343761 235.08386 
L 87.473675 177.82088 
L 87.603588 255.354021 
L 87.733502 184.545234 
L 87.863416 236.634217 
L 87.99333 238.009253 
L 88.123243 227.612222 
L 88.253157 205.954598 
L 88.512985 267.192695 
L 88.772812 208.470948 
L 88.902726 258.392377 
L 89.03264 193.192946 
L 89.162554 252.352535 
L 89.292468 131.060478 
L 89.422381 219.076943 
L 89.552295 129.914363 
L 89.682209 239.251473 
L 89.812123 205.781305 
L 89.942036 205.238075 
L 90.07195 167.783886 
L 90.201864 181.956205 
L 90.331778 144.407527 
L 90.461692 243.640126 
L 90.591605 142.212952 
L 90.851433 275.051793 
L 91.111261 132.571141 
L 91.241174 196.75036 
L 91.371088 194.539363 
L 91.501002 143.32535 
L 91.630916 255.705673 
L 91.760829 156.996601 
L 91.890743 147.251801 
L 92.150571 245.338462 
L 92.280485 251.344124 
L 92.410398 193.795885 
L 92.540312 240.345937 
L 92.670226 233.19445 
L 92.80014 268.239598 
L 92.930053 53.568 
L 93.059967 181.261749 
L 93.189881 181.855765 
L 93.319795 193.122769 
L 93.449709 157.366124 
L 93.579622 190.812736 
L 93.709536 253.726209 
L 93.83945 228.264072 
L 93.969364 265.594164 
L 94.099278 258.887582 
L 94.229191 206.893486 
L 94.359105 237.328654 
L 94.489019 182.753945 
L 94.618933 235.145311 
L 94.748846 138.23141 
L 94.87876 178.246008 
L 95.008674 262.56088 
L 95.138588 235.500044 
L 95.268502 240.971998 
L 95.528329 110.385786 
L 95.788157 244.535267 
L 95.918071 182.721843 
L 96.047984 272.372361 
L 96.177898 189.493808 
L 96.307812 241.376172 
L 96.437726 208.945075 
L 96.567639 221.499664 
L 96.827467 187.640653 
L 96.957381 102.937083 
L 97.087295 226.677698 
L 97.217208 181.983246 
L 97.347122 249.548656 
L 97.477036 212.277403 
L 97.736863 265.702133 
L 97.996691 143.488436 
L 98.256519 266.495682 
L 98.64626 145.101666 
L 98.776174 203.430612 
L 98.906088 207.306148 
L 99.036001 187.585733 
L 99.295829 234.585281 
L 99.425743 232.900591 
L 99.555656 237.058915 
L 99.68557 278.499691 
L 99.815484 211.323897 
L 99.945398 210.359145 
L 100.075312 151.047514 
L 100.205225 211.716992 
L 100.335139 148.970806 
L 100.465053 252.31634 
L 100.594967 204.063285 
L 100.72488 217.525226 
L 100.854794 244.609009 
L 101.114622 152.926346 
L 101.244536 238.661578 
L 101.374449 218.376287 
L 101.504363 264.469487 
L 101.634277 185.930691 
L 101.764191 265.291724 
L 101.894105 263.479434 
L 102.024018 252.237396 
L 102.153932 188.70985 
L 102.283846 209.781307 
L 102.41376 132.017251 
L 102.543673 226.03421 
L 102.673587 153.728652 
L 102.803501 256.938358 
L 102.933415 201.788375 
L 103.193242 196.905324 
L 103.323156 252.49675 
L 103.45307 208.510698 
L 103.582984 212.322898 
L 103.712898 243.062028 
L 103.842811 147.2705 
L 103.972725 276.194167 
L 104.102639 202.759698 
L 104.362466 233.679089 
L 104.622294 204.073093 
L 104.752208 246.890877 
L 104.882122 243.865281 
L 105.012035 139.508699 
L 105.141949 239.627447 
L 105.271863 224.702565 
L 105.401777 252.15345 
L 105.53169 145.927493 
L 105.661604 261.907426 
L 105.791518 196.690668 
L 106.051346 268.719045 
L 106.311173 155.251436 
L 106.441087 196.568332 
L 106.571001 202.331713 
L 106.700915 254.543264 
L 106.830828 197.900651 
L 107.090656 277.420052 
L 107.22057 277.020112 
L 107.350483 188.212775 
L 107.480397 178.24644 
L 107.740225 247.097139 
L 107.870139 161.273131 
L 108.000052 223.321737 
L 108.25988 212.104227 
L 108.389794 178.259994 
L 108.519708 217.704615 
L 108.649621 219.674878 
L 108.779535 204.412172 
L 108.909449 234.735046 
L 109.039363 163.972039 
L 109.169276 187.468609 
L 109.29919 156.348106 
L 109.429104 286.826656 
L 109.818845 192.774027 
L 109.948759 283.561134 
L 110.208587 194.992249 
L 110.3385 273.234012 
L 110.598328 158.231061 
L 110.728242 251.029051 
L 110.988069 213.599127 
L 111.117983 268.930817 
L 111.377811 249.799099 
L 111.507725 149.02452 
L 111.637638 256.651466 
L 111.767552 215.4021 
L 112.02738 228.419471 
L 112.157293 226.317042 
L 112.287207 260.145025 
L 112.417121 259.88526 
L 112.676949 207.26421 
L 112.806862 267.697382 
L 112.936776 197.328479 
L 113.06669 267.509315 
L 113.326518 224.196635 
L 113.456431 212.24405 
L 113.586345 253.796767 
L 113.716259 228.393973 
L 113.846173 236.808451 
L 113.976086 163.516766 
L 114.235914 233.754012 
L 114.365828 227.101866 
L 114.495742 179.155845 
L 114.625655 225.425967 
L 114.755569 224.22716 
L 114.885483 238.803258 
L 115.015397 212.465646 
L 115.275224 276.342299 
L 115.535052 218.564748 
L 115.664966 252.68015 
L 115.924793 202.864288 
L 116.054707 158.241923 
L 116.184621 224.367551 
L 116.314535 225.829585 
L 116.444448 240.415362 
L 116.704276 164.292001 
L 116.83419 258.220952 
L 116.964103 210.416943 
L 117.223931 257.619742 
L 117.353845 228.344081 
L 117.613672 285.055999 
L 117.743586 284.632399 
L 117.8735 251.720462 
L 118.003414 283.975544 
L 118.133328 178.24045 
L 118.263241 253.440117 
L 118.393155 238.264051 
L 118.523069 240.334062 
L 118.782896 263.067659 
L 118.91281 251.823868 
L 119.042724 269.967551 
L 119.172638 121.020376 
L 119.302552 222.815682 
L 119.432465 225.782977 
L 119.562379 247.522868 
L 119.692293 243.609789 
L 119.822207 224.36919 
L 120.082034 258.30931 
L 120.211948 239.79809 
L 120.341862 263.848656 
L 120.471776 228.540373 
L 120.601689 229.623741 
L 120.731603 235.162519 
L 120.861517 271.944774 
L 120.991431 271.844162 
L 121.121345 233.634418 
L 121.251258 265.102505 
L 121.511086 185.492398 
L 121.641 214.262079 
L 121.770913 141.300469 
L 121.900827 160.988771 
L 122.030741 226.476549 
L 122.160655 189.276219 
L 122.420482 286.195277 
L 122.68031 234.032394 
L 122.940138 277.875874 
L 123.070051 200.069881 
L 123.329879 244.720935 
L 123.589706 222.617714 
L 123.71962 243.94215 
L 123.849534 226.2668 
L 123.979448 252.252137 
L 124.109362 184.163654 
L 124.499103 238.741815 
L 124.629017 188.903873 
L 124.888844 273.358731 
L 125.018758 254.152337 
L 125.148672 279.709973 
L 125.408499 207.060616 
L 125.668327 256.948982 
L 125.798241 246.866052 
L 125.928155 283.039778 
L 126.058068 253.398297 
L 126.187982 259.023525 
L 126.317896 285.513982 
L 126.577723 190.256033 
L 126.707637 233.393053 
L 126.837551 239.11398 
L 126.967465 261.686601 
L 127.357206 184.18851 
L 127.617034 266.288044 
L 127.876861 208.49588 
L 128.136689 276.842421 
L 128.266603 233.49674 
L 128.396516 252.744881 
L 128.656344 248.901315 
L 128.786258 203.306848 
L 128.916172 197.935022 
L 129.046085 248.103043 
L 129.175999 237.860288 
L 129.305913 207.803605 
L 129.435827 237.042464 
L 129.56574 232.291556 
L 129.695654 193.085206 
L 129.825568 248.747609 
L 129.955482 230.102136 
L 130.085396 289.864834 
L 130.215309 283.704871 
L 130.345223 251.774874 
L 130.475137 247.483947 
L 130.605051 228.591933 
L 130.734965 236.726659 
L 130.864878 279.576581 
L 130.994792 234.152968 
L 131.124706 279.424009 
L 131.25462 236.862721 
L 131.384533 264.416228 
L 131.514447 235.458973 
L 131.644361 275.260242 
L 131.774275 221.598895 
L 131.904189 266.326105 
L 132.034102 248.866619 
L 132.164016 277.638198 
L 132.29393 219.348871 
L 132.423844 260.055045 
L 132.553758 235.342408 
L 132.813585 264.313311 
L 133.073413 205.333905 
L 133.203326 273.133366 
L 133.33324 277.686946 
L 133.593068 256.546909 
L 133.722982 268.55892 
L 133.852895 230.653012 
L 133.982809 258.672682 
L 134.112723 220.399957 
L 134.242637 222.139119 
L 134.37255 265.379477 
L 134.502464 236.337174 
L 134.632378 233.107584 
L 134.762292 256.345418 
L 134.892206 186.469825 
L 135.022119 257.251162 
L 135.152033 243.25672 
L 135.281947 275.730381 
L 135.541775 228.600775 
L 135.671688 248.104857 
L 135.801602 218.739007 
L 136.06143 270.311964 
L 136.191343 261.361351 
L 136.321257 278.625488 
L 136.451171 184.830706 
L 136.581085 260.916925 
L 136.710999 262.90242 
L 136.840912 287.286055 
L 136.970826 277.228174 
L 137.230654 202.512897 
L 137.360567 273.909623 
L 137.490481 257.682937 
L 137.620395 281.221043 
L 137.750309 282.337468 
L 137.880223 271.709328 
L 138.010136 278.081163 
L 138.14005 264.804697 
L 138.269964 209.423518 
L 138.529792 295.331655 
L 138.659705 270.568506 
L 138.789619 285.018109 
L 139.049447 222.728152 
L 139.17936 277.607386 
L 139.309274 257.913135 
L 139.439188 261.519163 
L 139.569102 252.623776 
L 139.699016 220.816077 
L 139.828929 229.465548 
L 139.958843 284.677141 
L 140.088757 240.382076 
L 140.218671 259.617494 
L 140.348585 259.000635 
L 140.478498 288.041837 
L 140.608412 240.362106 
L 140.738326 250.68959 
L 140.86824 242.718461 
L 140.998153 217.220925 
L 141.128067 268.056953 
L 141.387895 237.90425 
L 141.517809 234.914499 
L 141.777636 264.253849 
L 141.90755 225.103422 
L 142.037464 252.944433 
L 142.297291 217.747639 
L 142.427205 254.781268 
L 142.557119 240.185301 
L 142.816946 294.005824 
L 143.206688 235.801478 
L 143.336602 253.285761 
L 143.466515 253.82425 
L 143.726343 267.908029 
L 143.98617 273.946821 
L 144.116084 245.847651 
L 144.245998 284.792075 
L 144.375912 238.364997 
L 144.505826 251.11477 
L 144.635739 224.050864 
L 144.765653 281.63398 
L 144.895567 265.60715 
L 145.025481 274.14827 
L 145.155395 254.879701 
L 145.415222 267.89627 
L 145.545136 267.254345 
L 145.67505 256.125837 
L 145.804963 256.300603 
L 145.934877 265.185679 
L 146.064791 289.96633 
L 146.194705 269.997876 
L 146.324619 277.195265 
L 146.454532 254.538986 
L 146.584446 251.737227 
L 146.71436 263.415469 
L 146.844274 251.678598 
L 146.974187 206.53225 
L 147.104101 266.278402 
L 147.234015 268.478163 
L 147.363929 261.572645 
L 147.623756 271.736473 
L 147.75367 216.601676 
L 147.883584 269.997858 
L 148.013498 251.149457 
L 148.273325 283.02338 
L 148.403239 241.101539 
L 148.922894 259.990561 
L 149.052808 271.893601 
L 149.182722 270.753969 
L 149.312636 255.899694 
L 149.442549 267.216423 
L 149.572463 234.277051 
L 149.702377 277.502167 
L 149.832291 252.704904 
L 149.962205 286.996507 
L 150.092118 255.509064 
L 150.222032 272.13133 
L 150.351946 253.530233 
L 150.48186 277.463086 
L 150.611773 268.390117 
L 150.741687 278.867151 
L 150.871601 245.867067 
L 151.131429 284.320248 
L 151.391256 264.626498 
L 151.52117 289.240611 
L 151.651084 264.455718 
L 151.780997 274.810746 
L 151.910911 275.259981 
L 152.040825 268.537938 
L 152.170739 230.95838 
L 152.430566 287.504068 
L 152.56048 264.663996 
L 152.820308 277.867452 
L 152.950222 269.436699 
L 153.080135 291.188792 
L 153.210049 234.495547 
L 153.469877 280.708968 
L 153.59979 254.610665 
L 153.729704 275.066572 
L 153.859618 261.729754 
L 153.989532 229.186808 
L 154.249359 281.877307 
L 154.639101 246.588019 
L 154.769015 275.490191 
L 154.898928 277.497461 
L 155.028842 268.60122 
L 155.158756 275.199368 
L 155.28867 269.467349 
L 155.418583 276.513833 
L 155.678411 252.424588 
L 155.808325 247.975713 
L 155.938239 269.466305 
L 156.068152 269.224841 
L 156.198066 281.810266 
L 156.32798 255.003073 
L 156.717721 277.978103 
L 156.847635 280.452525 
L 156.977549 272.880223 
L 157.107463 281.241555 
L 157.36729 263.333945 
L 157.497204 284.788603 
L 157.627118 281.160495 
L 157.757032 274.147344 
L 157.886945 283.291132 
L 158.016859 268.592616 
L 158.146773 284.078487 
L 158.276687 264.555334 
L 158.4066 262.331607 
L 158.536514 288.458353 
L 158.796342 263.873699 
L 158.926256 278.632965 
L 159.056169 273.638473 
L 159.315997 251.831459 
L 159.445911 277.242453 
L 159.705738 268.25764 
L 159.835652 247.507462 
L 159.965566 282.911188 
L 160.09548 276.847127 
L 160.225393 276.441853 
L 160.485221 262.527013 
L 160.745049 279.817184 
L 161.004876 262.310311 
L 161.13479 253.259641 
L 161.264704 258.65663 
L 161.394617 249.304713 
L 161.524531 256.727234 
L 161.654445 250.711183 
L 161.914273 288.48454 
L 162.044186 275.069421 
L 162.1741 274.97688 
L 162.433928 281.953838 
L 162.563842 273.449997 
L 162.693755 281.931378 
L 162.823669 271.140357 
L 162.953583 276.230208 
L 163.083497 289.72729 
L 163.343324 284.84105 
L 163.473238 259.243065 
L 163.603152 276.791117 
L 163.733066 254.381134 
L 163.862979 277.3692 
L 163.992893 266.679262 
L 164.122807 294.442126 
L 164.252721 268.818822 
L 164.382635 279.841156 
L 164.512548 264.719479 
L 164.642462 281.171614 
L 164.772376 274.387734 
L 164.90229 282.494162 
L 165.032203 267.408684 
L 165.162117 284.604332 
L 165.292031 275.32589 
L 165.421945 289.463219 
L 165.551859 289.625589 
L 165.811686 270.568077 
L 166.071514 280.409404 
L 166.201427 269.039069 
L 166.331341 267.487598 
L 166.461255 270.474078 
L 166.591169 266.983802 
L 166.721083 275.448449 
L 166.850996 237.226984 
L 167.110824 285.028958 
L 167.240738 264.065081 
L 167.370652 280.356554 
L 167.500565 262.703503 
L 167.630479 283.563545 
L 167.760393 278.686118 
L 167.890307 285.325456 
L 168.150134 264.667933 
L 168.280048 283.569988 
L 168.409962 265.441029 
L 168.539876 284.585754 
L 168.669789 278.036695 
L 168.799703 278.481672 
L 168.929617 250.876636 
L 169.059531 273.986692 
L 169.189445 270.448013 
L 169.319358 275.334099 
L 169.449272 273.749058 
L 169.579186 292.592861 
L 169.7091 285.328488 
L 169.839013 284.892142 
L 169.968927 268.930392 
L 170.098841 285.506015 
L 170.358669 281.821769 
L 170.488582 272.294304 
L 170.74841 289.57297 
L 170.878324 273.488114 
L 171.138151 282.815358 
L 171.397979 278.154647 
L 171.78772 282.216781 
L 171.917634 278.105665 
L 172.047548 263.711024 
L 172.177462 278.750238 
L 172.437289 264.920335 
L 172.567203 292.672383 
L 172.697117 259.691145 
L 172.82703 279.769958 
L 172.956944 277.645539 
L 173.086858 270.024703 
L 173.476599 287.394654 
L 173.606513 259.797274 
L 173.866341 281.420906 
L 173.996255 276.721637 
L 174.126168 261.654327 
L 174.256082 282.674616 
L 174.51591 261.015958 
L 174.645823 282.258462 
L 174.775737 273.787542 
L 174.905651 274.922077 
L 175.035565 282.298303 
L 175.165479 266.075771 
L 175.295392 292.235478 
L 175.55522 278.89107 
L 175.685134 287.37262 
L 175.815047 277.021072 
L 175.944961 280.489245 
L 176.074875 264.710279 
L 176.204789 289.817699 
L 176.334703 281.530941 
L 176.464616 283.668369 
L 176.59453 283.773659 
L 176.724444 275.758307 
L 176.854358 281.166095 
L 176.984272 293.354299 
L 177.114185 276.870822 
L 177.244099 288.162146 
L 177.374013 271.531543 
L 177.503927 272.05324 
L 177.63384 275.235189 
L 177.763754 291.537336 
L 177.893668 265.643127 
L 178.023582 287.916781 
L 178.283409 275.558282 
L 178.413323 273.42044 
L 178.673151 288.624502 
L 178.803064 271.510749 
L 178.932978 286.977065 
L 179.192806 277.857292 
L 179.32272 267.023467 
L 179.452633 271.93988 
L 179.582547 264.639809 
L 179.712461 276.59856 
L 179.842375 275.155079 
L 179.972289 264.445078 
L 180.102202 275.005202 
L 180.36203 270.599108 
L 180.491944 276.589084 
L 180.751771 262.353017 
L 181.011599 288.214409 
L 181.141513 284.785186 
L 181.271426 270.605164 
L 181.40134 291.055449 
L 181.531254 271.326877 
L 181.661168 277.059892 
L 181.791082 265.310464 
L 181.920995 280.242217 
L 182.050909 279.017046 
L 182.310737 289.58646 
L 182.44065 293.31676 
L 182.570564 263.51021 
L 182.830392 289.596586 
L 182.960306 290.435879 
L 183.090219 270.461501 
L 183.220133 287.461339 
L 183.479961 279.837364 
L 183.609874 283.308043 
L 183.739788 283.370624 
L 183.869702 291.731879 
L 183.999616 278.298641 
L 184.12953 285.593899 
L 184.259443 279.00941 
L 184.389357 293.24057 
L 184.519271 284.718737 
L 184.649185 286.89459 
L 184.779099 282.997775 
L 185.038926 269.286991 
L 185.16884 287.040337 
L 185.688495 276.841333 
L 185.818409 284.648888 
L 185.948323 271.883908 
L 186.20815 284.380228 
L 186.338064 283.84413 
L 186.467978 280.007411 
L 186.727805 283.169929 
L 186.857719 290.158075 
L 186.987633 282.335482 
L 187.117547 284.892599 
L 187.24746 272.550575 
L 187.507288 294.350074 
L 187.637202 291.385174 
L 187.767116 285.954514 
L 187.897029 287.377041 
L 188.026943 282.009505 
L 188.156857 287.265974 
L 188.286771 286.409844 
L 188.416684 282.250739 
L 188.546598 294.123198 
L 188.806426 289.617472 
L 188.93634 292.324493 
L 189.066253 292.049878 
L 189.196167 289.978129 
L 189.326081 292.859927 
L 189.455995 288.970635 
L 189.585909 290.745597 
L 189.715822 287.059807 
L 189.845736 292.186929 
L 189.97565 287.722738 
L 190.105564 292.11701 
L 190.235477 290.662233 
L 190.495305 292.209713 
L 190.625219 293.239377 
L 190.755133 292.198734 
L 191.01496 293.666832 
L 191.144874 291.427663 
L 191.404702 294.384057 
L 191.534615 293.429462 
L 191.664529 293.677757 
L 191.794443 293.403083 
L 191.924357 292.565439 
L 192.05427 293.480117 
L 192.184184 293.303552 
L 192.314098 294.312796 
L 192.444012 292.818092 
L 192.833753 294.507529 
L 192.963667 294.626101 
L 193.223494 294.329133 
L 193.483322 294.86285 
L 193.613236 294.390218 
L 193.74315 295.201105 
L 193.873063 294.930801 
L 194.132891 295.218652 
L 194.262805 295.116804 
L 194.78246 295.364022 
L 195.042287 295.389587 
L 197.380736 295.372308 
L 197.900391 295.373042 
L 198.290132 295.400963 
L 200.888408 295.435152 
L 203.616597 295.463498 
L 212.97039 295.380293 
L 213.619959 295.097499 
L 213.749872 295.281472 
L 214.0097 295.014762 
L 214.139614 295.055504 
L 214.399441 294.846575 
L 214.529355 294.905059 
L 214.659269 294.593408 
L 214.789183 294.996584 
L 214.919096 294.857897 
L 215.04901 294.923188 
L 215.178924 294.530534 
L 215.308838 294.745187 
L 215.568665 293.953662 
L 215.698579 294.065761 
L 215.828493 293.57575 
L 216.08832 294.596363 
L 216.218234 294.886425 
L 216.478062 293.136487 
L 216.737889 292.106898 
L 216.867803 293.263404 
L 216.997717 292.911499 
L 217.257544 294.318459 
L 217.517372 291.754592 
L 217.647286 291.516245 
L 217.7772 292.097452 
L 217.907113 290.084072 
L 218.037027 290.390646 
L 218.166941 291.955627 
L 218.296855 289.491236 
L 218.426769 291.145699 
L 218.556682 290.279615 
L 218.686596 290.531771 
L 218.81651 291.19114 
L 219.076337 289.224886 
L 219.206251 291.204621 
L 219.466079 288.522071 
L 219.595993 288.824205 
L 219.725906 288.974686 
L 219.85582 285.267418 
L 219.985734 289.669463 
L 220.115648 288.79414 
L 220.245561 290.625755 
L 220.375475 286.600948 
L 220.505389 288.562998 
L 220.635303 287.380144 
L 220.765217 287.993255 
L 220.89513 290.290888 
L 221.025044 286.776952 
L 221.154958 290.116228 
L 221.414786 284.589817 
L 221.544699 289.038748 
L 221.934441 285.537918 
L 222.064354 287.391932 
L 222.194268 286.397914 
L 222.324182 287.137829 
L 222.454096 289.634881 
L 222.843837 284.276604 
L 222.973751 289.96578 
L 223.233579 285.341356 
L 223.363492 289.57086 
L 223.493406 284.629113 
L 223.62332 287.35831 
L 223.753234 284.900817 
L 224.013061 288.240365 
L 224.142975 282.396304 
L 224.402803 284.538767 
L 224.532716 282.340845 
L 224.66263 283.550699 
L 224.792544 287.761655 
L 224.922458 284.811277 
L 225.052371 284.413991 
L 225.182285 287.653445 
L 225.312199 287.04824 
L 225.442113 288.959863 
L 225.572027 282.668765 
L 225.831854 285.251759 
L 225.961768 280.192489 
L 226.221596 286.045837 
L 226.351509 285.427651 
L 226.481423 286.246425 
L 226.611337 284.009987 
L 226.741251 289.651793 
L 226.871164 287.397181 
L 227.001078 288.043195 
L 227.130992 283.470199 
L 227.39082 284.276042 
L 227.520733 288.909799 
L 227.650647 286.388694 
L 227.780561 287.618734 
L 228.040389 283.527729 
L 228.170302 287.569944 
L 228.43013 283.537919 
L 228.689957 289.352551 
L 228.819871 287.604567 
L 228.949785 290.174484 
L 229.209613 284.476172 
L 229.339526 284.780144 
L 229.46944 284.509283 
L 229.599354 282.440729 
L 229.859181 287.010452 
L 229.989095 288.550805 
L 230.248923 283.774124 
L 230.378837 284.911768 
L 230.50875 287.887616 
L 230.638664 286.892035 
L 230.768578 284.934877 
L 230.898492 287.23606 
L 231.028406 284.998817 
L 231.158319 285.301302 
L 231.288233 284.319431 
L 231.418147 285.491511 
L 231.548061 283.23296 
L 231.677974 286.046337 
L 231.807888 285.652632 
L 231.937802 283.834437 
L 232.067716 287.325895 
L 232.19763 287.809834 
L 232.457457 286.541048 
L 232.587371 284.244526 
L 232.717285 284.228852 
L 232.847199 285.156226 
L 232.977112 287.83975 
L 233.107026 284.843142 
L 233.23694 285.887577 
L 233.366854 285.800763 
L 233.496767 287.026546 
L 233.626681 284.397695 
L 233.756595 285.596258 
L 233.886509 285.152601 
L 234.016423 285.909347 
L 234.146336 288.984916 
L 234.27625 286.855797 
L 234.406164 287.004146 
L 234.536078 288.691979 
L 234.665991 286.620749 
L 234.795905 286.975555 
L 234.925819 288.305527 
L 235.055733 286.225788 
L 235.185647 286.035047 
L 235.31556 286.799959 
L 235.445474 286.877099 
L 235.705302 284.436139 
L 235.835216 287.867147 
L 235.965129 287.080325 
L 236.095043 287.707855 
L 236.224957 287.244793 
L 236.354871 288.709264 
L 236.614698 286.373876 
L 236.744612 286.129204 
L 236.874526 287.926534 
L 237.134353 284.614695 
L 237.394181 286.461946 
L 237.524095 284.59513 
L 237.654009 286.915544 
L 237.783922 286.387989 
L 237.913836 286.462341 
L 238.173664 287.302386 
L 238.303577 286.95375 
L 238.433491 287.54612 
L 238.563405 285.03518 
L 238.693319 285.39809 
L 238.823233 284.682378 
L 238.953146 284.926976 
L 239.08306 284.919284 
L 239.342888 287.76464 
L 239.472801 283.363183 
L 239.732629 288.867428 
L 239.862543 285.951215 
L 239.992457 288.008982 
L 240.12237 287.140682 
L 240.252284 283.639081 
L 240.382198 288.748722 
L 240.512112 285.776617 
L 240.642026 285.602169 
L 240.901853 284.570477 
L 241.031767 287.34244 
L 241.161681 285.693778 
L 241.291594 289.870887 
L 241.681336 287.053619 
L 241.81125 288.148983 
L 241.941163 286.378606 
L 242.071077 288.24936 
L 242.200991 284.128117 
L 242.330905 284.708858 
L 242.460819 287.598619 
L 242.590732 284.293949 
L 242.720646 286.602129 
L 242.85056 286.907539 
L 242.980474 286.060107 
L 243.110387 288.482983 
L 243.240301 288.113439 
L 243.370215 286.714777 
L 243.500129 289.538288 
L 243.759956 285.804125 
L 244.019784 286.976842 
L 244.149698 284.103787 
L 244.539439 287.410828 
L 244.669353 285.933781 
L 244.92918 288.926555 
L 245.059094 286.645294 
L 245.318922 286.813054 
L 245.448836 286.043535 
L 245.578749 286.233909 
L 245.708663 286.159172 
L 245.968491 288.475238 
L 246.228318 286.582695 
L 246.358232 286.993178 
L 246.61806 286.118402 
L 246.747973 288.87996 
L 246.877887 285.560967 
L 247.007801 287.533848 
L 247.137715 283.66287 
L 247.267629 287.392791 
L 247.397542 285.64135 
L 247.527456 286.945476 
L 247.65737 287.019743 
L 248.047111 288.250828 
L 248.177025 287.080348 
L 248.436853 284.491128 
L 248.956508 288.814845 
L 249.086421 287.378019 
L 249.216335 288.13227 
L 249.476163 286.238596 
L 249.73599 289.047921 
L 249.995818 285.190471 
L 250.385559 288.133503 
L 250.645387 286.277203 
L 251.035128 287.704589 
L 251.165042 288.120767 
L 251.294956 286.978442 
L 251.42487 284.833268 
L 251.554783 285.544622 
L 251.814611 283.086029 
L 251.944525 288.331872 
L 252.074439 288.63002 
L 252.204352 287.779516 
L 252.334266 285.683753 
L 252.46418 287.820165 
L 252.724007 285.274338 
L 252.983835 286.696461 
L 253.113749 286.609684 
L 253.373576 288.593661 
L 253.50349 288.555566 
L 253.633404 287.101343 
L 253.763318 289.244948 
L 253.893231 286.078052 
L 254.023145 288.158417 
L 254.153059 287.042722 
L 254.282973 287.810467 
L 254.412887 292.807402 
L 254.5428 285.059329 
L 254.672714 285.950571 
L 254.932542 289.748492 
L 255.192369 286.651188 
L 255.322283 287.230862 
L 255.452197 285.787563 
L 255.582111 286.699639 
L 255.712024 289.513625 
L 255.841938 284.933897 
L 255.971852 287.698002 
L 256.23168 285.828811 
L 256.361593 287.71299 
L 256.491507 286.871575 
L 256.751335 289.820062 
L 256.881248 288.508438 
L 257.011162 283.701181 
L 257.141076 290.073175 
L 257.27099 285.181019 
L 257.400904 288.044217 
L 257.530817 286.368887 
L 257.660731 286.13512 
L 257.790645 285.074734 
L 257.920559 287.300989 
L 258.050473 287.550639 
L 258.180386 285.241901 
L 258.3103 284.970063 
L 258.829955 288.857185 
L 258.959869 286.301323 
L 259.089783 289.394618 
L 259.34961 285.167955 
L 259.609438 290.918492 
L 259.739352 283.722761 
L 259.869266 288.387285 
L 259.999179 284.697233 
L 260.259007 289.544842 
L 260.388921 289.298161 
L 260.518834 288.533142 
L 260.648748 285.898616 
L 260.778662 288.247959 
L 260.908576 287.89274 
L 261.03849 285.604701 
L 261.168403 285.83693 
L 261.298317 287.419117 
L 261.428231 285.532657 
L 261.558145 291.110693 
L 261.688058 285.732538 
L 261.817972 288.634787 
L 262.0778 287.265835 
L 262.207714 282.904933 
L 262.337627 287.746444 
L 262.467541 285.661538 
L 262.597455 289.859123 
L 262.727369 289.779441 
L 262.857283 287.817381 
L 262.987196 288.1913 
L 263.11711 288.091504 
L 263.247024 287.286657 
L 263.376938 284.572906 
L 263.636765 288.203405 
L 263.766679 285.647699 
L 263.896593 287.252422 
L 264.026507 286.448108 
L 264.15642 283.28271 
L 264.286334 287.624223 
L 264.416248 285.459923 
L 264.676076 289.588929 
L 264.805989 289.708032 
L 264.935903 288.159815 
L 265.065817 291.761139 
L 265.195731 284.815327 
L 265.325644 284.992851 
L 265.585472 287.10711 
L 265.715386 284.763023 
L 265.8453 285.994968 
L 265.975213 289.547113 
L 266.105127 287.179344 
L 266.235041 289.328375 
L 266.494868 285.829739 
L 266.624782 283.990055 
L 266.88461 288.888847 
L 267.014524 289.993374 
L 267.144437 288.095087 
L 267.274351 287.99725 
L 267.534179 285.893338 
L 267.664093 284.867332 
L 267.794006 289.220178 
L 267.92392 285.988969 
L 268.053834 288.247196 
L 268.183748 287.324078 
L 268.313661 290.685908 
L 268.443575 288.879686 
L 268.573489 288.75056 
L 268.833317 285.119064 
L 268.96323 286.467979 
L 269.093144 284.371299 
L 269.223058 291.46357 
L 269.482886 286.95414 
L 269.612799 284.34691 
L 269.742713 285.773912 
L 269.872627 284.362613 
L 270.132454 289.003227 
L 270.262368 289.799209 
L 270.392282 285.225529 
L 270.522196 287.729982 
L 270.65211 287.443545 
L 270.782023 287.804936 
L 270.911937 283.37788 
L 271.171765 286.099634 
L 271.301678 285.276923 
L 271.69142 292.377531 
L 271.821334 286.842807 
L 271.951247 288.32184 
L 272.081161 287.588407 
L 272.211075 288.38944 
L 272.340989 287.464378 
L 272.470903 289.986666 
L 272.73073 284.354602 
L 273.250385 289.060661 
L 273.380299 286.652808 
L 273.510213 291.306305 
L 273.77004 287.709411 
L 273.899954 290.932704 
L 274.029868 289.73028 
L 274.159782 290.458544 
L 274.289696 283.291174 
L 274.419609 290.167277 
L 274.549523 284.714644 
L 274.809351 289.990935 
L 275.069178 282.968191 
L 275.329006 289.370215 
L 275.45892 290.868849 
L 275.718747 286.497229 
L 275.978575 288.861438 
L 276.108488 283.16069 
L 276.238402 288.812837 
L 276.368316 289.029603 
L 276.49823 285.776374 
L 276.628144 286.782494 
L 276.758057 283.821644 
L 276.887971 290.974678 
L 277.017885 285.691087 
L 277.147799 291.840187 
L 277.407626 285.758841 
L 277.667454 289.871964 
L 277.797368 287.155084 
L 277.927281 287.00175 
L 278.057195 285.023061 
L 278.317023 288.23876 
L 278.57685 285.558071 
L 278.706764 291.309902 
L 278.966592 286.858401 
L 279.096506 290.424226 
L 279.226419 285.609156 
L 279.356333 289.749906 
L 279.486247 289.163518 
L 279.616161 290.434067 
L 279.746074 286.359555 
L 280.005902 289.339955 
L 280.26573 286.052558 
L 280.395643 286.379019 
L 280.525557 287.563896 
L 280.655471 292.001705 
L 280.785385 290.87444 
L 280.915298 288.201855 
L 281.045212 288.686412 
L 281.175126 289.963417 
L 281.30504 285.254607 
L 281.564867 287.217465 
L 281.694781 285.994041 
L 281.824695 290.309028 
L 281.954609 286.757535 
L 282.084523 287.806162 
L 282.214436 284.105702 
L 282.34435 288.653888 
L 282.474264 285.729536 
L 282.734091 287.389317 
L 282.993919 290.757497 
L 283.123833 289.739579 
L 283.253747 284.928402 
L 283.513574 287.906677 
L 283.643488 285.55008 
L 283.773402 285.790971 
L 284.033229 287.732879 
L 284.293057 290.692834 
L 284.422971 285.582159 
L 284.552884 288.00275 
L 284.682798 285.879203 
L 284.812712 286.519779 
L 284.942626 286.106433 
L 285.07254 290.162578 
L 285.202453 287.03297 
L 285.332367 289.826082 
L 285.592195 286.15106 
L 285.722108 286.237119 
L 286.11185 289.326135 
L 286.241764 287.146051 
L 286.501591 289.090043 
L 286.631505 286.70318 
L 286.761419 289.331261 
L 286.891333 287.290973 
L 287.021246 289.395055 
L 287.15116 285.699203 
L 287.410988 288.230563 
L 287.540901 288.161896 
L 287.670815 286.946174 
L 287.800729 288.749095 
L 288.060557 287.82125 
L 288.19047 290.471253 
L 288.320384 289.953821 
L 288.450298 288.71484 
L 288.580212 285.170472 
L 288.840039 288.989941 
L 288.969953 287.22848 
L 289.099867 287.442601 
L 289.229781 287.910146 
L 289.359694 287.578864 
L 289.489608 286.933032 
L 289.619522 285.253955 
L 289.749436 289.432497 
L 290.009263 287.180485 
L 290.269091 287.959056 
L 290.399005 286.265353 
L 290.528918 288.973288 
L 290.658832 286.893944 
L 290.788746 286.894474 
L 290.91866 287.089352 
L 291.048574 285.06786 
L 291.178487 289.712033 
L 291.308401 289.653017 
L 291.438315 287.387922 
L 291.568229 290.241929 
L 291.698143 289.564462 
L 291.828056 285.282434 
L 291.95797 289.949262 
L 292.087884 287.530603 
L 292.217798 287.205178 
L 292.347711 286.285837 
L 292.477625 286.78653 
L 292.607539 288.888482 
L 292.867367 285.48864 
L 293.257108 290.514963 
L 293.387022 288.284692 
L 293.646849 290.441559 
L 293.776763 285.479537 
L 293.906677 288.853334 
L 294.036591 288.901318 
L 294.166504 284.748298 
L 294.296418 285.436451 
L 294.426332 290.226467 
L 294.68616 286.955391 
L 294.945987 288.955209 
L 295.075901 289.675634 
L 295.205815 285.971724 
L 295.465642 288.46871 
L 295.72547 288.665985 
L 295.855384 287.00491 
L 295.985297 289.09302 
L 296.115211 283.548204 
L 296.375039 291.264271 
L 296.504953 286.4556 
L 296.634866 288.268187 
L 296.76478 291.650037 
L 297.024608 286.796431 
L 297.154521 288.129223 
L 297.284435 286.883176 
L 297.414349 289.187721 
L 297.544263 288.36026 
L 297.674177 284.930469 
L 297.80409 289.516984 
L 297.934004 288.774806 
L 298.063918 287.014635 
L 298.193832 287.584064 
L 298.453659 289.040703 
L 298.583573 288.48861 
L 298.713487 292.168915 
L 298.973314 286.362447 
L 299.103228 289.562911 
L 299.363056 286.491763 
L 299.49297 286.320626 
L 299.752797 288.720832 
L 300.012625 286.656216 
L 300.272452 290.251504 
L 300.402366 287.675311 
L 300.53228 287.878345 
L 300.662194 288.481913 
L 300.792107 287.9802 
L 300.922021 289.362807 
L 301.051935 289.458877 
L 301.181849 288.506286 
L 301.311763 284.777179 
L 301.57159 288.607175 
L 301.701504 285.706413 
L 301.831418 289.867307 
L 301.961331 289.139619 
L 302.091245 290.748768 
L 302.351073 287.814207 
L 302.480987 288.416115 
L 302.6109 290.292358 
L 302.870728 286.34656 
L 303.000642 287.896307 
L 303.130555 287.831426 
L 303.260469 287.489191 
L 303.390383 288.937447 
L 303.650211 285.735506 
L 303.780124 287.454056 
L 303.910038 291.287303 
L 304.039952 288.645631 
L 304.169866 288.486813 
L 304.29978 290.337922 
L 304.429693 288.25336 
L 304.559607 289.430724 
L 304.689521 287.158146 
L 304.949348 289.153054 
L 305.33909 285.579443 
L 305.598917 288.603301 
L 305.728831 287.578559 
L 305.858745 289.220121 
L 305.988659 286.65362 
L 306.118573 289.652942 
L 306.248486 288.749803 
L 306.3784 289.131238 
L 306.508314 288.955776 
L 306.638228 289.015541 
L 306.768141 287.774203 
L 306.898055 287.897085 
L 307.027969 287.247971 
L 307.41771 289.445329 
L 307.547624 288.197429 
L 307.677538 288.128416 
L 307.807452 287.405649 
L 307.937365 290.679214 
L 308.067279 288.154352 
L 308.197193 289.007176 
L 308.327107 288.712597 
L 308.457021 287.737314 
L 308.586934 288.395395 
L 308.846762 286.44809 
L 308.976676 288.684186 
L 309.10659 287.702639 
L 309.236503 289.244796 
L 309.496331 288.629512 
L 309.626245 289.516856 
L 309.886072 287.446894 
L 310.015986 287.425267 
L 310.405727 291.558478 
L 310.535641 287.531959 
L 310.665555 288.680257 
L 310.795469 286.923116 
L 311.055296 288.399367 
L 311.18521 288.174423 
L 311.315124 289.702943 
L 311.445038 288.921597 
L 311.704865 289.586518 
L 311.964693 287.153096 
L 312.094607 289.087275 
L 312.354434 287.110345 
L 312.484348 286.234541 
L 312.614262 288.717568 
L 312.744175 287.650421 
L 312.874089 288.885397 
L 313.004003 287.25003 
L 313.133917 289.661372 
L 313.263831 287.923557 
L 313.393744 288.284059 
L 313.523658 290.176303 
L 313.9134 287.501838 
L 314.043313 288.49765 
L 314.303141 287.133555 
L 314.433055 289.094842 
L 314.562968 288.66847 
L 314.692882 287.753126 
L 314.822796 289.914319 
L 314.95271 288.366035 
L 315.082624 290.828954 
L 315.342451 288.851398 
L 315.602279 288.767717 
L 315.732193 287.591985 
L 315.862106 288.086248 
L 315.99202 289.97765 
L 316.121934 288.062766 
L 316.251848 287.839369 
L 316.381761 288.553697 
L 316.511675 287.298933 
L 316.771503 289.28752 
L 316.901417 289.385969 
L 317.161244 288.695173 
L 317.291158 287.148718 
L 317.550985 288.776571 
L 317.680899 287.145426 
L 317.810813 289.466286 
L 317.940727 289.608255 
L 318.070641 287.213659 
L 318.330468 289.558572 
L 318.460382 287.208648 
L 318.72021 287.892037 
L 318.850123 288.140821 
L 318.980037 287.664321 
L 319.109951 288.529512 
L 319.239865 288.380518 
L 319.369778 289.536501 
L 319.629606 286.884747 
L 319.75952 289.231687 
L 319.889434 289.088971 
L 320.019347 288.707601 
L 320.149261 288.841059 
L 320.279175 290.014955 
L 320.409089 286.154843 
L 320.668916 290.260661 
L 320.928744 288.743557 
L 321.058658 288.987688 
L 321.188571 289.902638 
L 321.318485 287.940947 
L 321.448399 288.225632 
L 321.578313 288.798777 
L 321.708227 286.983924 
L 321.83814 288.609334 
L 321.968054 287.923685 
L 322.227882 289.952384 
L 322.357795 288.045469 
L 322.487709 290.034188 
L 322.617623 287.969186 
L 322.747537 288.694018 
L 322.877451 287.948238 
L 323.007364 291.107899 
L 323.397106 287.384569 
L 323.52702 288.906153 
L 323.786847 287.345958 
L 324.046675 289.257376 
L 324.176588 288.046912 
L 324.306502 288.552771 
L 324.436416 287.788206 
L 324.56633 288.240205 
L 324.696244 289.538959 
L 324.826157 287.825503 
L 324.956071 290.089419 
L 325.085985 286.493374 
L 325.345813 289.393891 
L 325.475726 289.855908 
L 325.60564 286.413042 
L 325.865468 290.024485 
L 325.995381 288.62584 
L 326.125295 289.395379 
L 326.255209 289.489208 
L 326.385123 289.307594 
L 326.515037 288.563098 
L 326.64495 288.796652 
L 326.774864 287.868861 
L 326.904778 287.797706 
L 327.034692 288.741474 
L 327.164605 288.194872 
L 327.424433 289.866606 
L 327.554347 288.11129 
L 327.684261 290.575632 
L 327.944088 287.390374 
L 328.074002 288.002134 
L 328.203916 289.087026 
L 328.33383 288.102093 
L 328.463743 288.184194 
L 328.593657 288.440334 
L 328.723571 287.950019 
L 328.853485 289.421779 
L 328.983398 289.094776 
L 329.113312 289.224228 
L 329.243226 289.086011 
L 329.37314 288.544311 
L 329.503054 289.132313 
L 330.022709 287.085828 
L 330.152623 289.753847 
L 330.282536 286.851207 
L 330.542364 288.812706 
L 330.672278 290.403127 
L 330.802191 289.402731 
L 331.062019 289.323228 
L 331.191933 288.500407 
L 331.321847 289.422845 
L 331.45176 287.386332 
L 331.581674 289.09574 
L 331.711588 287.958796 
L 331.971415 289.652303 
L 332.231243 287.881006 
L 332.361157 287.77514 
L 332.491071 289.791341 
L 332.620984 290.018582 
L 332.750898 288.139742 
L 332.880812 290.308857 
L 333.010726 288.023908 
L 333.14064 290.488706 
L 333.270553 287.967079 
L 333.400467 289.21689 
L 333.660295 289.02177 
L 333.790208 289.17874 
L 334.17995 287.564865 
L 334.569691 289.658229 
L 334.699605 289.675598 
L 334.829519 289.233303 
L 334.959433 289.620024 
L 335.21926 287.754451 
L 335.349174 288.936863 
L 335.479088 287.06833 
L 335.609001 288.576522 
L 335.738915 288.258554 
L 335.998743 289.524846 
L 336.128657 287.882612 
L 336.25857 287.901282 
L 336.388484 288.693347 
L 336.518398 288.028338 
L 336.648312 288.842513 
L 336.778225 288.495059 
L 336.908139 289.445093 
L 337.038053 288.871461 
L 337.167967 289.487159 
L 337.297881 289.106968 
L 337.687622 286.328473 
L 337.817536 288.219148 
L 337.94745 288.422977 
L 338.337191 289.902398 
L 338.597018 288.985583 
L 338.726932 288.583965 
L 338.98676 289.710583 
L 339.116674 289.339821 
L 339.246587 287.653804 
L 339.376501 288.845693 
L 339.636329 287.951951 
L 339.766242 289.374191 
L 340.02607 287.281233 
L 340.285898 290.685004 
L 340.415811 288.095089 
L 340.545725 289.687529 
L 340.675639 289.354185 
L 340.935467 287.317208 
L 341.06538 288.728101 
L 341.195294 288.824715 
L 341.325208 288.594474 
L 341.455122 289.450211 
L 341.585035 287.596642 
L 341.844863 288.972271 
L 342.104691 289.935625 
L 342.234604 289.81442 
L 342.364518 288.192554 
L 342.494432 288.919543 
L 342.624346 288.631595 
L 342.75426 289.120078 
L 342.884173 287.420391 
L 343.014087 289.523197 
L 343.144001 287.951459 
L 343.273915 288.100964 
L 343.403828 287.945713 
L 343.663656 289.392932 
L 343.79357 288.36248 
L 344.053397 289.286418 
L 344.183311 290.034277 
L 344.313225 289.472168 
L 344.443139 289.461916 
L 344.573052 290.753347 
L 344.83288 286.997281 
L 344.962794 288.970853 
L 345.092708 288.14327 
L 345.352535 288.644036 
L 345.482449 289.547307 
L 345.612363 288.358225 
L 345.742277 290.109624 
L 345.87219 288.554042 
L 346.132018 289.896856 
L 346.391845 288.743401 
L 346.521759 289.680885 
L 346.781587 288.02136 
L 346.911501 290.029132 
L 347.041414 287.245216 
L 347.171328 287.97204 
L 347.301242 289.58593 
L 347.431156 289.698591 
L 347.56107 288.738697 
L 347.690983 289.59927 
L 347.820897 289.504102 
L 348.080725 287.779851 
L 348.340552 289.235616 
L 348.470466 288.71725 
L 348.60038 289.339881 
L 348.730294 289.023569 
L 348.860207 289.401782 
L 349.120035 287.555017 
L 349.249949 289.663173 
L 349.509776 287.090773 
L 349.769604 290.557037 
L 350.029431 288.423821 
L 350.159345 289.265384 
L 350.289259 287.636949 
L 350.419173 288.621736 
L 350.549087 287.70201 
L 350.679 289.392002 
L 350.808914 288.568502 
L 351.068742 289.775535 
L 351.328569 288.955198 
L 351.458483 289.086648 
L 351.588397 290.868319 
L 351.848224 288.010233 
L 352.108052 289.432473 
L 352.36788 288.318131 
L 352.497793 287.823452 
L 352.627707 288.675982 
L 352.757621 288.012358 
L 352.887535 289.751766 
L 353.017448 289.65719 
L 353.147362 289.819157 
L 353.277276 289.160601 
L 353.40719 289.403414 
L 353.537104 288.3279 
L 353.667017 288.332602 
L 354.056759 289.12968 
L 354.186672 288.800533 
L 354.4465 289.583408 
L 354.576414 288.681533 
L 354.706328 288.762122 
L 354.836241 289.616654 
L 354.966155 288.851814 
L 355.096069 290.184375 
L 355.225983 288.119882 
L 355.355897 290.06271 
L 355.48581 288.609804 
L 355.615724 290.215513 
L 355.745638 288.75731 
L 355.875552 288.776892 
L 356.005465 287.908549 
L 356.135379 287.986956 
L 356.265293 289.592525 
L 356.395207 289.020611 
L 356.525121 287.8634 
L 356.655034 288.969045 
L 356.784948 288.718524 
L 357.044776 289.940355 
L 357.17469 288.583228 
L 357.304603 289.571362 
L 357.434517 288.416612 
L 357.564431 289.596686 
L 357.694345 287.861241 
L 357.824258 289.870119 
L 357.954172 288.751816 
L 358.084086 289.518634 
L 358.214 289.141393 
L 358.343914 288.372119 
L 358.473827 288.284318 
L 358.603741 289.791682 
L 358.733655 289.609119 
L 358.863569 287.91222 
L 359.123396 289.399894 
L 359.25331 288.749627 
L 359.383224 289.391697 
L 359.513138 289.191615 
L 359.643051 288.654318 
L 359.772965 289.523907 
L 359.902879 288.875774 
L 360.032793 289.640857 
L 360.162707 288.672117 
L 360.29262 290.302828 
L 360.422534 287.738164 
L 360.552448 289.374271 
L 360.682362 287.686217 
L 361.072103 290.057688 
L 361.202017 289.385363 
L 361.331931 287.542 
L 361.461844 289.910345 
L 361.591758 288.629742 
L 361.851586 289.23739 
L 361.9815 288.238666 
L 362.111413 288.456233 
L 362.241327 289.757999 
L 362.371241 288.613792 
L 362.501155 289.53661 
L 362.631068 289.108816 
L 362.760982 289.194329 
L 363.02081 288.387087 
L 363.150724 287.362068 
L 363.280637 289.606726 
L 363.410551 289.919479 
L 363.540465 288.67665 
L 363.670379 289.221746 
L 363.800292 288.298479 
L 364.06012 289.503134 
L 364.319948 288.872707 
L 364.579775 290.089143 
L 364.839603 287.843684 
L 364.969517 288.977278 
L 365.09943 288.617604 
L 365.229344 289.201615 
L 365.489172 288.949549 
L 365.619085 289.022652 
L 365.748999 289.724457 
L 365.878913 288.932062 
L 366.008827 289.642928 
L 366.138741 289.395496 
L 366.268654 287.989948 
L 366.398568 289.21143 
L 366.658396 288.591474 
L 366.78831 288.87528 
L 366.918223 290.029004 
L 367.178051 288.345893 
L 367.307965 288.603652 
L 367.437878 289.374434 
L 367.567792 289.080297 
L 367.697706 289.853973 
L 367.82762 288.125774 
L 367.957534 289.124359 
L 368.477189 288.965934 
L 368.607102 288.428491 
L 368.86693 290.235056 
L 368.996844 288.475726 
L 369.126758 289.155546 
L 369.256671 288.86185 
L 369.386585 289.5846 
L 369.516499 289.123305 
L 369.776327 289.847764 
L 370.036154 288.281871 
L 370.166068 289.493198 
L 370.295982 288.036775 
L 370.425895 288.531823 
L 370.555809 288.346113 
L 370.685723 289.467053 
L 370.815637 288.823324 
L 370.945551 289.124261 
L 371.075464 288.834173 
L 371.205378 289.821905 
L 371.465206 289.209421 
L 371.59512 289.143933 
L 371.725033 288.946955 
L 371.854947 288.54625 
L 372.114775 289.616506 
L 372.374602 289.175743 
L 372.504516 289.170208 
L 372.63443 288.676697 
L 373.154085 290.353201 
L 373.283999 288.05805 
L 373.67374 289.512242 
L 373.803654 288.612458 
L 373.933568 288.572746 
L 374.063481 289.681326 
L 374.193395 289.379389 
L 374.453223 289.501858 
L 374.583137 289.469641 
L 374.71305 288.533575 
L 374.972878 288.720223 
L 375.102792 289.620992 
L 375.232705 288.824736 
L 375.492533 289.720237 
L 375.752361 288.502068 
L 376.012188 289.657041 
L 376.142102 288.412743 
L 376.272016 288.42417 
L 376.531843 289.773611 
L 376.661757 288.113128 
L 376.791671 288.874048 
L 376.921585 288.770335 
L 377.051498 288.327159 
L 377.181412 288.859144 
L 377.311326 288.575787 
L 377.44124 288.673919 
L 377.571154 289.846875 
L 377.701067 289.014957 
L 377.830981 290.606663 
L 377.960895 288.941462 
L 378.090809 289.323096 
L 378.220722 289.260353 
L 378.350636 289.797088 
L 378.610464 288.449691 
L 378.740378 288.387996 
L 378.870291 288.571938 
L 379.000205 289.353518 
L 379.130119 288.912779 
L 379.389947 289.663877 
L 379.51986 289.878913 
L 379.909602 288.366611 
L 380.039515 289.153511 
L 380.169429 288.966859 
L 380.299343 289.87943 
L 380.429257 288.530737 
L 380.559171 289.780658 
L 380.689084 288.581609 
L 380.818998 288.67139 
L 380.948912 288.243942 
L 381.078826 288.242327 
L 381.208739 289.527762 
L 381.468567 289.152149 
L 381.598481 289.336336 
L 381.728395 289.984952 
L 381.858308 289.003088 
L 382.118136 289.886522 
L 382.24805 288.79861 
L 382.377964 288.860852 
L 382.507877 289.483336 
L 382.897619 287.590212 
L 383.027532 288.78716 
L 383.157446 288.691568 
L 383.28736 288.917974 
L 383.417274 288.813952 
L 383.547188 288.341233 
L 383.677101 289.532677 
L 383.936929 288.802853 
L 384.066843 289.340761 
L 384.32667 288.766147 
L 384.586498 289.067869 
L 384.716412 288.852397 
L 384.976239 289.767092 
L 385.106153 288.660634 
L 385.236067 289.588322 
L 385.365981 289.161353 
L 385.495894 289.813878 
L 385.625808 289.792006 
L 385.755722 288.796794 
L 385.885636 289.366051 
L 386.015549 288.951594 
L 386.145463 289.429026 
L 386.275377 288.962738 
L 386.405291 289.662551 
L 386.535205 289.650094 
L 386.665118 288.586583 
L 386.924946 289.221509 
L 387.05486 288.954274 
L 387.314687 289.55011 
L 387.574515 288.865289 
L 387.704429 289.015443 
L 387.834342 288.433341 
L 387.964256 289.118433 
L 388.224084 288.037837 
L 388.353998 289.469915 
L 388.483911 288.708653 
L 388.743739 288.886759 
L 388.873653 289.987399 
L 389.003567 288.156606 
L 389.263394 288.904989 
L 389.393308 288.685798 
L 389.653135 289.531445 
L 390.042877 288.317279 
L 390.172791 288.682516 
L 390.432618 289.933779 
L 390.562532 288.399759 
L 390.692446 289.907341 
L 390.822359 289.536805 
L 390.952273 289.869187 
L 391.082187 289.854208 
L 391.342015 288.625207 
L 391.471928 288.153449 
L 391.601842 289.706268 
L 391.731756 289.059508 
L 391.86167 289.556818 
L 391.991584 289.231507 
L 392.121497 289.374192 
L 392.251411 290.063507 
L 392.381325 289.640685 
L 392.511239 289.811329 
L 392.771066 289.470004 
L 393.030894 288.314209 
L 393.160808 289.846892 
L 393.290721 289.352851 
L 393.420635 287.929307 
L 393.550549 289.293798 
L 393.680463 288.714891 
L 393.810377 288.732185 
L 394.070204 289.471887 
L 394.200118 289.168069 
L 394.330032 289.298085 
L 394.589859 288.798245 
L 394.719773 288.821155 
L 394.849687 288.27155 
L 395.109514 289.839396 
L 395.239428 288.614907 
L 395.369342 288.623927 
L 395.499256 289.291045 
L 395.629169 289.257261 
L 395.888997 288.026033 
L 396.018911 289.284696 
L 396.148825 288.911998 
L 396.278738 289.431024 
L 396.408652 288.985697 
L 396.538566 289.200103 
L 396.798394 288.693033 
L 397.058221 289.177375 
L 397.188135 289.001533 
L 397.318049 289.667366 
L 397.447962 289.602749 
L 397.70779 288.253089 
L 397.837704 289.516145 
L 398.097531 289.360176 
L 398.227445 289.455366 
L 398.357359 289.329364 
L 398.487273 289.843783 
L 398.487273 289.843783 
" style="fill:none;stroke:#1f77b4;stroke-linecap:square;stroke-width:1.5;"/>
   </g>
   <g id="patch_3">
    <path d="M 57.6 307.584 
L 57.6 41.472 
" style="fill:none;stroke:#000000;stroke-linecap:square;stroke-linejoin:miter;stroke-width:0.8;"/>
   </g>
   <g id="patch_4">
    <path d="M 414.72 307.584 
L 414.72 41.472 
" style="fill:none;stroke:#000000;stroke-linecap:square;stroke-linejoin:miter;stroke-width:0.8;"/>
   </g>
   <g id="patch_5">
    <path d="M 57.6 307.584 
L 414.72 307.584 
" style="fill:none;stroke:#000000;stroke-linecap:square;stroke-linejoin:miter;stroke-width:0.8;"/>
   </g>
   <g id="patch_6">
    <path d="M 57.6 41.472 
L 414.72 41.472 
" style="fill:none;stroke:#000000;stroke-linecap:square;stroke-linejoin:miter;stroke-width:0.8;"/>
   </g>
   <g id="text_19">
    <!-- Remove 50Hz and DC -->
    <defs>
     <path d="M 44.390625 34.1875 
Q 47.5625 33.109375 50.5625 29.59375 
Q 53.5625 26.078125 56.59375 19.921875 
L 66.609375 0 
L 56 0 
L 46.6875 18.703125 
Q 43.0625 26.03125 39.671875 28.421875 
Q 36.28125 30.8125 30.421875 30.8125 
L 19.671875 30.8125 
L 19.671875 0 
L 9.8125 0 
L 9.8125 72.90625 
L 32.078125 72.90625 
Q 44.578125 72.90625 50.734375 67.671875 
Q 56.890625 62.453125 56.890625 51.90625 
Q 56.890625 45.015625 53.6875 40.46875 
Q 50.484375 35.9375 44.390625 34.1875 
z
M 19.671875 64.796875 
L 19.671875 38.921875 
L 32.078125 38.921875 
Q 39.203125 38.921875 42.84375 42.21875 
Q 46.484375 45.515625 46.484375 51.90625 
Q 46.484375 58.296875 42.84375 61.546875 
Q 39.203125 64.796875 32.078125 64.796875 
z
" id="DejaVuSans-82"/>
     <path d="M 30.609375 48.390625 
Q 23.390625 48.390625 19.1875 42.75 
Q 14.984375 37.109375 14.984375 27.296875 
Q 14.984375 17.484375 19.15625 11.84375 
Q 23.34375 6.203125 30.609375 6.203125 
Q 37.796875 6.203125 41.984375 11.859375 
Q 46.1875 17.53125 46.1875 27.296875 
Q 46.1875 37.015625 41.984375 42.703125 
Q 37.796875 48.390625 30.609375 48.390625 
z
M 30.609375 56 
Q 42.328125 56 49.015625 48.375 
Q 55.71875 40.765625 55.71875 27.296875 
Q 55.71875 13.875 49.015625 6.21875 
Q 42.328125 -1.421875 30.609375 -1.421875 
Q 18.84375 -1.421875 12.171875 6.21875 
Q 5.515625 13.875 5.515625 27.296875 
Q 5.515625 40.765625 12.171875 48.375 
Q 18.84375 56 30.609375 56 
z
" id="DejaVuSans-111"/>
     <path d="M 2.984375 54.6875 
L 12.5 54.6875 
L 29.59375 8.796875 
L 46.6875 54.6875 
L 56.203125 54.6875 
L 35.6875 0 
L 23.484375 0 
z
" id="DejaVuSans-118"/>
     <path d="M 34.28125 27.484375 
Q 23.390625 27.484375 19.1875 25 
Q 14.984375 22.515625 14.984375 16.5 
Q 14.984375 11.71875 18.140625 8.90625 
Q 21.296875 6.109375 26.703125 6.109375 
Q 34.1875 6.109375 38.703125 11.40625 
Q 43.21875 16.703125 43.21875 25.484375 
L 43.21875 27.484375 
z
M 52.203125 31.203125 
L 52.203125 0 
L 43.21875 0 
L 43.21875 8.296875 
Q 40.140625 3.328125 35.546875 0.953125 
Q 30.953125 -1.421875 24.3125 -1.421875 
Q 15.921875 -1.421875 10.953125 3.296875 
Q 6 8.015625 6 15.921875 
Q 6 25.140625 12.171875 29.828125 
Q 18.359375 34.515625 30.609375 34.515625 
L 43.21875 34.515625 
L 43.21875 35.40625 
Q 43.21875 41.609375 39.140625 45 
Q 35.0625 48.390625 27.6875 48.390625 
Q 23 48.390625 18.546875 47.265625 
Q 14.109375 46.140625 10.015625 43.890625 
L 10.015625 52.203125 
Q 14.9375 54.109375 19.578125 55.046875 
Q 24.21875 56 28.609375 56 
Q 40.484375 56 46.34375 49.84375 
Q 52.203125 43.703125 52.203125 31.203125 
z
" id="DejaVuSans-97"/>
     <path d="M 19.671875 64.796875 
L 19.671875 8.109375 
L 31.59375 8.109375 
Q 46.6875 8.109375 53.6875 14.9375 
Q 60.6875 21.78125 60.6875 36.53125 
Q 60.6875 51.171875 53.6875 57.984375 
Q 46.6875 64.796875 31.59375 64.796875 
z
M 9.8125 72.90625 
L 30.078125 72.90625 
Q 51.265625 72.90625 61.171875 64.09375 
Q 71.09375 55.28125 71.09375 36.53125 
Q 71.09375 17.671875 61.125 8.828125 
Q 51.171875 0 30.078125 0 
L 9.8125 0 
z
" id="DejaVuSans-68"/>
     <path d="M 64.40625 67.28125 
L 64.40625 56.890625 
Q 59.421875 61.53125 53.78125 63.8125 
Q 48.140625 66.109375 41.796875 66.109375 
Q 29.296875 66.109375 22.65625 58.46875 
Q 16.015625 50.828125 16.015625 36.375 
Q 16.015625 21.96875 22.65625 14.328125 
Q 29.296875 6.6875 41.796875 6.6875 
Q 48.140625 6.6875 53.78125 8.984375 
Q 59.421875 11.28125 64.40625 15.921875 
L 64.40625 5.609375 
Q 59.234375 2.09375 53.4375 0.328125 
Q 47.65625 -1.421875 41.21875 -1.421875 
Q 24.65625 -1.421875 15.125 8.703125 
Q 5.609375 18.84375 5.609375 36.375 
Q 5.609375 53.953125 15.125 64.078125 
Q 24.65625 74.21875 41.21875 74.21875 
Q 47.75 74.21875 53.53125 72.484375 
Q 59.328125 70.75 64.40625 67.28125 
z
" id="DejaVuSans-67"/>
    </defs>
    <g transform="translate(170.695312 35.472)scale(0.12 -0.12)">
     <use xlink:href="#DejaVuSans-82"/>
     <use x="64.982422" xlink:href="#DejaVuSans-101"/>
     <use x="126.505859" xlink:href="#DejaVuSans-109"/>
     <use x="223.917969" xlink:href="#DejaVuSans-111"/>
     <use x="285.099609" xlink:href="#DejaVuSans-118"/>
     <use x="344.279297" xlink:href="#DejaVuSans-101"/>
     <use x="405.802734" xlink:href="#DejaVuSans-32"/>
     <use x="437.589844" xlink:href="#DejaVuSans-53"/>
     <use x="501.212891" xlink:href="#DejaVuSans-48"/>
     <use x="564.835938" xlink:href="#DejaVuSans-72"/>
     <use x="640.03125" xlink:href="#DejaVuSans-122"/>
     <use x="692.521484" xlink:href="#DejaVuSans-32"/>
     <use x="724.308594" xlink:href="#DejaVuSans-97"/>
     <use x="785.587891" xlink:href="#DejaVuSans-110"/>
     <use x="848.966797" xlink:href="#DejaVuSans-100"/>
     <use x="912.443359" xlink:href="#DejaVuSans-32"/>
     <use x="944.230469" xlink:href="#DejaVuSans-68"/>
     <use x="1021.232422" xlink:href="#DejaVuSans-67"/>
    </g>
   </g>
  </g>
 </g>
 <defs>
  <clipPath id="p362e7d4f55">
   <rect height="266.112" width="357.12" x="57.6" y="41.472"/>
  </clipPath>
 </defs>
</svg>
